M48
; DRILL file {KiCad 5.1.9+dfsg1-1+deb11u1} date Wed Oct 19 12:22:01 2022
; FORMAT={-:-/ absolute / metric / decimal}
; #@! TF.CreationDate,2022-10-19T12:22:01+02:00
; #@! TF.GenerationSoftware,Kicad,Pcbnew,5.1.9+dfsg1-1+deb11u1
; #@! TF.FileFunction,Plated,1,6,PTH
FMAT,2
METRIC
T1C0.200
T2C0.300
T3C0.500
T4C1.000
T5C2.200
%
G90
G05
T1
X94.47Y-76.81
X94.47Y-80.8
X94.47Y-106.81
X94.48Y-74.85
X94.48Y-86.81
X94.76Y-110.35
X94.89Y-83.71
X95.13Y-82.91
X95.133Y-84.74
X95.17Y-79.09
X95.65Y-107.53
X95.655Y-91.668
X95.678Y-100.39
X95.69Y-87.13
X95.79Y-95.67
X95.967Y-93.791
X96.05Y-101.77
X96.06Y-99.926
X96.09Y-99.38
X96.15Y-98.3
X96.24Y-91.668
X96.28Y-111.6
X96.299Y-100.723
X96.522Y-93.78
X96.54Y-72.67
X96.669Y-82.58
X96.72Y-85.78
X97.19Y-101.79
X97.65Y-93.73
X97.757Y-91.38
X97.864Y-103.403
X97.87Y-96.57
X97.97Y-78.347
X98.02Y-104.72
X98.16Y-72.51
X98.26Y-88.72
X98.303Y-91.38
X98.42Y-93.74
X99.055Y-103.505
X99.074Y-105.94
X99.46Y-95.97
X99.483Y-104.562
X99.62Y-93.73
X99.7Y-83.74
X99.88Y-100.5
X99.92Y-83.08
X99.957Y-74.03
X99.99Y-98.63
X100.16Y-72.51
X100.193Y-107.267
X100.3Y-104.414
X100.32Y-111.71
X100.43Y-78.43
X100.501Y-83.62
X100.52Y-93.64
X100.638Y-109.599
X100.653Y-77.603
X100.72Y-91.34
X100.75Y-95.641
X100.833Y-106.493
X100.842Y-84.097
X100.94Y-101.81
X100.994Y-109.167
X101.21Y-91.66
X101.23Y-75.6
X101.54Y-105.786
X101.726Y-105.141
X101.916Y-102.652
X101.916Y-103.564
X102.16Y-72.51
X102.18Y-84.0
X102.327Y-77.603
X102.336Y-92.711
X102.51Y-109.359
X102.536Y-78.577
X102.599Y-88.153
X102.665Y-100.991
X102.677Y-87.172
X102.79Y-74.017
X102.862Y-77.713
X102.94Y-87.727
X103.006Y-75.512
X103.06Y-88.75
X103.257Y-108.692
X103.347Y-105.327
X103.545Y-95.315
X103.724Y-87.1
X103.785Y-104.979
X103.867Y-108.137
X103.884Y-106.815
X103.89Y-104.4
X103.89Y-75.03
X103.89Y-86.58
X103.918Y-76.572
X103.943Y-107.358
X104.08Y-102.88
X104.081Y-83.478
X104.112Y-105.761
X104.21Y-73.29
X104.32Y-111.71
X104.331Y-104.918
X104.435Y-78.455
X104.47Y-92.766
X104.518Y-95.377
X104.838Y-110.092
X105.066Y-91.34
X105.107Y-82.427
X105.16Y-108.61
X105.26Y-78.45
X105.758Y-98.785
X106.056Y-106.446
X106.074Y-97.22
X106.245Y-77.984
X106.259Y-100.303
X106.271Y-94.477
X106.352Y-100.859
X106.355Y-111.365
X106.37Y-98.01
X106.456Y-105.743
X106.496Y-93.98
X106.602Y-106.44
X106.71Y-82.86
X106.731Y-78.257
X106.82Y-73.35
X106.862Y-109.803
X106.891Y-100.763
X106.907Y-99.963
X106.956Y-106.855
X107.01Y-79.07
X107.056Y-102.392
X107.283Y-98.157
X107.391Y-93.326
X107.637Y-98.577
X107.656Y-106.25
X107.677Y-95.726
X107.757Y-106.787
X107.909Y-94.314
X108.008Y-109.299
X108.046Y-93.0
X108.048Y-90.092
X108.11Y-82.81
X108.206Y-108.069
X108.59Y-100.45
X108.744Y-107.825
X108.811Y-106.659
X108.82Y-99.825
X108.853Y-108.943
X108.883Y-101.758
X109.003Y-75.98
X109.094Y-111.167
X109.12Y-88.66
X109.136Y-100.328
X109.19Y-97.716
X109.198Y-99.425
X109.22Y-73.511
X109.24Y-96.28
X109.302Y-102.108
X109.31Y-98.624
X109.609Y-101.63
X109.62Y-73.14
X109.99Y-97.461
X109.999Y-100.619
X110.0Y-88.66
X110.01Y-87.03
X110.01Y-87.85
X110.01Y-92.633
X110.039Y-95.862
X110.16Y-72.51
X110.376Y-102.416
X110.708Y-86.084
X110.77Y-90.25
X110.78Y-99.038
X110.78Y-89.42
X110.79Y-94.236
X110.81Y-92.64
X110.81Y-99.85
X110.81Y-100.65
X110.81Y-96.667
X110.811Y-91.007
X110.82Y-97.476
X110.823Y-88.708
X110.841Y-87.839
X110.844Y-95.858
X110.859Y-91.814
X110.916Y-102.497
X111.15Y-72.79
X111.26Y-86.07
X111.573Y-95.855
X111.593Y-88.632
X111.6Y-87.86
X111.61Y-87.008
X111.61Y-98.25
X111.61Y-99.85
X111.61Y-100.65
X111.61Y-94.23
X111.61Y-99.05
X111.611Y-96.61
X111.62Y-91.82
X111.62Y-92.639
X111.631Y-97.45
X111.64Y-91.08
X111.917Y-111.167
X112.09Y-73.35
X112.093Y-108.632
X112.16Y-72.51
X112.193Y-84.887
X112.224Y-102.521
X112.243Y-106.09
X112.275Y-103.086
X112.34Y-93.308
X112.372Y-99.051
X112.376Y-98.251
X112.39Y-95.85
X112.392Y-94.23
X112.41Y-90.24
X112.41Y-99.851
X112.411Y-96.61
X112.417Y-97.45
X112.44Y-91.062
X112.758Y-76.932
X112.87Y-73.7
X112.874Y-76.084
X113.067Y-102.889
X113.16Y-74.28
X113.194Y-101.45
X113.2Y-88.64
X113.2Y-93.422
X113.203Y-91.04
X113.208Y-94.295
X113.21Y-100.65
X113.22Y-92.66
X113.223Y-78.333
X113.23Y-89.47
X113.24Y-95.86
X113.247Y-95.067
X113.255Y-87.84
X113.26Y-75.698
X113.57Y-103.77
X113.609Y-102.952
X113.641Y-83.991
X113.755Y-86.161
X113.866Y-77.549
X113.918Y-100.723
X114.01Y-101.45
X114.01Y-90.26
X114.011Y-93.413
X114.013Y-91.83
X114.015Y-92.66
X114.02Y-88.649
X114.054Y-95.81
X114.087Y-91.073
X114.158Y-74.661
X114.16Y-72.51
X114.177Y-84.191
X114.4Y-73.12
X114.426Y-103.717
X114.438Y-109.727
X114.54Y-75.25
X114.78Y-83.38
X114.81Y-91.05
X114.81Y-94.25
X114.812Y-99.03
X114.815Y-99.88
X114.83Y-89.45
X114.85Y-88.68
X114.9Y-87.888
X114.915Y-74.85
X114.99Y-103.7
X115.478Y-108.405
X115.558Y-77.25
X115.561Y-109.708
X115.57Y-73.12
X115.59Y-89.49
X115.61Y-91.05
X115.61Y-92.65
X115.61Y-95.85
X115.611Y-99.88
X115.613Y-99.03
X115.62Y-87.83
X115.834Y-75.441
X115.863Y-101.817
X116.023Y-108.444
X116.08Y-74.935
X116.137Y-106.334
X116.156Y-86.021
X116.16Y-72.51
X116.174Y-97.686
X116.387Y-101.586
X116.39Y-89.45
X116.41Y-91.05
X116.41Y-95.05
X116.41Y-95.85
X116.41Y-99.88
X116.46Y-108.77
X116.643Y-106.544
X116.693Y-103.458
X116.76Y-109.708
X116.76Y-73.13
X116.774Y-102.76
X117.023Y-75.834
X117.04Y-85.79
X117.14Y-108.616
X117.21Y-87.892
X117.21Y-95.05
X117.21Y-95.85
X117.21Y-101.45
X117.414Y-75.452
X117.49Y-79.36
X117.497Y-85.491
X117.823Y-75.042
X117.98Y-89.462
X117.983Y-102.78
X118.01Y-91.05
X118.01Y-95.05
X118.01Y-95.85
X118.01Y-99.88
X118.01Y-101.45
X118.06Y-79.34
X118.08Y-88.673
X118.104Y-103.754
X118.16Y-72.51
X118.32Y-81.5
X118.68Y-103.82
X118.784Y-99.035
X118.79Y-89.447
X118.795Y-99.88
X118.8Y-91.059
X118.81Y-92.65
X118.81Y-95.85
X118.872Y-108.616
X118.892Y-72.542
X118.91Y-81.39
X119.011Y-109.844
X119.152Y-77.018
X119.19Y-79.837
X119.192Y-104.022
X119.2Y-80.393
X119.278Y-72.928
X119.38Y-108.98
X119.43Y-80.92
X119.481Y-94.25
X119.527Y-91.258
X119.554Y-109.915
X119.56Y-75.296
X119.61Y-89.45
X119.61Y-99.047
X119.627Y-88.667
X119.63Y-99.956
X119.633Y-90.18
X119.674Y-108.494
X119.68Y-97.84
X119.915Y-75.833
X119.969Y-109.552
X120.148Y-72.728
X120.18Y-97.6
X120.206Y-108.618
X120.266Y-77.106
X120.327Y-85.681
X120.343Y-93.46
X120.355Y-109.94
X120.39Y-91.05
X120.394Y-91.85
X120.395Y-92.673
X120.41Y-87.07
X120.41Y-95.85
X120.417Y-87.83
X120.451Y-90.25
X120.5Y-109.41
X120.527Y-75.141
X120.574Y-79.898
X120.602Y-106.445
X120.749Y-108.503
X120.84Y-84.937
X120.93Y-85.742
X120.94Y-107.099
X121.052Y-74.99
X121.16Y-109.91
X121.182Y-94.243
X121.196Y-99.039
X121.198Y-100.654
X121.21Y-91.054
X121.21Y-92.636
X121.214Y-91.812
X121.22Y-89.47
X121.23Y-88.59
X121.23Y-101.421
X121.237Y-93.436
X121.402Y-106.809
X121.481Y-75.327
X121.5Y-72.531
X121.5Y-73.077
X121.56Y-75.932
X121.561Y-102.6
X121.681Y-84.975
X121.686Y-109.764
X121.777Y-84.438
X121.793Y-111.274
X121.87Y-83.605
X121.973Y-100.738
X121.99Y-92.66
X121.99Y-96.65
X121.996Y-99.109
X122.0Y-95.831
X122.0Y-89.47
X122.0Y-90.25
X122.01Y-91.051
X122.01Y-94.223
X122.02Y-95.05
X122.03Y-101.45
X122.031Y-105.571
X122.037Y-93.46
X122.037Y-98.175
X122.052Y-97.36
X122.057Y-108.644
X122.085Y-102.755
X122.339Y-83.181
X122.407Y-72.611
X122.491Y-108.975
X122.696Y-82.62
X122.71Y-106.94
X122.74Y-109.917
X122.741Y-99.826
X122.778Y-90.24
X122.793Y-72.998
X122.8Y-99.081
X122.8Y-89.43
X122.801Y-92.65
X122.803Y-80.251
X122.81Y-95.05
X122.811Y-91.85
X122.812Y-100.68
X122.813Y-91.04
X122.814Y-94.218
X122.834Y-95.862
X122.85Y-96.58
X122.853Y-109.383
X122.874Y-108.457
X122.885Y-102.739
X123.009Y-84.913
X123.012Y-82.174
X123.158Y-81.648
X123.208Y-102.288
X123.399Y-109.386
X123.541Y-99.828
X123.56Y-91.06
X123.58Y-90.25
X123.587Y-88.647
X123.6Y-94.202
X123.605Y-86.298
X123.605Y-92.613
X123.61Y-95.008
X123.62Y-87.06
X123.62Y-87.86
X123.62Y-93.43
X123.626Y-89.428
X123.63Y-98.265
X123.64Y-95.852
X123.65Y-100.63
X123.663Y-74.994
X123.681Y-84.657
X123.683Y-79.951
X123.794Y-109.785
X123.836Y-82.135
X123.96Y-73.22
X124.0Y-83.196
X124.05Y-75.379
X124.151Y-84.935
X124.182Y-109.0
X124.27Y-102.487
X124.272Y-106.88
X124.373Y-111.13
X124.386Y-100.639
X124.391Y-108.439
X124.41Y-93.48
X124.41Y-101.48
X124.415Y-83.596
X124.44Y-87.09
X124.45Y-92.652
X124.459Y-75.74
X124.55Y-102.018
X124.69Y-109.31
X124.747Y-107.157
X124.82Y-86.69
X124.85Y-108.735
X124.859Y-75.133
X124.918Y-109.857
X125.07Y-72.49
X125.09Y-111.13
X125.16Y-73.2
X125.16Y-103.73
X125.362Y-93.052
X125.395Y-75.028
X125.43Y-86.29
X125.542Y-106.901
X125.636Y-111.214
X125.64Y-81.12
X125.761Y-75.788
X125.801Y-93.454
X125.876Y-92.4
X125.973Y-90.563
X125.978Y-96.944
X125.98Y-109.87
X125.994Y-80.188
X126.001Y-108.356
X126.041Y-107.123
X126.073Y-74.982
X126.09Y-89.14
X126.305Y-75.838
X126.307Y-81.067
X126.36Y-73.21
X126.393Y-92.207
X126.53Y-74.466
X126.532Y-108.485
X126.58Y-88.378
X126.673Y-96.946
X126.74Y-90.27
X126.77Y-95.16
X127.07Y-72.49
X127.078Y-108.392
X127.086Y-74.381
X127.16Y-109.92
X127.24Y-81.05
X127.26Y-101.54
X127.451Y-75.43
X127.51Y-111.2
X127.52Y-77.16
X127.526Y-93.155
X127.54Y-94.7
X127.55Y-73.1
X127.747Y-93.899
X127.86Y-79.85
X127.86Y-101.57
X127.868Y-74.394
X128.015Y-91.39
X128.055Y-93.017
X128.062Y-103.488
X128.23Y-111.2
X128.261Y-94.094
X128.443Y-109.896
X128.475Y-74.436
X128.51Y-81.723
X128.61Y-100.8
X128.71Y-102.78
X128.71Y-103.4
X128.712Y-94.402
X128.74Y-107.19
X128.76Y-73.11
X128.879Y-75.873
X128.922Y-81.285
X129.03Y-74.428
X129.07Y-72.49
X129.08Y-79.54
X129.14Y-101.12
X129.38Y-80.427
X129.38Y-80.973
X129.42Y-111.62
X129.52Y-101.59
X129.55Y-102.965
X129.626Y-74.476
X129.628Y-109.84
X129.64Y-108.741
X129.658Y-102.322
X129.96Y-73.13
X129.973Y-75.147
X130.01Y-79.68
X130.194Y-75.78
X130.226Y-74.57
X130.25Y-81.41
X130.324Y-109.23
X130.364Y-110.06
X130.52Y-80.09
X130.74Y-75.78
X130.776Y-74.356
X131.047Y-105.167
X131.07Y-72.49
X131.07Y-107.12
X131.11Y-77.13
X131.17Y-73.1
X131.18Y-111.64
X131.181Y-109.768
X131.288Y-108.456
X131.537Y-86.62
X131.62Y-88.103
X131.63Y-74.73
X131.663Y-79.686
X131.78Y-91.772
X131.825Y-107.123
X131.88Y-103.0
X132.093Y-80.022
X132.177Y-80.837
X132.296Y-74.486
X132.35Y-73.13
X132.4Y-75.92
X132.47Y-87.82
X132.498Y-91.758
X132.5Y-92.59
X132.563Y-81.223
X132.69Y-108.84
X132.75Y-106.923
X132.87Y-111.67
X133.07Y-72.49
X133.17Y-108.487
X133.3Y-87.85
X133.445Y-80.847
X133.45Y-102.86
X133.451Y-81.393
X133.535Y-77.047
X133.65Y-82.6
X133.84Y-81.81
X133.844Y-109.158
X133.95Y-109.86
X134.04Y-75.85
X134.08Y-87.84
X134.09Y-91.78
X134.165Y-108.69
X134.415Y-82.31
X134.87Y-87.82
X134.89Y-91.82
X135.05Y-74.05
X135.237Y-76.312
X135.46Y-73.66
X135.653Y-87.805
X135.66Y-76.67
X135.7Y-91.841
X135.72Y-110.87
X135.93Y-79.95
X136.55Y-72.56
X136.81Y-111.66
X137.053Y-99.164
X137.39Y-94.62
X137.49Y-108.25
X137.78Y-99.164
X138.53Y-107.3
X138.66Y-111.11
X138.68Y-110.51
X138.8Y-93.23
X138.95Y-86.61
X139.2Y-107.865
X139.265Y-103.109
X139.3Y-104.99
X139.409Y-93.007
X139.925Y-103.965
X140.07Y-72.49
X140.132Y-93.01
X140.22Y-82.83
X140.331Y-83.443
X140.47Y-108.66
X140.49Y-109.23
X140.795Y-78.717
X140.98Y-109.638
X140.98Y-110.184
X141.183Y-78.317
X141.52Y-74.127
X141.52Y-74.673
X141.55Y-76.493
X141.557Y-75.938
X141.741Y-93.732
X141.85Y-93.111
X141.888Y-94.328
X141.92Y-83.68
X142.07Y-72.49
X142.18Y-77.62
X142.837Y-86.564
X142.98Y-96.92
X143.339Y-79.445
X143.37Y-88.968
X144.07Y-72.49
X144.153Y-87.393
X144.198Y-86.663
X144.32Y-111.76
X144.815Y-83.074
X146.39Y-78.49
X146.49Y-89.92
X147.16Y-72.68
X148.37Y-110.57
X148.87Y-75.69
X148.87Y-78.24
X148.87Y-80.24
X148.87Y-82.24
X148.87Y-84.24
X148.87Y-86.24
X148.87Y-88.24
X148.87Y-90.24
X148.87Y-92.24
X148.87Y-94.24
X148.87Y-96.24
X148.87Y-108.24
T2
X96.89Y-78.09
X98.41Y-81.67
X98.44Y-82.49
X98.99Y-78.2
X99.18Y-88.885
X100.033Y-82.294
X101.326Y-110.565
X104.161Y-84.542
X104.818Y-86.58
X122.633Y-103.6
X135.42Y-96.28
X135.71Y-104.2
X136.047Y-95.317
X136.55Y-84.477
X139.42Y-95.39
X139.795Y-96.34
X139.825Y-94.841
X140.269Y-107.884
X140.29Y-95.39
X140.575Y-104.515
X140.84Y-81.32
X141.569Y-106.639
X141.573Y-98.763
X141.575Y-104.14
X141.575Y-104.89
X142.525Y-104.515
X147.608Y-94.517
T3
X96.24Y-102.84
X96.24Y-103.84
X96.24Y-104.84
X96.24Y-105.84
X97.24Y-102.84
X97.24Y-103.84
X97.24Y-104.84
X97.24Y-105.84
X138.1Y-73.07
X138.1Y-74.07
X138.1Y-75.07
X138.1Y-76.07
X138.1Y-77.07
X138.1Y-78.07
X138.1Y-79.07
T4
X148.17Y-98.41
X148.17Y-100.95
X148.17Y-103.49
X148.17Y-106.03
T5
X97.62Y-108.724
X97.62Y-75.645
X145.62Y-75.645
X145.62Y-108.72
T0
M30
