G04 #@! TF.GenerationSoftware,KiCad,Pcbnew,5.1.9+dfsg1-1+deb11u1*
G04 #@! TF.CreationDate,2022-10-19T12:21:59+02:00*
G04 #@! TF.ProjectId,ulx4m,756c7834-6d2e-46b6-9963-61645f706362,v0.0.3*
G04 #@! TF.SameCoordinates,Original*
G04 #@! TF.FileFunction,Copper,L3,Inr*
G04 #@! TF.FilePolarity,Positive*
%FSLAX46Y46*%
G04 Gerber Fmt 4.6, Leading zero omitted, Abs format (unit mm)*
G04 Created by KiCad (PCBNEW 5.1.9+dfsg1-1+deb11u1) date 2022-10-19 12:21:59*
%MOMM*%
%LPD*%
G01*
G04 APERTURE LIST*
G04 #@! TA.AperFunction,ComponentPad*
%ADD10R,0.850000X0.850000*%
G04 #@! TD*
G04 #@! TA.AperFunction,ComponentPad*
%ADD11O,0.850000X0.850000*%
G04 #@! TD*
G04 #@! TA.AperFunction,ComponentPad*
%ADD12O,1.700000X1.700000*%
G04 #@! TD*
G04 #@! TA.AperFunction,ComponentPad*
%ADD13R,1.700000X1.700000*%
G04 #@! TD*
G04 #@! TA.AperFunction,ComponentPad*
%ADD14C,3.300000*%
G04 #@! TD*
G04 #@! TA.AperFunction,ViaPad*
%ADD15C,0.419000*%
G04 #@! TD*
G04 #@! TA.AperFunction,ViaPad*
%ADD16C,0.600000*%
G04 #@! TD*
G04 #@! TA.AperFunction,ViaPad*
%ADD17C,0.420000*%
G04 #@! TD*
G04 #@! TA.AperFunction,Conductor*
%ADD18C,0.127000*%
G04 #@! TD*
G04 #@! TA.AperFunction,Conductor*
%ADD19C,0.300000*%
G04 #@! TD*
G04 APERTURE END LIST*
D10*
X96240000Y-102840000D03*
D11*
X97240000Y-102840000D03*
X96240000Y-103840000D03*
X97240000Y-103840000D03*
X96240000Y-104840000D03*
X97240000Y-104840000D03*
X96240000Y-105840000D03*
X97240000Y-105840000D03*
D10*
X138100000Y-79070000D03*
D11*
X138100000Y-78070000D03*
X138100000Y-77070000D03*
X138100000Y-76070000D03*
X138100000Y-75070000D03*
X138100000Y-74070000D03*
X138100000Y-73070000D03*
D12*
X148170000Y-106030000D03*
X148170000Y-103490000D03*
X148170000Y-100950000D03*
D13*
X148170000Y-98410000D03*
D14*
X97620000Y-75644999D03*
X145620000Y-75645000D03*
X145620000Y-108720000D03*
X97619999Y-108723599D03*
D15*
X116410000Y-95050000D03*
X114810000Y-91050000D03*
X118010000Y-95050000D03*
X115610000Y-91050001D03*
X120410000Y-95850001D03*
X118010000Y-101450000D03*
X116410000Y-95850001D03*
X118010000Y-95850000D03*
X117210000Y-101450000D03*
X113209975Y-100650000D03*
D16*
X98990000Y-78200000D03*
X98410000Y-81670000D03*
D17*
X139300000Y-104990000D03*
D16*
X141575000Y-104140000D03*
D17*
X139200001Y-107865000D03*
D16*
X141575000Y-104890000D03*
X140575006Y-104515000D03*
X142525000Y-104515000D03*
D15*
X119680000Y-97840000D03*
X130250000Y-81410000D03*
X125993833Y-80187554D03*
X115570000Y-73120000D03*
X112870000Y-73700000D03*
X103890000Y-75030000D03*
X116760000Y-73130000D03*
D17*
X127550000Y-73100000D03*
X128760000Y-73110000D03*
X129960000Y-73130000D03*
X131170000Y-73100000D03*
X132350000Y-73130000D03*
D15*
X117210000Y-95050010D03*
X117210000Y-95850021D03*
X119610000Y-99047148D03*
D16*
X140268781Y-107883781D03*
D15*
X131110000Y-77130000D03*
D17*
X135050000Y-74050000D03*
X121559621Y-75931519D03*
D15*
X115557990Y-77250000D03*
X112192850Y-84887150D03*
X120574021Y-79898485D03*
X119152018Y-77018102D03*
D17*
X123960000Y-73220000D03*
X126360000Y-73210000D03*
X125160000Y-73200000D03*
D15*
X111593452Y-88632074D03*
X114054015Y-95810010D03*
X120265979Y-77105670D03*
X144070000Y-72490000D03*
X147160000Y-72680000D03*
X148870000Y-78240000D03*
X148870000Y-82240000D03*
X148870000Y-84240000D03*
X148870000Y-80240000D03*
X148870000Y-86240000D03*
X148870000Y-88240000D03*
X148870000Y-94240000D03*
X148870000Y-90240000D03*
X148870000Y-92240000D03*
X148870000Y-96240000D03*
X148870000Y-108240000D03*
X148370000Y-110570000D03*
X140070000Y-72490000D03*
X142070000Y-72490000D03*
X136550000Y-72560000D03*
X133070000Y-72490000D03*
X131070000Y-72490000D03*
X129070000Y-72490000D03*
X127070000Y-72490000D03*
X125070000Y-72490000D03*
X118160000Y-72510000D03*
X116160000Y-72510000D03*
X112160000Y-72510000D03*
X114160000Y-72510000D03*
X110160000Y-72510000D03*
X98160000Y-72510000D03*
X100160000Y-72510000D03*
X102160000Y-72510000D03*
X144320000Y-111760000D03*
X136810000Y-111660000D03*
X132870000Y-111670000D03*
X129420000Y-111620000D03*
X104320000Y-111710000D03*
X100320000Y-111710000D03*
X96280000Y-111600000D03*
X94760000Y-110350000D03*
X96540000Y-72670000D03*
X94480000Y-74850000D03*
X94470000Y-76810000D03*
X94470000Y-80800000D03*
X94480000Y-86810000D03*
X94470000Y-106810000D03*
X122030076Y-101450000D03*
X121230065Y-101421213D03*
X133450000Y-102860000D03*
X131180000Y-111640000D03*
X95650000Y-107530000D03*
X135720000Y-110870000D03*
D16*
X139420000Y-95390000D03*
X139795001Y-96340001D03*
D17*
X140331032Y-83442633D03*
D15*
X139409110Y-93006979D03*
D16*
X139825170Y-94840633D03*
D17*
X144815000Y-83073543D03*
D15*
X123620000Y-87860000D03*
X111610000Y-98250000D03*
X111610000Y-99850000D03*
X113193569Y-101450000D03*
X114009994Y-101450000D03*
D17*
X117497165Y-85490542D03*
D16*
X98440000Y-82490000D03*
D17*
X100430000Y-78430000D03*
D15*
X95170000Y-79090000D03*
X107010000Y-79070000D03*
X111150000Y-72790000D03*
X120417141Y-87829990D03*
D17*
X117022804Y-75833604D03*
D16*
X100033076Y-82294348D03*
D17*
X100500511Y-83620000D03*
D15*
X121972637Y-100738338D03*
X120147537Y-72727537D03*
X123008978Y-84913277D03*
X113918318Y-100723243D03*
D16*
X147607510Y-94516524D03*
D17*
X132750000Y-106922544D03*
X139265155Y-103109490D03*
D15*
X127240000Y-81050000D03*
X124410000Y-101480000D03*
X110010284Y-92632613D03*
X110039101Y-95862355D03*
X114010947Y-93413490D03*
D17*
X105065542Y-91340151D03*
X112092886Y-108632479D03*
D15*
X115477955Y-108404789D03*
X117139690Y-108615969D03*
X143339148Y-79444848D03*
X144197774Y-86662698D03*
X120343490Y-93459990D03*
X121236501Y-93436500D03*
D16*
X99180000Y-88885479D03*
D15*
X104435274Y-78454726D03*
X106820000Y-73350000D03*
X112090000Y-73350000D03*
X104210000Y-73290000D03*
X106730952Y-78256510D03*
X114780000Y-83380010D03*
D16*
X140840000Y-81319998D03*
D15*
X97970000Y-78346510D03*
D17*
X102327012Y-77603030D03*
D15*
X102535600Y-78576541D03*
X100653488Y-77602530D03*
X103918163Y-76571905D03*
D17*
X141920000Y-83680000D03*
D15*
X119630010Y-99955717D03*
X115612967Y-99029990D03*
X114812027Y-99029990D03*
X118795189Y-99880010D03*
X118783654Y-99034990D03*
X115610833Y-99880010D03*
X118010000Y-99880010D03*
X114814502Y-99880010D03*
X124385511Y-100639236D03*
X118800089Y-91058829D03*
X119527022Y-91258188D03*
X123629990Y-98265009D03*
X121197813Y-100654263D03*
X121989989Y-92660010D03*
X122812873Y-91040382D03*
X123605492Y-92612534D03*
D16*
X140290000Y-95390000D03*
D15*
X142836850Y-86563999D03*
D16*
X141572943Y-98763106D03*
D15*
X137780001Y-99164021D03*
X137052762Y-99164021D03*
X114158125Y-74660806D03*
X114020010Y-88649099D03*
X111639708Y-91079709D03*
X114086510Y-91072804D03*
X148870000Y-75690000D03*
X141740798Y-93731901D03*
X132470000Y-87820000D03*
X134080000Y-87840000D03*
X134090000Y-91780000D03*
X132500000Y-92590000D03*
X135700240Y-91841308D03*
X134870000Y-87819998D03*
D16*
X136046843Y-95316843D03*
D15*
X137390000Y-94620000D03*
X134414881Y-82309990D03*
X138800000Y-93230000D03*
X131780001Y-91772112D03*
X146490000Y-89920000D03*
X133170149Y-108486618D03*
X123650010Y-100630011D03*
X128740010Y-107190000D03*
X122874206Y-108456509D03*
X126001451Y-108355750D03*
X127078163Y-108392261D03*
X120748640Y-108503200D03*
X128443222Y-109896104D03*
X124391286Y-108438586D03*
X125980004Y-109870000D03*
X127159998Y-109920000D03*
X120389990Y-91049978D03*
X121210010Y-92636489D03*
D17*
X133535352Y-77047457D03*
D15*
X124459473Y-75740000D03*
D17*
X126305479Y-75837774D03*
X127520000Y-77160000D03*
X128879164Y-75872588D03*
D15*
X129972850Y-75147150D03*
X99990000Y-98630000D03*
X99880000Y-100500000D03*
X100750469Y-95640640D03*
X103545000Y-95315000D03*
X101915979Y-102652462D03*
X101915979Y-103564318D03*
X100300006Y-104414305D03*
X99054617Y-103505082D03*
X132400000Y-75920000D03*
X120500000Y-109410000D03*
X122740129Y-109917376D03*
X115560706Y-109707957D03*
X114438212Y-109726555D03*
X116759934Y-109707957D03*
X102509976Y-109358653D03*
D17*
X108206198Y-108069213D03*
D15*
X124918206Y-109857494D03*
X109219671Y-73511302D03*
X96050000Y-101770000D03*
X139925000Y-103964999D03*
X141887925Y-94327925D03*
X146390000Y-78490000D03*
D16*
X96890000Y-78090000D03*
D15*
X99700000Y-83740000D03*
D17*
X122802863Y-80251468D03*
D16*
X141568544Y-106638544D03*
D15*
X131180724Y-109768032D03*
X109003488Y-75980000D03*
X140220000Y-82830000D03*
D16*
X135420000Y-96280002D03*
D15*
X130364078Y-110059758D03*
X129628190Y-109840010D03*
D17*
X135930000Y-79950000D03*
D16*
X101326456Y-110565478D03*
D15*
X138530000Y-107300000D03*
X105106511Y-82427487D03*
X120180000Y-97600000D03*
D17*
X117209999Y-87891711D03*
D15*
X122812499Y-100680003D03*
D16*
X104817990Y-86580000D03*
X104161112Y-84541926D03*
D15*
X112411355Y-96609990D03*
X114010000Y-90260000D03*
X121209979Y-91054436D03*
X105260000Y-78450000D03*
X101230000Y-75600000D03*
X116410000Y-99880010D03*
X109608549Y-101630154D03*
X106258723Y-100303102D03*
X107656055Y-106250350D03*
X108744480Y-107825092D03*
X108882513Y-101758033D03*
X109999482Y-100618984D03*
X106352495Y-100859294D03*
X108819929Y-99824761D03*
X106906974Y-99963219D03*
X108810842Y-106659209D03*
X107756819Y-106786983D03*
X110809990Y-99850010D03*
X106891194Y-100763230D03*
X110375717Y-102415748D03*
X110915675Y-102496831D03*
X110809990Y-100650021D03*
X111260000Y-86070000D03*
X108110000Y-82810000D03*
X106710000Y-82860000D03*
X110708027Y-86083728D03*
X104081238Y-83478415D03*
X110010000Y-87029990D03*
X110841017Y-87839483D03*
X103890000Y-86580000D03*
X102180000Y-83999990D03*
X113755366Y-86160991D03*
X112439913Y-91061566D03*
X113255415Y-87840497D03*
X116410000Y-91050000D03*
X114012673Y-91829990D03*
X114015168Y-92659723D03*
X112758157Y-76932458D03*
X106244999Y-77983928D03*
X99956510Y-74030219D03*
X102790000Y-74016510D03*
X127867862Y-74394352D03*
X129380000Y-80973000D03*
X121777258Y-84437859D03*
X129380000Y-80427000D03*
X121681394Y-84975382D03*
X128475224Y-74436014D03*
X129029802Y-74427745D03*
X123587150Y-88647150D03*
X124150701Y-84935150D03*
X130010000Y-79680000D03*
X122800010Y-89429990D03*
X123680795Y-84657091D03*
X130520000Y-80090000D03*
X129626449Y-74476090D03*
X130226011Y-74569891D03*
X132176959Y-80836959D03*
X122778042Y-90240371D03*
X132563041Y-81223041D03*
X123559997Y-91059979D03*
X130776096Y-74355834D03*
X131630498Y-74729502D03*
X133444979Y-80847440D03*
X125361966Y-93052020D03*
X125800954Y-93453923D03*
X133450862Y-81393420D03*
X132295926Y-74485541D03*
X118010000Y-91050000D03*
X116174187Y-97685806D03*
D17*
X112242994Y-106089668D03*
D15*
X120601740Y-106444857D03*
X108047538Y-90092462D03*
X123683168Y-79951132D03*
X131880000Y-103000000D03*
X95690000Y-87130000D03*
X131046916Y-105167021D03*
X100192893Y-107267107D03*
X111610010Y-99050000D03*
X110779990Y-99038357D03*
D17*
X109989717Y-97460510D03*
D15*
X113247467Y-95067458D03*
X106496120Y-93979880D03*
X107056446Y-102391521D03*
X101725662Y-105140588D03*
X108590000Y-100450000D03*
D17*
X113160000Y-74280000D03*
D15*
X117980087Y-89461566D03*
X103006471Y-75512230D03*
X113866162Y-77548651D03*
X133300000Y-87850000D03*
X134890000Y-91820000D03*
X132498196Y-91758167D03*
X135652534Y-87805492D03*
D16*
X136550000Y-84477018D03*
D15*
X138950000Y-86610000D03*
X131619935Y-88103439D03*
X131536930Y-86619509D03*
D17*
X131824936Y-107123472D03*
X131070000Y-107120000D03*
D15*
X121181934Y-94243141D03*
X120395464Y-92672984D03*
X120393585Y-91849990D03*
X102665197Y-100990503D03*
X99460000Y-95970000D03*
X95790000Y-95670000D03*
D17*
X108853010Y-108943237D03*
D15*
X109620000Y-73140000D03*
X142180000Y-77620000D03*
X112873894Y-76084169D03*
X113259976Y-75698087D03*
X121051689Y-74989885D03*
X121481204Y-75327000D03*
X123662937Y-74993675D03*
X124050161Y-75378625D03*
X124859483Y-75133165D03*
X125395309Y-75028192D03*
X126530381Y-74465979D03*
X127085567Y-74380875D03*
X113230000Y-89470000D03*
X113640733Y-83990925D03*
X114900021Y-87887893D03*
X113203490Y-91040000D03*
X114176688Y-84190891D03*
X134040000Y-75850000D03*
X135460000Y-73660000D03*
X96240000Y-91667957D03*
X114915368Y-74849980D03*
X95654740Y-91667957D03*
X114540000Y-75249990D03*
X98303000Y-91380000D03*
X116080135Y-74934939D03*
X115834378Y-75440696D03*
X97757000Y-91380000D03*
X117823448Y-75042252D03*
X101210000Y-91660000D03*
X117413882Y-75451870D03*
X100720000Y-91340000D03*
X100520000Y-93640002D03*
X112223708Y-102521150D03*
X115863138Y-101816862D03*
X117982941Y-102779739D03*
X122884798Y-102738649D03*
X141557261Y-75937946D03*
X140980000Y-110184494D03*
X116774116Y-102759523D03*
X96522067Y-93779990D03*
X98420000Y-93740000D03*
X113066855Y-102889355D03*
X114425908Y-103716772D03*
X141183041Y-78316959D03*
X124270010Y-102486919D03*
X140490000Y-109230000D03*
X118680000Y-103820000D03*
X121561180Y-102600014D03*
X141520000Y-74127000D03*
X116693445Y-103457513D03*
X95967081Y-93790931D03*
X97650000Y-93730000D03*
X113609275Y-102951881D03*
X114990000Y-103700000D03*
X124549672Y-102017965D03*
X140794802Y-78716969D03*
X140470000Y-108660000D03*
X119192070Y-104022346D03*
X122084787Y-102754821D03*
X141520000Y-74673000D03*
X99620000Y-93730000D03*
X112274971Y-103086112D03*
X116387311Y-101586415D03*
X118104021Y-103754042D03*
X123207730Y-102287671D03*
X141550000Y-76493000D03*
X140980000Y-109638494D03*
X103785466Y-104979024D03*
X97863847Y-103403308D03*
D17*
X120354624Y-109939745D03*
D15*
X104837538Y-110092462D03*
X103347433Y-105326867D03*
X98020000Y-104720000D03*
D17*
X119969199Y-109551584D03*
D15*
X110789990Y-94235535D03*
X107282681Y-98156980D03*
X103889990Y-104400000D03*
X99482555Y-104561968D03*
D17*
X119553618Y-109915113D03*
D15*
X110843671Y-95858032D03*
X107637160Y-98576545D03*
X104331258Y-104918437D03*
X99074021Y-105940000D03*
D17*
X119011242Y-109844041D03*
D15*
X114400000Y-73120000D03*
X117040000Y-85790000D03*
X119430000Y-80920000D03*
X116155979Y-86021087D03*
X119915497Y-75833497D03*
X119560120Y-75295581D03*
X120527010Y-75141017D03*
X121500000Y-72531495D03*
X121500000Y-73077495D03*
X119277792Y-72928290D03*
X122406959Y-72611455D03*
X122793041Y-72997537D03*
X118891710Y-72542208D03*
X125640000Y-81120000D03*
X126307150Y-81067150D03*
X125761199Y-75788432D03*
X126072603Y-74981696D03*
X130194021Y-75780000D03*
X127451190Y-75430122D03*
X121870000Y-83605453D03*
X123835892Y-82134662D03*
X120839990Y-84936713D03*
X130740034Y-75780000D03*
X127860000Y-79850000D03*
X128510000Y-81722541D03*
X123012114Y-82174060D03*
X129080000Y-79540000D03*
X128922063Y-81284986D03*
X123157845Y-81647855D03*
X131288056Y-108456175D03*
X120450937Y-90249967D03*
X113207711Y-94295039D03*
X109301720Y-102107882D03*
X122030707Y-105571485D03*
X116459990Y-108770322D03*
X100637659Y-109598882D03*
X116022592Y-108443502D03*
X100994252Y-109166963D03*
X116643221Y-106544295D03*
X103942787Y-107358488D03*
X116137267Y-106334346D03*
X103884283Y-106815106D03*
X115620000Y-87830000D03*
X113222653Y-78332653D03*
X110770000Y-90250000D03*
X98260000Y-88720000D03*
X96720000Y-85780000D03*
X94890000Y-83710000D03*
X110780000Y-89420000D03*
X103060000Y-88750000D03*
X122020000Y-95050000D03*
X129140000Y-101120000D03*
X126041173Y-107123488D03*
X122052437Y-97360000D03*
X128610000Y-100800000D03*
X125542113Y-106901050D03*
X122850000Y-96580000D03*
X129520000Y-101590000D03*
X125090000Y-111129990D03*
X121990000Y-96650000D03*
X127260000Y-101540000D03*
X124747234Y-107156927D03*
X121999990Y-95830548D03*
X127860000Y-101570000D03*
X124373277Y-111129990D03*
X113240000Y-95860000D03*
X123794152Y-109785173D03*
X112390000Y-95850000D03*
X123399443Y-109385502D03*
X111610841Y-96609990D03*
X122853436Y-109383255D03*
X112417020Y-97450010D03*
X122490639Y-108975202D03*
X111630616Y-97449900D03*
X122056682Y-108643826D03*
X110820034Y-97475941D03*
X121686107Y-109763915D03*
X109189904Y-97716024D03*
X120205546Y-108617780D03*
X109310171Y-98624399D03*
X119673661Y-108494384D03*
X119380000Y-108980000D03*
X109197809Y-99424751D03*
X118871745Y-108615712D03*
X109135948Y-100328324D03*
X131662841Y-79686311D03*
X135660000Y-76670000D03*
X132093213Y-80022330D03*
X135237467Y-76312305D03*
X124272236Y-106880000D03*
X122036750Y-98175143D03*
X111610000Y-87007538D03*
X117490000Y-79360000D03*
X111600000Y-87860000D03*
X118060000Y-79340000D03*
X113200000Y-88640000D03*
X118320000Y-81500000D03*
X112410000Y-90240000D03*
X118910000Y-81390000D03*
X119190000Y-79837000D03*
X110810872Y-91006560D03*
X119199850Y-80392850D03*
X110858618Y-91813694D03*
X124820000Y-86690000D03*
X123604916Y-86298217D03*
X120327031Y-85681424D03*
X119627468Y-88667457D03*
X124000000Y-83195969D03*
X122696355Y-82619510D03*
X118079802Y-88672865D03*
X124440000Y-87090000D03*
X123619990Y-87060000D03*
X120930459Y-85741874D03*
X119610000Y-89450000D03*
X124414634Y-83595979D03*
X122339119Y-83181301D03*
X118790010Y-89446858D03*
X137490000Y-108250000D03*
X133843788Y-109158087D03*
X122799751Y-99081316D03*
X128709990Y-102780000D03*
X130323697Y-109229990D03*
X122741452Y-99825960D03*
X129639859Y-108741076D03*
X128709990Y-103400000D03*
X110809990Y-92640476D03*
X124182239Y-109000000D03*
X111573467Y-95855379D03*
X112392018Y-94229990D03*
X122710192Y-106940000D03*
X105758032Y-98785477D03*
X106456064Y-105743229D03*
X106355388Y-111364612D03*
X110810010Y-96666680D03*
X121402158Y-106809477D03*
X104470000Y-92765979D03*
X107908670Y-94314087D03*
X107677487Y-95725672D03*
X121160000Y-109910000D03*
X120939520Y-107099468D03*
X109239540Y-96280000D03*
X104111588Y-105761084D03*
X110010000Y-87850000D03*
X103723591Y-87100036D03*
X100842278Y-84096644D03*
X110000000Y-88660000D03*
X102676714Y-87171789D03*
X99920000Y-83080000D03*
X109120000Y-88660000D03*
X102939906Y-87727340D03*
X96669208Y-82579941D03*
X110822977Y-88707531D03*
X102598546Y-88153488D03*
X95130000Y-82910000D03*
X95133490Y-84740000D03*
X106862118Y-109802568D03*
X108007766Y-109299226D03*
X111620000Y-91820000D03*
X96090000Y-99380000D03*
X114830000Y-89450000D03*
X97869990Y-96570000D03*
X111610010Y-94230000D03*
X106370000Y-98010000D03*
X96059533Y-99926086D03*
X113220000Y-92660000D03*
X102335811Y-92710928D03*
X96150000Y-98300000D03*
X113200000Y-93422028D03*
X95678032Y-100390000D03*
X112339851Y-93308452D03*
X96299007Y-100723270D03*
X111620010Y-92639478D03*
X104518011Y-95377372D03*
X123610176Y-95007737D03*
X133650000Y-82600000D03*
X123600000Y-94201766D03*
X133840000Y-81810000D03*
X116390000Y-89450000D03*
X115590000Y-89490000D03*
X114850000Y-88680000D03*
X121230000Y-88590000D03*
X122000000Y-89470000D03*
X144152850Y-87392850D03*
X142980000Y-96920000D03*
X140132010Y-93009833D03*
X143369996Y-88967550D03*
X141850010Y-93111001D03*
X124410000Y-93480011D03*
X128711968Y-94401968D03*
X122036512Y-93460021D03*
X127746691Y-93898577D03*
X122009990Y-91050679D03*
X126392714Y-92207353D03*
X124450209Y-92652010D03*
X122814043Y-94218342D03*
X127540000Y-94700000D03*
X122810648Y-91850010D03*
X126740000Y-90270000D03*
X123579990Y-90249907D03*
X126090000Y-89140000D03*
X121220000Y-89470000D03*
X125973287Y-90562648D03*
X123620000Y-93430000D03*
X128260835Y-94094383D03*
X122809982Y-95049978D03*
X126770000Y-95160000D03*
X122010021Y-94223018D03*
X128054540Y-93016529D03*
X123640003Y-95852421D03*
X125977537Y-96944021D03*
X121214460Y-91812468D03*
X125875959Y-92399871D03*
X127526346Y-93154880D03*
X122800677Y-92650021D03*
X128015433Y-91389642D03*
X123626353Y-89427946D03*
X126580010Y-88378032D03*
X122000000Y-90250000D03*
X125430000Y-86290000D03*
X122834398Y-95861708D03*
X126673399Y-96945979D03*
X134164738Y-108690000D03*
X123541463Y-99828138D03*
X133950000Y-109860000D03*
X129550010Y-102964702D03*
X121995856Y-99108930D03*
X132690000Y-108840000D03*
X129657850Y-102322150D03*
X125160000Y-103730000D03*
X119632933Y-90180094D03*
X128230000Y-111200000D03*
X121195855Y-99039448D03*
X128062150Y-103487850D03*
X127510000Y-111199990D03*
X120410000Y-87070000D03*
X124849990Y-108734761D03*
X126532002Y-108484762D03*
X106955883Y-106855457D03*
X121793406Y-111274021D03*
X124690003Y-109309995D03*
X106056054Y-106445717D03*
X109094242Y-111166578D03*
X108046366Y-92999921D03*
X125635837Y-111213809D03*
X106073700Y-97220010D03*
X106602032Y-106439623D03*
X111917012Y-111166578D03*
X114810001Y-94250000D03*
X118810000Y-95850000D03*
X115610000Y-95850000D03*
X115610000Y-92649998D03*
X113570000Y-103770000D03*
X119481114Y-94250000D03*
D16*
X135710000Y-104200000D03*
D15*
X118810000Y-92650000D03*
X102862338Y-77713035D03*
D16*
X122633205Y-103599519D03*
D15*
X104080000Y-102880000D03*
X100940000Y-101810000D03*
X97190000Y-101790000D03*
X106270669Y-94477173D03*
X107390692Y-93326500D03*
X112376396Y-98250905D03*
X103257453Y-108691916D03*
X112371968Y-99050916D03*
X100833274Y-106493274D03*
X112410000Y-99850927D03*
X105160000Y-108610000D03*
X103866925Y-108136598D03*
X111610000Y-100650000D03*
X101540381Y-105786167D03*
X138660000Y-111110000D03*
X138680000Y-110510000D03*
D18*
X108828396Y-100850001D02*
X107569967Y-100850001D01*
X107569967Y-100850001D02*
X107083195Y-100363229D01*
X109608549Y-101630154D02*
X108828396Y-100850001D01*
X106318850Y-100363229D02*
X106258723Y-100303102D01*
X107083195Y-100363229D02*
X106318850Y-100363229D01*
X107045432Y-99824761D02*
X106906974Y-99963219D01*
X108819929Y-99824761D02*
X107045432Y-99824761D01*
X102180000Y-84950000D02*
X102180000Y-83999990D01*
X103890000Y-86580000D02*
X103810000Y-86580000D01*
X103810000Y-86580000D02*
X102180000Y-84950000D01*
X131027000Y-81612607D02*
X130482607Y-82157000D01*
X131027000Y-80024996D02*
X131027000Y-81612607D01*
X130010000Y-79680000D02*
X130682004Y-79680000D01*
X129512606Y-82157000D02*
X128282607Y-83387000D01*
X130482607Y-82157000D02*
X129512606Y-82157000D01*
X130682004Y-79680000D02*
X131027000Y-80024996D01*
X124375851Y-84710000D02*
X124150701Y-84935150D01*
X125149605Y-84710000D02*
X124375851Y-84710000D01*
X128282607Y-83387000D02*
X126472605Y-83387000D01*
X126472605Y-83387000D02*
X125149605Y-84710000D01*
X129407392Y-81902989D02*
X128177392Y-83132989D01*
X130377393Y-81902989D02*
X129407392Y-81902989D01*
X126367392Y-83132989D02*
X125052789Y-84447592D01*
X125052789Y-84447592D02*
X123890294Y-84447592D01*
X123890294Y-84447592D02*
X123680795Y-84657091D01*
X128177392Y-83132989D02*
X126367392Y-83132989D01*
X130729499Y-80299499D02*
X130729499Y-81550883D01*
X130729499Y-81550883D02*
X130377393Y-81902989D01*
X130520000Y-80090000D02*
X130729499Y-80299499D01*
X132176959Y-81043435D02*
X132176959Y-80836959D01*
X130037394Y-83183000D02*
X132176959Y-81043435D01*
X128123260Y-84382691D02*
X128145197Y-84365197D01*
X128097980Y-84394865D02*
X128123260Y-84382691D01*
X128145197Y-84365197D02*
X129327394Y-83183000D01*
X127989932Y-84382691D02*
X128015211Y-84394865D01*
X129327394Y-83183000D02*
X130037394Y-83183000D01*
X127862694Y-84259896D02*
X127967995Y-84365197D01*
X127800125Y-84209999D02*
X127862694Y-84259896D01*
X127728022Y-84175276D02*
X127800125Y-84209999D01*
X127569971Y-84157468D02*
X127650000Y-84157468D01*
X127419846Y-84209999D02*
X127491949Y-84175276D01*
X127258824Y-84358348D02*
X127357277Y-84259896D01*
X127650000Y-84157468D02*
X127728022Y-84175276D01*
X127208927Y-84420917D02*
X127258824Y-84358348D01*
X128070625Y-84401109D02*
X128097980Y-84394865D01*
X127174204Y-84493020D02*
X127208927Y-84420917D01*
X127156396Y-84571042D02*
X127174204Y-84493020D01*
X128015211Y-84394865D02*
X128042566Y-84401109D01*
X127258824Y-84863765D02*
X127208927Y-84801196D01*
X127393792Y-85016282D02*
X127381618Y-84991002D01*
X127491949Y-84175276D02*
X127569971Y-84157468D01*
X127400036Y-85043637D02*
X127393792Y-85016282D01*
X127400036Y-85071696D02*
X127400036Y-85043637D01*
X127393792Y-85099051D02*
X127400036Y-85071696D01*
X127364124Y-84969065D02*
X127258824Y-84863765D01*
X127156396Y-84651071D02*
X127156396Y-84571042D01*
X127357277Y-84259896D02*
X127419846Y-84209999D01*
X127381618Y-84991002D02*
X127364124Y-84969065D01*
X127967995Y-84365197D02*
X127989932Y-84382691D01*
X127296669Y-85213725D02*
X127364124Y-85146267D01*
X127174204Y-84729093D02*
X127156396Y-84651071D01*
X127208927Y-84801196D02*
X127174204Y-84729093D01*
X128042566Y-84401109D02*
X128070625Y-84401109D01*
X127364124Y-85146267D02*
X127381618Y-85124330D01*
X127381618Y-85124330D02*
X127393792Y-85099051D01*
X126123965Y-84664788D02*
X126028374Y-84631339D01*
X126209717Y-84718669D02*
X126123965Y-84664788D01*
X126335211Y-84876034D02*
X126281330Y-84790282D01*
X125420000Y-85072264D02*
X125420000Y-85230000D01*
X126380000Y-85072264D02*
X126368660Y-84971625D01*
X126281330Y-84790282D02*
X126209717Y-84718669D01*
X126427997Y-85367167D02*
X126401786Y-85325454D01*
X126368660Y-84971625D02*
X126335211Y-84876034D01*
X126380000Y-85230000D02*
X126380000Y-85072264D01*
X127060000Y-85450000D02*
X126600000Y-85450000D01*
X126600000Y-85450000D02*
X126551045Y-85444484D01*
X127300000Y-85210000D02*
X127060000Y-85450000D01*
X122400000Y-86400000D02*
X122400000Y-89862329D01*
X126551045Y-85444484D02*
X126504545Y-85428213D01*
X125771625Y-84631339D02*
X125676034Y-84664788D01*
X126385515Y-85278954D02*
X126380000Y-85230000D01*
X125590282Y-84718669D02*
X125518669Y-84790282D01*
X125414484Y-85278954D02*
X125398213Y-85325454D01*
X125372002Y-85367167D02*
X125337167Y-85402002D01*
X126504545Y-85428213D02*
X126462832Y-85402002D01*
X126401786Y-85325454D02*
X126385515Y-85278954D01*
X126462832Y-85402002D02*
X126427997Y-85367167D01*
X126028374Y-84631339D02*
X125927735Y-84620000D01*
X125420000Y-85230000D02*
X125414484Y-85278954D01*
X125927735Y-84620000D02*
X125872264Y-84620000D01*
X125872264Y-84620000D02*
X125771625Y-84631339D01*
X125676034Y-84664788D02*
X125590282Y-84718669D01*
X125518669Y-84790282D02*
X125464788Y-84876034D01*
X125464788Y-84876034D02*
X125431339Y-84971625D01*
X125431339Y-84971625D02*
X125420000Y-85072264D01*
X125200000Y-85450000D02*
X123350000Y-85450000D01*
X125398213Y-85325454D02*
X125372002Y-85367167D01*
X125295454Y-85428213D02*
X125248954Y-85444484D01*
X125337167Y-85402002D02*
X125295454Y-85428213D01*
X125248954Y-85444484D02*
X125200000Y-85450000D01*
X123350000Y-85450000D02*
X122400000Y-86400000D01*
X122568543Y-90030872D02*
X122778042Y-90240371D01*
X122400000Y-89862329D02*
X122568543Y-90030872D01*
X128016581Y-84662728D02*
X127938559Y-84644920D01*
X127559227Y-85310374D02*
X127543729Y-85325872D01*
X127436433Y-84677720D02*
X127453927Y-84699657D01*
X127661655Y-85097680D02*
X127643847Y-85175702D01*
X127418015Y-84597027D02*
X127418015Y-84625086D01*
X128174632Y-84644920D02*
X128096610Y-84662728D01*
X128096610Y-84662728D02*
X128016581Y-84662728D01*
X127866456Y-84610197D02*
X127803887Y-84560300D01*
X127609124Y-85247805D02*
X127559227Y-85310374D01*
X127595955Y-84419087D02*
X127568600Y-84425331D01*
X132563041Y-81223041D02*
X132356565Y-81223041D01*
X127453927Y-84699657D02*
X127559227Y-84804957D01*
X132356565Y-81223041D02*
X130142606Y-83437000D01*
X127543729Y-85325872D02*
X127476274Y-85393330D01*
X127698586Y-84454999D02*
X127676649Y-84437505D01*
X130142606Y-83437000D02*
X129432606Y-83437000D01*
X128309304Y-84560300D02*
X128246735Y-84610197D01*
X129432606Y-83437000D02*
X128309304Y-84560300D01*
X128246735Y-84610197D02*
X128174632Y-84644920D01*
X127651369Y-84425331D02*
X127624014Y-84419087D01*
X127453927Y-84522455D02*
X127436433Y-84544392D01*
X127559227Y-84804957D02*
X127609124Y-84867526D01*
X127938559Y-84644920D02*
X127866456Y-84610197D01*
X127803887Y-84560300D02*
X127698586Y-84454999D01*
X127676649Y-84437505D02*
X127651369Y-84425331D01*
X127436433Y-84544392D02*
X127424259Y-84569672D01*
X127624014Y-84419087D02*
X127595955Y-84419087D01*
X127424259Y-84652441D02*
X127436433Y-84677720D01*
X127568600Y-84425331D02*
X127543321Y-84437505D01*
X127543321Y-84437505D02*
X127521384Y-84454999D01*
X127521384Y-84454999D02*
X127453927Y-84522455D01*
X127424259Y-84569672D02*
X127418015Y-84597027D01*
X127418015Y-84625086D02*
X127424259Y-84652441D01*
X127609124Y-84867526D02*
X127643847Y-84939629D01*
X127643847Y-84939629D02*
X127661655Y-85017651D01*
X127661655Y-85017651D02*
X127661655Y-85097680D01*
X127643847Y-85175702D02*
X127609124Y-85247805D01*
X125948954Y-84885515D02*
X125900000Y-84880000D01*
X123200011Y-89242004D02*
X123200011Y-90037884D01*
X126114484Y-85051045D02*
X126098213Y-85004545D01*
X127370000Y-85499604D02*
X127370000Y-85500000D01*
X126290282Y-85611330D02*
X126218669Y-85539717D01*
X126131339Y-85358374D02*
X126120000Y-85257735D01*
X127370000Y-85500000D02*
X127160000Y-85710000D01*
X125680000Y-85100000D02*
X125680000Y-85257735D01*
X126471625Y-85698660D02*
X126376034Y-85665211D01*
X125227735Y-85710000D02*
X123449224Y-85710000D01*
X127160000Y-85710000D02*
X126572264Y-85710000D01*
X125900000Y-84880000D02*
X125851045Y-84885515D01*
X125851045Y-84885515D02*
X125804545Y-84901786D01*
X125762832Y-84927997D02*
X125727997Y-84962832D01*
X126098213Y-85004545D02*
X126072002Y-84962832D01*
X127401872Y-85467732D02*
X127370000Y-85499604D01*
X123200011Y-90037884D02*
X123179989Y-90057906D01*
X123179989Y-90679971D02*
X123559997Y-91059979D01*
X126572264Y-85710000D02*
X126471625Y-85698660D01*
X125581330Y-85539717D02*
X125509717Y-85611330D01*
X126164788Y-85453965D02*
X126131339Y-85358374D01*
X126376034Y-85665211D02*
X126290282Y-85611330D01*
X122660000Y-86499224D02*
X122660000Y-88701993D01*
X125635211Y-85453965D02*
X125581330Y-85539717D01*
X126120000Y-85257735D02*
X126120000Y-85100000D01*
X125804545Y-84901786D02*
X125762832Y-84927997D01*
X126037167Y-84927997D02*
X125995454Y-84901786D01*
X125328374Y-85698660D02*
X125227735Y-85710000D01*
X125701786Y-85004545D02*
X125685515Y-85051045D01*
X127476282Y-85393337D02*
X127401890Y-85467732D01*
X125680000Y-85257735D02*
X125668660Y-85358374D01*
X125668660Y-85358374D02*
X125635211Y-85453965D01*
X122660000Y-88701993D02*
X123200011Y-89242004D01*
X123179989Y-90057906D02*
X123179989Y-90679971D01*
X125685515Y-85051045D02*
X125680000Y-85100000D01*
X125727997Y-84962832D02*
X125701786Y-85004545D01*
X125509717Y-85611330D02*
X125423965Y-85665211D01*
X123449224Y-85710000D02*
X122660000Y-86499224D01*
X126120000Y-85100000D02*
X126114484Y-85051045D01*
X126218669Y-85539717D02*
X126164788Y-85453965D01*
X125423965Y-85665211D02*
X125328374Y-85698660D01*
X127401890Y-85467732D02*
X127401872Y-85467732D01*
X125995454Y-84901786D02*
X125948954Y-84885515D01*
X126072002Y-84962832D02*
X126037167Y-84927997D01*
D19*
X118010000Y-89491479D02*
X117980087Y-89461566D01*
D18*
X106201901Y-86698099D02*
X108176906Y-84723091D01*
X111079856Y-81525146D02*
X111714852Y-81525146D01*
X108012348Y-84272818D02*
X108012348Y-84197986D01*
X109240950Y-84348715D02*
X109240949Y-84030949D01*
X108987060Y-84602606D02*
X109240950Y-84348715D01*
X109240949Y-84030949D02*
X108967019Y-83757019D01*
X108117122Y-84093213D02*
X108191953Y-84093213D01*
X108967019Y-83757019D02*
X108962977Y-83757019D01*
X105662299Y-87257404D02*
X105826857Y-87421962D01*
X108962977Y-83757019D02*
X108745561Y-83539603D01*
X110657407Y-82242593D02*
X110657407Y-81947593D01*
X108701346Y-84602605D02*
X108987060Y-84602606D01*
X108745561Y-83464771D02*
X108850335Y-83359998D01*
X108925167Y-83359998D02*
X109089727Y-83524558D01*
X108745561Y-83539603D02*
X108745561Y-83464771D01*
X108176906Y-84723091D02*
X108176906Y-84437376D01*
X108191953Y-84093213D02*
X108701346Y-84602605D01*
X106057439Y-87421963D02*
X106366461Y-87112940D01*
X109089727Y-83524558D02*
X109375441Y-83524558D01*
X105559848Y-87340152D02*
X105642599Y-87257404D01*
X109375441Y-83524558D02*
X110657407Y-82242593D01*
X111714852Y-81525146D02*
X114984011Y-78255987D01*
X108850335Y-83359998D02*
X108925167Y-83359998D01*
X114984011Y-76065483D02*
X114984011Y-74918623D01*
X114984011Y-74918623D02*
X114915368Y-74849980D01*
X110432208Y-81299946D02*
X110854656Y-81299946D01*
X108012348Y-84197986D02*
X108117122Y-84093213D01*
X110657407Y-81947593D02*
X110432208Y-81722394D01*
X110432208Y-81722394D02*
X110432208Y-81299946D01*
X115232539Y-76365483D02*
X115232539Y-76314011D01*
X108176906Y-84437376D02*
X108012348Y-84272818D01*
X115232539Y-76314011D02*
X114984011Y-76065483D01*
X96090000Y-91517957D02*
X96090000Y-90570000D01*
X114984011Y-76614011D02*
X115232539Y-76365483D01*
X114984011Y-78255987D02*
X114984011Y-76614011D01*
X110854656Y-81299946D02*
X111079856Y-81525146D01*
X105826857Y-87421962D02*
X106057439Y-87421963D01*
X106201901Y-86717799D02*
X106201901Y-86698099D01*
X96240000Y-91667957D02*
X96090000Y-91517957D01*
X106366460Y-86882358D02*
X106201901Y-86717799D01*
X106366461Y-87112940D02*
X106366460Y-86882358D01*
X105642599Y-87257404D02*
X105662299Y-87257404D01*
X103270000Y-89630000D02*
X105559848Y-87340152D01*
X97030000Y-89630000D02*
X103270000Y-89630000D01*
X96090000Y-90570000D02*
X97030000Y-89630000D01*
X105947344Y-86592657D02*
X107720000Y-84820000D01*
X107720000Y-84820000D02*
X107720000Y-84130335D01*
X109195168Y-83270000D02*
X109270000Y-83270000D01*
X106111904Y-87007499D02*
X106111904Y-86987799D01*
X108806786Y-84348048D02*
X108881618Y-84348048D01*
X108881618Y-84348048D02*
X108986392Y-84243273D01*
X114730000Y-75439990D02*
X114620708Y-75330698D01*
X95810000Y-91399551D02*
X95810000Y-90490775D01*
X107720000Y-84130335D02*
X108011680Y-83838655D01*
X108986392Y-84243273D02*
X108986392Y-84140433D01*
X105379849Y-87160153D02*
X105537158Y-87002847D01*
X108986392Y-84140433D02*
X108491004Y-83645045D01*
X108744894Y-83105441D02*
X109030609Y-83105441D01*
X106021903Y-86897798D02*
X105947343Y-86823241D01*
X109030609Y-83105441D02*
X109195168Y-83270000D01*
X109270000Y-83270000D02*
X110400839Y-82139161D01*
X105951998Y-87167406D02*
X106111904Y-87007499D01*
X108011680Y-83838655D02*
X108297395Y-83838655D01*
X105947343Y-86823241D02*
X105947344Y-86592657D01*
X114554263Y-77080000D02*
X114730000Y-76904264D01*
X114620708Y-75330698D02*
X114540000Y-75249990D01*
X106111904Y-86987799D02*
X106021903Y-86897798D01*
X114730000Y-76904264D02*
X114730000Y-75439990D01*
X110325934Y-81043378D02*
X110960930Y-81043378D01*
X96222437Y-89578172D02*
X96434569Y-89578173D01*
X108491004Y-83645045D02*
X108491004Y-83359330D01*
X105537158Y-87002847D02*
X105767740Y-87002848D01*
X108491004Y-83359330D02*
X108744894Y-83105441D01*
X114730000Y-77380000D02*
X114554263Y-77204264D01*
X105767740Y-87002848D02*
X105932298Y-87167406D01*
X114730000Y-78147156D02*
X114730000Y-77380000D01*
X110960930Y-81043378D02*
X111186130Y-81268578D01*
X111608578Y-81268578D02*
X114730000Y-78147156D01*
X111186130Y-81268578D02*
X111608578Y-81268578D01*
X108297395Y-83838655D02*
X108806786Y-84348048D01*
X96434569Y-89578173D02*
X96472521Y-89616125D01*
X110175639Y-81828668D02*
X110175639Y-81193672D01*
X96472521Y-89616125D02*
X96684652Y-89616124D01*
X114554263Y-77204264D02*
X114554263Y-77080000D01*
X95646510Y-91563041D02*
X95810000Y-91399551D01*
X110175639Y-81193672D02*
X110325934Y-81043378D01*
X110400839Y-82053867D02*
X110175639Y-81828668D01*
X110400839Y-82139161D02*
X110400839Y-82053867D01*
X96924786Y-89375989D02*
X103164011Y-89375989D01*
X105932298Y-87167406D02*
X105951998Y-87167406D01*
X103164011Y-89375989D02*
X105379849Y-87160153D01*
X96684652Y-89616124D02*
X96924786Y-89375989D01*
X96222437Y-89790304D02*
X96222437Y-89578172D01*
X96260388Y-89828255D02*
X96222437Y-89790304D01*
X96260388Y-90040387D02*
X96260388Y-89828255D01*
X95810000Y-90490775D02*
X96260388Y-90040387D01*
X116080135Y-75090135D02*
X116080135Y-74934939D01*
X98157000Y-91052606D02*
X98157000Y-91234000D01*
X99139789Y-91737670D02*
X98864000Y-91461880D01*
X99626000Y-91461880D02*
X99350210Y-91737670D01*
X98382606Y-90827000D02*
X98157000Y-91052606D01*
X99880000Y-90331165D02*
X99765165Y-90216330D01*
X99880000Y-90563376D02*
X99880000Y-90331165D01*
X100143624Y-90827000D02*
X99880000Y-90563376D01*
X105119763Y-88948232D02*
X105194159Y-89022625D01*
X99740835Y-90216330D02*
X99626000Y-90331165D01*
X105029962Y-88696028D02*
X105029961Y-88858430D01*
X105373765Y-88843024D02*
X105209567Y-88678826D01*
X116080135Y-74934939D02*
X116577000Y-75431804D01*
X117008229Y-77885606D02*
X116704000Y-77885606D01*
X98864000Y-91461880D02*
X98864000Y-90954000D01*
X116577000Y-75431804D02*
X116577000Y-77504606D01*
X105746587Y-88843024D02*
X105373765Y-88843024D01*
X98157000Y-91234000D02*
X98303000Y-91380000D01*
X116704000Y-77631606D02*
X117008229Y-77631606D01*
X116577000Y-77504606D02*
X116704000Y-77631606D01*
X117008229Y-77631606D02*
X117135229Y-77758606D01*
X117135229Y-77758606D02*
X117008229Y-77885606D01*
X105209567Y-88678826D02*
X105047165Y-88678826D01*
X105194159Y-89022625D02*
X105194159Y-89395447D01*
X98737000Y-90827000D02*
X98382606Y-90827000D01*
X99765165Y-90216330D02*
X99740835Y-90216330D01*
X105033823Y-89555788D02*
X104661001Y-89555788D01*
X105194159Y-89395447D02*
X105119764Y-89469842D01*
X104481395Y-90108211D02*
X104332606Y-90257000D01*
X105108218Y-89481393D02*
X105033823Y-89555788D01*
X101242606Y-90257000D02*
X100672606Y-90827000D01*
X105119764Y-89469842D02*
X105108218Y-89481393D01*
X104661001Y-89555788D02*
X104496803Y-89391590D01*
X105832528Y-88757078D02*
X105820982Y-88768629D01*
X104496803Y-89391590D02*
X104334401Y-89391590D01*
X104317198Y-89408792D02*
X104317197Y-89571194D01*
X104334401Y-89391590D02*
X104317198Y-89408792D01*
X98864000Y-90954000D02*
X98737000Y-90827000D01*
X104406999Y-89660996D02*
X104481395Y-89735389D01*
X104481395Y-89735389D02*
X104481395Y-90108211D01*
X99350210Y-91737670D02*
X99139789Y-91737670D01*
X105029961Y-88858430D02*
X105119763Y-88948232D01*
X104332606Y-90257000D02*
X102017000Y-90257000D01*
X104317197Y-89571194D02*
X104406999Y-89660996D01*
X102017000Y-90257000D02*
X101817000Y-90457000D01*
X105047165Y-88678826D02*
X105029962Y-88696028D01*
X101817000Y-90457000D02*
X101717000Y-90457000D01*
X99626000Y-90331165D02*
X99626000Y-91461880D01*
X105820982Y-88768629D02*
X105746587Y-88843024D01*
X116704000Y-77885606D02*
X105832528Y-88757078D01*
X101717000Y-90457000D02*
X101517000Y-90257000D01*
X100672606Y-90827000D02*
X100143624Y-90827000D01*
X101517000Y-90257000D02*
X101242606Y-90257000D01*
X116180696Y-75440696D02*
X115834378Y-75440696D01*
X116323000Y-77907394D02*
X116323000Y-75583000D01*
X105652923Y-88577473D02*
X107942824Y-86287570D01*
X105641376Y-88589023D02*
X105652923Y-88577473D01*
X105314778Y-88424824D02*
X105478976Y-88589022D01*
X104941956Y-88424824D02*
X105314778Y-88424824D01*
X104775961Y-88590818D02*
X104941956Y-88424824D01*
X100567394Y-90573000D02*
X101137394Y-90003000D01*
X104227394Y-89840601D02*
X104063197Y-89676404D01*
X104775961Y-88963640D02*
X104775961Y-88590818D01*
X99635624Y-89962330D02*
X99870375Y-89962330D01*
X100134000Y-90458165D02*
X100248835Y-90573000D01*
X99870375Y-89962330D02*
X100134000Y-90225955D01*
X107942824Y-86287570D02*
X116323000Y-77907394D01*
X102276998Y-89903000D02*
X102476998Y-89903000D01*
X104928612Y-89301787D02*
X104940159Y-89290237D01*
X99372000Y-91356670D02*
X99372000Y-90225955D01*
X97757000Y-91380000D02*
X97903000Y-91234000D01*
X105478976Y-88589022D02*
X105641376Y-88589023D01*
X104229192Y-89137588D02*
X104602014Y-89137588D01*
X99372000Y-90225955D02*
X99635624Y-89962330D01*
X104063197Y-89676404D02*
X104063197Y-89303582D01*
X104602014Y-89137588D02*
X104766212Y-89301786D01*
X99118000Y-90848789D02*
X99118000Y-91356670D01*
X116323000Y-75583000D02*
X116180696Y-75440696D01*
X100248835Y-90573000D02*
X100567394Y-90573000D01*
X97903000Y-91234000D02*
X97903000Y-90947394D01*
X98277394Y-90573000D02*
X98842210Y-90573000D01*
X104063197Y-89303582D02*
X104229192Y-89137588D01*
X97903000Y-90947394D02*
X98277394Y-90573000D01*
X98842210Y-90573000D02*
X99118000Y-90848789D01*
X102476998Y-89903000D02*
X102576998Y-90003000D01*
X101137394Y-90003000D02*
X101576998Y-90003000D01*
X100134000Y-90225955D02*
X100134000Y-90458165D01*
X101576998Y-90003000D02*
X101676998Y-89903000D01*
X101676998Y-89903000D02*
X101876998Y-89903000D01*
X99118000Y-91356670D02*
X99245000Y-91483670D01*
X104940159Y-89290237D02*
X104940158Y-89127837D01*
X104766212Y-89301786D02*
X104928612Y-89301787D01*
X101976998Y-90003000D02*
X102176998Y-90003000D01*
X101876998Y-89903000D02*
X101976998Y-90003000D01*
X102176998Y-90003000D02*
X102276998Y-89903000D01*
X102576998Y-90003000D02*
X104227395Y-90003001D01*
X99245000Y-91483670D02*
X99372000Y-91356670D01*
X104227395Y-90003001D02*
X104227394Y-89840601D01*
X104940158Y-89127837D02*
X104775961Y-88963640D01*
X118323100Y-76526552D02*
X118173100Y-76376552D01*
X118173100Y-76676552D02*
X118323100Y-76526552D01*
X117973448Y-76676552D02*
X118173100Y-76676552D01*
X117823448Y-76826552D02*
X117973448Y-76676552D01*
X108965629Y-86852305D02*
X108964775Y-86850533D01*
X109069253Y-86956241D02*
X108966856Y-86853844D01*
X109104442Y-87000366D02*
X109069253Y-86956241D01*
X109128930Y-87051216D02*
X109104442Y-87000366D01*
X109141489Y-87106239D02*
X109128930Y-87051216D01*
X109069253Y-87312676D02*
X109104442Y-87268550D01*
X108853845Y-87528085D02*
X109069253Y-87312676D01*
X108965629Y-86842957D02*
X108966856Y-86841418D01*
X108809720Y-87563274D02*
X108853845Y-87528085D01*
X108964775Y-86844729D02*
X108965629Y-86842957D01*
X108758871Y-87587761D02*
X108809720Y-87563274D01*
X108592385Y-87587761D02*
X108647409Y-87600320D01*
X108541536Y-87563274D02*
X108592385Y-87587761D01*
X108497411Y-87528085D02*
X108541536Y-87563274D01*
X108395014Y-87425688D02*
X108497411Y-87528085D01*
X108393476Y-87424461D02*
X108395014Y-87425688D01*
X117823448Y-75305860D02*
X117823448Y-75042252D01*
X108391703Y-87423607D02*
X108393476Y-87424461D01*
X108385899Y-87423607D02*
X108387818Y-87423169D01*
X108384127Y-87424461D02*
X108385899Y-87423607D01*
X108382589Y-87425688D02*
X108384127Y-87424461D01*
X108362254Y-87451186D02*
X108382589Y-87425688D01*
X108348103Y-87480570D02*
X108362254Y-87451186D01*
X108340845Y-87544981D02*
X108340845Y-87512367D01*
X108362254Y-87606162D02*
X108348103Y-87576778D01*
X108382588Y-87631661D02*
X108362254Y-87606162D01*
X108685937Y-87935010D02*
X108382588Y-87631661D01*
X117823448Y-76226552D02*
X117823448Y-75305860D01*
X108389785Y-87423169D02*
X108391703Y-87423607D01*
X108739130Y-88001712D02*
X108685937Y-87935010D01*
X108795131Y-88247067D02*
X108795131Y-88161753D01*
X108685937Y-88473810D02*
X108739130Y-88407108D01*
X108652894Y-88506853D02*
X108685937Y-88473810D01*
X108509327Y-88597063D02*
X108586193Y-88560046D01*
X118173100Y-76376552D02*
X117973448Y-76376552D01*
X108340837Y-88616047D02*
X108426151Y-88616047D01*
X108257661Y-88597063D02*
X108340837Y-88616047D01*
X107785247Y-88183170D02*
X107810746Y-88203505D01*
X106806619Y-89161796D02*
X106792468Y-89132411D01*
X108739130Y-88407108D02*
X108776146Y-88330243D01*
X107361933Y-89775632D02*
X107324917Y-89698767D01*
X107095114Y-90294118D02*
X107171980Y-90257101D01*
X108340845Y-87512367D02*
X108348103Y-87480570D01*
X106255112Y-89759139D02*
X106699882Y-90203909D01*
X102656657Y-90976657D02*
X102832395Y-91152395D01*
X117823448Y-78366552D02*
X117823448Y-76826552D01*
X103132395Y-90976657D02*
X104831621Y-90976657D01*
X107659655Y-88169019D02*
X107691452Y-88161762D01*
X107324917Y-90104163D02*
X107361933Y-90027298D01*
X108387818Y-87423169D02*
X108389785Y-87423169D01*
X107630271Y-88183170D02*
X107659655Y-88169019D01*
X109104442Y-87268550D02*
X109128930Y-87217701D01*
X106806619Y-89006819D02*
X106826955Y-88981322D01*
X102253343Y-90976657D02*
X102656657Y-90976657D01*
X107011939Y-90313102D02*
X107095114Y-90294118D01*
X107361933Y-90027298D02*
X107380918Y-89944122D01*
X107691452Y-88161762D02*
X107724066Y-88161762D01*
X108964338Y-86846647D02*
X108964775Y-86844729D01*
X108703847Y-87600320D02*
X108758871Y-87587761D01*
X106926624Y-90313102D02*
X107011939Y-90313102D01*
X106200229Y-89724653D02*
X106229613Y-89738804D01*
X106843449Y-90294118D02*
X106926624Y-90313102D01*
X113777211Y-82412789D02*
X117823448Y-78366552D01*
X106168432Y-89717396D02*
X106200229Y-89724653D01*
X108049541Y-89393048D02*
X108102734Y-89326346D01*
X106766583Y-90257101D02*
X106843449Y-90294118D01*
X108102734Y-88920950D02*
X108049541Y-88854248D01*
X107380918Y-89858808D02*
X107361933Y-89775632D01*
X107872931Y-89516301D02*
X107949797Y-89479284D01*
X106699882Y-90203909D02*
X106766583Y-90257101D01*
X117973448Y-76376552D02*
X117823448Y-76226552D01*
X107238682Y-90203909D02*
X107271724Y-90170865D01*
X106229613Y-89738804D02*
X106255112Y-89759139D01*
X107271724Y-90170865D02*
X107324917Y-90104163D01*
X106852454Y-88960987D02*
X106881838Y-88946836D01*
X107584436Y-88383979D02*
X107570285Y-88354594D01*
X106881838Y-88946836D02*
X106913635Y-88939579D01*
X107380918Y-89944122D02*
X107380918Y-89858808D01*
X108776146Y-88078577D02*
X108739130Y-88001712D01*
X108426151Y-88616047D02*
X108509327Y-88597063D01*
X101210000Y-91660000D02*
X101301054Y-91568946D01*
X108586193Y-88560046D02*
X108652894Y-88506853D01*
X102832395Y-91152395D02*
X102956657Y-91152395D01*
X101661054Y-91568946D02*
X102253343Y-90976657D01*
X102956657Y-91152395D02*
X103132395Y-90976657D01*
X107271724Y-89632065D02*
X106826954Y-89187295D01*
X107704441Y-89535285D02*
X107789756Y-89535285D01*
X106104021Y-89724653D02*
X106135818Y-89717396D01*
X104831621Y-90976657D02*
X106049138Y-89759139D01*
X108647409Y-87600320D02*
X108703847Y-87600320D01*
X106049138Y-89759139D02*
X106074637Y-89738804D01*
X108139750Y-88997815D02*
X108102734Y-88920950D01*
X106074637Y-89738804D02*
X106104021Y-89724653D01*
X108795131Y-88161753D02*
X108776146Y-88078577D01*
X106826954Y-89187295D02*
X106806619Y-89161796D01*
X108776146Y-88330243D02*
X108795131Y-88247067D01*
X107324917Y-89698767D02*
X107271724Y-89632065D01*
X106792468Y-89132411D02*
X106785211Y-89100615D01*
X107949797Y-89479284D02*
X108016499Y-89426092D01*
X101301054Y-91568946D02*
X101661054Y-91568946D01*
X106785211Y-89100615D02*
X106785211Y-89068000D01*
X106785211Y-89068000D02*
X106792468Y-89036204D01*
X108016499Y-89426092D02*
X108049541Y-89393048D01*
X109128930Y-87217701D02*
X109141489Y-87162678D01*
X106826955Y-88981322D02*
X106852454Y-88960987D01*
X106946249Y-88939579D02*
X106978046Y-88946836D01*
X109160406Y-86647870D02*
X112887986Y-82920292D01*
X109141489Y-87162678D02*
X109141489Y-87106239D01*
X108102734Y-89326346D02*
X108139750Y-89249481D01*
X108966856Y-86853844D02*
X108965629Y-86852305D01*
X106978046Y-88946836D02*
X107007430Y-88960987D01*
X113279708Y-82920292D02*
X113777211Y-82422789D01*
X107755863Y-88169019D02*
X107785247Y-88183170D01*
X108158735Y-89166305D02*
X108158735Y-89080991D01*
X108348103Y-87576778D02*
X108340845Y-87544981D01*
X107007430Y-88960987D02*
X107032929Y-88981322D01*
X106792468Y-89036204D02*
X106806619Y-89006819D01*
X107789756Y-89535285D02*
X107872931Y-89516301D01*
X106135818Y-89717396D02*
X106168432Y-89717396D01*
X106913635Y-88939579D02*
X106946249Y-88939579D01*
X107032929Y-88981322D02*
X107477699Y-89426092D01*
X107477699Y-89426092D02*
X107544400Y-89479284D01*
X107171980Y-90257101D02*
X107238682Y-90203909D01*
X107544400Y-89479284D02*
X107621266Y-89516301D01*
X107621266Y-89516301D02*
X107704441Y-89535285D01*
X112887986Y-82920292D02*
X113279708Y-82920292D01*
X108139750Y-89249481D02*
X108158735Y-89166305D01*
X107810746Y-88203505D02*
X108114094Y-88506853D01*
X108049541Y-88854248D02*
X107604771Y-88409478D01*
X107604771Y-88409478D02*
X107584436Y-88383979D01*
X108964775Y-86850533D02*
X108964338Y-86848615D01*
X107570285Y-88354594D02*
X107563028Y-88322798D01*
X108964338Y-86848615D02*
X108964338Y-86846647D01*
X107563028Y-88322798D02*
X107563028Y-88290183D01*
X107563028Y-88290183D02*
X107570285Y-88258387D01*
X108114094Y-88506853D02*
X108180796Y-88560046D01*
X107570285Y-88258387D02*
X107584436Y-88229002D01*
X108180796Y-88560046D02*
X108257661Y-88597063D01*
X107584436Y-88229002D02*
X107604772Y-88203505D01*
X108966856Y-86841418D02*
X109160406Y-86647870D01*
X107604772Y-88203505D02*
X107630271Y-88183170D01*
X113777211Y-82422789D02*
X113777211Y-82412789D01*
X108158735Y-89080991D02*
X108139750Y-88997815D01*
X107724066Y-88161762D02*
X107755863Y-88169019D01*
X113170776Y-82659224D02*
X117560000Y-78270000D01*
X112783185Y-82659224D02*
X113170776Y-82659224D01*
X108772992Y-86669413D02*
X108783922Y-86658483D01*
X108700757Y-86819411D02*
X108713316Y-86764387D01*
X108772992Y-87025847D02*
X108737803Y-86981722D01*
X108877908Y-87133474D02*
X108877470Y-87131556D01*
X108877908Y-87135441D02*
X108877908Y-87133474D01*
X108877470Y-87137359D02*
X108877908Y-87135441D01*
X108876616Y-87139132D02*
X108877470Y-87137359D01*
X108875390Y-87140670D02*
X108876616Y-87139132D01*
X108737803Y-86713538D02*
X108772992Y-86669413D01*
X108681841Y-87334220D02*
X108875390Y-87140670D01*
X108680302Y-87335447D02*
X108681841Y-87334220D01*
X108876616Y-87129783D02*
X108875390Y-87128245D01*
X108678530Y-87336301D02*
X108680302Y-87335447D01*
X108676612Y-87336738D02*
X108678530Y-87336301D01*
X108672726Y-87336301D02*
X108674644Y-87336738D01*
X108670954Y-87335447D02*
X108672726Y-87336301D01*
X108669415Y-87334220D02*
X108670954Y-87335447D01*
X108567019Y-87231824D02*
X108669415Y-87334220D01*
X108472044Y-87172147D02*
X108522893Y-87196635D01*
X117560000Y-75597988D02*
X117413882Y-75451870D01*
X108417020Y-87159589D02*
X108472044Y-87172147D01*
X117560000Y-78270000D02*
X117560000Y-75597988D01*
X108360582Y-87159589D02*
X108417020Y-87159589D01*
X108977472Y-86464936D02*
X112783185Y-82659224D01*
X108210584Y-87231824D02*
X108254709Y-87196635D01*
X108183132Y-87259273D02*
X108199653Y-87242751D01*
X108129939Y-87325974D02*
X108183132Y-87259273D01*
X108674644Y-87336738D02*
X108676612Y-87336738D01*
X108073938Y-87486016D02*
X108092922Y-87402840D01*
X108183132Y-87798073D02*
X108129939Y-87731371D01*
X108486481Y-88101422D02*
X108183132Y-87798073D01*
X108520966Y-88156305D02*
X108506815Y-88126921D01*
X108528223Y-88188102D02*
X108520966Y-88156305D01*
X108506815Y-88281898D02*
X108520966Y-88252513D01*
X108092922Y-87402840D02*
X108129939Y-87325974D01*
X108486481Y-88307397D02*
X108506815Y-88281898D01*
X108431598Y-88341882D02*
X108460982Y-88327731D01*
X108399801Y-88349140D02*
X108431598Y-88341882D01*
X108367187Y-88349140D02*
X108399801Y-88349140D01*
X108713316Y-86764387D02*
X108737803Y-86713538D01*
X108335390Y-88341882D02*
X108367187Y-88349140D01*
X108129939Y-87731371D02*
X108092922Y-87654506D01*
X106574306Y-88881608D02*
X106627498Y-88814906D01*
X106627498Y-89353706D02*
X106574306Y-89287005D01*
X108092922Y-87654506D02*
X108073938Y-87571330D01*
X107850086Y-89020660D02*
X107405315Y-88575889D01*
X108506815Y-88126921D02*
X108486481Y-88101422D01*
X107106754Y-89853360D02*
X107092603Y-89823976D01*
X107114011Y-89885157D02*
X107106754Y-89853360D01*
X107114011Y-89917771D02*
X107114011Y-89885157D01*
X106354823Y-89506490D02*
X106421525Y-89559683D01*
X106518305Y-89041649D02*
X106537289Y-88958474D01*
X107698995Y-89261121D02*
X107730791Y-89268378D01*
X108700757Y-86875849D02*
X108700757Y-86819411D01*
X107977159Y-88004049D02*
X108280507Y-88307397D01*
X107092603Y-89978953D02*
X107106754Y-89949568D01*
X108783922Y-86658483D02*
X108977472Y-86464936D01*
X108199654Y-87242753D02*
X108210584Y-87231824D01*
X107824587Y-89246970D02*
X107850086Y-89226635D01*
X107505060Y-87950856D02*
X107581926Y-87913840D01*
X107891828Y-89139954D02*
X107891828Y-89107340D01*
X106985589Y-90046195D02*
X107017385Y-90038938D01*
X107072269Y-89798477D02*
X106627498Y-89353706D01*
X108460982Y-88327731D02*
X108486481Y-88307397D01*
X106574306Y-89287005D02*
X106537289Y-89210139D01*
X106921178Y-90038938D02*
X106952974Y-90046195D01*
X108254709Y-87196635D02*
X108305559Y-87172147D01*
X101020000Y-91260000D02*
X101600000Y-91260000D01*
X107092603Y-89823976D02*
X107072269Y-89798477D01*
X100720000Y-91340000D02*
X100940000Y-91340000D01*
X107106754Y-89949568D02*
X107114011Y-89917771D01*
X101600000Y-91260000D02*
X102137354Y-90722646D01*
X108305559Y-87172147D02*
X108360582Y-87159589D01*
X104719763Y-90722646D02*
X105882725Y-89559683D01*
X100940000Y-91340000D02*
X101020000Y-91260000D01*
X107017385Y-90038938D02*
X107046770Y-90024787D01*
X105949426Y-89506490D02*
X106026292Y-89469474D01*
X107315106Y-88432322D02*
X107296122Y-88349147D01*
X106026292Y-89469474D02*
X106109468Y-89450489D01*
X102137354Y-90722646D02*
X104719763Y-90722646D01*
X107046770Y-90024787D02*
X107072269Y-90004452D01*
X106537289Y-89210139D02*
X106518305Y-89126964D01*
X108875390Y-87128245D02*
X108772992Y-87025847D01*
X106194782Y-89450489D02*
X106277958Y-89469474D01*
X105882725Y-89559683D02*
X105949426Y-89506490D01*
X107072269Y-90004452D02*
X107092603Y-89978953D01*
X107891828Y-89107340D02*
X107884571Y-89075543D01*
X107669610Y-89246970D02*
X107698995Y-89261121D01*
X108737803Y-86981722D02*
X108713316Y-86930873D01*
X108522893Y-87196635D02*
X108567019Y-87231824D01*
X107833592Y-87913840D02*
X107910457Y-87950856D01*
X106421525Y-89559683D02*
X106866294Y-90004452D01*
X108073938Y-87571330D02*
X108073938Y-87486016D01*
X107405315Y-88575889D02*
X107352123Y-88509188D01*
X106866294Y-90004452D02*
X106891793Y-90024787D01*
X106627498Y-88814906D02*
X106660542Y-88781866D01*
X108877470Y-87131556D02*
X108876616Y-87129783D01*
X106660542Y-88781866D02*
X106727243Y-88728673D01*
X106727243Y-88728673D02*
X106804109Y-88691657D01*
X106972599Y-88672672D02*
X107055775Y-88691657D01*
X107850086Y-89226635D02*
X107870420Y-89201136D01*
X107055775Y-88691657D02*
X107132640Y-88728673D01*
X108199653Y-87242751D02*
X108199654Y-87242753D01*
X107199342Y-88781866D02*
X107644111Y-89226635D01*
X107132640Y-88728673D02*
X107199342Y-88781866D01*
X107352123Y-88103791D02*
X107405315Y-88037089D01*
X107644111Y-89226635D02*
X107669610Y-89246970D01*
X106518305Y-89126964D02*
X106518305Y-89041649D01*
X106804109Y-88691657D02*
X106887285Y-88672672D01*
X107730791Y-89268378D02*
X107763406Y-89268378D01*
X107795202Y-89261121D02*
X107824587Y-89246970D01*
X108520966Y-88252513D02*
X108528223Y-88220716D01*
X107870420Y-89201136D02*
X107884571Y-89171751D01*
X108528223Y-88220716D02*
X108528223Y-88188102D01*
X107884571Y-89171751D02*
X107891828Y-89139954D01*
X106891793Y-90024787D02*
X106921178Y-90038938D01*
X107884571Y-89075543D02*
X107870420Y-89046159D01*
X106952974Y-90046195D02*
X106985589Y-90046195D01*
X107870420Y-89046159D02*
X107850086Y-89020660D01*
X107352123Y-88509188D02*
X107315106Y-88432322D01*
X106887285Y-88672672D02*
X106972599Y-88672672D01*
X107763406Y-89268378D02*
X107795202Y-89261121D01*
X107296122Y-88349147D02*
X107296122Y-88263832D01*
X106277958Y-89469474D02*
X106354823Y-89506490D01*
X107581926Y-87913840D02*
X107665102Y-87894855D01*
X107405315Y-88037089D02*
X107438359Y-88004049D01*
X107296122Y-88263832D02*
X107315106Y-88180657D01*
X106109468Y-89450489D02*
X106194782Y-89450489D01*
X107665102Y-87894855D02*
X107750416Y-87894855D01*
X107315106Y-88180657D02*
X107352123Y-88103791D01*
X107750416Y-87894855D02*
X107833592Y-87913840D01*
X108713316Y-86930873D02*
X108700757Y-86875849D01*
X107910457Y-87950856D02*
X107977159Y-88004049D01*
X107438359Y-88004049D02*
X107505060Y-87950856D01*
X108280507Y-88307397D02*
X108306006Y-88327731D01*
X106537289Y-88958474D02*
X106574306Y-88881608D01*
X108306006Y-88327731D02*
X108335390Y-88341882D01*
X108806056Y-102896832D02*
X111848026Y-102896832D01*
X105605615Y-101275989D02*
X107185213Y-101275989D01*
X103706621Y-99376996D02*
X103781019Y-99451393D01*
X103333195Y-99376996D02*
X103706621Y-99376996D01*
X107185213Y-101275989D02*
X108806056Y-102896832D01*
X103168992Y-99541200D02*
X103333195Y-99376996D01*
X103095434Y-95991790D02*
X103095434Y-96381824D01*
X103095434Y-96381824D02*
X103021038Y-96456223D01*
X102741019Y-97095444D02*
X102815418Y-97021048D01*
X101732129Y-98104337D02*
X102083046Y-97753420D01*
X102801477Y-98471851D02*
X103282675Y-97990653D01*
X102083046Y-97753420D02*
X102741019Y-97095444D01*
X102946639Y-95842995D02*
X103095434Y-95991790D01*
X102989387Y-99524592D02*
X103005995Y-99541200D01*
X103781019Y-99451393D02*
X105605615Y-101275989D01*
X100240000Y-93920002D02*
X100240000Y-95910374D01*
X101552524Y-98087729D02*
X101569132Y-98104337D01*
X102270955Y-98806160D02*
X102287563Y-98822768D01*
X102287563Y-98822768D02*
X102450560Y-98822768D01*
X103005995Y-99541200D02*
X103168992Y-99541200D01*
X103021038Y-96456223D02*
X101552524Y-97924732D01*
X101569132Y-98104337D02*
X101732129Y-98104337D01*
X101552524Y-97924732D02*
X101552524Y-98087729D01*
X101454417Y-96945186D02*
X102556605Y-95842995D01*
X103205450Y-97021046D02*
X103354246Y-97169841D01*
X103895900Y-98065049D02*
X103895900Y-98455083D01*
X102815418Y-97021048D02*
X103205450Y-97021046D01*
X103354246Y-97169841D02*
X103354246Y-97559875D01*
X102989387Y-99361595D02*
X102989387Y-99524592D01*
X103279848Y-97634272D02*
X102442260Y-98471859D01*
X102442260Y-98471859D02*
X102270955Y-98643163D01*
X102270955Y-98643163D02*
X102270955Y-98806160D01*
X102450560Y-98822768D02*
X102801477Y-98471851D01*
X100240000Y-95910374D02*
X101274813Y-96945187D01*
X103282675Y-97990653D02*
X103357071Y-97916254D01*
X111848026Y-102896832D02*
X112223708Y-102521150D01*
X100520000Y-93640002D02*
X100240000Y-93920002D01*
X103357071Y-97916254D02*
X103747105Y-97916254D01*
X103747105Y-97916254D02*
X103895900Y-98065049D01*
X103354246Y-97559875D02*
X103279848Y-97634272D01*
X103895900Y-98455083D02*
X103821502Y-98529480D01*
X101274813Y-96945187D02*
X101454417Y-96945186D01*
X103821502Y-98529480D02*
X102989387Y-99361595D01*
X102556605Y-95842995D02*
X102946639Y-95842995D01*
X144108493Y-79641959D02*
X144092742Y-79609252D01*
X144159510Y-79692976D02*
X144131128Y-79670342D01*
X144192219Y-79708728D02*
X144159510Y-79692976D01*
X144758629Y-79272110D02*
X144740736Y-79290000D01*
X145004174Y-79153861D02*
X144914101Y-79174420D01*
X144914101Y-79174420D02*
X144830861Y-79214506D01*
X144647611Y-78704908D02*
X144627051Y-78614835D01*
X144299305Y-79708728D02*
X144263913Y-79716806D01*
X141940000Y-110070000D02*
X142587000Y-109423000D01*
X145186635Y-79174419D02*
X145096562Y-79153860D01*
X142587000Y-109423000D02*
X142587000Y-107673000D01*
X142587000Y-107673000D02*
X144850000Y-105410000D01*
X144850000Y-105410000D02*
X144850000Y-97859607D01*
X147834011Y-81764011D02*
X145342107Y-79272109D01*
X144227611Y-79716806D02*
X144192219Y-79708728D01*
X144108493Y-79469459D02*
X144131128Y-79441076D01*
X144131128Y-79670342D02*
X144108493Y-79641959D01*
X144830861Y-79214506D02*
X144758629Y-79272110D01*
X147117000Y-95592607D02*
X147117000Y-93432606D01*
X144084664Y-79573860D02*
X144084664Y-79537558D01*
X147117000Y-93432606D02*
X147834011Y-92715596D01*
X144084664Y-79537558D02*
X144092742Y-79502166D01*
X147834011Y-92715596D02*
X147834011Y-81764011D01*
X144850000Y-97859607D02*
X147117000Y-95592607D01*
X144332012Y-79692977D02*
X144299305Y-79708728D01*
X144529362Y-79042843D02*
X144586965Y-78970609D01*
X140980000Y-110184494D02*
X141094494Y-110070000D01*
X144627051Y-78887369D02*
X144647611Y-78797298D01*
X144740736Y-79290000D02*
X144360394Y-79670343D01*
X145342107Y-79272109D02*
X145269875Y-79214505D01*
X144092742Y-79609252D02*
X144084664Y-79573860D01*
X144360394Y-79670343D02*
X144332012Y-79692977D01*
X145096562Y-79153860D02*
X145004174Y-79153861D01*
X144092742Y-79502166D02*
X144108493Y-79469459D01*
X144263913Y-79716806D02*
X144227611Y-79716806D01*
X144131128Y-79441076D02*
X144529362Y-79042843D01*
X144586965Y-78970609D02*
X144627051Y-78887369D01*
X144529362Y-78459363D02*
X144511472Y-78441473D01*
X144647611Y-78797298D02*
X144647611Y-78704908D01*
X145269875Y-79214505D02*
X145186635Y-79174419D01*
X144627051Y-78614835D02*
X144586965Y-78531595D01*
X144586965Y-78531595D02*
X144529362Y-78459363D01*
X141719315Y-76100000D02*
X141557261Y-75937946D01*
X141094494Y-110070000D02*
X141940000Y-110070000D01*
X142170000Y-76100000D02*
X141719315Y-76100000D01*
X144511472Y-78441473D02*
X142170000Y-76100000D01*
X104964978Y-104484978D02*
X96522067Y-96042067D01*
X116774116Y-102759523D02*
X116751253Y-102759523D01*
X116751253Y-102759523D02*
X116350388Y-103160388D01*
X116350388Y-103160388D02*
X116138255Y-103160388D01*
X115658508Y-102680641D02*
X115446376Y-102680641D01*
X116138255Y-103160388D02*
X115658508Y-102680641D01*
X115446376Y-102680641D02*
X115446376Y-102892773D01*
X115926123Y-103584652D02*
X115025798Y-104484978D01*
X115446376Y-102892773D02*
X115926122Y-103372519D01*
X96522067Y-96042067D02*
X96522067Y-93779990D01*
X115926122Y-103372519D02*
X115926123Y-103584652D01*
X115025798Y-104484978D02*
X104964978Y-104484978D01*
X100901304Y-97367305D02*
X100901304Y-97755515D01*
X99360268Y-98039321D02*
X99539873Y-98039321D01*
X99539873Y-98039321D02*
X100362491Y-97216701D01*
X101007968Y-98368362D02*
X106137573Y-103497967D01*
X113066855Y-103113145D02*
X113066855Y-102889355D01*
X100901304Y-97755515D02*
X100737107Y-97919713D01*
X100737107Y-97919713D02*
X100737106Y-98097501D01*
X99360268Y-97859716D02*
X99360268Y-98039321D01*
X100737106Y-98097501D02*
X101007968Y-98368362D01*
X106137573Y-103497967D02*
X112682033Y-103497967D01*
X112682033Y-103497967D02*
X113066855Y-103113145D01*
X100362491Y-97216701D02*
X100750699Y-97216700D01*
X100750699Y-97216700D02*
X100901304Y-97367305D01*
X99316578Y-96825782D02*
X99316579Y-96825767D01*
X98854998Y-96896642D02*
X98854998Y-97039076D01*
X97990989Y-94801994D02*
X99271209Y-94801994D01*
X99547004Y-95288218D02*
X99271209Y-95564014D01*
X99316579Y-96825767D02*
X99644068Y-96498279D01*
X97942994Y-94753999D02*
X97990989Y-94801994D01*
X99066113Y-97076247D02*
X99316578Y-96825782D01*
X98546999Y-95564014D02*
X98419999Y-95691014D01*
X98854998Y-97039076D02*
X98892169Y-97076247D01*
X98223208Y-94547994D02*
X97990989Y-94547994D01*
X98419999Y-94351203D02*
X98223208Y-94547994D01*
X98420000Y-93740000D02*
X98419999Y-94351203D01*
X98892169Y-97076247D02*
X99066113Y-97076247D01*
X99019196Y-96379591D02*
X99019196Y-96732445D01*
X99547004Y-95077789D02*
X99547004Y-95288218D01*
X97990989Y-94547994D02*
X97942994Y-94595989D01*
X99271209Y-95564014D02*
X98546999Y-95564014D01*
X97942994Y-94595989D02*
X97942994Y-94753999D01*
X98419999Y-95691014D02*
X98420000Y-95780395D01*
X98420000Y-95780395D02*
X99019196Y-96379591D01*
X99271209Y-94801994D02*
X99547004Y-95077789D01*
X99019196Y-96732445D02*
X98854998Y-96896642D01*
X100182888Y-97037112D02*
X99360282Y-97859716D01*
X100182888Y-96648889D02*
X100182888Y-97037112D01*
X99360282Y-97859716D02*
X99360275Y-97859723D01*
X99644075Y-96498285D02*
X100032283Y-96498284D01*
X100032283Y-96498284D02*
X100182888Y-96648889D01*
X143437011Y-105982989D02*
X141814011Y-107605989D01*
X143437011Y-98006995D02*
X143437011Y-105982989D01*
X146287000Y-93162606D02*
X146287000Y-95157006D01*
X146643782Y-83143783D02*
X147246983Y-83746983D01*
X146418203Y-83035150D02*
X146500952Y-83054037D01*
X146333326Y-83035150D02*
X146418203Y-83035150D01*
X146250578Y-83054037D02*
X146333326Y-83035150D01*
X146174106Y-83090863D02*
X146250578Y-83054037D01*
X146107747Y-83143783D02*
X146174106Y-83090863D01*
X146001311Y-83250220D02*
X146107747Y-83143783D01*
X145975449Y-83270844D02*
X146001311Y-83250220D01*
X147246983Y-92202623D02*
X146287000Y-93162606D01*
X145722070Y-83159199D02*
X145736423Y-83189002D01*
X147246983Y-83746983D02*
X147246983Y-92202623D01*
X145714709Y-83126950D02*
X145722070Y-83159199D01*
X145714709Y-83093871D02*
X145714709Y-83126950D01*
X145722070Y-83061621D02*
X145714709Y-83093871D01*
X145736423Y-83031818D02*
X145722070Y-83061621D01*
X145757047Y-83005956D02*
X145736423Y-83031818D01*
X146342394Y-82420612D02*
X146325956Y-82437047D01*
X146395312Y-82354251D02*
X146342394Y-82420612D01*
X146451026Y-82195031D02*
X146432139Y-82277780D01*
X146451026Y-82110155D02*
X146451026Y-82195031D01*
X146432139Y-82027406D02*
X146451026Y-82110155D01*
X146395312Y-81950935D02*
X146432139Y-82027406D01*
X146342393Y-81884576D02*
X146395312Y-81950935D01*
X146207805Y-81763428D02*
X146274165Y-81816348D01*
X146131334Y-81726601D02*
X146207805Y-81763428D01*
X146048586Y-81707716D02*
X146131334Y-81726601D01*
X145963710Y-81707716D02*
X146048586Y-81707716D01*
X145880962Y-81726603D02*
X145963710Y-81707716D01*
X141580000Y-109230000D02*
X140490000Y-109230000D01*
X145804491Y-81763430D02*
X145880962Y-81726603D01*
X141814011Y-108995989D02*
X141580000Y-109230000D01*
X145738131Y-81816349D02*
X145804491Y-81763430D01*
X145152787Y-82401696D02*
X145738131Y-81816349D01*
X145945646Y-83285197D02*
X145975449Y-83270844D01*
X145126925Y-82422320D02*
X145152787Y-82401696D01*
X145913396Y-83292557D02*
X145945646Y-83285197D01*
X145097122Y-82436673D02*
X145126925Y-82422320D01*
X144216348Y-81595508D02*
X144248598Y-81588148D01*
X144183269Y-81595508D02*
X144216348Y-81595508D01*
X146500952Y-83054037D02*
X146577423Y-83090863D01*
X144039374Y-81491954D02*
X144059999Y-81517816D01*
X144025022Y-81364573D02*
X144017661Y-81396822D01*
X144889607Y-80967825D02*
X144955967Y-80914906D01*
X144999543Y-82436673D02*
X145031793Y-82444033D01*
X144121216Y-81573795D02*
X144151019Y-81588148D01*
X145848067Y-83285197D02*
X145880317Y-83292557D01*
X145031793Y-82444033D02*
X145064872Y-82444033D01*
X146325956Y-82437047D02*
X145757047Y-83005956D01*
X144275069Y-80976892D02*
X144256182Y-81059641D01*
X144278401Y-81573795D02*
X144304263Y-81553171D01*
X144039374Y-81334770D02*
X144025022Y-81364573D01*
X144059999Y-81308907D02*
X144039374Y-81334770D01*
X146287000Y-95157006D02*
X143437011Y-98006995D01*
X144166436Y-80666436D02*
X144219356Y-80732796D01*
X144256182Y-80809267D02*
X144275069Y-80892016D01*
X144059999Y-81517816D02*
X144095354Y-81553171D01*
X144219356Y-80732796D02*
X144256182Y-80809267D01*
X145493869Y-81036052D02*
X145546788Y-81102411D01*
X145493870Y-81572088D02*
X145477432Y-81588523D01*
X141183041Y-78316959D02*
X141183041Y-78563041D01*
X141183041Y-78563041D02*
X142830000Y-80210000D01*
X146432139Y-82277780D02*
X146395312Y-82354251D01*
X143770000Y-80270000D02*
X144166436Y-80666436D01*
X144866185Y-82245347D02*
X144866185Y-82278426D01*
X144017661Y-81396822D02*
X144017661Y-81429901D01*
X144095354Y-81553171D02*
X144121216Y-81573795D01*
X146577423Y-83090863D02*
X146643782Y-83143783D01*
X144166436Y-81202471D02*
X144059999Y-81308907D01*
X145546788Y-81505727D02*
X145493870Y-81572088D01*
X144017661Y-81429901D02*
X144025022Y-81462151D01*
X145115186Y-80859192D02*
X145200062Y-80859192D01*
X144275069Y-80892016D02*
X144275069Y-80976892D01*
X144025022Y-81462151D02*
X144039374Y-81491954D01*
X145583615Y-81429256D02*
X145546788Y-81505727D01*
X146274165Y-81816348D02*
X146342393Y-81884576D01*
X144304263Y-81553171D02*
X144889607Y-80967825D01*
X144151019Y-81588148D02*
X144183269Y-81595508D01*
X145736423Y-83189002D02*
X145757047Y-83214865D01*
X144256182Y-81059641D02*
X144219356Y-81136112D01*
X145546788Y-81102411D02*
X145583615Y-81178882D01*
X144908523Y-82366341D02*
X144943878Y-82401696D01*
X144219356Y-81136112D02*
X144166436Y-81202471D01*
X141814011Y-107605989D02*
X141814011Y-108995989D01*
X144955967Y-80914906D02*
X145032438Y-80878079D01*
X144887899Y-82183294D02*
X144873546Y-82213097D01*
X145032438Y-80878079D02*
X145115186Y-80859192D01*
X145200062Y-80859192D02*
X145282810Y-80878077D01*
X145359281Y-80914904D02*
X145425641Y-80967824D01*
X145880317Y-83292557D02*
X145913396Y-83292557D01*
X145282810Y-80878077D02*
X145359281Y-80914904D01*
X145064872Y-82444033D02*
X145097122Y-82436673D01*
X145757047Y-83214865D02*
X145792402Y-83250220D01*
X145583615Y-81178882D02*
X145602502Y-81261631D01*
X144943878Y-82401696D02*
X144969740Y-82422320D01*
X145792402Y-83250220D02*
X145818264Y-83270844D01*
X145602502Y-81261631D02*
X145602502Y-81346507D01*
X144969740Y-82422320D02*
X144999543Y-82436673D01*
X145818264Y-83270844D02*
X145848067Y-83285197D01*
X144248598Y-81588148D02*
X144278401Y-81573795D01*
X145602502Y-81346507D02*
X145583615Y-81429256D01*
X145477432Y-81588523D02*
X144908523Y-82157432D01*
X144908523Y-82157432D02*
X144887899Y-82183294D01*
X145425641Y-80967824D02*
X145493869Y-81036052D01*
X144873546Y-82213097D02*
X144866185Y-82245347D01*
X144866185Y-82278426D02*
X144873546Y-82310675D01*
X144873546Y-82310675D02*
X144887899Y-82340478D01*
X144887899Y-82340478D02*
X144908523Y-82366341D01*
X143770000Y-80270000D02*
X143770000Y-80250000D01*
X143770000Y-80250000D02*
X143640000Y-80120000D01*
X143640000Y-80120000D02*
X143540000Y-80120000D01*
X143450000Y-80210000D02*
X142830000Y-80210000D01*
X143540000Y-80120000D02*
X143450000Y-80210000D01*
X118680000Y-103886277D02*
X118680000Y-103820000D01*
X118600197Y-103899803D02*
X118680000Y-103820000D01*
X96260000Y-96139225D02*
X96260000Y-94083850D01*
X96260000Y-94083850D02*
X95967081Y-93790931D01*
X116693445Y-103457513D02*
X115411969Y-104738989D01*
X115411969Y-104738989D02*
X104859764Y-104738989D01*
X104859764Y-104738989D02*
X96260000Y-96139225D01*
X106032371Y-103751977D02*
X112809178Y-103751978D01*
X100483107Y-98202713D02*
X106032371Y-103751977D01*
X98165989Y-95585799D02*
X98165989Y-95885595D01*
X99165994Y-95056004D02*
X99292994Y-95183004D01*
X98441785Y-95310004D02*
X98165989Y-95585799D01*
X99927073Y-96752284D02*
X99928888Y-96754099D01*
X98765196Y-96484801D02*
X98765196Y-96627235D01*
X112809178Y-103751978D02*
X113609275Y-102951881D01*
X99165994Y-95310004D02*
X98441785Y-95310004D01*
X97688984Y-94859213D02*
X97885774Y-95056004D01*
X98165989Y-95885595D02*
X98765196Y-96484801D01*
X100467701Y-97470701D02*
X100645489Y-97470700D01*
X97688984Y-94490774D02*
X97688984Y-94859213D01*
X97650000Y-93730000D02*
X98165989Y-94245989D01*
X99660387Y-97200387D02*
X99106268Y-97754506D01*
X99189753Y-97330247D02*
X99749285Y-96770715D01*
X98117994Y-94293984D02*
X97885774Y-94293984D01*
X97885774Y-94293984D02*
X97688984Y-94490774D01*
X98765196Y-96627235D02*
X98600998Y-96791432D01*
X97885774Y-95056004D02*
X99165994Y-95056004D01*
X98165989Y-94245989D02*
X98117994Y-94293984D01*
X99928888Y-96754099D02*
X99928888Y-96931889D01*
X98600998Y-97144286D02*
X98786959Y-97330247D01*
X100647304Y-97650305D02*
X100483107Y-97814503D01*
X100483107Y-97814503D02*
X100483107Y-98202713D01*
X98786959Y-97330247D02*
X99189753Y-97330247D01*
X99749285Y-96770715D02*
X99749285Y-96752285D01*
X99749285Y-96752285D02*
X99927073Y-96752284D01*
X99660389Y-97200389D02*
X99660387Y-97200387D01*
X99928888Y-96931889D02*
X99660389Y-97200389D01*
X99719478Y-98218926D02*
X100467701Y-97470701D01*
X98600998Y-96791432D02*
X98600998Y-97144286D01*
X100645489Y-97470700D02*
X100647304Y-97472515D01*
X99292994Y-95183004D02*
X99165994Y-95310004D01*
X100647304Y-97472515D02*
X100647304Y-97650305D01*
X99106268Y-97754506D02*
X99106268Y-98146268D01*
X99106268Y-98146268D02*
X99253331Y-98293331D01*
X99645087Y-98293331D02*
X99719485Y-98218933D01*
X99253331Y-98293331D02*
X99645087Y-98293331D01*
X99500000Y-93640000D02*
X99500000Y-93590000D01*
X112251083Y-103110000D02*
X112274971Y-103086112D01*
X112274971Y-103086112D02*
X112210240Y-103150843D01*
X99970000Y-95999599D02*
X99970000Y-94080000D01*
X102661820Y-96097007D02*
X101559631Y-97199196D01*
X102841424Y-96097006D02*
X102661820Y-96097007D01*
X102841425Y-96276612D02*
X102841424Y-96097006D01*
X101298514Y-98192943D02*
X101298514Y-97819518D01*
X107701774Y-102830199D02*
X107522168Y-102830198D01*
X107951183Y-102580789D02*
X107701774Y-102830199D01*
X107522168Y-102650592D02*
X107771578Y-102401183D01*
X108130789Y-102580789D02*
X107951183Y-102580789D01*
X103462285Y-98170263D02*
X102555774Y-99076778D01*
X101298514Y-97819518D02*
X102841425Y-96276612D01*
X108310394Y-102940000D02*
X108308473Y-102941922D01*
X107771578Y-102221578D02*
X107080000Y-101530000D01*
X108128867Y-102762316D02*
X108130787Y-102760393D01*
X108128867Y-102941922D02*
X108128867Y-102762316D01*
X103438410Y-99631005D02*
X103274206Y-99795210D01*
X108130787Y-102580787D02*
X108130789Y-102580789D01*
X102016945Y-98537949D02*
X103100237Y-97454662D01*
X112191083Y-103170000D02*
X108720000Y-103170000D01*
X112274971Y-103086112D02*
X112191083Y-103170000D01*
X103641891Y-98170264D02*
X103462285Y-98170263D01*
X108720000Y-103170000D02*
X108490000Y-102940000D01*
X108130787Y-102760393D02*
X108130787Y-102580787D01*
X101837343Y-98358347D02*
X101463918Y-98358347D01*
X108490000Y-102940000D02*
X108310394Y-102940000D01*
X107080000Y-101530000D02*
X105500401Y-101530000D01*
X103274206Y-99795210D02*
X102900781Y-99795210D01*
X108308473Y-102941922D02*
X108128867Y-102941922D01*
X107771578Y-102401183D02*
X107771578Y-102221578D01*
X105500401Y-101530000D02*
X103601406Y-99631005D01*
X103641890Y-98349868D02*
X103641891Y-98170264D01*
X103601406Y-99631005D02*
X103438410Y-99631005D01*
X102900781Y-99795210D02*
X102735377Y-99629806D01*
X102016945Y-98911374D02*
X102016945Y-98537949D01*
X102735377Y-99629806D02*
X102735377Y-99256381D01*
X102735377Y-99256381D02*
X103641890Y-98349868D01*
X99970000Y-94080000D02*
X99620000Y-93730000D01*
X101169597Y-97199196D02*
X99970000Y-95999599D01*
X107522168Y-102830198D02*
X107522168Y-102650592D01*
X102555774Y-99076778D02*
X102182349Y-99076778D01*
X102182349Y-99076778D02*
X102016945Y-98911374D01*
X103100237Y-97454662D02*
X103100236Y-97275056D01*
X101559631Y-97199196D02*
X101169597Y-97199196D01*
X103100236Y-97275056D02*
X102920632Y-97275057D01*
X101463918Y-98358347D02*
X101298514Y-98192943D01*
X102920632Y-97275057D02*
X101837343Y-98358347D01*
X98139201Y-103799977D02*
X98029146Y-103799977D01*
X103785466Y-104979024D02*
X103286443Y-104480001D01*
X103286443Y-104480001D02*
X101439999Y-104480001D01*
X100958022Y-104961978D02*
X99301202Y-104961978D01*
X101439999Y-104480001D02*
X100958022Y-104961978D01*
X99301202Y-104961978D02*
X98139201Y-103799977D01*
X98029146Y-103799977D02*
X98029146Y-103568607D01*
X98029146Y-103568607D02*
X97863847Y-103403308D01*
X98579988Y-104599988D02*
X98140012Y-104599988D01*
X101083236Y-105215989D02*
X99195989Y-105215989D01*
X98140012Y-104599988D02*
X98020000Y-104720000D01*
X101564787Y-104734438D02*
X101083236Y-105215989D01*
X102755004Y-104734438D02*
X101564787Y-104734438D01*
X99195989Y-105215989D02*
X98579988Y-104599988D01*
X103347433Y-105326867D02*
X102755004Y-104734438D01*
X110176692Y-94235535D02*
X108585518Y-95826709D01*
X108585518Y-96854143D02*
X107282681Y-98156980D01*
X108585518Y-95826709D02*
X108585518Y-96854143D01*
X110789990Y-94235535D02*
X110176692Y-94235535D01*
X103504294Y-104014304D02*
X100030219Y-104014304D01*
X100030219Y-104014304D02*
X99482555Y-104561968D01*
X103889990Y-104400000D02*
X103504294Y-104014304D01*
X96889999Y-102190001D02*
X96240000Y-102840000D01*
X99482555Y-104561968D02*
X99482555Y-103290553D01*
X98382003Y-102190001D02*
X96889999Y-102190001D01*
X99482555Y-103290553D02*
X98382003Y-102190001D01*
X109641703Y-97060000D02*
X109153705Y-97060000D01*
X110843671Y-95858032D02*
X109641703Y-97060000D01*
X109153705Y-97060000D02*
X107637160Y-98576545D01*
X104331258Y-104918437D02*
X104331258Y-105214714D01*
X103731891Y-105508109D02*
X102850000Y-106390000D01*
X104184889Y-105361083D02*
X103919587Y-105361083D01*
X103772561Y-105508109D02*
X103731891Y-105508109D01*
X100970000Y-105940000D02*
X99074021Y-105940000D01*
X102850000Y-106390000D02*
X101420000Y-106390000D01*
X103919587Y-105361083D02*
X103772561Y-105508109D01*
X104331258Y-105214714D02*
X104184889Y-105361083D01*
X101420000Y-106390000D02*
X100970000Y-105940000D01*
X96855501Y-106455501D02*
X96240000Y-105840000D01*
X98174499Y-106455501D02*
X96855501Y-106455501D01*
X98690000Y-105940000D02*
X98174499Y-106455501D01*
X99074021Y-105940000D02*
X98690000Y-105940000D01*
X115140000Y-73860000D02*
X114400000Y-73120000D01*
X119700000Y-80650000D02*
X119700000Y-79630000D01*
X119430000Y-80920000D02*
X119700000Y-80650000D01*
X118600000Y-78530000D02*
X118600000Y-74760000D01*
X119700000Y-79630000D02*
X118600000Y-78530000D01*
X118600000Y-74760000D02*
X117700000Y-73860000D01*
X117700000Y-73860000D02*
X115140000Y-73860000D01*
X122406959Y-72817931D02*
X122406959Y-72611455D01*
X121431890Y-73793000D02*
X122406959Y-72817931D01*
X120363000Y-73793000D02*
X121431890Y-73793000D01*
X119071316Y-72928290D02*
X118627000Y-73372606D01*
X118627000Y-73372606D02*
X118627000Y-73567394D01*
X120334739Y-73789816D02*
X120363000Y-73793000D01*
X120331555Y-73793000D02*
X120334739Y-73789816D01*
X119277792Y-72928290D02*
X119071316Y-72928290D01*
X118627000Y-73567394D02*
X118852606Y-73793000D01*
X118852606Y-73793000D02*
X120331555Y-73793000D01*
X121537102Y-74047000D02*
X122586565Y-72997537D01*
X122586565Y-72997537D02*
X122793041Y-72997537D01*
X118747394Y-74047000D02*
X121537102Y-74047000D01*
X118373000Y-73672606D02*
X118747394Y-74047000D01*
X118373000Y-73267394D02*
X118373000Y-73672606D01*
X118891710Y-72748684D02*
X118373000Y-73267394D01*
X118891710Y-72542208D02*
X118891710Y-72748684D01*
X127941312Y-74940000D02*
X127451190Y-75430122D01*
X130194021Y-75780000D02*
X130040000Y-75780000D01*
X129200000Y-74940000D02*
X127941312Y-74940000D01*
X130040000Y-75780000D02*
X129200000Y-74940000D01*
X121870000Y-83605453D02*
X121535322Y-83605453D01*
X120839990Y-84300785D02*
X120839990Y-84936713D01*
X121535322Y-83605453D02*
X120839990Y-84300785D01*
X123835892Y-82344884D02*
X123835892Y-82134662D01*
X121870000Y-83605453D02*
X122575323Y-83605453D01*
X122575323Y-83605453D02*
X123835892Y-82344884D01*
X126920000Y-76560000D02*
X126920000Y-78910000D01*
X128240000Y-75240000D02*
X126920000Y-76560000D01*
X129080000Y-75240000D02*
X128240000Y-75240000D01*
X126920000Y-78910000D02*
X127860000Y-79850000D01*
X130099966Y-76259966D02*
X129080000Y-75240000D01*
X130740034Y-76259966D02*
X130099966Y-76259966D01*
X130740034Y-75780000D02*
X130740034Y-76259966D01*
X128510000Y-81722541D02*
X128522053Y-81734594D01*
X128510000Y-81722541D02*
X123655163Y-81722541D01*
X123655163Y-81722541D02*
X123203644Y-82174060D01*
X123203644Y-82174060D02*
X123012114Y-82174060D01*
X128625786Y-81284986D02*
X126874342Y-79533542D01*
X126874342Y-79533542D02*
X125272158Y-79533542D01*
X128922063Y-81284986D02*
X128625786Y-81284986D01*
X125272158Y-79533542D02*
X123367344Y-81438356D01*
X123367344Y-81438356D02*
X123157845Y-81647855D01*
X121380000Y-97090000D02*
X121040000Y-96750000D01*
X121868752Y-98635928D02*
X121380000Y-98147176D01*
X129949999Y-107414395D02*
X129949999Y-106289999D01*
X123410000Y-101070000D02*
X123250000Y-100910000D01*
X122622027Y-100280000D02*
X122341451Y-99999424D01*
X121040000Y-96750000D02*
X121040000Y-95750000D01*
X120795465Y-90594495D02*
X120450937Y-90249967D01*
X120795465Y-94014535D02*
X120795465Y-90594495D01*
X121040000Y-95750000D02*
X120570000Y-95280000D01*
X122341451Y-99633959D02*
X122399750Y-99575660D01*
X121380000Y-98147176D02*
X121380000Y-97090000D01*
X122146363Y-98635928D02*
X121868752Y-98635928D01*
X122990775Y-100280000D02*
X122622027Y-100280000D01*
X131288056Y-108456175D02*
X130991779Y-108456175D01*
X122399750Y-98889315D02*
X122146363Y-98635928D01*
X123250000Y-100539225D02*
X122990775Y-100280000D01*
X130991779Y-108456175D02*
X129949999Y-107414395D01*
X122341451Y-99999424D02*
X122341451Y-99633959D01*
X129949999Y-106289999D02*
X124730000Y-101070000D01*
X123250000Y-100910000D02*
X123250000Y-100539225D01*
X120570000Y-95280000D02*
X120570000Y-94240000D01*
X120570000Y-94240000D02*
X120795465Y-94014535D01*
X122399750Y-99575660D02*
X122399750Y-98889315D01*
X124730000Y-101070000D02*
X123410000Y-101070000D01*
X103740001Y-109400000D02*
X103127336Y-110012665D01*
X103127336Y-110012665D02*
X102223701Y-110012665D01*
X108217962Y-110013956D02*
X107643956Y-110013956D01*
X107030000Y-109400000D02*
X103740001Y-109400000D01*
X115943312Y-109287000D02*
X109461214Y-109287000D01*
X101778001Y-109566965D02*
X100669576Y-109566965D01*
X109461214Y-109287000D02*
X109150465Y-109597749D01*
X109150465Y-109597749D02*
X108634170Y-109597749D01*
X116459990Y-108770322D02*
X115943312Y-109287000D01*
X100669576Y-109566965D02*
X100637659Y-109598882D01*
X102223701Y-110012665D02*
X101778001Y-109566965D01*
X107643956Y-110013956D02*
X107030000Y-109400000D01*
X108634170Y-109597749D02*
X108217962Y-110013956D01*
X101737224Y-109166963D02*
X100994252Y-109166963D01*
X116022592Y-108443502D02*
X115433105Y-109032989D01*
X109045251Y-109343738D02*
X108528955Y-109343738D01*
X103634787Y-109145989D02*
X103022122Y-109758654D01*
X102328915Y-109758654D02*
X101737224Y-109166963D01*
X107749170Y-109759945D02*
X107135214Y-109145989D01*
X103022122Y-109758654D02*
X102328915Y-109758654D01*
X107135214Y-109145989D02*
X103634787Y-109145989D01*
X108528955Y-109343738D02*
X108112748Y-109759945D01*
X109356000Y-109032989D02*
X109045251Y-109343738D01*
X108112748Y-109759945D02*
X107749170Y-109759945D01*
X115433105Y-109032989D02*
X109356000Y-109032989D01*
X108662109Y-108538934D02*
X108301818Y-108899225D01*
X108301818Y-108899225D02*
X108049619Y-108899225D01*
X104731299Y-108147000D02*
X103942787Y-107358488D01*
X109901256Y-107937000D02*
X109299322Y-108538934D01*
X115250516Y-107937000D02*
X109901256Y-107937000D01*
X109299322Y-108538934D02*
X108662109Y-108538934D01*
X107297394Y-108147000D02*
X104731299Y-108147000D01*
X108049619Y-108899225D02*
X107297394Y-108147000D01*
X116643221Y-106544295D02*
X115250516Y-107937000D01*
X116137267Y-106334346D02*
X114788624Y-107682989D01*
X107443847Y-107885989D02*
X105251443Y-107885989D01*
X104180560Y-106815106D02*
X103884283Y-106815106D01*
X109151805Y-108284923D02*
X108556895Y-108284923D01*
X105251443Y-107885989D02*
X104180560Y-106815106D01*
X108199838Y-108641980D02*
X107443847Y-107885989D01*
X109753739Y-107682989D02*
X109151805Y-108284923D01*
X108556895Y-108284923D02*
X108199838Y-108641980D01*
X114788624Y-107682989D02*
X109753739Y-107682989D01*
D19*
X96720000Y-85780000D02*
X95130000Y-85780000D01*
X95130000Y-85780000D02*
X94600000Y-85250000D01*
X94600000Y-85250000D02*
X94600000Y-84000000D01*
X94600000Y-84000000D02*
X94890000Y-83710000D01*
D18*
X122052437Y-97360000D02*
X122149224Y-97360000D01*
X122060000Y-97360000D02*
X122052437Y-97360000D01*
X124785214Y-98875214D02*
X126840000Y-100930000D01*
X123380776Y-97360000D02*
X124785214Y-98764438D01*
X122620000Y-97360000D02*
X123380776Y-97360000D01*
X121990000Y-96730000D02*
X122620000Y-97360000D01*
X121990000Y-96650000D02*
X121990000Y-96730000D01*
X124785214Y-98764438D02*
X124785214Y-98875214D01*
X126840000Y-101120000D02*
X127260000Y-101540000D01*
X126840000Y-100930000D02*
X126840000Y-101120000D01*
X122775989Y-97105989D02*
X123605214Y-97105989D01*
X122430000Y-96760000D02*
X122775989Y-97105989D01*
X125039225Y-98540000D02*
X125039225Y-98679225D01*
X121999990Y-95830548D02*
X122430000Y-96260558D01*
X125039225Y-98679225D02*
X127310000Y-100950000D01*
X122430000Y-96260558D02*
X122430000Y-96760000D01*
X123605214Y-97105989D02*
X125039225Y-98540000D01*
X127310000Y-101020000D02*
X127860000Y-101570000D01*
X127310000Y-100950000D02*
X127310000Y-101020000D01*
X120797803Y-100497803D02*
X120800000Y-100500000D01*
X120380000Y-96870000D02*
X120835147Y-97325147D01*
X120795854Y-99231449D02*
X120797803Y-99233398D01*
X113240000Y-95860000D02*
X114250000Y-96870000D01*
X120795854Y-98847447D02*
X120795854Y-99231449D01*
X120797803Y-99233398D02*
X120797803Y-100497803D01*
X114250000Y-96870000D02*
X120380000Y-96870000D01*
X120835147Y-97325147D02*
X120835147Y-98808154D01*
X120835147Y-98808154D02*
X120795854Y-98847447D01*
X123610000Y-103526807D02*
X123618215Y-103535022D01*
X120797803Y-100497803D02*
X120797803Y-102027803D01*
X123782229Y-107770678D02*
X123782229Y-109249820D01*
X122610000Y-102110000D02*
X123030000Y-101690000D01*
X123971980Y-109607345D02*
X123794152Y-109785173D01*
X123618215Y-103535022D02*
X123618215Y-107606664D01*
X123030000Y-101690000D02*
X123190776Y-101690000D01*
X123190776Y-101690000D02*
X123610000Y-102109224D01*
X123618215Y-107606664D02*
X123782229Y-107770678D01*
X120797803Y-102027803D02*
X120880000Y-102110000D01*
X123782229Y-109249820D02*
X123971980Y-109439571D01*
X123971980Y-109439571D02*
X123971980Y-109607345D01*
X123610000Y-102109224D02*
X123610000Y-103526807D01*
X120880000Y-102110000D02*
X122610000Y-102110000D01*
X112390000Y-95850000D02*
X113670000Y-97130000D01*
X120580000Y-98704076D02*
X120541843Y-98742233D01*
X123528218Y-109256727D02*
X123399443Y-109385502D01*
X120543792Y-102223792D02*
X121140000Y-102820000D01*
X123528218Y-107875892D02*
X123528218Y-109256727D01*
X121140000Y-102820000D02*
X121160000Y-102820000D01*
X120543792Y-99338612D02*
X120543792Y-102223792D01*
X123364204Y-107711878D02*
X123528218Y-107875892D01*
X120580000Y-97429224D02*
X120580000Y-98704076D01*
X120541843Y-99336663D02*
X120543792Y-99338612D01*
X121160000Y-102820000D02*
X123364204Y-105024204D01*
X123364204Y-105024204D02*
X123364204Y-107711878D01*
X120541843Y-98742233D02*
X120541843Y-99336663D01*
X120280776Y-97130000D02*
X120580000Y-97429224D01*
X113670000Y-97130000D02*
X120280776Y-97130000D01*
X120289781Y-99443826D02*
X120289781Y-102399005D01*
X123274207Y-108918020D02*
X122853436Y-109338791D01*
X112040851Y-97040000D02*
X112650000Y-97040000D01*
X112650000Y-97040000D02*
X113920000Y-98310000D01*
X123110193Y-105219417D02*
X123110193Y-107817092D01*
X120287832Y-99441877D02*
X120289781Y-99443826D01*
X120289781Y-102399005D02*
X123110193Y-105219417D01*
X123274207Y-107981106D02*
X123274207Y-108918020D01*
X120287832Y-98797832D02*
X120287832Y-99441877D01*
X119800000Y-98310000D02*
X120287832Y-98797832D01*
X122853436Y-109338791D02*
X122853436Y-109383255D01*
X123110193Y-107817092D02*
X123274207Y-107981106D01*
X113920000Y-98310000D02*
X119800000Y-98310000D01*
X111610841Y-96609990D02*
X112040851Y-97040000D01*
X121739051Y-105901453D02*
X121804588Y-105901453D01*
X119750776Y-98620000D02*
X120033821Y-98903045D01*
X112417020Y-97450010D02*
X112700786Y-97450010D01*
X120033821Y-98903045D02*
X120033821Y-99547091D01*
X113870776Y-98620000D02*
X119750776Y-98620000D01*
X120035770Y-102504219D02*
X121310000Y-103778449D01*
X121310000Y-105472402D02*
X121739051Y-105901453D01*
X121310000Y-103778449D02*
X121310000Y-105472402D01*
X122310182Y-107175978D02*
X122474205Y-107340001D01*
X120035770Y-99549040D02*
X120035770Y-102504219D01*
X112700786Y-97450010D02*
X113870776Y-98620000D01*
X122310182Y-106407047D02*
X122310182Y-107175978D01*
X122474205Y-107340001D02*
X122474205Y-108958768D01*
X122474205Y-108958768D02*
X122490639Y-108975202D01*
X121804588Y-105901453D02*
X122310182Y-106407047D01*
X120033821Y-99547091D02*
X120035770Y-99549040D01*
X121055989Y-103883663D02*
X121055989Y-105577616D01*
X111630616Y-97449900D02*
X112030728Y-97850012D01*
X121055989Y-105577616D02*
X121633837Y-106155464D01*
X119200000Y-100560000D02*
X119690000Y-101050000D01*
X119690000Y-101050000D02*
X119690000Y-102517675D01*
X119690000Y-102517675D02*
X121055989Y-103883663D01*
X119200000Y-99690000D02*
X119200000Y-100560000D01*
X122056171Y-106512261D02*
X122056171Y-108643315D01*
X122056171Y-108643315D02*
X122056682Y-108643826D01*
X121699374Y-106155464D02*
X122056171Y-106512261D01*
X112030728Y-97850012D02*
X112609022Y-97850012D01*
X114239010Y-99480000D02*
X118990000Y-99480000D01*
X121633837Y-106155464D02*
X121699374Y-106155464D01*
X118990000Y-99480000D02*
X119200000Y-99690000D01*
X112609022Y-97850012D02*
X114239010Y-99480000D01*
X121656672Y-108452387D02*
X121656672Y-109734480D01*
X121656672Y-109734480D02*
X121686107Y-109763915D01*
X121802160Y-108306899D02*
X121656672Y-108452387D01*
X120801978Y-103988877D02*
X120801978Y-105682830D01*
X121594160Y-106409475D02*
X121802160Y-106617475D01*
X110820034Y-98140034D02*
X111330000Y-98650000D01*
X110820034Y-97475941D02*
X110820034Y-98140034D01*
X121802160Y-106617475D02*
X121802160Y-108306899D01*
X114429235Y-100280011D02*
X118530011Y-100280011D01*
X121528623Y-106409475D02*
X121594160Y-106409475D01*
X119420000Y-101170000D02*
X119420000Y-102606899D01*
X118530011Y-100280011D02*
X119420000Y-101170000D01*
X120801978Y-105682830D02*
X121528623Y-106409475D01*
X112800130Y-98650906D02*
X114429235Y-100280011D01*
X112184395Y-98650906D02*
X112800130Y-98650906D01*
X112183489Y-98650000D02*
X112184395Y-98650906D01*
X111330000Y-98650000D02*
X112183489Y-98650000D01*
X119420000Y-102606899D02*
X120801978Y-103988877D01*
X120205546Y-108530215D02*
X120205546Y-108617780D01*
X109189904Y-97716024D02*
X109707473Y-98233593D01*
X112179050Y-99450000D02*
X112179967Y-99450917D01*
X112179967Y-99450917D02*
X113240917Y-99450917D01*
X120131896Y-108544130D02*
X120205546Y-108617780D01*
X110599631Y-99450000D02*
X112179050Y-99450000D01*
X113240917Y-99450917D02*
X114390000Y-100600000D01*
X114706203Y-100535000D02*
X118395000Y-100535000D01*
X118395000Y-100535000D02*
X119165989Y-101305989D01*
X119165989Y-101305989D02*
X119165989Y-102712114D01*
X120530000Y-105780000D02*
X120131896Y-106178104D01*
X120131896Y-106178104D02*
X120131896Y-108544130D01*
X120201740Y-108526409D02*
X120205546Y-108530215D01*
X119165989Y-102712114D02*
X120530000Y-104076125D01*
X109707473Y-98557842D02*
X110599631Y-99450000D01*
X114641203Y-100600000D02*
X114706203Y-100535000D01*
X109707473Y-98233593D02*
X109707473Y-98557842D01*
X120530000Y-104076125D02*
X120530000Y-105780000D01*
X114390000Y-100600000D02*
X114641203Y-100600000D01*
X111210000Y-100300000D02*
X111210000Y-101240000D01*
X112980000Y-101980000D02*
X114698450Y-101980000D01*
X110639506Y-100250011D02*
X111160011Y-100250011D01*
X111540000Y-101570000D02*
X112570000Y-101570000D01*
X120264011Y-105635989D02*
X119673661Y-106226339D01*
X115888450Y-100790000D02*
X118290776Y-100790000D01*
X111160011Y-100250011D02*
X111210000Y-100300000D01*
X109310171Y-98920676D02*
X110639506Y-100250011D01*
X114698450Y-101980000D02*
X115888450Y-100790000D01*
X111210000Y-101240000D02*
X111540000Y-101570000D01*
X118290776Y-100790000D02*
X118911978Y-101411202D01*
X118911978Y-101411202D02*
X118911978Y-102817327D01*
X118911978Y-102817327D02*
X120264011Y-104169360D01*
X120264011Y-104169360D02*
X120264011Y-105635989D01*
X119673661Y-106226339D02*
X119673661Y-108494384D01*
X112570000Y-101570000D02*
X112980000Y-101980000D01*
X109310171Y-98624399D02*
X109310171Y-98920676D01*
X119271754Y-106258246D02*
X120010000Y-105520000D01*
X111008815Y-101841967D02*
X110400000Y-101233152D01*
X114803664Y-102234011D02*
X112874786Y-102234011D01*
X120010000Y-105520000D02*
X120010000Y-104274575D01*
X110400000Y-100407063D02*
X109417688Y-99424751D01*
X118657967Y-102922542D02*
X118657967Y-101516415D01*
X119380000Y-108980000D02*
X119271754Y-108871754D01*
X112874786Y-102234011D02*
X112482742Y-101841967D01*
X115993663Y-101044011D02*
X114803664Y-102234011D01*
X109417688Y-99424751D02*
X109197809Y-99424751D01*
X118657967Y-101516415D02*
X118185563Y-101044011D01*
X110400000Y-101233152D02*
X110400000Y-100407063D01*
X112482742Y-101841967D02*
X111008815Y-101841967D01*
X120010000Y-104274575D02*
X118657967Y-102922542D01*
X118185563Y-101044011D02*
X115993663Y-101044011D01*
X119271754Y-108871754D02*
X119271754Y-106258246D01*
X119010000Y-108560748D02*
X118988686Y-108582062D01*
X118988686Y-108582062D02*
X118905395Y-108582062D01*
X118905395Y-108582062D02*
X118871745Y-108615712D01*
X117000000Y-102340000D02*
X117190000Y-102530000D01*
X115340000Y-102340000D02*
X117000000Y-102340000D01*
X115300000Y-102380000D02*
X115340000Y-102340000D01*
X117190000Y-102530000D02*
X117190000Y-106933967D01*
X110903602Y-102095978D02*
X112377528Y-102095978D01*
X112377528Y-102095978D02*
X112769572Y-102488022D01*
X109135948Y-100328324D02*
X110903602Y-102095978D01*
X115181978Y-102488022D02*
X115290000Y-102380000D01*
X112769572Y-102488022D02*
X115181978Y-102488022D01*
X117190000Y-106933967D02*
X118871745Y-108615712D01*
X115290000Y-102380000D02*
X115300000Y-102380000D01*
X135850000Y-78420000D02*
X135850000Y-76860000D01*
X131872340Y-79476812D02*
X134793188Y-79476812D01*
X131662841Y-79686311D02*
X131872340Y-79476812D01*
X135850000Y-76860000D02*
X135660000Y-76670000D01*
X134793188Y-79476812D02*
X135850000Y-78420000D01*
X135446966Y-76102806D02*
X135237467Y-76312305D01*
X135812806Y-76102806D02*
X135446966Y-76102806D01*
X136104011Y-76394011D02*
X135812806Y-76102806D01*
X134889225Y-79740000D02*
X136104011Y-78525214D01*
X136104011Y-78525214D02*
X136104011Y-76394011D01*
X132375543Y-79740000D02*
X134889225Y-79740000D01*
X132093213Y-80022330D02*
X132375543Y-79740000D01*
X124272236Y-107482236D02*
X124272236Y-106880000D01*
X128810000Y-102270000D02*
X129110000Y-102570000D01*
X122855143Y-98175143D02*
X123810000Y-99130000D01*
X130450000Y-105960000D02*
X130450000Y-107270000D01*
X129360000Y-110970000D02*
X128730000Y-111600000D01*
X127100000Y-102270000D02*
X128810000Y-102270000D01*
X131130000Y-107950000D02*
X131460000Y-107950000D01*
X126830000Y-111600000D02*
X125390000Y-110160000D01*
X122036750Y-98175143D02*
X122855143Y-98175143D01*
X123960000Y-99130000D02*
X127100000Y-102270000D01*
X123810000Y-99130000D02*
X123960000Y-99130000D01*
X129110000Y-104620000D02*
X130450000Y-105960000D01*
X129110000Y-102570000D02*
X129110000Y-104620000D01*
X130450000Y-107270000D02*
X131130000Y-107950000D01*
X128730000Y-111600000D02*
X126830000Y-111600000D01*
X131460000Y-107950000D02*
X131820000Y-108310000D01*
X125390000Y-110160000D02*
X125390000Y-108360000D01*
X131820000Y-108310000D02*
X131820000Y-110470000D01*
X131820000Y-110470000D02*
X131320000Y-110970000D01*
X131320000Y-110970000D02*
X129360000Y-110970000D01*
X125390000Y-108360000D02*
X124560000Y-107530000D01*
X124560000Y-107530000D02*
X124320000Y-107530000D01*
X124320000Y-107530000D02*
X124272236Y-107482236D01*
X117090943Y-80044853D02*
X117306090Y-80260000D01*
X116946857Y-79954318D02*
X117024000Y-79991468D01*
X116863381Y-79935265D02*
X116946857Y-79954318D01*
X116777759Y-79935265D02*
X116863381Y-79935265D01*
X116694283Y-79954318D02*
X116777759Y-79935265D01*
X116426499Y-80474674D02*
X116407447Y-80391199D01*
X116732181Y-80833906D02*
X116517034Y-80618760D01*
X116752312Y-80859149D02*
X116732181Y-80833906D01*
X116766321Y-80888239D02*
X116752312Y-80859149D01*
X116766321Y-80983482D02*
X116773505Y-80952005D01*
X117424189Y-80301325D02*
X117455667Y-80294140D01*
X116752312Y-81012572D02*
X116766321Y-80983482D01*
X116706940Y-81057948D02*
X116732183Y-81037817D01*
X116677850Y-81071957D02*
X116706940Y-81057948D01*
X116646372Y-81079142D02*
X116677850Y-81071957D01*
X116582607Y-81071957D02*
X116614084Y-81079142D01*
X116553517Y-81057948D02*
X116582607Y-81071957D01*
X116313126Y-80822670D02*
X116528273Y-81037817D01*
X116169040Y-80732135D02*
X116246183Y-80769285D01*
X116085564Y-80713082D02*
X116169040Y-80732135D01*
X115916466Y-80732135D02*
X115999942Y-80713082D01*
X115839323Y-80769285D02*
X115916466Y-80732135D01*
X115772380Y-80822670D02*
X115839323Y-80769285D01*
X116426499Y-80222100D02*
X116463650Y-80144957D01*
X115739217Y-80855832D02*
X115772380Y-80822670D01*
X115629630Y-81083393D02*
X115648682Y-80999917D01*
X115648682Y-81252491D02*
X115629630Y-81169016D01*
X115685833Y-81329635D02*
X115648682Y-81252491D01*
X117455667Y-80294140D02*
X117484757Y-80280131D01*
X115739217Y-81396577D02*
X115685833Y-81329635D01*
X115954364Y-81611723D02*
X115739217Y-81396577D01*
X117306090Y-80260000D02*
X117331334Y-80280131D01*
X115974495Y-81636966D02*
X115954364Y-81611723D01*
X115988504Y-81666056D02*
X115974495Y-81636966D01*
X116550197Y-80044853D02*
X116617140Y-79991468D01*
X115995688Y-81729822D02*
X115995688Y-81697534D01*
X116407447Y-80305576D02*
X116426499Y-80222100D01*
X115685833Y-80922774D02*
X115739217Y-80855832D01*
X114666646Y-84339419D02*
X114729531Y-84309135D01*
X115052882Y-84382938D02*
X115158898Y-84488954D01*
X113382327Y-85570532D02*
X113416324Y-85543420D01*
X113343149Y-85589400D02*
X113382327Y-85570532D01*
X112497086Y-86462659D02*
X112497085Y-86462657D01*
X116463650Y-80551818D02*
X116426499Y-80474674D01*
X112924512Y-85326231D02*
X113141701Y-85543420D01*
X117024000Y-79991468D02*
X117090943Y-80044853D01*
X116617140Y-79991468D02*
X116694283Y-79954318D01*
X112279897Y-85363478D02*
X112317145Y-85326231D01*
X116407447Y-80391199D02*
X116407447Y-80305576D01*
X113141701Y-85543420D02*
X113175699Y-85570532D01*
X112317145Y-85326231D02*
X112392335Y-85266269D01*
X112156807Y-85619076D02*
X112178207Y-85525316D01*
X116614084Y-81079142D02*
X116646372Y-81079142D01*
X115648682Y-80999917D02*
X115685833Y-80922774D01*
X115244629Y-84498613D02*
X115256742Y-84488953D01*
X115167457Y-83923722D02*
X115182988Y-83855673D01*
X115167457Y-83993520D02*
X115167457Y-83923722D01*
X112572743Y-85203142D02*
X112668914Y-85203142D01*
X112478983Y-85224542D02*
X112572743Y-85203142D01*
X112849322Y-85266269D02*
X112924512Y-85326231D01*
X112392335Y-85266269D02*
X112478983Y-85224542D01*
X113493415Y-85471715D02*
X113523297Y-85471715D01*
X112219934Y-85438668D02*
X112279897Y-85363478D01*
X112178207Y-85809008D02*
X112156807Y-85715248D01*
X116732181Y-81037816D02*
X116752312Y-81012572D01*
X115256742Y-84488953D02*
X115362807Y-84382887D01*
X115215567Y-84508782D02*
X115230671Y-84505334D01*
X112524197Y-86428659D02*
X112543064Y-86389481D01*
X117510000Y-80260000D02*
X117840000Y-79930000D01*
X113300755Y-85599076D02*
X113343149Y-85589400D01*
X113175699Y-85570532D02*
X113214877Y-85589400D01*
X112156807Y-85715248D02*
X112156807Y-85619076D01*
X112543064Y-86389481D02*
X112552740Y-86347087D01*
X112543064Y-86261209D02*
X112524197Y-86222031D01*
X115379190Y-84356815D02*
X115382637Y-84341710D01*
X114729531Y-84309135D02*
X114797580Y-84293603D01*
X117484757Y-80280131D02*
X117510000Y-80260000D01*
X112552740Y-86303603D02*
X112543064Y-86261209D01*
X112497085Y-86188034D02*
X112279897Y-85970846D01*
X116528273Y-81037817D02*
X116553517Y-81057948D01*
X112219934Y-85895656D02*
X112178207Y-85809008D01*
X117331334Y-80280131D02*
X117360424Y-80294140D01*
X112279897Y-85970846D02*
X112219934Y-85895656D01*
X116246183Y-80769285D02*
X116313126Y-80822670D01*
X115270307Y-83724701D02*
X115273000Y-83727394D01*
X112497085Y-86462657D02*
X112524197Y-86428659D01*
X117840000Y-79710000D02*
X117490000Y-79360000D01*
X112524197Y-86222031D02*
X112497085Y-86188034D01*
X114492490Y-84502522D02*
X114492490Y-84502518D01*
X113416324Y-85543420D02*
X113493415Y-85471715D01*
X115273000Y-83727394D02*
X115273000Y-82497000D01*
X114612074Y-84382938D02*
X114666646Y-84339419D01*
X115362807Y-84285043D02*
X115256790Y-84179026D01*
X115999942Y-80713082D02*
X116085564Y-80713082D01*
X114867378Y-84293603D02*
X114935427Y-84309134D01*
X116773505Y-80952005D02*
X116773505Y-80919717D01*
X112552740Y-86347087D02*
X112552740Y-86303603D01*
X111610000Y-87007538D02*
X111957592Y-87007538D01*
X114998312Y-84339420D02*
X115052882Y-84382938D01*
X116517034Y-80078015D02*
X116550197Y-80044853D01*
X115988504Y-81761299D02*
X115995688Y-81729822D01*
X114797580Y-84293603D02*
X114867378Y-84293603D01*
X115171011Y-84498612D02*
X115184969Y-84505335D01*
X116773505Y-80919717D02*
X116766321Y-80888239D01*
X113214877Y-85589400D02*
X113257271Y-85599076D01*
X115184969Y-84505335D02*
X115200073Y-84508783D01*
X112668914Y-85203142D02*
X112762675Y-85224542D01*
X115200073Y-84508783D02*
X115215567Y-84508782D01*
X115230671Y-84505334D02*
X115244629Y-84498613D01*
X111957592Y-87007538D02*
X112497086Y-86462659D01*
X115362807Y-84382887D02*
X115372468Y-84370773D01*
X115372468Y-84370773D02*
X115379190Y-84356815D01*
X115629630Y-81169016D02*
X115629630Y-81083393D01*
X112762675Y-85224542D02*
X112849322Y-85266269D01*
X113523297Y-85471715D02*
X114492490Y-84502522D01*
X115382637Y-84341710D02*
X115382636Y-84326218D01*
X117391901Y-80301325D02*
X117424189Y-80301325D01*
X115382636Y-84326218D02*
X115379190Y-84311113D01*
X116517034Y-80618760D02*
X116463650Y-80551818D01*
X115379190Y-84311113D02*
X115372468Y-84297155D01*
X117360424Y-80294140D02*
X117391901Y-80301325D01*
X115372468Y-84297155D02*
X115362807Y-84285043D01*
X117840000Y-79930000D02*
X117840000Y-79710000D01*
X115256790Y-84179026D02*
X115213273Y-84124454D01*
X115182987Y-84061569D02*
X115167457Y-83993520D01*
X116732183Y-81037817D02*
X116732181Y-81037816D01*
X115995688Y-81697534D02*
X115988504Y-81666056D01*
X115213272Y-83792788D02*
X115256790Y-83738218D01*
X115256790Y-83738218D02*
X115270307Y-83724701D01*
X115158898Y-84488954D02*
X115171011Y-84498612D01*
X115273000Y-82497000D02*
X115954366Y-81815634D01*
X112178207Y-85525316D02*
X112219934Y-85438668D01*
X114935427Y-84309134D02*
X114998312Y-84339420D01*
X115954366Y-81815634D02*
X115954364Y-81815633D01*
X114492490Y-84502518D02*
X114612074Y-84382938D01*
X115213273Y-84124454D02*
X115182987Y-84061569D01*
X115182988Y-83855673D02*
X115213272Y-83792788D01*
X115954364Y-81815633D02*
X115974495Y-81790389D01*
X116463650Y-80144957D02*
X116517034Y-80078015D01*
X113257271Y-85599076D02*
X113300755Y-85599076D01*
X115974495Y-81790389D02*
X115988504Y-81761299D01*
X114677489Y-84687517D02*
X114677489Y-84689974D01*
X113598629Y-85725726D02*
X113601321Y-85728417D01*
X112437537Y-85603027D02*
X112427861Y-85645421D01*
X113639280Y-85725726D02*
X113598629Y-85725726D01*
X112802394Y-86183500D02*
X112823794Y-86277261D01*
X113050519Y-85807003D02*
X112975329Y-85747041D01*
X112684965Y-85483873D02*
X112642571Y-85474197D01*
X112758140Y-85529852D02*
X112724143Y-85502740D01*
X112760667Y-86096853D02*
X112802394Y-86183500D01*
X113137167Y-85848730D02*
X113050519Y-85807003D01*
X112700705Y-86629030D02*
X112682082Y-86647655D01*
X113230927Y-85870130D02*
X113137167Y-85848730D01*
X112823794Y-86373432D02*
X112802394Y-86467192D01*
X112456404Y-85563849D02*
X112437537Y-85603027D01*
X113327099Y-85870130D02*
X113230927Y-85870130D01*
X113507507Y-85807003D02*
X113420859Y-85848730D01*
X114677489Y-84687517D02*
X113639280Y-85725726D01*
X112802394Y-86467192D02*
X112760667Y-86553840D01*
X112975329Y-85747041D02*
X112758140Y-85529852D01*
X111809499Y-87514856D02*
X111809499Y-87650501D01*
X112642571Y-85474197D02*
X112599087Y-85474197D01*
X112599087Y-85474197D02*
X112556693Y-85483873D01*
X112682082Y-86647655D02*
X111809499Y-87514856D01*
X112517515Y-85502740D02*
X112483517Y-85529852D01*
X111809499Y-87650501D02*
X111600000Y-87860000D01*
X112700705Y-86021663D02*
X112760667Y-86096853D01*
X112483517Y-85529852D02*
X112456404Y-85563849D01*
X112427861Y-85645421D02*
X112427861Y-85688905D01*
X112427861Y-85688905D02*
X112437537Y-85731299D01*
X112456404Y-85770477D02*
X112483517Y-85804475D01*
X113582697Y-85747041D02*
X113507507Y-85807003D01*
X113420859Y-85848730D02*
X113327099Y-85870130D01*
X112556693Y-85483873D02*
X112517515Y-85502740D01*
X112483517Y-85804475D02*
X112700705Y-86021663D01*
X112823794Y-86277261D02*
X112823794Y-86373432D01*
X113601321Y-85728417D02*
X113582697Y-85747041D01*
X112760667Y-86553840D02*
X112700705Y-86629030D01*
X112437537Y-85731299D02*
X112456404Y-85770477D01*
X112724143Y-85502740D02*
X112684965Y-85483873D01*
X114783556Y-84581454D02*
X114677489Y-84687517D01*
X114824733Y-84561624D02*
X114809628Y-84565071D01*
X114840225Y-84561625D02*
X114824733Y-84561624D01*
X114869288Y-84571793D02*
X114855330Y-84565071D01*
X114881400Y-84581454D02*
X114869288Y-84571793D01*
X114973899Y-84673953D02*
X114881400Y-84581454D01*
X115041986Y-84730988D02*
X114987417Y-84687468D01*
X115104872Y-84761272D02*
X115041986Y-84730988D01*
X115242720Y-84776803D02*
X115172922Y-84776803D01*
X115310768Y-84761271D02*
X115242720Y-84776803D01*
X115373654Y-84730987D02*
X115310768Y-84761271D01*
X115561323Y-84554369D02*
X115428225Y-84687468D01*
X115604842Y-84499797D02*
X115561323Y-84554369D01*
X115635126Y-84436912D02*
X115604842Y-84499797D01*
X115650658Y-84299065D02*
X115650658Y-84368863D01*
X114795670Y-84571793D02*
X114783556Y-84581454D01*
X115635127Y-84231016D02*
X115650658Y-84299065D01*
X114809628Y-84565071D02*
X114795670Y-84571793D01*
X115604841Y-84168131D02*
X115635127Y-84231016D01*
X115561323Y-84113561D02*
X115604841Y-84168131D01*
X115455306Y-84007544D02*
X115561323Y-84113561D01*
X114855330Y-84565071D02*
X114840225Y-84561625D01*
X115445647Y-83995430D02*
X115455306Y-84007544D01*
X115435478Y-83966367D02*
X115438925Y-83981472D01*
X115438925Y-83935770D02*
X115435477Y-83950875D01*
X115527011Y-83832608D02*
X115455306Y-83909700D01*
X115530196Y-83176750D02*
X115527011Y-83205011D01*
X115539588Y-83149907D02*
X115530196Y-83176750D01*
X115574828Y-83105718D02*
X115554719Y-83125827D01*
X115172922Y-84776803D02*
X115104872Y-84761272D01*
X115598908Y-83090587D02*
X115574828Y-83105718D01*
X115654011Y-83078011D02*
X115625751Y-83081195D01*
X115950011Y-83078011D02*
X115654011Y-83078011D01*
X115978272Y-83074826D02*
X115950011Y-83078011D01*
X116005115Y-83065434D02*
X115978272Y-83074826D01*
X116029195Y-83050303D02*
X116005115Y-83065434D01*
X116049304Y-83030194D02*
X116029195Y-83050303D01*
X116077011Y-82951011D02*
X116073827Y-82979271D01*
X114987417Y-84687468D02*
X114973899Y-84673953D01*
X116073827Y-82922750D02*
X116077011Y-82951011D01*
X116049304Y-82871827D02*
X116064435Y-82895907D01*
X116029195Y-82851718D02*
X116049304Y-82871827D01*
X115978272Y-82827195D02*
X116005115Y-82836587D01*
X115950011Y-82824011D02*
X115978272Y-82827195D01*
X116917180Y-81222815D02*
X116917182Y-81222816D01*
X116155944Y-81443305D02*
X116209329Y-81510248D01*
X116933761Y-81206234D02*
X116917180Y-81222815D01*
X115940798Y-81228159D02*
X116155944Y-81443305D01*
X116677290Y-80332244D02*
X116677290Y-80364531D01*
X115920667Y-81202916D02*
X115940798Y-81228159D01*
X115527011Y-83205011D02*
X115527011Y-83832608D01*
X116718615Y-80450342D02*
X116933761Y-80665488D01*
X115428225Y-84687468D02*
X115373654Y-84730987D01*
X116677290Y-80364531D02*
X116684475Y-80396009D01*
X116698484Y-80425099D02*
X116718615Y-80450342D01*
X116673039Y-81348985D02*
X116587417Y-81348985D01*
X116743859Y-80226302D02*
X116718615Y-80246433D01*
X115435477Y-83950875D02*
X115435478Y-83966367D01*
X116804426Y-80205109D02*
X116772949Y-80212293D01*
X118154364Y-79985636D02*
X117678418Y-80461580D01*
X115906658Y-81078583D02*
X115899473Y-81110061D01*
X116718615Y-80246433D02*
X116698484Y-80271676D01*
X116698484Y-80271676D02*
X116684475Y-80300766D01*
X116073827Y-82979271D02*
X116064435Y-83006114D01*
X116139363Y-82000632D02*
X116139365Y-82000633D01*
X117043349Y-80893050D02*
X117043349Y-80978672D01*
X116772949Y-80212293D02*
X116743859Y-80226302D01*
X115455306Y-83909700D02*
X115445647Y-83921812D01*
X115527011Y-82697011D02*
X115530196Y-82725271D01*
X117611475Y-80514965D02*
X117534332Y-80552115D01*
X115966042Y-81004119D02*
X115940798Y-81024250D01*
X115899473Y-81142348D02*
X115906658Y-81173826D01*
X117678418Y-80461580D02*
X117611475Y-80514965D01*
X116064435Y-83006114D02*
X116049304Y-83030194D01*
X118154364Y-79434364D02*
X118154364Y-79985636D01*
X116265532Y-81670867D02*
X116265532Y-81756489D01*
X117365234Y-80571168D02*
X117281758Y-80552115D01*
X117281758Y-80552115D02*
X117204615Y-80514965D01*
X116587417Y-81348985D02*
X116503941Y-81329932D01*
X118060000Y-79340000D02*
X118154364Y-79434364D01*
X117450856Y-80571168D02*
X117365234Y-80571168D01*
X115650658Y-84368863D02*
X115635126Y-84436912D01*
X116897282Y-80226302D02*
X116868192Y-80212293D01*
X115940798Y-81024250D02*
X115920667Y-81049493D01*
X116917182Y-81222816D02*
X116900601Y-81239397D01*
X115539588Y-82752114D02*
X115554719Y-82776194D01*
X116684475Y-80300766D02*
X116677290Y-80332244D01*
X116922525Y-80246433D02*
X116897282Y-80226302D01*
X116139365Y-82000633D02*
X115527011Y-82612989D01*
X117024296Y-81062148D02*
X116987146Y-81139291D01*
X116868192Y-80212293D02*
X116836714Y-80205109D01*
X117043349Y-80978672D02*
X117024296Y-81062148D01*
X115906658Y-81173826D02*
X115920667Y-81202916D01*
X116836714Y-80205109D02*
X116804426Y-80205109D01*
X116246479Y-81587391D02*
X116265532Y-81670867D01*
X115554719Y-83125827D02*
X115539588Y-83149907D01*
X116756515Y-81329932D02*
X116673039Y-81348985D01*
X116064435Y-82895907D02*
X116073827Y-82922750D01*
X116265532Y-81756489D02*
X116246479Y-81839965D01*
X116684475Y-80396009D02*
X116698484Y-80425099D01*
X116503941Y-81329932D02*
X116426798Y-81292782D01*
X116426798Y-81292782D02*
X116359855Y-81239397D01*
X116359855Y-81239397D02*
X116144708Y-81024250D01*
X116144708Y-81024250D02*
X116119465Y-81004119D01*
X116987146Y-80732431D02*
X117024296Y-80809574D01*
X116119465Y-81004119D02*
X116090375Y-80990110D01*
X116090375Y-80990110D02*
X116058897Y-80982926D01*
X117534332Y-80552115D02*
X117450856Y-80571168D01*
X116058897Y-80982926D02*
X116026609Y-80982926D01*
X116005115Y-82836587D02*
X116029195Y-82851718D01*
X116026609Y-80982926D02*
X115995132Y-80990110D01*
X115920667Y-81049493D02*
X115906658Y-81078583D01*
X117137672Y-80461580D02*
X116922525Y-80246433D01*
X115899473Y-81110061D02*
X115899473Y-81142348D01*
X117204615Y-80514965D02*
X117137672Y-80461580D01*
X115625751Y-82820826D02*
X115654011Y-82824011D01*
X115625751Y-83081195D02*
X115598908Y-83090587D01*
X116209329Y-81510248D02*
X116246479Y-81587391D01*
X116246479Y-81839965D02*
X116209329Y-81917108D01*
X117024296Y-80809574D02*
X117043349Y-80893050D01*
X116209329Y-81917108D02*
X116155944Y-81984051D01*
X116933761Y-80665488D02*
X116987146Y-80732431D01*
X116155944Y-81984051D02*
X116139363Y-82000632D01*
X116987146Y-81139291D02*
X116933761Y-81206234D01*
X115527011Y-82612989D02*
X115527011Y-82697011D01*
X115445647Y-83921812D02*
X115438925Y-83935770D01*
X115530196Y-82725271D02*
X115539588Y-82752114D01*
X116900601Y-81239397D02*
X116833658Y-81292782D01*
X115554719Y-82776194D02*
X115574828Y-82796303D01*
X116833658Y-81292782D02*
X116756515Y-81329932D01*
X115574828Y-82796303D02*
X115598908Y-82811434D01*
X115438925Y-83981472D02*
X115445647Y-83995430D01*
X115598908Y-82811434D02*
X115625751Y-82820826D01*
X115995132Y-80990110D02*
X115966042Y-81004119D01*
X115654011Y-82824011D02*
X115950011Y-82824011D01*
X118552774Y-82607702D02*
X118578775Y-82607702D01*
X118527423Y-82601916D02*
X118552774Y-82607702D01*
X118483667Y-82574423D02*
X118503997Y-82590635D01*
X118165466Y-82365563D02*
X118242833Y-82383221D01*
X117937244Y-82417653D02*
X118008742Y-82383221D01*
X117779596Y-82952388D02*
X117745164Y-82880890D01*
X118199576Y-83390425D02*
X118107654Y-83298500D01*
X118389820Y-83584784D02*
X118373607Y-83564456D01*
X118389820Y-83708340D02*
X118401101Y-83684914D01*
X118008742Y-82383221D02*
X118086109Y-82365563D01*
X118373607Y-83728670D02*
X118389820Y-83708340D01*
X118358218Y-83744060D02*
X118373607Y-83728670D01*
X117875201Y-82467131D02*
X117937244Y-82417653D01*
X118337888Y-83760272D02*
X118358218Y-83744060D01*
X117779596Y-82575301D02*
X117829074Y-82513257D01*
X118289110Y-83777341D02*
X118314462Y-83771554D01*
X118263110Y-83777340D02*
X118289110Y-83777341D01*
X117727506Y-82803523D02*
X117727506Y-82724166D01*
X118214332Y-83760273D02*
X118237758Y-83771555D01*
X117745164Y-82880890D02*
X117727506Y-82803523D01*
X118194002Y-83744061D02*
X118214332Y-83760273D01*
X117646725Y-83196782D02*
X118194002Y-83744061D01*
X117584681Y-83147304D02*
X117646725Y-83196782D01*
X117513183Y-83112872D02*
X117584681Y-83147304D01*
X117435816Y-83095214D02*
X117513183Y-83112872D01*
X117279092Y-83112872D02*
X117356459Y-83095214D01*
X118401101Y-83608212D02*
X118389820Y-83584784D01*
X117145550Y-83196782D02*
X117207594Y-83147304D01*
X118406887Y-83633562D02*
X118401101Y-83608212D01*
X117099424Y-83242908D02*
X117145550Y-83196782D01*
X116997856Y-83533174D02*
X116997856Y-83453817D01*
X117015514Y-83610541D02*
X116997856Y-83533174D01*
X117049946Y-83682039D02*
X117015514Y-83610541D01*
X117099424Y-83744082D02*
X117049946Y-83682039D01*
X117206715Y-83851373D02*
X117099424Y-83744082D01*
X117222927Y-83871703D02*
X117206715Y-83851373D01*
X117234209Y-83895129D02*
X117222927Y-83871703D01*
X117222927Y-83995258D02*
X117234209Y-83971832D01*
X115310000Y-85916541D02*
X116928947Y-84297594D01*
X115310000Y-86410775D02*
X115310000Y-85916541D01*
X114774687Y-86941587D02*
X114796921Y-86923855D01*
X114514863Y-86860587D02*
X114542589Y-86866915D01*
X114486425Y-86860586D02*
X114514863Y-86860587D01*
X118242833Y-82383221D02*
X118314331Y-82417653D01*
X114114901Y-87566690D02*
X114114900Y-87538252D01*
X114108573Y-87594416D02*
X114114901Y-87566690D01*
X114665174Y-86953926D02*
X114692900Y-86960254D01*
X114474110Y-87207481D02*
X114474109Y-87179043D01*
X118650000Y-82576541D02*
X118650000Y-81830000D01*
X113986877Y-87731383D02*
X113999308Y-87721470D01*
X113972554Y-87738281D02*
X113986877Y-87731383D01*
X117829074Y-83014431D02*
X117779596Y-82952388D01*
X114437710Y-87103460D02*
X114410840Y-87076590D01*
X113840745Y-87701120D02*
X113856643Y-87701121D01*
X118578775Y-82607702D02*
X118604126Y-82601916D01*
X113941155Y-87741818D02*
X113957053Y-87741819D01*
X118086109Y-82365563D02*
X118165466Y-82365563D01*
X114639551Y-86941587D02*
X114665174Y-86953926D01*
X114467782Y-87235207D02*
X114474110Y-87207481D01*
X113911329Y-87731383D02*
X113925654Y-87738281D01*
X117239995Y-83946481D02*
X117239995Y-83920480D01*
X114617318Y-86923855D02*
X114639551Y-86941587D01*
X114455443Y-87260830D02*
X114467782Y-87235207D01*
X113886467Y-87711557D02*
X113911329Y-87731383D01*
X114590447Y-86896984D02*
X114617318Y-86923855D01*
X114437711Y-87283064D02*
X114455443Y-87260830D01*
X114108572Y-87510526D02*
X114096234Y-87484903D01*
X114902985Y-86817790D02*
X115310000Y-86410775D01*
X114393110Y-87054355D02*
X114380771Y-87028732D01*
X114542589Y-86866915D02*
X114568212Y-86879253D01*
X113872144Y-87704657D02*
X113886467Y-87711557D01*
X118237758Y-83771555D02*
X118263110Y-83777340D01*
X113856643Y-87701121D02*
X113872144Y-87704657D01*
X114114900Y-87538252D02*
X114108572Y-87510526D01*
X114796921Y-86923855D02*
X114902985Y-86817790D01*
X114410840Y-87076590D02*
X114393110Y-87054355D01*
X118314331Y-82417653D02*
X118376375Y-82467131D01*
X114089817Y-87114772D02*
X114258109Y-87283064D01*
X117356459Y-83095214D02*
X117435816Y-83095214D01*
X113729205Y-87989053D02*
X113736105Y-87974728D01*
X117234209Y-83971832D02*
X117239995Y-83946481D01*
X113719293Y-88001482D02*
X113729205Y-87989053D01*
X113957053Y-87741819D02*
X113972554Y-87738281D01*
X113698945Y-87858818D02*
X113698944Y-87842920D01*
X118107654Y-83298500D02*
X118110396Y-83295753D01*
X113798488Y-87721470D02*
X113810919Y-87711557D01*
X114078502Y-87642273D02*
X114096234Y-87620039D01*
X118373607Y-83564456D02*
X118199576Y-83390425D01*
X114692900Y-86960254D02*
X114721340Y-86960253D01*
X114474109Y-87179043D02*
X114467781Y-87151317D01*
X113698944Y-87842920D02*
X113702482Y-87827419D01*
X113739641Y-87943329D02*
X113736105Y-87927828D01*
X114458699Y-86866914D02*
X114486425Y-86860586D01*
X113736105Y-87927828D02*
X113729205Y-87913505D01*
X113985795Y-87078374D02*
X114014233Y-87078375D01*
X114096234Y-87620039D02*
X114108573Y-87594416D01*
X114721340Y-86960253D02*
X114749066Y-86953925D01*
X114467781Y-87151317D02*
X114455443Y-87125694D01*
X113709380Y-87888644D02*
X113702482Y-87874319D01*
X114258109Y-87283064D02*
X114280342Y-87300796D01*
X117745164Y-82646799D02*
X117779596Y-82575301D01*
X113200000Y-88520775D02*
X113719293Y-88001482D01*
X116997856Y-83453817D02*
X117015514Y-83376450D01*
X113925654Y-87738281D02*
X113941155Y-87741818D01*
X113200000Y-88640000D02*
X113200000Y-88520775D01*
X113702482Y-87874319D02*
X113698945Y-87858818D01*
X117015514Y-83376450D02*
X117049946Y-83304952D01*
X113910210Y-87294378D02*
X113892480Y-87272143D01*
X117206715Y-84015588D02*
X117222927Y-83995258D01*
X114374442Y-86972568D02*
X114380770Y-86944842D01*
X113739642Y-87959227D02*
X113739641Y-87943329D01*
X118376375Y-82467131D02*
X118483667Y-82574423D01*
X113729205Y-87913505D02*
X113709380Y-87888644D01*
X113709380Y-87813096D02*
X113719293Y-87800664D01*
X113999308Y-87721470D02*
X114078502Y-87642273D01*
X113719293Y-87800664D02*
X113798488Y-87721470D01*
X117727506Y-82724166D02*
X117745164Y-82646799D01*
X114380771Y-87028732D02*
X114374443Y-87001006D01*
X114078501Y-87462669D02*
X113910210Y-87294378D01*
X114374443Y-87001006D02*
X114374442Y-86972568D01*
X118604126Y-82601916D02*
X118627552Y-82590635D01*
X113892480Y-87272143D02*
X113880139Y-87246521D01*
X114380770Y-86944842D02*
X114393110Y-86919219D01*
X113810919Y-87711557D02*
X113825244Y-87704657D01*
X113880139Y-87246521D02*
X113873811Y-87218795D01*
X114393110Y-86919219D02*
X114410841Y-86896984D01*
X118503997Y-82590635D02*
X118527423Y-82601916D01*
X113736105Y-87974728D02*
X113739642Y-87959227D01*
X114096234Y-87484903D02*
X114078501Y-87462669D01*
X113873811Y-87218795D02*
X113873812Y-87190355D01*
X113873812Y-87190355D02*
X113880140Y-87162629D01*
X118401101Y-83684914D02*
X118406887Y-83659564D01*
X113880140Y-87162629D02*
X113892479Y-87137007D01*
X113892479Y-87137007D02*
X113910211Y-87114772D01*
X113910211Y-87114772D02*
X113932446Y-87097041D01*
X117207594Y-83147304D02*
X117279092Y-83112872D01*
X113932446Y-87097041D02*
X113958069Y-87084702D01*
X118650000Y-81830000D02*
X118320000Y-81500000D01*
X113958069Y-87084702D02*
X113985795Y-87078374D01*
X118110396Y-83295753D02*
X117829074Y-83014431D01*
X114014233Y-87078375D02*
X114041959Y-87084703D01*
X114041959Y-87084703D02*
X114067582Y-87097041D01*
X114067582Y-87097041D02*
X114089817Y-87114772D01*
X116928947Y-84297594D02*
X117206715Y-84015588D01*
X113825244Y-87704657D02*
X113840745Y-87701120D01*
X114280342Y-87300796D02*
X114305966Y-87313135D01*
X114305966Y-87313135D02*
X114333692Y-87319463D01*
X114333692Y-87319463D02*
X114362130Y-87319464D01*
X118406887Y-83659564D02*
X118406887Y-83633562D01*
X117049946Y-83304952D02*
X117099424Y-83242908D01*
X114362130Y-87319464D02*
X114389856Y-87313136D01*
X118627552Y-82590635D02*
X118647882Y-82574423D01*
X114389856Y-87313136D02*
X114415480Y-87300795D01*
X114415480Y-87300795D02*
X114437712Y-87283064D01*
X117829074Y-82513257D02*
X117875201Y-82467131D01*
X118314462Y-83771554D02*
X118337888Y-83760272D01*
X114568212Y-86879253D02*
X114590447Y-86896984D01*
X113702482Y-87827419D02*
X113709380Y-87813096D01*
X114437712Y-87283064D02*
X114437711Y-87283064D01*
X114749066Y-86953925D02*
X114774687Y-86941587D01*
X114455443Y-87125694D02*
X114437710Y-87103460D01*
X117239995Y-83920480D02*
X117234209Y-83895129D01*
X114410841Y-86896984D02*
X114433076Y-86879253D01*
X118647882Y-82574423D02*
X118650000Y-82576541D01*
X114433076Y-86879253D02*
X114458699Y-86866914D01*
X117334360Y-83379786D02*
X117314031Y-83395998D01*
X117314031Y-83395998D02*
X117298640Y-83411388D01*
X117457916Y-83379786D02*
X117434489Y-83368504D01*
X117478245Y-83395998D02*
X117457916Y-83379786D01*
X117357787Y-83368504D02*
X117334360Y-83379786D01*
X118025524Y-83943276D02*
X117478245Y-83395998D01*
X117383137Y-83362718D02*
X117357787Y-83368504D01*
X118087566Y-83992755D02*
X118025524Y-83943276D01*
X117282428Y-83431718D02*
X117271146Y-83455144D01*
X117409139Y-83362718D02*
X117383137Y-83362718D01*
X118159064Y-84027187D02*
X118087566Y-83992755D01*
X117298640Y-83411388D02*
X117282428Y-83431718D01*
X117434489Y-83368504D02*
X117409139Y-83362718D01*
X118236432Y-84044844D02*
X118159064Y-84027187D01*
X118187566Y-82650134D02*
X118164140Y-82638852D01*
X118831729Y-82758270D02*
X118816362Y-82773638D01*
X118207896Y-82666346D02*
X118187566Y-82650134D01*
X118829612Y-82756154D02*
X118831729Y-82758270D01*
X118393156Y-84027186D02*
X118315788Y-84044845D01*
X118315187Y-82773638D02*
X118299820Y-82758270D01*
X118526698Y-83943276D02*
X118464654Y-83992754D01*
X118448729Y-82857548D02*
X118377231Y-82823116D01*
X118464654Y-83992754D02*
X118393156Y-84027186D01*
X118377231Y-82823116D02*
X118315187Y-82773638D01*
X118605453Y-82875206D02*
X118526096Y-82875206D01*
X118682820Y-82857548D02*
X118605453Y-82875206D01*
X118315788Y-84044845D02*
X118236432Y-84044844D01*
X118299820Y-82758270D02*
X118207896Y-82666346D01*
X118064011Y-82650134D02*
X118043681Y-82666346D01*
X118526096Y-82875206D02*
X118448729Y-82857548D01*
X118910000Y-81390000D02*
X118910000Y-82675766D01*
X118138789Y-82633066D02*
X118112788Y-82633066D01*
X118164140Y-82638852D02*
X118138789Y-82633066D01*
X118816362Y-82773638D02*
X118754318Y-82823116D01*
X118754318Y-82823116D02*
X118682820Y-82857548D01*
X118112788Y-82633066D02*
X118087437Y-82638852D01*
X118087437Y-82638852D02*
X118064011Y-82650134D01*
X118043681Y-82666346D02*
X118028290Y-82681736D01*
X118028290Y-82681736D02*
X118012078Y-82702066D01*
X115570000Y-86530000D02*
X113620000Y-88480000D01*
X117298640Y-83575603D02*
X117405931Y-83682894D01*
X118012078Y-82702066D02*
X118000796Y-82725492D01*
X113620000Y-88480000D02*
X113620000Y-89030000D01*
X117455409Y-84122025D02*
X117405931Y-84184068D01*
X117405931Y-83682894D02*
X117455409Y-83744938D01*
X117271146Y-83455144D02*
X117265360Y-83480495D01*
X118000796Y-82725492D02*
X117995010Y-82750843D01*
X117405931Y-84184068D02*
X117390563Y-84199436D01*
X117455409Y-83744938D02*
X117489841Y-83816436D01*
X117265360Y-83480495D02*
X117265360Y-83506496D01*
X118674391Y-83686242D02*
X118656734Y-83763608D01*
X118910000Y-82675766D02*
X118829612Y-82756154D01*
X117995010Y-82750843D02*
X117995010Y-82776844D01*
X117390563Y-84199436D02*
X117108559Y-84477207D01*
X117489841Y-83816436D02*
X117507499Y-83893803D01*
X117265360Y-83506496D02*
X117271146Y-83531847D01*
X118656734Y-83763608D02*
X118622302Y-83835106D01*
X118383424Y-83206577D02*
X118572823Y-83395976D01*
X117995010Y-82776844D02*
X118000796Y-82802195D01*
X117108559Y-84477207D02*
X115570000Y-86015766D01*
X117507499Y-83893803D02*
X117507499Y-83973160D01*
X117271146Y-83531847D02*
X117282428Y-83555273D01*
X118622302Y-83835106D02*
X118572824Y-83897150D01*
X118572823Y-83395976D02*
X118622301Y-83458020D01*
X118000796Y-82802195D02*
X118012078Y-82825621D01*
X115570000Y-86015766D02*
X115570000Y-86530000D01*
X117507499Y-83973160D02*
X117489841Y-84050527D01*
X117282428Y-83555273D02*
X117298640Y-83575603D01*
X118572824Y-83897150D02*
X118526698Y-83943276D01*
X118622301Y-83458020D02*
X118656733Y-83529518D01*
X118012078Y-82825621D02*
X118028290Y-82845951D01*
X117489841Y-84050527D02*
X117455409Y-84122025D01*
X118656733Y-83529518D02*
X118674390Y-83606886D01*
X118028290Y-82845951D02*
X118294244Y-83111905D01*
X118674390Y-83606886D02*
X118674391Y-83686242D01*
X118294244Y-83111905D02*
X118291499Y-83114655D01*
X118291499Y-83114655D02*
X118383424Y-83206577D01*
X113620000Y-89030000D02*
X113370000Y-89030000D01*
X113370000Y-89030000D02*
X113330000Y-89070000D01*
X113330000Y-89070000D02*
X112870000Y-89070000D01*
X112870000Y-89070000D02*
X112820000Y-89120000D01*
X112820000Y-89830000D02*
X112410000Y-90240000D01*
X112820000Y-89120000D02*
X112820000Y-89830000D01*
X116365989Y-82364734D02*
X118893723Y-79837000D01*
X113279022Y-86561753D02*
X113946338Y-86561753D01*
X112315989Y-87524786D02*
X113279022Y-86561753D01*
X112312805Y-88045046D02*
X112315989Y-88016786D01*
X112303413Y-88071889D02*
X112312805Y-88045046D01*
X112288282Y-88095969D02*
X112303413Y-88071889D01*
X111883066Y-88215682D02*
X111898197Y-88191602D01*
X111873674Y-88299046D02*
X111870489Y-88270786D01*
X111969229Y-88146970D02*
X111997489Y-88143786D01*
X111561048Y-89272725D02*
X111563540Y-89261809D01*
X111204331Y-89609822D02*
X111201839Y-89598906D01*
X111942386Y-88156362D02*
X111969229Y-88146970D01*
X111556190Y-89282813D02*
X111561048Y-89272725D01*
X111431563Y-89407442D02*
X111440316Y-89400462D01*
X111873674Y-88242525D02*
X111883066Y-88215682D01*
X111421475Y-89412301D02*
X111431563Y-89407442D01*
X111870489Y-88270786D02*
X111873674Y-88242525D01*
X111410559Y-89414793D02*
X111421475Y-89412301D01*
X111399363Y-89414793D02*
X111410559Y-89414793D01*
X111183019Y-89571313D02*
X111178161Y-89561225D01*
X111898197Y-88191602D02*
X111918306Y-88171493D01*
X111440316Y-89400462D02*
X111549209Y-89291566D01*
X111378359Y-89407443D02*
X111388447Y-89412301D01*
X111369606Y-89400461D02*
X111378359Y-89407443D01*
X111201839Y-89631934D02*
X111204331Y-89621018D01*
X111360851Y-89393481D02*
X111369606Y-89400461D01*
X118893723Y-79837000D02*
X119190000Y-79837000D01*
X111178161Y-89528197D02*
X111183020Y-89518109D01*
X112288282Y-88445602D02*
X112268173Y-88425493D01*
X111687861Y-89026922D02*
X111699057Y-89026923D01*
X111328652Y-89386131D02*
X111339848Y-89386132D01*
X112085193Y-88755582D02*
X112315989Y-88524786D01*
X111317735Y-89388623D02*
X111328652Y-89386131D01*
X111298894Y-89400462D02*
X111307649Y-89393480D01*
X111183020Y-89518109D02*
X111190000Y-89509355D01*
X111190000Y-89650775D02*
X111196981Y-89642022D01*
X111190000Y-90510776D02*
X111190000Y-89650775D01*
X111196981Y-89642022D02*
X111201839Y-89631934D01*
X110810872Y-91006560D02*
X110810872Y-90889904D01*
X111178161Y-89561225D02*
X111175669Y-89550309D01*
X111676944Y-89029414D02*
X111687861Y-89026922D01*
X111190000Y-89580065D02*
X111183019Y-89571313D01*
X111204331Y-89621018D02*
X111204331Y-89609822D01*
X111190000Y-89509355D02*
X111298894Y-89400462D01*
X111201839Y-89598906D02*
X111196980Y-89588820D01*
X111790772Y-89048233D02*
X111799525Y-89041253D01*
X110810872Y-90889904D02*
X111190000Y-90510776D01*
X111175669Y-89550309D02*
X111175669Y-89539113D01*
X113946338Y-86561753D02*
X116365989Y-84142102D01*
X111918306Y-88171493D02*
X111942386Y-88156362D01*
X111549209Y-89291566D02*
X111556190Y-89282813D01*
X111997489Y-88143786D02*
X112188989Y-88143786D01*
X111563540Y-89261809D02*
X111563540Y-89250613D01*
X112188989Y-88143786D02*
X112217250Y-88140601D01*
X111563540Y-89250613D02*
X111561048Y-89239697D01*
X112217250Y-88140601D02*
X112244093Y-88131209D01*
X111561048Y-89239697D02*
X111556189Y-89229611D01*
X112244093Y-88131209D02*
X112268173Y-88116078D01*
X111556189Y-89229611D02*
X111549209Y-89220856D01*
X111542228Y-89212104D02*
X111537370Y-89202016D01*
X111537370Y-89202016D02*
X111534878Y-89191100D01*
X111898197Y-88349969D02*
X111883066Y-88325889D01*
X111350763Y-89388623D02*
X111360851Y-89393481D01*
X111534878Y-89191100D02*
X111534878Y-89179904D01*
X111534878Y-89179904D02*
X111537370Y-89168988D01*
X111388447Y-89412301D02*
X111399363Y-89414793D01*
X111969229Y-88394601D02*
X111942386Y-88385209D01*
X111549209Y-89220856D02*
X111542228Y-89212104D01*
X111537370Y-89168988D02*
X111542229Y-89158900D01*
X111549209Y-89150146D02*
X111658103Y-89041253D01*
X112315989Y-88016786D02*
X112315989Y-87524786D01*
X111666858Y-89034271D02*
X111676944Y-89029414D01*
X116365989Y-84142102D02*
X116365989Y-82364734D01*
X111699057Y-89026923D02*
X111709972Y-89029414D01*
X111942386Y-88385209D02*
X111918306Y-88370078D01*
X111709972Y-89029414D02*
X111720060Y-89034272D01*
X111720060Y-89034272D02*
X111728815Y-89041252D01*
X111728815Y-89041252D02*
X111737568Y-89048234D01*
X112315989Y-88524786D02*
X112312805Y-88496525D01*
X111737568Y-89048234D02*
X111747656Y-89053092D01*
X112312805Y-88496525D02*
X112303413Y-88469682D01*
X111747656Y-89053092D02*
X111758572Y-89055584D01*
X112303413Y-88469682D02*
X112288282Y-88445602D01*
X111758572Y-89055584D02*
X111769768Y-89055584D01*
X111769768Y-89055584D02*
X111780684Y-89053092D01*
X111196980Y-89588820D02*
X111190000Y-89580065D01*
X111780684Y-89053092D02*
X111790772Y-89048233D01*
X111799525Y-89041253D02*
X112085193Y-88755582D01*
X111542229Y-89158900D02*
X111549209Y-89150146D01*
X111883066Y-88325889D02*
X111873674Y-88299046D01*
X111307649Y-89393480D02*
X111317735Y-89388623D01*
X112268173Y-88425493D02*
X112244093Y-88410362D01*
X112244093Y-88410362D02*
X112217250Y-88400970D01*
X111175669Y-89539113D02*
X111178161Y-89528197D01*
X112217250Y-88400970D02*
X112188989Y-88397786D01*
X111339848Y-89386132D02*
X111350763Y-89388623D01*
X111997489Y-88397786D02*
X111969229Y-88394601D01*
X111658103Y-89041253D02*
X111666858Y-89034271D01*
X112188989Y-88397786D02*
X111997489Y-88397786D01*
X112268173Y-88116078D02*
X112288282Y-88095969D01*
X111918306Y-88370078D02*
X111898197Y-88349969D01*
X111230000Y-91442312D02*
X110858618Y-91813694D01*
X111450000Y-89750000D02*
X111450000Y-90610000D01*
X112590000Y-87610000D02*
X112590000Y-88610000D01*
X111230000Y-90830000D02*
X111230000Y-91442312D01*
X114051552Y-86815764D02*
X113384236Y-86815764D01*
X119199850Y-80392850D02*
X118707150Y-80392850D01*
X112590000Y-88610000D02*
X111450000Y-89750000D01*
X118707150Y-80392850D02*
X116620000Y-82480000D01*
X116620000Y-82480000D02*
X116620000Y-84247316D01*
X111450000Y-90610000D02*
X111230000Y-90830000D01*
X116620000Y-84247316D02*
X114051552Y-86815764D01*
X113384236Y-86815764D02*
X112590000Y-87610000D01*
X123733255Y-83195969D02*
X124000000Y-83195969D01*
X122158253Y-85432141D02*
X122158253Y-84770971D01*
X122158253Y-84770971D02*
X123733255Y-83195969D01*
X119627468Y-88667457D02*
X119190000Y-88229989D01*
X119190000Y-88229989D02*
X119190000Y-86400000D01*
X121448519Y-86141875D02*
X122158253Y-85432141D01*
X119448125Y-86141875D02*
X121448519Y-86141875D01*
X119190000Y-86400000D02*
X119448125Y-86141875D01*
X122696355Y-82619510D02*
X121399714Y-82619510D01*
X118079802Y-85939422D02*
X118079802Y-88672865D01*
X121399714Y-82619510D02*
X118079802Y-85939422D01*
X121449619Y-86500000D02*
X122412264Y-85537355D01*
X119450000Y-87910000D02*
X119450000Y-86500000D01*
X123692470Y-83595979D02*
X124414634Y-83595979D01*
X120030000Y-89030000D02*
X120030000Y-88490000D01*
X119450000Y-86500000D02*
X121449619Y-86500000D01*
X122412264Y-85537355D02*
X122412264Y-84876185D01*
X120030000Y-88490000D02*
X119450000Y-87910000D01*
X122412264Y-84876185D02*
X123692470Y-83595979D01*
X119610000Y-89450000D02*
X120030000Y-89030000D01*
X118368020Y-88388020D02*
X118790010Y-88810010D01*
X118368020Y-86010429D02*
X118368020Y-88388020D01*
X118790010Y-88810010D02*
X118790010Y-89446858D01*
X121197148Y-83181301D02*
X118368020Y-86010429D01*
X122339119Y-83181301D02*
X121197148Y-83181301D01*
X122799751Y-99081316D02*
X123102446Y-99384011D01*
X123102446Y-99384011D02*
X123714011Y-99384011D01*
X127110000Y-102780000D02*
X128709990Y-102780000D01*
X123714011Y-99384011D02*
X127110000Y-102780000D01*
X124225991Y-110024623D02*
X124225991Y-109043752D01*
X114945855Y-110888589D02*
X114964444Y-110870000D01*
X113930569Y-110888589D02*
X114945855Y-110888589D01*
X113554546Y-110512566D02*
X113930569Y-110888589D01*
X111619797Y-110512566D02*
X113554546Y-110512566D01*
X111492365Y-110639998D02*
X111619797Y-110512566D01*
X109028820Y-110639998D02*
X111492365Y-110639998D01*
X108628819Y-111039999D02*
X109028820Y-110639998D01*
X106622777Y-111039999D02*
X108628819Y-111039999D01*
X106547389Y-110964611D02*
X106622777Y-111039999D01*
X106163387Y-110964611D02*
X106547389Y-110964611D01*
X105794442Y-111333556D02*
X106163387Y-110964611D01*
X104535558Y-111333556D02*
X105794442Y-111333556D01*
X104512001Y-111309999D02*
X104535558Y-111333556D01*
X104104442Y-111333556D02*
X104127999Y-111309999D01*
X100535558Y-111333556D02*
X104104442Y-111333556D01*
X96580774Y-111309999D02*
X100512001Y-111309999D01*
X123884625Y-110365989D02*
X124225991Y-110024623D01*
X100512001Y-111309999D02*
X100535558Y-111333556D01*
X124225991Y-109043752D02*
X124182239Y-109000000D01*
X104370347Y-91230668D02*
X103799281Y-91230668D01*
X120560775Y-110870000D02*
X120564786Y-110865989D01*
X94770000Y-106520452D02*
X94940001Y-106690453D01*
X102494787Y-91825988D02*
X102252808Y-92067967D01*
X120564786Y-110865989D02*
X120714786Y-110865989D01*
X120714786Y-110865989D02*
X121214786Y-110365989D01*
X95295133Y-92067967D02*
X94770000Y-92593100D01*
X121214786Y-110365989D02*
X123884625Y-110365989D01*
X103203961Y-91825988D02*
X102494787Y-91825988D01*
X114964444Y-110870000D02*
X120560775Y-110870000D01*
X110809990Y-92640476D02*
X109967479Y-91797965D01*
X109967479Y-91797965D02*
X104937644Y-91797965D01*
X104127999Y-111309999D02*
X104512001Y-111309999D01*
X94940001Y-106690453D02*
X94940001Y-109669226D01*
X104937644Y-91797965D02*
X104370347Y-91230668D01*
X103799281Y-91230668D02*
X103203961Y-91825988D01*
X102252808Y-92067967D02*
X95295133Y-92067967D01*
X94770000Y-92593100D02*
X94770000Y-106520452D01*
X94940001Y-109669226D02*
X96580774Y-111309999D01*
X111738005Y-93575977D02*
X110072634Y-93575977D01*
X106265701Y-97610011D02*
X106199989Y-97610011D01*
X110072634Y-93575977D02*
X108077496Y-95571115D01*
X112392018Y-94229990D02*
X111738005Y-93575977D01*
X108077496Y-95571115D02*
X108077496Y-96420206D01*
X106199989Y-97610011D02*
X105758032Y-98051968D01*
X106923087Y-97574615D02*
X106301097Y-97574615D01*
X105758032Y-98051968D02*
X105758032Y-98785477D01*
X108077496Y-96420206D02*
X106923087Y-97574615D01*
X106301097Y-97574615D02*
X106265701Y-97610011D01*
X95677508Y-106709510D02*
X95278022Y-106310024D01*
X95278022Y-106310024D02*
X95278022Y-92803528D01*
X113764974Y-110004544D02*
X111137781Y-110004544D01*
X121402661Y-109075337D02*
X120759999Y-109717999D01*
X106757817Y-110456589D02*
X105952959Y-110456589D01*
X111137781Y-110004544D02*
X111010349Y-110131976D01*
X100913098Y-110252894D02*
X100362892Y-110252893D01*
X100945214Y-92575989D02*
X101899966Y-93530741D01*
X103705238Y-93530741D02*
X104470000Y-92765979D01*
X99830000Y-109720000D02*
X99830000Y-108308000D01*
X111010349Y-110131976D02*
X108818392Y-110131976D01*
X105660714Y-110748834D02*
X102235754Y-110748834D01*
X100362892Y-110252893D02*
X99830000Y-109720000D01*
X101899966Y-93530741D02*
X103705238Y-93530741D01*
X95278022Y-92803528D02*
X95505561Y-92575989D01*
X108418391Y-110531977D02*
X106833205Y-110531977D01*
X121402661Y-106809980D02*
X121402661Y-109075337D01*
X101561897Y-110074977D02*
X101091015Y-110074977D01*
X120759999Y-109717999D02*
X120759999Y-110100777D01*
X120350347Y-110361978D02*
X114754016Y-110361978D01*
X108818392Y-110131976D02*
X108418391Y-110531977D01*
X120759999Y-110100777D02*
X120502808Y-110357967D01*
X120354358Y-110357967D02*
X120350347Y-110361978D01*
X120502808Y-110357967D02*
X120354358Y-110357967D01*
X114735427Y-110380567D02*
X114140997Y-110380567D01*
X106833205Y-110531977D02*
X106757817Y-110456589D01*
X99830000Y-108308000D02*
X98231510Y-106709510D01*
X102235754Y-110748834D02*
X101561897Y-110074977D01*
X98231510Y-106709510D02*
X95677508Y-106709510D01*
X114140997Y-110380567D02*
X113764974Y-110004544D01*
X95505561Y-92575989D02*
X100945214Y-92575989D01*
X101091015Y-110074977D02*
X100913098Y-110252894D01*
X114754016Y-110361978D02*
X114735427Y-110380567D01*
X121402158Y-106809477D02*
X121402661Y-106809980D01*
X105952959Y-110456589D02*
X105660714Y-110748834D01*
X107699171Y-94104588D02*
X107599876Y-94104588D01*
X95024011Y-106415238D02*
X95194012Y-106585239D01*
X95194012Y-106585239D02*
X95194012Y-109564012D01*
X95400347Y-92321978D02*
X95024011Y-92698314D01*
X111115563Y-110385987D02*
X111242995Y-110258555D01*
X111242995Y-110258555D02*
X113659760Y-110258555D01*
X114840641Y-110634578D02*
X114859230Y-110615989D01*
X105712785Y-111055988D02*
X106058173Y-110710600D01*
X120455561Y-110615989D02*
X120459572Y-110611978D01*
X121160000Y-110060000D02*
X121160000Y-109910000D01*
X106058173Y-110710600D02*
X106652603Y-110710600D01*
X107908670Y-94314087D02*
X107699171Y-94104588D01*
X106727991Y-110785988D02*
X108523605Y-110785988D01*
X101996449Y-93267999D02*
X101050428Y-92321978D01*
X106652603Y-110710600D02*
X106727991Y-110785988D01*
X95024011Y-92698314D02*
X95024011Y-106415238D01*
X105861265Y-92365977D02*
X104277998Y-92365977D01*
X114035783Y-110634578D02*
X114840641Y-110634578D01*
X113659760Y-110258555D02*
X114035783Y-110634578D01*
X101050428Y-92321978D02*
X95400347Y-92321978D01*
X107599876Y-94104588D02*
X105861265Y-92365977D01*
X114859230Y-110615989D02*
X120455561Y-110615989D01*
X120459572Y-110611978D02*
X120608022Y-110611978D01*
X103375976Y-93267999D02*
X101996449Y-93267999D01*
X104277998Y-92365977D02*
X103375976Y-93267999D01*
X96685988Y-111055988D02*
X105712785Y-111055988D01*
X95194012Y-109564012D02*
X96685988Y-111055988D01*
X108523605Y-110785988D02*
X108923606Y-110385987D01*
X108923606Y-110385987D02*
X111115563Y-110385987D01*
X120608022Y-110611978D02*
X121160000Y-110060000D01*
X120939520Y-107099468D02*
X121148650Y-107308598D01*
X114630213Y-110126556D02*
X114246211Y-110126556D01*
X120815460Y-109006540D02*
X120299747Y-109006540D01*
X110905135Y-109877965D02*
X108713179Y-109877965D01*
X120155204Y-109151083D02*
X119780464Y-109151083D01*
X101105711Y-108766961D02*
X104111588Y-105761084D01*
X108713179Y-109877965D02*
X108313177Y-110277966D01*
X100985801Y-109820966D02*
X100807885Y-109998883D01*
X105847745Y-110202578D02*
X105555500Y-110494823D01*
X117293583Y-110107967D02*
X114648802Y-110107967D01*
X111032567Y-109750533D02*
X110905135Y-109877965D01*
X120299747Y-109006540D02*
X120155204Y-109151083D01*
X121148650Y-108673350D02*
X120815460Y-109006540D01*
X114246211Y-110126556D02*
X113870188Y-109750533D01*
X119496216Y-109435331D02*
X117966219Y-109435331D01*
X100802250Y-108766961D02*
X101105711Y-108766961D01*
X100807885Y-109998883D02*
X100468107Y-109998883D01*
X117966219Y-109435331D02*
X117293583Y-110107967D01*
X100468107Y-109998883D02*
X100237657Y-109768432D01*
X119780464Y-109151083D02*
X119496216Y-109435331D01*
X105555500Y-110494823D02*
X102340968Y-110494823D01*
X106938419Y-110277966D02*
X106863031Y-110202578D01*
X114648802Y-110107967D02*
X114630213Y-110126556D01*
X113870188Y-109750533D02*
X111032567Y-109750533D01*
X101667111Y-109820966D02*
X100985801Y-109820966D01*
X100237657Y-109331554D02*
X100802250Y-108766961D01*
X106863031Y-110202578D02*
X105847745Y-110202578D01*
X108313177Y-110277966D02*
X106938419Y-110277966D01*
X121148650Y-107308598D02*
X121148650Y-108673350D01*
X102340968Y-110494823D02*
X101667111Y-109820966D01*
X100237657Y-109768432D02*
X100237657Y-109331554D01*
X100842278Y-84218723D02*
X100842278Y-84096644D01*
X103723591Y-87100036D02*
X100842278Y-84218723D01*
X102676714Y-87171789D02*
X100100001Y-84595076D01*
X100100001Y-83260001D02*
X99920000Y-83080000D01*
X100100001Y-84595076D02*
X100100001Y-83260001D01*
X99122278Y-84205989D02*
X98591533Y-84205989D01*
X102939906Y-87727340D02*
X102643629Y-87727340D01*
X102643629Y-87727340D02*
X99122278Y-84205989D01*
X96965485Y-82579941D02*
X96669208Y-82579941D01*
X98591533Y-84205989D02*
X96965485Y-82579941D01*
X102598546Y-88153488D02*
X99730000Y-85284942D01*
X99730000Y-85284942D02*
X99724942Y-85284942D01*
X99724942Y-85284942D02*
X98900000Y-84460000D01*
X98900000Y-84460000D02*
X98410000Y-84460000D01*
X98410000Y-84460000D02*
X97030000Y-83080000D01*
X97030000Y-83080000D02*
X95300000Y-83080000D01*
X95300000Y-83080000D02*
X95130000Y-82910000D01*
X111610010Y-94230000D02*
X111209998Y-93829988D01*
X111209998Y-93829988D02*
X110177848Y-93829988D01*
X110177848Y-93829988D02*
X108331507Y-95676329D01*
X108331507Y-95676329D02*
X108331507Y-96526353D01*
X108331507Y-96526353D02*
X106847860Y-98010000D01*
X106847860Y-98010000D02*
X106370000Y-98010000D01*
X111300000Y-92220000D02*
X111220009Y-92299991D01*
X113220000Y-92660000D02*
X112780000Y-92220000D01*
X111220009Y-92299991D02*
X111220009Y-92831479D01*
X111220009Y-92831479D02*
X110983533Y-93067955D01*
X112780000Y-92220000D02*
X111300000Y-92220000D01*
X108743937Y-93067955D02*
X107727958Y-92051976D01*
X104832430Y-92051976D02*
X104265133Y-91484679D01*
X103309175Y-92079999D02*
X102670463Y-92079999D01*
X102335811Y-92414651D02*
X102335811Y-92710928D01*
X102670463Y-92079999D02*
X102335811Y-92414651D01*
X107727958Y-92051976D02*
X104832430Y-92051976D01*
X111000000Y-93067955D02*
X108743937Y-93067955D01*
X103904495Y-91484679D02*
X103309175Y-92079999D01*
X104265133Y-91484679D02*
X103904495Y-91484679D01*
X129720000Y-86310000D02*
X133430000Y-82600000D01*
X133430000Y-82600000D02*
X133650000Y-82600000D01*
X123610176Y-95007737D02*
X125627737Y-95007737D01*
X128970000Y-95650000D02*
X129720000Y-94900000D01*
X125627737Y-95007737D02*
X126270000Y-95650000D01*
X126270000Y-95650000D02*
X128970000Y-95650000D01*
X129720000Y-94900000D02*
X129720000Y-86310000D01*
X124128234Y-94730000D02*
X123600000Y-94201766D01*
X126920000Y-94730000D02*
X124128234Y-94730000D01*
X133840000Y-81810000D02*
X129465989Y-86184011D01*
X127390000Y-95200000D02*
X126920000Y-94730000D01*
X129000000Y-95200000D02*
X127390000Y-95200000D01*
X129465989Y-94734011D02*
X129000000Y-95200000D01*
X129465989Y-86184011D02*
X129465989Y-94734011D01*
X124458009Y-91490000D02*
X125887508Y-90060501D01*
X126530501Y-90060501D02*
X126740000Y-90270000D01*
X123170658Y-91490000D02*
X124458009Y-91490000D01*
X125887508Y-90060501D02*
X126530501Y-90060501D01*
X122810648Y-91850010D02*
X123170658Y-91490000D01*
X123579990Y-90249907D02*
X123579990Y-90210010D01*
X123579990Y-90210010D02*
X124750000Y-89040000D01*
X125990000Y-89040000D02*
X126090000Y-89140000D01*
X124750000Y-89040000D02*
X125990000Y-89040000D01*
X123620000Y-93430000D02*
X124489999Y-94299999D01*
X124489999Y-94299999D02*
X128055219Y-94299999D01*
X128055219Y-94299999D02*
X128260835Y-94094383D01*
X126478011Y-91440000D02*
X128054540Y-93016529D01*
X125070000Y-92120000D02*
X125750000Y-91440000D01*
X123200687Y-93032352D02*
X123200687Y-92425705D01*
X123430000Y-92210000D02*
X125070000Y-92210000D01*
X125070000Y-92210000D02*
X125070000Y-92120000D01*
X122010021Y-94223018D02*
X123200687Y-93032352D01*
X123200687Y-92425705D02*
X123214295Y-92425705D01*
X123214295Y-92425705D02*
X123430000Y-92210000D01*
X125750000Y-91440000D02*
X126478011Y-91440000D01*
X126630968Y-93154880D02*
X127526346Y-93154880D01*
X125875959Y-92399871D02*
X126630968Y-93154880D01*
X123500776Y-91750000D02*
X125080776Y-91750000D01*
X122800677Y-92650021D02*
X122800677Y-92450099D01*
X122800677Y-92450099D02*
X123500776Y-91750000D01*
X125080776Y-91750000D02*
X125674785Y-91155991D01*
X125674785Y-91155991D02*
X127781782Y-91155991D01*
X127781782Y-91155991D02*
X127805934Y-91180143D01*
X127805934Y-91180143D02*
X128015433Y-91389642D01*
X123626353Y-89427946D02*
X124676267Y-88378032D01*
X124676267Y-88378032D02*
X126580010Y-88378032D01*
X128023341Y-110993341D02*
X128230000Y-111200000D01*
X128023341Y-106593341D02*
X128023341Y-110993341D01*
X125160000Y-103730000D02*
X128023341Y-106593341D01*
X120300000Y-89780000D02*
X120290000Y-89780000D01*
X120032934Y-90037066D02*
X120032934Y-90859950D01*
X119850000Y-87930000D02*
X120300000Y-88380000D01*
X124849990Y-108199214D02*
X124849990Y-108734761D01*
X120300000Y-88380000D02*
X120300000Y-89780000D01*
X120290000Y-89780000D02*
X120032934Y-90037066D01*
X122570000Y-101090000D02*
X122950000Y-101090000D01*
X123872226Y-103312226D02*
X123872226Y-107441451D01*
X122950000Y-101090000D02*
X123870000Y-102010000D01*
X123870000Y-102010000D02*
X123870000Y-103310000D01*
X121100000Y-98335564D02*
X121595855Y-98831419D01*
X122380000Y-100520000D02*
X122380000Y-100900000D01*
X119943489Y-96073489D02*
X121100000Y-97230000D01*
X121595855Y-99735855D02*
X122380000Y-100520000D01*
X122380000Y-100900000D02*
X122570000Y-101090000D01*
X121595855Y-98831419D02*
X121595855Y-99735855D01*
X123872226Y-107441451D02*
X124254784Y-107824009D01*
X124254784Y-107824009D02*
X124474785Y-107824009D01*
X124474785Y-107824009D02*
X124849990Y-108199214D01*
X119850000Y-87630000D02*
X119850000Y-87930000D01*
X120032934Y-90859950D02*
X119943489Y-90949395D01*
X123870000Y-103310000D02*
X123872226Y-103312226D01*
X121100000Y-97230000D02*
X121100000Y-98335564D01*
X120410000Y-87070000D02*
X119850000Y-87630000D01*
X119943489Y-90949395D02*
X119943489Y-96073489D01*
X124690003Y-109309995D02*
X124690003Y-109493695D01*
X120790000Y-111160000D02*
X112502436Y-111160000D01*
X109390519Y-111166578D02*
X109094242Y-111166578D01*
X111325010Y-111166578D02*
X109390519Y-111166578D01*
X112502436Y-111160000D02*
X112109013Y-110766577D01*
X121330000Y-110620000D02*
X120790000Y-111160000D01*
X124190000Y-110620000D02*
X121330000Y-110620000D01*
X124518205Y-110291795D02*
X124190000Y-110620000D01*
X124518205Y-109665493D02*
X124518205Y-110291795D01*
X124690003Y-109493695D02*
X124518205Y-109665493D01*
X112109013Y-110766577D02*
X111725011Y-110766577D01*
X111725011Y-110766577D02*
X111325010Y-111166578D01*
X106073700Y-96747457D02*
X106073700Y-97220010D01*
X108046366Y-92999921D02*
X108573640Y-93527195D01*
X107495486Y-95325671D02*
X106073700Y-96747457D01*
X108573640Y-94715746D02*
X107963715Y-95325671D01*
X108573640Y-93527195D02*
X108573640Y-94715746D01*
X107963715Y-95325671D02*
X107495486Y-95325671D01*
X121435213Y-110874011D02*
X120889735Y-111419489D01*
X125635837Y-111213809D02*
X125319646Y-111530000D01*
X125319646Y-111530000D02*
X122700775Y-111530000D01*
X120889735Y-111419489D02*
X112169923Y-111419489D01*
X122044786Y-110874011D02*
X121435213Y-110874011D01*
X122700775Y-111530000D02*
X122044786Y-110874011D01*
X112169923Y-111419489D02*
X111917012Y-111166578D01*
D19*
X113570000Y-103770000D02*
X113238334Y-104101666D01*
X105301666Y-104101666D02*
X104080000Y-102880000D01*
X113238334Y-104101666D02*
X105301666Y-104101666D01*
D18*
X108093285Y-93406064D02*
X107470256Y-93406064D01*
X106270669Y-94477173D02*
X106353497Y-94560001D01*
X108111629Y-94818532D02*
X108319629Y-94610532D01*
X106353497Y-94560001D02*
X107469094Y-94560001D01*
X107727625Y-94818532D02*
X108111629Y-94818532D01*
X107469094Y-94560001D02*
X107727625Y-94818532D01*
X108319629Y-93632408D02*
X108093285Y-93406064D01*
X107470256Y-93406064D02*
X107390692Y-93326500D01*
X108319629Y-94610532D02*
X108319629Y-93632408D01*
X98350001Y-105120001D02*
X97520001Y-105120001D01*
X97520001Y-105120001D02*
X97240000Y-104840000D01*
X101540381Y-105786167D02*
X101224214Y-105470000D01*
X101224214Y-105470000D02*
X98700000Y-105470000D01*
X98700000Y-105470000D02*
X98350001Y-105120001D01*
X143567000Y-75637394D02*
X142202606Y-74273000D01*
X143567000Y-76457394D02*
X143567000Y-75637394D01*
X148387000Y-81277394D02*
X143567000Y-76457394D01*
X148387000Y-95652606D02*
X148387000Y-81277394D01*
X145947000Y-98092606D02*
X148387000Y-95652606D01*
X143327000Y-107772606D02*
X145947000Y-105152606D01*
X142112756Y-111337150D02*
X143327000Y-110122906D01*
X138660000Y-111110000D02*
X138887150Y-111337150D01*
X142202606Y-74273000D02*
X141666000Y-74273000D01*
X141666000Y-74273000D02*
X141520000Y-74127000D01*
X138887150Y-111337150D02*
X142112756Y-111337150D01*
X145947000Y-105152606D02*
X145947000Y-98092606D01*
X143327000Y-110122906D02*
X143327000Y-107772606D01*
X141560000Y-107570000D02*
X140470000Y-108660000D01*
X141560000Y-107500000D02*
X141560000Y-107570000D01*
X143170000Y-105890000D02*
X141560000Y-107500000D01*
X143170000Y-97900382D02*
X143170000Y-105890000D01*
X146032989Y-93057392D02*
X146032989Y-95037393D01*
X146992972Y-92097409D02*
X146032989Y-93057392D01*
X146480218Y-83340219D02*
X146992972Y-83852972D01*
X146424553Y-83305242D02*
X146454356Y-83319594D01*
X146359224Y-83297881D02*
X146392303Y-83297881D01*
X146326975Y-83305242D02*
X146359224Y-83297881D01*
X146181310Y-83430219D02*
X146271309Y-83340219D01*
X146164874Y-83446656D02*
X146181310Y-83430219D01*
X145939294Y-83555289D02*
X146022043Y-83536402D01*
X145560611Y-83378428D02*
X145628839Y-83446656D01*
X145470864Y-83235597D02*
X145507691Y-83312068D01*
X145451978Y-83067972D02*
X145451978Y-83152848D01*
X145470864Y-82985223D02*
X145451978Y-83067972D01*
X145507691Y-82908752D02*
X145470864Y-82985223D01*
X146166581Y-82231186D02*
X146145957Y-82257048D01*
X146180934Y-82201383D02*
X146166581Y-82231186D01*
X146188294Y-82169133D02*
X146180934Y-82201383D01*
X146188295Y-82136055D02*
X146188294Y-82169133D01*
X145560611Y-82842393D02*
X145507691Y-82908752D01*
X146180935Y-82103805D02*
X146188295Y-82136055D01*
X146110603Y-82012785D02*
X146145958Y-82048140D01*
X145507691Y-83312068D02*
X145560611Y-83378428D01*
X146054936Y-81977807D02*
X146084739Y-81992160D01*
X141016699Y-79642635D02*
X141026665Y-79686298D01*
X142113526Y-80136369D02*
X142148541Y-80108445D01*
X145339770Y-81320609D02*
X145332410Y-81352859D01*
X141887532Y-80355272D02*
X141922547Y-80327349D01*
X144157371Y-81858241D02*
X144242247Y-81858241D01*
X141715070Y-80374704D02*
X141758733Y-80384670D01*
X144324996Y-81839354D02*
X144401467Y-81802527D01*
X146992972Y-83852972D02*
X146992972Y-92097409D01*
X145451978Y-83152848D02*
X145470864Y-83235597D01*
X141582384Y-80208320D02*
X141592350Y-80251983D01*
X141109034Y-79789587D02*
X141149385Y-79809019D01*
X146145957Y-82257048D02*
X145560611Y-82842393D01*
X141582384Y-80163535D02*
X141582384Y-80208320D01*
X143970000Y-80829999D02*
X143990624Y-80855862D01*
X144467827Y-81749608D02*
X144484263Y-81733171D01*
X141611781Y-80079521D02*
X141592350Y-80119872D01*
X144012337Y-80917914D02*
X144012337Y-80950993D01*
X146271309Y-83340219D02*
X146297172Y-83319594D01*
X141592350Y-80119872D02*
X141582384Y-80163535D01*
X146392303Y-83297881D02*
X146424553Y-83305242D01*
X141592350Y-80251983D02*
X141611781Y-80292334D01*
X141193048Y-79818985D02*
X141237834Y-79818985D01*
X141758733Y-80384670D02*
X141803519Y-80384670D01*
X141016699Y-79597850D02*
X141016699Y-79642635D01*
X141674719Y-80355272D02*
X141715070Y-80374704D01*
X145957358Y-81977807D02*
X145989609Y-81970447D01*
X141888006Y-79689713D02*
X141888006Y-79734499D01*
X145989609Y-81970447D02*
X146022687Y-81970446D01*
X145628839Y-83446656D02*
X145695198Y-83499575D01*
X141830685Y-79570685D02*
X141858608Y-79605699D01*
X143970000Y-81038908D02*
X143863563Y-81145344D01*
X146454356Y-83319594D02*
X146480218Y-83340219D01*
X141711655Y-79513363D02*
X141755318Y-79523329D01*
X144012337Y-80950993D02*
X144004977Y-80983243D01*
X141611781Y-80292334D02*
X141639705Y-80327349D01*
X145297433Y-81408524D02*
X144712087Y-81993869D01*
X141237834Y-79818985D02*
X141281497Y-79809019D01*
X141074020Y-79478821D02*
X141046096Y-79513836D01*
X141922547Y-80327349D02*
X142113526Y-80136369D01*
X141803519Y-80384670D02*
X141847182Y-80374704D01*
X145053169Y-81164260D02*
X145079031Y-81143636D01*
X141046096Y-79726649D02*
X141074020Y-79761664D01*
X141847182Y-80374704D02*
X141887532Y-80355272D01*
X141026665Y-79554187D02*
X141016699Y-79597850D01*
X146145958Y-82048140D02*
X146166582Y-82074002D01*
X141858608Y-79818512D02*
X141830685Y-79853527D01*
X144074622Y-81839354D02*
X144157371Y-81858241D01*
X141312355Y-79080365D02*
X141322321Y-79124028D01*
X145854418Y-83555289D02*
X145939294Y-83555289D01*
X144004977Y-80983243D02*
X143990624Y-81013046D01*
X144923145Y-82687878D02*
X145005894Y-82706765D01*
X146084739Y-81992160D02*
X146110603Y-82012785D01*
X145108834Y-81129283D02*
X145141085Y-81121923D01*
X141830685Y-79853527D02*
X141639705Y-80044506D01*
X141666870Y-79513363D02*
X141711655Y-79513363D01*
X144603454Y-82304324D02*
X144622340Y-82387073D01*
X141795669Y-79542760D02*
X141830685Y-79570685D01*
X141265000Y-79287842D02*
X141074020Y-79478821D01*
X142232555Y-80079048D02*
X142277340Y-80079048D01*
X142277340Y-80079048D02*
X142321003Y-80089014D01*
X141312355Y-79212477D02*
X141292923Y-79252827D01*
X146032989Y-95037393D02*
X143170000Y-97900382D01*
X140976969Y-78716969D02*
X141265000Y-79005000D01*
X141878040Y-79646050D02*
X141888006Y-79689713D01*
X141888006Y-79734499D02*
X141878040Y-79778162D01*
X141755318Y-79523329D02*
X141795669Y-79542760D01*
X146098514Y-83499575D02*
X146164874Y-83446656D01*
X142396370Y-80136370D02*
X142730000Y-80470000D01*
X141858608Y-79605699D02*
X141878040Y-79646050D01*
X145339771Y-81287531D02*
X145339770Y-81320609D01*
X141322321Y-79124028D02*
X141322321Y-79168814D01*
X141547841Y-79570684D02*
X141582856Y-79542760D01*
X141149385Y-79809019D02*
X141193048Y-79818985D01*
X141281497Y-79809019D02*
X141321847Y-79789587D01*
X141582856Y-79542760D02*
X141623207Y-79523329D01*
X144712087Y-81993869D02*
X144659167Y-82060228D01*
X141074020Y-79761664D02*
X141109034Y-79789587D01*
X141356862Y-79761664D02*
X141547841Y-79570684D01*
X141026665Y-79686298D02*
X141046096Y-79726649D01*
X142148541Y-80108445D02*
X142188892Y-80089014D01*
X145332411Y-81255281D02*
X145339771Y-81287531D01*
X144712087Y-82529904D02*
X144780315Y-82598132D01*
X142188892Y-80089014D02*
X142232555Y-80079048D01*
X141322321Y-79168814D02*
X141312355Y-79212477D01*
X141321847Y-79789587D02*
X141356862Y-79761664D01*
X141623207Y-79523329D02*
X141666870Y-79513363D01*
X141292923Y-79040014D02*
X141312355Y-79080365D01*
X141292923Y-79252827D02*
X141265000Y-79287842D01*
X144004977Y-80885665D02*
X144012337Y-80917914D01*
X142321003Y-80089014D02*
X142361354Y-80108445D01*
X146022043Y-83536402D02*
X146098514Y-83499575D01*
X141878040Y-79778162D02*
X141858608Y-79818512D01*
X144242247Y-81858241D02*
X144324996Y-81839354D01*
X144401467Y-81802527D02*
X144467827Y-81749608D01*
X145173519Y-82687878D02*
X145249990Y-82651051D01*
X146022687Y-81970446D02*
X146054936Y-81977807D01*
X143610000Y-80470000D02*
X143970000Y-80829999D01*
X143754930Y-81455800D02*
X143773817Y-81538549D01*
X145206412Y-81129283D02*
X145236215Y-81143636D01*
X145695198Y-83499575D02*
X145771669Y-83536402D01*
X143990624Y-80855862D02*
X144004977Y-80885665D01*
X146166582Y-82074002D02*
X146180935Y-82103805D01*
X143990624Y-81013046D02*
X143970000Y-81038908D01*
X145090770Y-82706765D02*
X145173519Y-82687878D01*
X144846674Y-82651051D02*
X144923145Y-82687878D01*
X142730000Y-80470000D02*
X143610000Y-80470000D01*
X143863563Y-81145344D02*
X143810643Y-81211703D01*
X144603454Y-82219448D02*
X144603454Y-82304324D01*
X145771669Y-83536402D02*
X145854418Y-83555289D01*
X141639705Y-80044506D02*
X141611781Y-80079521D01*
X142361354Y-80108445D02*
X142396370Y-80136370D01*
X144622340Y-82387073D02*
X144659167Y-82463544D01*
X143754930Y-81370923D02*
X143754930Y-81455800D01*
X143773817Y-81538549D02*
X143810643Y-81615020D01*
X144780315Y-82598132D02*
X144846674Y-82651051D01*
X145318057Y-81382662D02*
X145297433Y-81408524D01*
X143810643Y-81615020D02*
X143863563Y-81681379D01*
X143863563Y-81681379D02*
X143931792Y-81749608D01*
X140794802Y-78716969D02*
X140976969Y-78716969D01*
X143931792Y-81749608D02*
X143998151Y-81802527D01*
X143998151Y-81802527D02*
X144074622Y-81839354D01*
X144484263Y-81733171D02*
X145053169Y-81164260D01*
X145079031Y-81143636D02*
X145108834Y-81129283D01*
X141639705Y-80327349D02*
X141674719Y-80355272D01*
X145174163Y-81121922D02*
X145206412Y-81129283D01*
X145141085Y-81121923D02*
X145174163Y-81121922D01*
X145236215Y-81143636D02*
X145262079Y-81164261D01*
X145332786Y-82581695D02*
X145901693Y-82012784D01*
X144622340Y-82136699D02*
X144603454Y-82219448D01*
X145262079Y-81164261D02*
X145297434Y-81199616D01*
X145318058Y-81225478D02*
X145332411Y-81255281D01*
X146297172Y-83319594D02*
X146326975Y-83305242D01*
X141265000Y-79005000D02*
X141292923Y-79040014D01*
X145332410Y-81352859D02*
X145318057Y-81382662D01*
X141046096Y-79513836D02*
X141026665Y-79554187D01*
X144659167Y-82060228D02*
X144622340Y-82136699D01*
X144659167Y-82463544D02*
X144712087Y-82529904D01*
X145005894Y-82706765D02*
X145090770Y-82706765D01*
X143773817Y-81288175D02*
X143754930Y-81370923D01*
X145249990Y-82651051D02*
X145316350Y-82598132D01*
X145297434Y-81199616D02*
X145318058Y-81225478D01*
X145316350Y-82598132D02*
X145332786Y-82581695D01*
X145901693Y-82012784D02*
X145927555Y-81992160D01*
X143810643Y-81211703D02*
X143773817Y-81288175D01*
X145927555Y-81992160D02*
X145957358Y-81977807D01*
X142097394Y-74527000D02*
X141666000Y-74527000D01*
X143313000Y-75742606D02*
X142097394Y-74527000D01*
X143313000Y-76562606D02*
X143313000Y-75742606D01*
X148133000Y-81382606D02*
X143313000Y-76562606D01*
X145693000Y-97987394D02*
X148133000Y-95547394D01*
X148133000Y-95547394D02*
X148133000Y-81382606D01*
X145693000Y-105047394D02*
X145693000Y-97987394D01*
X143073000Y-107667394D02*
X145693000Y-105047394D01*
X143073000Y-110017694D02*
X143073000Y-107667394D01*
X141666000Y-74527000D02*
X141520000Y-74673000D01*
X142007544Y-111083150D02*
X143073000Y-110017694D01*
X139253150Y-111083150D02*
X142007544Y-111083150D01*
X138680000Y-110510000D02*
X139253150Y-111083150D01*
X142040000Y-76360000D02*
X141683000Y-76360000D01*
X143021128Y-77351131D02*
X142981736Y-77301736D01*
X143048540Y-77408053D02*
X143021128Y-77351131D01*
X143062598Y-77469646D02*
X143048540Y-77408053D01*
X143048539Y-77594419D02*
X143062598Y-77532824D01*
X143021128Y-77651341D02*
X143048539Y-77594419D01*
X142942345Y-77750131D02*
X143021128Y-77651341D01*
X142900875Y-77868648D02*
X142914933Y-77807053D01*
X142900875Y-77931826D02*
X142900875Y-77868648D01*
X142914933Y-77993419D02*
X142900875Y-77931826D01*
X142942345Y-78050341D02*
X142914933Y-77993419D01*
X144935735Y-79484999D02*
X144537502Y-79883233D01*
X141683000Y-76360000D02*
X141550000Y-76493000D01*
X143860634Y-79775217D02*
X143820548Y-79691977D01*
X143637091Y-78044140D02*
X143573913Y-78044140D01*
X146862989Y-93327392D02*
X147580000Y-92610382D01*
X143954022Y-79883233D02*
X143918237Y-79847449D01*
X143755606Y-78085610D02*
X143698684Y-78058198D01*
X145032216Y-79438536D02*
X144996824Y-79446614D01*
X145068520Y-79438537D02*
X145032216Y-79438536D01*
X143299684Y-78191804D02*
X143238089Y-78205863D01*
X140980000Y-109638494D02*
X141141506Y-109800000D01*
X142914933Y-77807053D02*
X142942345Y-77750131D01*
X144465268Y-79940836D02*
X144382028Y-79980922D01*
X144590000Y-97760382D02*
X146862989Y-95487393D01*
X143573913Y-78044140D02*
X143512318Y-78058198D01*
X141141506Y-109800000D02*
X141850000Y-109800000D01*
X143062598Y-77532824D02*
X143062598Y-77469646D01*
X143918237Y-79847449D02*
X143860634Y-79775217D01*
X145103912Y-79446615D02*
X145068520Y-79438537D01*
X145136619Y-79462366D02*
X145103912Y-79446615D01*
X147580000Y-92610382D02*
X147580000Y-81900000D01*
X144590000Y-105310000D02*
X144590000Y-97760382D01*
X141850000Y-109800000D02*
X142332989Y-109317011D01*
X143820548Y-79419443D02*
X143860634Y-79336203D01*
X144026254Y-79940836D02*
X143954022Y-79883233D01*
X142981736Y-78099736D02*
X142942345Y-78050341D01*
X142332989Y-109317011D02*
X142332989Y-107567011D01*
X143007001Y-78125001D02*
X142981736Y-78099736D01*
X144537502Y-79883233D02*
X144465268Y-79940836D01*
X142981736Y-77301736D02*
X142040000Y-76360000D01*
X143799990Y-79601905D02*
X143799990Y-79509515D01*
X146862989Y-95487393D02*
X146862989Y-93327392D01*
X144199567Y-80001482D02*
X144109494Y-79980922D01*
X145165001Y-79485000D02*
X145136619Y-79462366D01*
X144362934Y-78769254D02*
X144362934Y-78732952D01*
X144291957Y-80001482D02*
X144199567Y-80001482D01*
X147580000Y-81900000D02*
X145165001Y-79485000D01*
X144996824Y-79446614D02*
X144964117Y-79462365D01*
X143820548Y-79691977D02*
X143799990Y-79601905D01*
X143799990Y-79509515D02*
X143820548Y-79419443D01*
X144109494Y-79980922D02*
X144026254Y-79940836D01*
X143455396Y-78085610D02*
X143356606Y-78164393D01*
X143860634Y-79336203D02*
X143918237Y-79263969D01*
X142332989Y-107567011D02*
X144590000Y-105310000D01*
X143918237Y-79263969D02*
X143936130Y-79246079D01*
X144339106Y-78664853D02*
X144316473Y-78636472D01*
X143936130Y-79246079D02*
X144316471Y-78865735D01*
X143356606Y-78164393D02*
X143299684Y-78191804D01*
X144316471Y-78865735D02*
X144339105Y-78837353D01*
X144354856Y-78697560D02*
X144339106Y-78664853D01*
X143238089Y-78205863D02*
X143174911Y-78205863D01*
X143805001Y-78125001D02*
X143755606Y-78085610D01*
X144964117Y-79462365D02*
X144935735Y-79484999D01*
X144339105Y-78837353D02*
X144354856Y-78804646D01*
X143512318Y-78058198D02*
X143455396Y-78085610D01*
X144354856Y-78804646D02*
X144362934Y-78769254D01*
X144362934Y-78732952D02*
X144354856Y-78697560D01*
X144316473Y-78636472D02*
X143805001Y-78125001D01*
X143698684Y-78058198D02*
X143637091Y-78044140D01*
X143113318Y-78191805D02*
X143056396Y-78164393D01*
X143174911Y-78205863D02*
X143113318Y-78191805D01*
X144382028Y-79980922D02*
X144291957Y-80001482D01*
X143056396Y-78164393D02*
X143007001Y-78125001D01*
M02*
