%FSLAX45Y45*%
G04 Gerber Fmt 4.5, Leading zero omitted, Abs format (unit mm)*
G04 Created by KiCad (PCBNEW 5.1.9+dfsg1-1+deb11u1) date 2022-10-19 12:22:02*
%MOMM*%
%LPD*%
G01*
G04 APERTURE LIST*
%TA.AperFunction,Profile*%
%ADD10C,0.100000*%
%TD*%
%ADD11C,0.200000*%
%ADD12C,0.300000*%
G04 APERTURE END LIST*
D10*
X14921000Y-10914499D02*
G75*
G02*
X14621000Y-11214500I-300000J0D01*
G01*
X14620999Y-7214500D02*
G75*
G02*
X14921000Y-7514500I1J-300001D01*
G01*
X9710000Y-11214500D02*
G75*
G02*
X9410000Y-10914500I0J300000D01*
G01*
X9410000Y-7514500D02*
G75*
G02*
X9710000Y-7214499I300000J0D01*
G01*
X14921000Y-10914499D02*
X14921000Y-7514500D01*
X9410000Y-10914500D02*
X9410000Y-7514500D01*
X9710000Y-11214500D02*
X14621000Y-11214500D01*
X9710000Y-7214499D02*
X14620999Y-7214500D01*
D11*
D12*
X9691428Y-11685214D02*
X9691428Y-11385214D01*
X9762857Y-11385214D01*
X9805714Y-11399500D01*
X9834286Y-11428071D01*
X9848571Y-11456643D01*
X9862857Y-11513786D01*
X9862857Y-11556643D01*
X9848571Y-11613786D01*
X9834286Y-11642357D01*
X9805714Y-11670928D01*
X9762857Y-11685214D01*
X9691428Y-11685214D01*
X9991428Y-11685214D02*
X9991428Y-11485214D01*
X9991428Y-11542357D02*
X10005714Y-11513786D01*
X10020000Y-11499500D01*
X10048571Y-11485214D01*
X10077143Y-11485214D01*
X10177143Y-11685214D02*
X10177143Y-11485214D01*
X10177143Y-11385214D02*
X10162857Y-11399500D01*
X10177143Y-11413786D01*
X10191428Y-11399500D01*
X10177143Y-11385214D01*
X10177143Y-11413786D01*
X10362857Y-11685214D02*
X10334286Y-11670928D01*
X10320000Y-11642357D01*
X10320000Y-11385214D01*
X10520000Y-11685214D02*
X10491428Y-11670928D01*
X10477143Y-11642357D01*
X10477143Y-11385214D01*
X10862857Y-11685214D02*
X10862857Y-11385214D01*
X10962857Y-11599500D01*
X11062857Y-11385214D01*
X11062857Y-11685214D01*
X11334286Y-11685214D02*
X11334286Y-11528071D01*
X11320000Y-11499500D01*
X11291428Y-11485214D01*
X11234286Y-11485214D01*
X11205714Y-11499500D01*
X11334286Y-11670928D02*
X11305714Y-11685214D01*
X11234286Y-11685214D01*
X11205714Y-11670928D01*
X11191428Y-11642357D01*
X11191428Y-11613786D01*
X11205714Y-11585214D01*
X11234286Y-11570928D01*
X11305714Y-11570928D01*
X11334286Y-11556643D01*
X11477143Y-11485214D02*
X11477143Y-11785214D01*
X11477143Y-11499500D02*
X11505714Y-11485214D01*
X11562857Y-11485214D01*
X11591428Y-11499500D01*
X11605714Y-11513786D01*
X11620000Y-11542357D01*
X11620000Y-11628071D01*
X11605714Y-11656643D01*
X11591428Y-11670928D01*
X11562857Y-11685214D01*
X11505714Y-11685214D01*
X11477143Y-11670928D01*
X11748571Y-11656643D02*
X11762857Y-11670928D01*
X11748571Y-11685214D01*
X11734286Y-11670928D01*
X11748571Y-11656643D01*
X11748571Y-11685214D01*
X11748571Y-11499500D02*
X11762857Y-11513786D01*
X11748571Y-11528071D01*
X11734286Y-11513786D01*
X11748571Y-11499500D01*
X11748571Y-11528071D01*
M02*
