%FSLAX45Y45*%
G04 Gerber Fmt 4.5, Leading zero omitted, Abs format (unit mm)*
G04 Created by KiCad (PCBNEW 5.1.9+dfsg1-1+deb11u1) date 2022-10-19 12:22:02*
%MOMM*%
%LPD*%
G01*
G04 APERTURE LIST*
%TA.AperFunction,Profile*%
%ADD10C,0.100000*%
%TD*%
%ADD11C,0.200000*%
%ADD12C,0.300000*%
G04 APERTURE END LIST*
D10*
X14921000Y-10914499D02*
G75*
G02*
X14621000Y-11214500I-300000J0D01*
G01*
X14620999Y-7214500D02*
G75*
G02*
X14921000Y-7514500I1J-300001D01*
G01*
X9710000Y-11214500D02*
G75*
G02*
X9410000Y-10914500I0J300000D01*
G01*
X9410000Y-7514500D02*
G75*
G02*
X9710000Y-7214499I300000J0D01*
G01*
X14921000Y-10914499D02*
X14921000Y-7514500D01*
X9410000Y-10914500D02*
X9410000Y-7514500D01*
X9710000Y-11214500D02*
X14621000Y-11214500D01*
X9710000Y-7214499D02*
X14620999Y-7214500D01*
D11*
X9437000Y-7671000D02*
X9457000Y-7691000D01*
X9457000Y-7671000D02*
X9437000Y-7691000D01*
X9437000Y-8070000D02*
X9457000Y-8090000D01*
X9457000Y-8070000D02*
X9437000Y-8090000D01*
X9437000Y-10671000D02*
X9457000Y-10691000D01*
X9457000Y-10671000D02*
X9437000Y-10691000D01*
X9438000Y-7475000D02*
X9458000Y-7495000D01*
X9458000Y-7475000D02*
X9438000Y-7495000D01*
X9438000Y-8671000D02*
X9458000Y-8691000D01*
X9458000Y-8671000D02*
X9438000Y-8691000D01*
X9466000Y-11025000D02*
X9486000Y-11045000D01*
X9486000Y-11025000D02*
X9466000Y-11045000D01*
X9479000Y-8361000D02*
X9499000Y-8381000D01*
X9499000Y-8361000D02*
X9479000Y-8381000D01*
X9503000Y-8281000D02*
X9523000Y-8301000D01*
X9523000Y-8281000D02*
X9503000Y-8301000D01*
X9503349Y-8464000D02*
X9523349Y-8484000D01*
X9523349Y-8464000D02*
X9503349Y-8484000D01*
X9507000Y-7899000D02*
X9527000Y-7919000D01*
X9527000Y-7899000D02*
X9507000Y-7919000D01*
X9555000Y-10743000D02*
X9575000Y-10763000D01*
X9575000Y-10743000D02*
X9555000Y-10763000D01*
X9555474Y-9156796D02*
X9575474Y-9176796D01*
X9575474Y-9156796D02*
X9555474Y-9176796D01*
X9557803Y-10029000D02*
X9577803Y-10049000D01*
X9577803Y-10029000D02*
X9557803Y-10049000D01*
X9559000Y-8703000D02*
X9579000Y-8723000D01*
X9579000Y-8703000D02*
X9559000Y-8723000D01*
X9569000Y-9557000D02*
X9589000Y-9577000D01*
X9589000Y-9557000D02*
X9569000Y-9577000D01*
X9586708Y-9369093D02*
X9606708Y-9389093D01*
X9606708Y-9369093D02*
X9586708Y-9389093D01*
X9595000Y-10167000D02*
X9615000Y-10187000D01*
X9615000Y-10167000D02*
X9595000Y-10187000D01*
X9595953Y-9982609D02*
X9615953Y-10002609D01*
X9615953Y-9982609D02*
X9595953Y-10002609D01*
X9599000Y-9928000D02*
X9619000Y-9948000D01*
X9619000Y-9928000D02*
X9599000Y-9948000D01*
X9605000Y-9820000D02*
X9625000Y-9840000D01*
X9625000Y-9820000D02*
X9605000Y-9840000D01*
X9614000Y-9156796D02*
X9634000Y-9176796D01*
X9634000Y-9156796D02*
X9614000Y-9176796D01*
X9618000Y-11150000D02*
X9638000Y-11170000D01*
X9638000Y-11150000D02*
X9618000Y-11170000D01*
X9619901Y-10062327D02*
X9639901Y-10082327D01*
X9639901Y-10062327D02*
X9619901Y-10082327D01*
X9642207Y-9367999D02*
X9662207Y-9387999D01*
X9662207Y-9367999D02*
X9642207Y-9387999D01*
X9644000Y-7257000D02*
X9664000Y-7277000D01*
X9664000Y-7257000D02*
X9644000Y-7277000D01*
X9656921Y-8247994D02*
X9676921Y-8267994D01*
X9676921Y-8247994D02*
X9656921Y-8267994D01*
X9662000Y-8568000D02*
X9682000Y-8588000D01*
X9682000Y-8568000D02*
X9662000Y-8588000D01*
X9709000Y-10169000D02*
X9729000Y-10189000D01*
X9729000Y-10169000D02*
X9709000Y-10189000D01*
X9755000Y-9363000D02*
X9775000Y-9383000D01*
X9775000Y-9363000D02*
X9755000Y-9383000D01*
X9765700Y-9128000D02*
X9785700Y-9148000D01*
X9785700Y-9128000D02*
X9765700Y-9148000D01*
X9776385Y-10330331D02*
X9796385Y-10350331D01*
X9796385Y-10330331D02*
X9776385Y-10350331D01*
X9776999Y-9647000D02*
X9796999Y-9667000D01*
X9796999Y-9647000D02*
X9776999Y-9667000D01*
X9787000Y-7824651D02*
X9807000Y-7844651D01*
X9807000Y-7824651D02*
X9787000Y-7844651D01*
X9792000Y-10462000D02*
X9812000Y-10482000D01*
X9812000Y-10462000D02*
X9792000Y-10482000D01*
X9806000Y-7241000D02*
X9826000Y-7261000D01*
X9826000Y-7241000D02*
X9806000Y-7261000D01*
X9816000Y-8862000D02*
X9836000Y-8882000D01*
X9836000Y-8862000D02*
X9816000Y-8882000D01*
X9820300Y-9128000D02*
X9840300Y-9148000D01*
X9840300Y-9128000D02*
X9820300Y-9148000D01*
X9832000Y-9364000D02*
X9852000Y-9384000D01*
X9852000Y-9364000D02*
X9832000Y-9384000D01*
X9895462Y-10340508D02*
X9915462Y-10360508D01*
X9915462Y-10340508D02*
X9895462Y-10360508D01*
X9897402Y-10584000D02*
X9917402Y-10604000D01*
X9917402Y-10584000D02*
X9897402Y-10604000D01*
X9936000Y-9587000D02*
X9956000Y-9607000D01*
X9956000Y-9587000D02*
X9936000Y-9607000D01*
X9938256Y-10446197D02*
X9958256Y-10466197D01*
X9958256Y-10446197D02*
X9938256Y-10466197D01*
X9952000Y-9363000D02*
X9972000Y-9383000D01*
X9972000Y-9363000D02*
X9952000Y-9383000D01*
X9960000Y-8364000D02*
X9980000Y-8384000D01*
X9980000Y-8364000D02*
X9960000Y-8384000D01*
X9978000Y-10040000D02*
X9998000Y-10060000D01*
X9998000Y-10040000D02*
X9978000Y-10060000D01*
X9982000Y-8298000D02*
X10002000Y-8318000D01*
X10002000Y-8298000D02*
X9982000Y-8318000D01*
X9985651Y-7393022D02*
X10005651Y-7413022D01*
X10005651Y-7393022D02*
X9985651Y-7413022D01*
X9989000Y-9853000D02*
X10009000Y-9873000D01*
X10009000Y-9853000D02*
X9989000Y-9873000D01*
X10006000Y-7241000D02*
X10026000Y-7261000D01*
X10026000Y-7241000D02*
X10006000Y-7261000D01*
X10009289Y-10716711D02*
X10029289Y-10736711D01*
X10029289Y-10716711D02*
X10009289Y-10736711D01*
X10020001Y-10431431D02*
X10040001Y-10451431D01*
X10040001Y-10431431D02*
X10020001Y-10451431D01*
X10022000Y-11161000D02*
X10042000Y-11181000D01*
X10042000Y-11161000D02*
X10022000Y-11181000D01*
X10033000Y-7833000D02*
X10053000Y-7853000D01*
X10053000Y-7833000D02*
X10033000Y-7853000D01*
X10040051Y-8352000D02*
X10060051Y-8372000D01*
X10060051Y-8352000D02*
X10040051Y-8372000D01*
X10042000Y-9354000D02*
X10062000Y-9374000D01*
X10062000Y-9354000D02*
X10042000Y-9374000D01*
X10053766Y-10949888D02*
X10073766Y-10969888D01*
X10073766Y-10949888D02*
X10053766Y-10969888D01*
X10055349Y-7750253D02*
X10075349Y-7770253D01*
X10075349Y-7750253D02*
X10055349Y-7770253D01*
X10062000Y-9124000D02*
X10082000Y-9144000D01*
X10082000Y-9124000D02*
X10062000Y-9144000D01*
X10065047Y-9554064D02*
X10085047Y-9574064D01*
X10085047Y-9554064D02*
X10065047Y-9574064D01*
X10073327Y-10639327D02*
X10093327Y-10659327D01*
X10093327Y-10639327D02*
X10073327Y-10659327D01*
X10074228Y-8399664D02*
X10094228Y-8419664D01*
X10094228Y-8399664D02*
X10074228Y-8419664D01*
X10084000Y-10171000D02*
X10104000Y-10191000D01*
X10104000Y-10171000D02*
X10084000Y-10191000D01*
X10089425Y-10906696D02*
X10109425Y-10926696D01*
X10109425Y-10906696D02*
X10089425Y-10926696D01*
X10111000Y-9156000D02*
X10131000Y-9176000D01*
X10131000Y-9156000D02*
X10111000Y-9176000D01*
X10113000Y-7550000D02*
X10133000Y-7570000D01*
X10133000Y-7550000D02*
X10113000Y-7570000D01*
X10144038Y-10568617D02*
X10164038Y-10588617D01*
X10164038Y-10568617D02*
X10144038Y-10588617D01*
X10162566Y-10504059D02*
X10182566Y-10524059D01*
X10182566Y-10504059D02*
X10162566Y-10524059D01*
X10181598Y-10255246D02*
X10201598Y-10275246D01*
X10201598Y-10255246D02*
X10181598Y-10275246D01*
X10181598Y-10346432D02*
X10201598Y-10366432D01*
X10201598Y-10346432D02*
X10181598Y-10366432D01*
X10206000Y-7241000D02*
X10226000Y-7261000D01*
X10226000Y-7241000D02*
X10206000Y-7261000D01*
X10208000Y-8389999D02*
X10228000Y-8409999D01*
X10228000Y-8389999D02*
X10208000Y-8409999D01*
X10222701Y-7750303D02*
X10242701Y-7770303D01*
X10242701Y-7750303D02*
X10222701Y-7770303D01*
X10223581Y-9261093D02*
X10243581Y-9281093D01*
X10243581Y-9261093D02*
X10223581Y-9281093D01*
X10240998Y-10925865D02*
X10260998Y-10945865D01*
X10260998Y-10925865D02*
X10240998Y-10945865D01*
X10243560Y-7847654D02*
X10263560Y-7867654D01*
X10263560Y-7847654D02*
X10243560Y-7867654D01*
X10249855Y-8805349D02*
X10269855Y-8825349D01*
X10269855Y-8805349D02*
X10249855Y-8825349D01*
X10256520Y-10089050D02*
X10276520Y-10109050D01*
X10276520Y-10089050D02*
X10256520Y-10109050D01*
X10257671Y-8707179D02*
X10277671Y-8727179D01*
X10277671Y-8707179D02*
X10257671Y-8727179D01*
X10269000Y-7391651D02*
X10289000Y-7411651D01*
X10289000Y-7391651D02*
X10269000Y-7411651D01*
X10276234Y-7761303D02*
X10296234Y-7781303D01*
X10296234Y-7761303D02*
X10276234Y-7781303D01*
X10283991Y-8762734D02*
X10303991Y-8782734D01*
X10303991Y-8762734D02*
X10283991Y-8782734D01*
X10290647Y-7541223D02*
X10310647Y-7561223D01*
X10310647Y-7541223D02*
X10290647Y-7561223D01*
X10296000Y-8865000D02*
X10316000Y-8885000D01*
X10316000Y-8865000D02*
X10296000Y-8885000D01*
X10315745Y-10859192D02*
X10335745Y-10879192D01*
X10335745Y-10859192D02*
X10315745Y-10879192D01*
X10324743Y-10522687D02*
X10344743Y-10542687D01*
X10344743Y-10522687D02*
X10324743Y-10542687D01*
X10344500Y-9521500D02*
X10364500Y-9541500D01*
X10364500Y-9521500D02*
X10344500Y-9541500D01*
X10362359Y-8700004D02*
X10382359Y-8720004D01*
X10382359Y-8700004D02*
X10362359Y-8720004D01*
X10368547Y-10487902D02*
X10388547Y-10507902D01*
X10388547Y-10487902D02*
X10368547Y-10507902D01*
X10376693Y-10803660D02*
X10396693Y-10823660D01*
X10396693Y-10803660D02*
X10376693Y-10823660D01*
X10378428Y-10671511D02*
X10398428Y-10691511D01*
X10398428Y-10671511D02*
X10378428Y-10691511D01*
X10378999Y-10430000D02*
X10398999Y-10450000D01*
X10398999Y-10430000D02*
X10378999Y-10450000D01*
X10379000Y-7493000D02*
X10399000Y-7513000D01*
X10399000Y-7493000D02*
X10379000Y-7513000D01*
X10379000Y-8648000D02*
X10399000Y-8668000D01*
X10399000Y-8648000D02*
X10379000Y-8668000D01*
X10381816Y-7647190D02*
X10401816Y-7667190D01*
X10401816Y-7647190D02*
X10381816Y-7667190D01*
X10384279Y-10725849D02*
X10404279Y-10745849D01*
X10404279Y-10725849D02*
X10384279Y-10745849D01*
X10398000Y-10278000D02*
X10418000Y-10298000D01*
X10418000Y-10278000D02*
X10398000Y-10298000D01*
X10398124Y-8337841D02*
X10418124Y-8357841D01*
X10418124Y-8337841D02*
X10398124Y-8357841D01*
X10401159Y-10566108D02*
X10421159Y-10586108D01*
X10421159Y-10566108D02*
X10401159Y-10586108D01*
X10411000Y-7319000D02*
X10431000Y-7339000D01*
X10431000Y-7319000D02*
X10411000Y-7339000D01*
X10422000Y-11161000D02*
X10442000Y-11181000D01*
X10442000Y-11161000D02*
X10422000Y-11181000D01*
X10423126Y-10481844D02*
X10443126Y-10501844D01*
X10443126Y-10481844D02*
X10423126Y-10501844D01*
X10433527Y-7835473D02*
X10453527Y-7855473D01*
X10453527Y-7835473D02*
X10433527Y-7855473D01*
X10437000Y-9266598D02*
X10457000Y-9286598D01*
X10457000Y-9266598D02*
X10437000Y-9286598D01*
X10441801Y-9527737D02*
X10461801Y-9547737D01*
X10461801Y-9527737D02*
X10441801Y-9547737D01*
X10473754Y-10999246D02*
X10493754Y-11019246D01*
X10493754Y-10999246D02*
X10473754Y-11019246D01*
X10496554Y-9124015D02*
X10516554Y-9144015D01*
X10516554Y-9124015D02*
X10496554Y-9144015D01*
X10500651Y-8232749D02*
X10520651Y-8252749D01*
X10520651Y-8232749D02*
X10500651Y-8252749D01*
X10506000Y-10851000D02*
X10526000Y-10871000D01*
X10526000Y-10851000D02*
X10506000Y-10871000D01*
X10516000Y-7835000D02*
X10536000Y-7855000D01*
X10536000Y-7835000D02*
X10516000Y-7855000D01*
X10565803Y-9868548D02*
X10585803Y-9888548D01*
X10585803Y-9868548D02*
X10565803Y-9888548D01*
X10595605Y-10634572D02*
X10615605Y-10654572D01*
X10615605Y-10634572D02*
X10595605Y-10654572D01*
X10597370Y-9712001D02*
X10617370Y-9732001D01*
X10617370Y-9712001D02*
X10597370Y-9732001D01*
X10614500Y-7788393D02*
X10634500Y-7808393D01*
X10634500Y-7788393D02*
X10614500Y-7808393D01*
X10615872Y-10020310D02*
X10635872Y-10040310D01*
X10635872Y-10020310D02*
X10615872Y-10040310D01*
X10617067Y-9437717D02*
X10637067Y-9457717D01*
X10637067Y-9437717D02*
X10617067Y-9457717D01*
X10625250Y-10075929D02*
X10645250Y-10095929D01*
X10645250Y-10075929D02*
X10625250Y-10095929D01*
X10625539Y-11126461D02*
X10645539Y-11146461D01*
X10645539Y-11126461D02*
X10625539Y-11146461D01*
X10627000Y-9791000D02*
X10647000Y-9811000D01*
X10647000Y-9791000D02*
X10627000Y-9811000D01*
X10635606Y-10564323D02*
X10655606Y-10584323D01*
X10655606Y-10564323D02*
X10635606Y-10584323D01*
X10639612Y-9387988D02*
X10659612Y-9407988D01*
X10659612Y-9387988D02*
X10639612Y-9407988D01*
X10650203Y-10633962D02*
X10670203Y-10653962D01*
X10670203Y-10633962D02*
X10650203Y-10653962D01*
X10661000Y-8276000D02*
X10681000Y-8296000D01*
X10681000Y-8276000D02*
X10661000Y-8296000D01*
X10663095Y-7815651D02*
X10683095Y-7835651D01*
X10683095Y-7815651D02*
X10663095Y-7835651D01*
X10672000Y-7325000D02*
X10692000Y-7345000D01*
X10692000Y-7325000D02*
X10672000Y-7345000D01*
X10676212Y-10970257D02*
X10696212Y-10990257D01*
X10696212Y-10970257D02*
X10676212Y-10990257D01*
X10679119Y-10066323D02*
X10699119Y-10086323D01*
X10699119Y-10066323D02*
X10679119Y-10086323D01*
X10680697Y-9986322D02*
X10700697Y-10006322D01*
X10700697Y-9986322D02*
X10680697Y-10006322D01*
X10685588Y-10675546D02*
X10705588Y-10695546D01*
X10705588Y-10675546D02*
X10685588Y-10695546D01*
X10691000Y-7897000D02*
X10711000Y-7917000D01*
X10711000Y-7897000D02*
X10691000Y-7917000D01*
X10695645Y-10229152D02*
X10715645Y-10249152D01*
X10715645Y-10229152D02*
X10695645Y-10249152D01*
X10718268Y-9805698D02*
X10738268Y-9825698D01*
X10738268Y-9805698D02*
X10718268Y-9825698D01*
X10729069Y-9322650D02*
X10749069Y-9342650D01*
X10749069Y-9322650D02*
X10729069Y-9342650D01*
X10753716Y-9847655D02*
X10773716Y-9867655D01*
X10773716Y-9847655D02*
X10753716Y-9867655D01*
X10755606Y-10615035D02*
X10775606Y-10635035D01*
X10775606Y-10615035D02*
X10755606Y-10635035D01*
X10757749Y-9562567D02*
X10777749Y-9582567D01*
X10777749Y-9562567D02*
X10757749Y-9582567D01*
X10765682Y-10668698D02*
X10785682Y-10688698D01*
X10785682Y-10668698D02*
X10765682Y-10688698D01*
X10780867Y-9421409D02*
X10800867Y-9441409D01*
X10800867Y-9421409D02*
X10780867Y-9441409D01*
X10790777Y-10919923D02*
X10810777Y-10939923D01*
X10810777Y-10919923D02*
X10790777Y-10939923D01*
X10794637Y-9289992D02*
X10814637Y-9309992D01*
X10814637Y-9289992D02*
X10794637Y-9309992D01*
X10794754Y-8999246D02*
X10814754Y-9019246D01*
X10814754Y-8999246D02*
X10794754Y-9019246D01*
X10801000Y-8271000D02*
X10821000Y-8291000D01*
X10821000Y-8271000D02*
X10801000Y-8291000D01*
X10810620Y-10796921D02*
X10830620Y-10816921D01*
X10830620Y-10796921D02*
X10810620Y-10816921D01*
X10849000Y-10035000D02*
X10869000Y-10055000D01*
X10869000Y-10035000D02*
X10849000Y-10055000D01*
X10864448Y-10772509D02*
X10884448Y-10792509D01*
X10884448Y-10772509D02*
X10864448Y-10792509D01*
X10871084Y-10655921D02*
X10891084Y-10675921D01*
X10891084Y-10655921D02*
X10871084Y-10675921D01*
X10871993Y-9972476D02*
X10891993Y-9992476D01*
X10891993Y-9972476D02*
X10871993Y-9992476D01*
X10875301Y-10884324D02*
X10895301Y-10904324D01*
X10895301Y-10884324D02*
X10875301Y-10904324D01*
X10878251Y-10165803D02*
X10898251Y-10185803D01*
X10898251Y-10165803D02*
X10878251Y-10185803D01*
X10890349Y-7588000D02*
X10910349Y-7608000D01*
X10910349Y-7588000D02*
X10890349Y-7608000D01*
X10899424Y-11106658D02*
X10919424Y-11126658D01*
X10919424Y-11106658D02*
X10899424Y-11126658D01*
X10902000Y-8856000D02*
X10922000Y-8876000D01*
X10922000Y-8856000D02*
X10902000Y-8876000D01*
X10903595Y-10022832D02*
X10923595Y-10042832D01*
X10923595Y-10022832D02*
X10903595Y-10042832D01*
X10908990Y-9761602D02*
X10928990Y-9781602D01*
X10928990Y-9761602D02*
X10908990Y-9781602D01*
X10909781Y-9932475D02*
X10929781Y-9952475D01*
X10929781Y-9932475D02*
X10909781Y-9952475D01*
X10911967Y-7341130D02*
X10931967Y-7361130D01*
X10931967Y-7341130D02*
X10911967Y-7361130D01*
X10913954Y-9618000D02*
X10933954Y-9638000D01*
X10933954Y-9618000D02*
X10913954Y-9638000D01*
X10920172Y-10200788D02*
X10940172Y-10220788D01*
X10940172Y-10200788D02*
X10920172Y-10220788D01*
X10921017Y-9852440D02*
X10941017Y-9872440D01*
X10941017Y-9852440D02*
X10921017Y-9872440D01*
X10950855Y-10153015D02*
X10970855Y-10173015D01*
X10970855Y-10153015D02*
X10950855Y-10173015D01*
X10952000Y-7304000D02*
X10972000Y-7324000D01*
X10972000Y-7304000D02*
X10952000Y-7324000D01*
X10988972Y-9736051D02*
X11008972Y-9756051D01*
X11008972Y-9736051D02*
X10988972Y-9756051D01*
X10989948Y-10051898D02*
X11009948Y-10071898D01*
X11009948Y-10051898D02*
X10989948Y-10071898D01*
X10990000Y-8856000D02*
X11010000Y-8876000D01*
X11010000Y-8856000D02*
X10990000Y-8876000D01*
X10991000Y-8692999D02*
X11011000Y-8712999D01*
X11011000Y-8692999D02*
X10991000Y-8712999D01*
X10991000Y-8775000D02*
X11011000Y-8795000D01*
X11011000Y-8775000D02*
X10991000Y-8795000D01*
X10991028Y-9253261D02*
X11011028Y-9273261D01*
X11011028Y-9253261D02*
X10991028Y-9273261D01*
X10993910Y-9576236D02*
X11013910Y-9596236D01*
X11013910Y-9576236D02*
X10993910Y-9596236D01*
X11006000Y-7241000D02*
X11026000Y-7261000D01*
X11026000Y-7241000D02*
X11006000Y-7261000D01*
X11027572Y-10231575D02*
X11047572Y-10251575D01*
X11047572Y-10231575D02*
X11027572Y-10251575D01*
X11060803Y-8598373D02*
X11080803Y-8618373D01*
X11080803Y-8598373D02*
X11060803Y-8618373D01*
X11067000Y-9015000D02*
X11087000Y-9035000D01*
X11087000Y-9015000D02*
X11067000Y-9035000D01*
X11067999Y-9893836D02*
X11087999Y-9913836D01*
X11087999Y-9893836D02*
X11067999Y-9913836D01*
X11068000Y-8932000D02*
X11088000Y-8952000D01*
X11088000Y-8932000D02*
X11068000Y-8952000D01*
X11068999Y-9413554D02*
X11088999Y-9433554D01*
X11088999Y-9413554D02*
X11068999Y-9433554D01*
X11070999Y-9254048D02*
X11090999Y-9274048D01*
X11090999Y-9254048D02*
X11070999Y-9274048D01*
X11070999Y-9975001D02*
X11090999Y-9995001D01*
X11090999Y-9975001D02*
X11070999Y-9995001D01*
X11070999Y-10055002D02*
X11090999Y-10075002D01*
X11090999Y-10055002D02*
X11070999Y-10075002D01*
X11071001Y-9656668D02*
X11091001Y-9676668D01*
X11091001Y-9656668D02*
X11071001Y-9676668D01*
X11071087Y-9090656D02*
X11091087Y-9110656D01*
X11091087Y-9090656D02*
X11071087Y-9110656D01*
X11072003Y-9737594D02*
X11092003Y-9757594D01*
X11092003Y-9737594D02*
X11072003Y-9757594D01*
X11072298Y-8860753D02*
X11092298Y-8880753D01*
X11092298Y-8860753D02*
X11072298Y-8880753D01*
X11074102Y-8773948D02*
X11094102Y-8793948D01*
X11094102Y-8773948D02*
X11074102Y-8793948D01*
X11074367Y-9575803D02*
X11094367Y-9595803D01*
X11094367Y-9575803D02*
X11074367Y-9595803D01*
X11075862Y-9171369D02*
X11095862Y-9191369D01*
X11095862Y-9171369D02*
X11075862Y-9191369D01*
X11081568Y-10239683D02*
X11101568Y-10259683D01*
X11101568Y-10239683D02*
X11081568Y-10259683D01*
X11105000Y-7269000D02*
X11125000Y-7289000D01*
X11125000Y-7269000D02*
X11105000Y-7289000D01*
X11116000Y-8597000D02*
X11136000Y-8617000D01*
X11136000Y-8597000D02*
X11116000Y-8617000D01*
X11147347Y-9575538D02*
X11167347Y-9595538D01*
X11167347Y-9575538D02*
X11147347Y-9595538D01*
X11149345Y-8853207D02*
X11169345Y-8873207D01*
X11169345Y-8853207D02*
X11149345Y-8873207D01*
X11150000Y-8776000D02*
X11170000Y-8796000D01*
X11170000Y-8776000D02*
X11150000Y-8796000D01*
X11151000Y-8690754D02*
X11171000Y-8710754D01*
X11171000Y-8690754D02*
X11151000Y-8710754D01*
X11151000Y-9815000D02*
X11171000Y-9835000D01*
X11171000Y-9815000D02*
X11151000Y-9835000D01*
X11151000Y-9975000D02*
X11171000Y-9995000D01*
X11171000Y-9975000D02*
X11151000Y-9995000D01*
X11151000Y-10055000D02*
X11171000Y-10075000D01*
X11171000Y-10055000D02*
X11151000Y-10075000D01*
X11151001Y-9413000D02*
X11171001Y-9433000D01*
X11171001Y-9413000D02*
X11151001Y-9433000D01*
X11151001Y-9895000D02*
X11171001Y-9915000D01*
X11171001Y-9895000D02*
X11151001Y-9915000D01*
X11151084Y-9650999D02*
X11171084Y-9670999D01*
X11171084Y-9650999D02*
X11151084Y-9670999D01*
X11152000Y-9172000D02*
X11172000Y-9192000D01*
X11172000Y-9172000D02*
X11152000Y-9192000D01*
X11152001Y-9253948D02*
X11172001Y-9273948D01*
X11172001Y-9253948D02*
X11152001Y-9273948D01*
X11153062Y-9734990D02*
X11173062Y-9754990D01*
X11173062Y-9734990D02*
X11153062Y-9754990D01*
X11153971Y-9097971D02*
X11173971Y-9117971D01*
X11173971Y-9097971D02*
X11153971Y-9117971D01*
X11181701Y-11106658D02*
X11201701Y-11126658D01*
X11201701Y-11106658D02*
X11181701Y-11126658D01*
X11199000Y-7325000D02*
X11219000Y-7345000D01*
X11219000Y-7325000D02*
X11199000Y-7345000D01*
X11199289Y-10853248D02*
X11219289Y-10873248D01*
X11219289Y-10853248D02*
X11199289Y-10873248D01*
X11206000Y-7241000D02*
X11226000Y-7261000D01*
X11226000Y-7241000D02*
X11206000Y-7261000D01*
X11209285Y-8478715D02*
X11229285Y-8498715D01*
X11229285Y-8478715D02*
X11209285Y-8498715D01*
X11212371Y-10242115D02*
X11232371Y-10262115D01*
X11232371Y-10242115D02*
X11212371Y-10262115D01*
X11214299Y-10598967D02*
X11234299Y-10618967D01*
X11234299Y-10598967D02*
X11214299Y-10618967D01*
X11217497Y-10298611D02*
X11237497Y-10318611D01*
X11237497Y-10298611D02*
X11217497Y-10318611D01*
X11223985Y-9320845D02*
X11243985Y-9340845D01*
X11243985Y-9320845D02*
X11223985Y-9340845D01*
X11227197Y-9895092D02*
X11247197Y-9915092D01*
X11247197Y-9895092D02*
X11227197Y-9915092D01*
X11227640Y-9815091D02*
X11247640Y-9835091D01*
X11247640Y-9815091D02*
X11227640Y-9835091D01*
X11229000Y-9575000D02*
X11249000Y-9595000D01*
X11249000Y-9575000D02*
X11229000Y-9595000D01*
X11229202Y-9412999D02*
X11249202Y-9432999D01*
X11249202Y-9412999D02*
X11229202Y-9432999D01*
X11231000Y-9014000D02*
X11251000Y-9034000D01*
X11251000Y-9014000D02*
X11231000Y-9034000D01*
X11231000Y-9975093D02*
X11251000Y-9995093D01*
X11251000Y-9975093D02*
X11231000Y-9995093D01*
X11231135Y-9650999D02*
X11251135Y-9670999D01*
X11251135Y-9650999D02*
X11231135Y-9670999D01*
X11231702Y-9735001D02*
X11251702Y-9755001D01*
X11251702Y-9735001D02*
X11231702Y-9755001D01*
X11233991Y-9096157D02*
X11253991Y-9116157D01*
X11253991Y-9096157D02*
X11233991Y-9116157D01*
X11265816Y-7683246D02*
X11285816Y-7703246D01*
X11285816Y-7683246D02*
X11265816Y-7703246D01*
X11277000Y-7360000D02*
X11297000Y-7380000D01*
X11297000Y-7360000D02*
X11277000Y-7380000D01*
X11277389Y-7598417D02*
X11297389Y-7618417D01*
X11297389Y-7598417D02*
X11277389Y-7618417D01*
X11296685Y-10278936D02*
X11316685Y-10298936D01*
X11316685Y-10278936D02*
X11296685Y-10298936D01*
X11306000Y-7418000D02*
X11326000Y-7438000D01*
X11326000Y-7418000D02*
X11306000Y-7438000D01*
X11309357Y-10135000D02*
X11329357Y-10155000D01*
X11329357Y-10135000D02*
X11309357Y-10155000D01*
X11310000Y-8854000D02*
X11330000Y-8874000D01*
X11330000Y-8854000D02*
X11310000Y-8874000D01*
X11310000Y-9332203D02*
X11330000Y-9352203D01*
X11330000Y-9332203D02*
X11310000Y-9352203D01*
X11310349Y-9094000D02*
X11330349Y-9114000D01*
X11330349Y-9094000D02*
X11310349Y-9114000D01*
X11310771Y-9419504D02*
X11330771Y-9439504D01*
X11330771Y-9419504D02*
X11310771Y-9439504D01*
X11310997Y-10055000D02*
X11330997Y-10075000D01*
X11330997Y-10055000D02*
X11310997Y-10075000D01*
X11312000Y-9256000D02*
X11332000Y-9276000D01*
X11332000Y-9256000D02*
X11312000Y-9276000D01*
X11312265Y-7823265D02*
X11332265Y-7843265D01*
X11332265Y-7823265D02*
X11312265Y-7843265D01*
X11313000Y-8937000D02*
X11333000Y-8957000D01*
X11333000Y-8937000D02*
X11313000Y-8957000D01*
X11314000Y-9576000D02*
X11334000Y-9596000D01*
X11334000Y-9576000D02*
X11314000Y-9596000D01*
X11314747Y-9496746D02*
X11334747Y-9516746D01*
X11334747Y-9496746D02*
X11314747Y-9516746D01*
X11315541Y-8774050D02*
X11335541Y-8794050D01*
X11335541Y-8774050D02*
X11315541Y-8794050D01*
X11315998Y-7559809D02*
X11335998Y-7579809D01*
X11335998Y-7559809D02*
X11315998Y-7579809D01*
X11347000Y-10367000D02*
X11367000Y-10387000D01*
X11367000Y-10367000D02*
X11347000Y-10387000D01*
X11350927Y-10285188D02*
X11370927Y-10305188D01*
X11370927Y-10285188D02*
X11350927Y-10305188D01*
X11354073Y-8389093D02*
X11374073Y-8409093D01*
X11374073Y-8389093D02*
X11354073Y-8409093D01*
X11365537Y-8606099D02*
X11385537Y-8626099D01*
X11385537Y-8606099D02*
X11365537Y-8626099D01*
X11376616Y-7744865D02*
X11396616Y-7764865D01*
X11396616Y-7744865D02*
X11376616Y-7764865D01*
X11381832Y-10062324D02*
X11401832Y-10082324D01*
X11401832Y-10062324D02*
X11381832Y-10082324D01*
X11390999Y-10135000D02*
X11410999Y-10155000D01*
X11410999Y-10135000D02*
X11390999Y-10155000D01*
X11391000Y-9016000D02*
X11411000Y-9036000D01*
X11411000Y-9016000D02*
X11391000Y-9036000D01*
X11391095Y-9331349D02*
X11411095Y-9351349D01*
X11411095Y-9331349D02*
X11391095Y-9351349D01*
X11391267Y-9172999D02*
X11411267Y-9192999D01*
X11411267Y-9172999D02*
X11391267Y-9192999D01*
X11391517Y-9255972D02*
X11411517Y-9275972D01*
X11411517Y-9255972D02*
X11391517Y-9275972D01*
X11392001Y-8854910D02*
X11412001Y-8874910D01*
X11412001Y-8854910D02*
X11392001Y-8874910D01*
X11395401Y-9571001D02*
X11415401Y-9591001D01*
X11415401Y-9571001D02*
X11395401Y-9591001D01*
X11398651Y-9097280D02*
X11418651Y-9117280D01*
X11418651Y-9097280D02*
X11398651Y-9117280D01*
X11405812Y-7456081D02*
X11425812Y-7476081D01*
X11425812Y-7456081D02*
X11405812Y-7476081D01*
X11406000Y-7241000D02*
X11426000Y-7261000D01*
X11426000Y-7241000D02*
X11406000Y-7261000D01*
X11407669Y-8409089D02*
X11427669Y-8429089D01*
X11427669Y-8409089D02*
X11407669Y-8429089D01*
X11430000Y-7302000D02*
X11450000Y-7322000D01*
X11450000Y-7302000D02*
X11430000Y-7322000D01*
X11432591Y-10361677D02*
X11452591Y-10381677D01*
X11452591Y-10361677D02*
X11432591Y-10381677D01*
X11433821Y-10962656D02*
X11453821Y-10982656D01*
X11453821Y-10962656D02*
X11433821Y-10982656D01*
X11444000Y-7514999D02*
X11464000Y-7534999D01*
X11464000Y-7514999D02*
X11444000Y-7534999D01*
X11468000Y-8328001D02*
X11488000Y-8348001D01*
X11488000Y-8328001D02*
X11468000Y-8348001D01*
X11471000Y-9095000D02*
X11491000Y-9115000D01*
X11491000Y-9095000D02*
X11471000Y-9115000D01*
X11471000Y-9415000D02*
X11491000Y-9435000D01*
X11491000Y-9415000D02*
X11471000Y-9435000D01*
X11471203Y-9892999D02*
X11491203Y-9912999D01*
X11491203Y-9892999D02*
X11471203Y-9912999D01*
X11471450Y-9978001D02*
X11491450Y-9998001D01*
X11491450Y-9978001D02*
X11471450Y-9998001D01*
X11473000Y-8935000D02*
X11493000Y-8955000D01*
X11493000Y-8935000D02*
X11473000Y-8955000D01*
X11475000Y-8858000D02*
X11495000Y-8878000D01*
X11495000Y-8858000D02*
X11475000Y-8878000D01*
X11480002Y-8778789D02*
X11500002Y-8798789D01*
X11500002Y-8778789D02*
X11480002Y-8798789D01*
X11481537Y-7474998D02*
X11501537Y-7494998D01*
X11501537Y-7474998D02*
X11481537Y-7494998D01*
X11489000Y-10360000D02*
X11509000Y-10380000D01*
X11509000Y-10360000D02*
X11489000Y-10380000D01*
X11537795Y-10830479D02*
X11557795Y-10850479D01*
X11557795Y-10830479D02*
X11537795Y-10850479D01*
X11545799Y-7715000D02*
X11565799Y-7735000D01*
X11565799Y-7715000D02*
X11545799Y-7735000D01*
X11546071Y-10960796D02*
X11566071Y-10980796D01*
X11566071Y-10960796D02*
X11546071Y-10980796D01*
X11547000Y-7302000D02*
X11567000Y-7322000D01*
X11567000Y-7302000D02*
X11547000Y-7322000D01*
X11549000Y-8939000D02*
X11569000Y-8959000D01*
X11569000Y-8939000D02*
X11549000Y-8959000D01*
X11551000Y-9095000D02*
X11571000Y-9115000D01*
X11571000Y-9095000D02*
X11551000Y-9115000D01*
X11551000Y-9255000D02*
X11571000Y-9275000D01*
X11571000Y-9255000D02*
X11551000Y-9275000D01*
X11551000Y-9575000D02*
X11571000Y-9595000D01*
X11571000Y-9575000D02*
X11551000Y-9595000D01*
X11551083Y-9978001D02*
X11571083Y-9998001D01*
X11571083Y-9978001D02*
X11551083Y-9998001D01*
X11551297Y-9892999D02*
X11571297Y-9912999D01*
X11571297Y-9892999D02*
X11551297Y-9912999D01*
X11552000Y-8773000D02*
X11572000Y-8793000D01*
X11572000Y-8773000D02*
X11552000Y-8793000D01*
X11573438Y-7534070D02*
X11593438Y-7554070D01*
X11593438Y-7534070D02*
X11573438Y-7554070D01*
X11576314Y-10171686D02*
X11596314Y-10191686D01*
X11596314Y-10171686D02*
X11576314Y-10191686D01*
X11592259Y-10834350D02*
X11612259Y-10854350D01*
X11612259Y-10834350D02*
X11592259Y-10854350D01*
X11598013Y-7483494D02*
X11618013Y-7503494D01*
X11618013Y-7483494D02*
X11598013Y-7503494D01*
X11603727Y-10623435D02*
X11623727Y-10643435D01*
X11623727Y-10623435D02*
X11603727Y-10643435D01*
X11605598Y-8592109D02*
X11625598Y-8612109D01*
X11625598Y-8592109D02*
X11605598Y-8612109D01*
X11606000Y-7241000D02*
X11626000Y-7261000D01*
X11626000Y-7241000D02*
X11606000Y-7261000D01*
X11607419Y-9758581D02*
X11627419Y-9778581D01*
X11627419Y-9758581D02*
X11607419Y-9778581D01*
X11628731Y-10148642D02*
X11648731Y-10168642D01*
X11648731Y-10148642D02*
X11628731Y-10168642D01*
X11629000Y-8935000D02*
X11649000Y-8955000D01*
X11649000Y-8935000D02*
X11629000Y-8955000D01*
X11631000Y-9095000D02*
X11651000Y-9115000D01*
X11651000Y-9095000D02*
X11631000Y-9115000D01*
X11631000Y-9495000D02*
X11651000Y-9515000D01*
X11651000Y-9495000D02*
X11631000Y-9515000D01*
X11631000Y-9575000D02*
X11651000Y-9595000D01*
X11651000Y-9575000D02*
X11631000Y-9595000D01*
X11631000Y-9978001D02*
X11651000Y-9998001D01*
X11651000Y-9978001D02*
X11631000Y-9998001D01*
X11635999Y-10867032D02*
X11655999Y-10887032D01*
X11655999Y-10867032D02*
X11635999Y-10887032D01*
X11654322Y-10644430D02*
X11674322Y-10664430D01*
X11674322Y-10644430D02*
X11654322Y-10664430D01*
X11659344Y-10335751D02*
X11679344Y-10355751D01*
X11679344Y-10335751D02*
X11659344Y-10355751D01*
X11665993Y-10960796D02*
X11685993Y-10980796D01*
X11685993Y-10960796D02*
X11665993Y-10980796D01*
X11666000Y-7303000D02*
X11686000Y-7323000D01*
X11686000Y-7303000D02*
X11666000Y-7323000D01*
X11667412Y-10265952D02*
X11687412Y-10285952D01*
X11687412Y-10265952D02*
X11667412Y-10285952D01*
X11692280Y-7573360D02*
X11712280Y-7593360D01*
X11712280Y-7573360D02*
X11692280Y-7593360D01*
X11694000Y-8569000D02*
X11714000Y-8589000D01*
X11714000Y-8569000D02*
X11694000Y-8589000D01*
X11703969Y-10851597D02*
X11723969Y-10871597D01*
X11723969Y-10851597D02*
X11703969Y-10871597D01*
X11711000Y-8779171D02*
X11731000Y-8799171D01*
X11731000Y-8779171D02*
X11711000Y-8799171D01*
X11711000Y-9495001D02*
X11731000Y-9515001D01*
X11731000Y-9495001D02*
X11711000Y-9515001D01*
X11711000Y-9575002D02*
X11731000Y-9595002D01*
X11731000Y-9575002D02*
X11711000Y-9595002D01*
X11711000Y-10135000D02*
X11731000Y-10155000D01*
X11731000Y-10135000D02*
X11711000Y-10155000D01*
X11731388Y-7535187D02*
X11751388Y-7555187D01*
X11751388Y-7535187D02*
X11731388Y-7555187D01*
X11739000Y-7926000D02*
X11759000Y-7946000D01*
X11759000Y-7926000D02*
X11739000Y-7946000D01*
X11739716Y-8539054D02*
X11759716Y-8559054D01*
X11759716Y-8539054D02*
X11739716Y-8559054D01*
X11772345Y-7494225D02*
X11792345Y-7514225D01*
X11792345Y-7494225D02*
X11772345Y-7514225D01*
X11788009Y-8936157D02*
X11808009Y-8956157D01*
X11808009Y-8936157D02*
X11788009Y-8956157D01*
X11788294Y-10267974D02*
X11808294Y-10287974D01*
X11808294Y-10267974D02*
X11788294Y-10287974D01*
X11791000Y-9095000D02*
X11811000Y-9115000D01*
X11811000Y-9095000D02*
X11791000Y-9115000D01*
X11791000Y-9495000D02*
X11811000Y-9515000D01*
X11811000Y-9495000D02*
X11791000Y-9515000D01*
X11791000Y-9575000D02*
X11811000Y-9595000D01*
X11811000Y-9575000D02*
X11791000Y-9595000D01*
X11791000Y-9978001D02*
X11811000Y-9998001D01*
X11811000Y-9978001D02*
X11791000Y-9998001D01*
X11791000Y-10135000D02*
X11811000Y-10155000D01*
X11811000Y-10135000D02*
X11791000Y-10155000D01*
X11796000Y-7924000D02*
X11816000Y-7944000D01*
X11816000Y-7924000D02*
X11796000Y-7944000D01*
X11797980Y-8857287D02*
X11817980Y-8877287D01*
X11817980Y-8857287D02*
X11797980Y-8877287D01*
X11800402Y-10365404D02*
X11820402Y-10385404D01*
X11820402Y-10365404D02*
X11800402Y-10385404D01*
X11806000Y-7241000D02*
X11826000Y-7261000D01*
X11826000Y-7241000D02*
X11806000Y-7261000D01*
X11822000Y-8140000D02*
X11842000Y-8160000D01*
X11842000Y-8140000D02*
X11822000Y-8160000D01*
X11858000Y-10372000D02*
X11878000Y-10392000D01*
X11878000Y-10372000D02*
X11858000Y-10392000D01*
X11868365Y-9893499D02*
X11888365Y-9913499D01*
X11888365Y-9893499D02*
X11868365Y-9913499D01*
X11869001Y-8934686D02*
X11889001Y-8954686D01*
X11889001Y-8934686D02*
X11869001Y-8954686D01*
X11869519Y-9978001D02*
X11889519Y-9998001D01*
X11889519Y-9978001D02*
X11869519Y-9998001D01*
X11870009Y-9095883D02*
X11890009Y-9115883D01*
X11890009Y-9095883D02*
X11870009Y-9115883D01*
X11871000Y-9255000D02*
X11891000Y-9275000D01*
X11891000Y-9255000D02*
X11871000Y-9275000D01*
X11871000Y-9575000D02*
X11891000Y-9595000D01*
X11891000Y-9575000D02*
X11871000Y-9595000D01*
X11877174Y-10851571D02*
X11897174Y-10871571D01*
X11897174Y-10851571D02*
X11877174Y-10871571D01*
X11879171Y-7244221D02*
X11899171Y-7264221D01*
X11899171Y-7244221D02*
X11879171Y-7264221D01*
X11881000Y-8129000D02*
X11901000Y-8149000D01*
X11901000Y-8129000D02*
X11881000Y-8149000D01*
X11891124Y-10974404D02*
X11911124Y-10994404D01*
X11911124Y-10974404D02*
X11891124Y-10994404D01*
X11905202Y-7691810D02*
X11925202Y-7711810D01*
X11925202Y-7691810D02*
X11905202Y-7711810D01*
X11909000Y-7973700D02*
X11929000Y-7993700D01*
X11929000Y-7973700D02*
X11909000Y-7993700D01*
X11909207Y-10392235D02*
X11929207Y-10412235D01*
X11929207Y-10392235D02*
X11909207Y-10412235D01*
X11909985Y-8029285D02*
X11929985Y-8049285D01*
X11929985Y-8029285D02*
X11909985Y-8049285D01*
X11917779Y-7282829D02*
X11937779Y-7302829D01*
X11937779Y-7282829D02*
X11917779Y-7302829D01*
X11928000Y-10888000D02*
X11948000Y-10908000D01*
X11948000Y-10888000D02*
X11928000Y-10908000D01*
X11933000Y-8082000D02*
X11953000Y-8102000D01*
X11953000Y-8082000D02*
X11933000Y-8102000D01*
X11938111Y-9415000D02*
X11958111Y-9435000D01*
X11958111Y-9415000D02*
X11938111Y-9435000D01*
X11942702Y-9115819D02*
X11962702Y-9135819D01*
X11962702Y-9115819D02*
X11942702Y-9135819D01*
X11945362Y-10981511D02*
X11965362Y-11001511D01*
X11965362Y-10981511D02*
X11945362Y-11001511D01*
X11946012Y-7519558D02*
X11966012Y-7539558D01*
X11966012Y-7519558D02*
X11946012Y-7539558D01*
X11951000Y-8935000D02*
X11971000Y-8955000D01*
X11971000Y-8935000D02*
X11951000Y-8955000D01*
X11951000Y-9894715D02*
X11971000Y-9914715D01*
X11971000Y-9894715D02*
X11951000Y-9914715D01*
X11952747Y-8856746D02*
X11972747Y-8876746D01*
X11972747Y-8856746D02*
X11952747Y-8876746D01*
X11953001Y-9985572D02*
X11973001Y-10005572D01*
X11973001Y-9985572D02*
X11953001Y-10005572D01*
X11953293Y-9008009D02*
X11973293Y-9028009D01*
X11973293Y-9008009D02*
X11953293Y-9028009D01*
X11957366Y-10839438D02*
X11977366Y-10859438D01*
X11977366Y-10839438D02*
X11957366Y-10859438D01*
X11958000Y-9774000D02*
X11978000Y-9794000D01*
X11978000Y-9774000D02*
X11958000Y-9794000D01*
X11981550Y-7573350D02*
X12001550Y-7593350D01*
X12001550Y-7573350D02*
X11981550Y-7593350D01*
X11986920Y-10945158D02*
X12006920Y-10965158D01*
X12006920Y-10945158D02*
X11986920Y-10965158D01*
X12004754Y-7262754D02*
X12024754Y-7282754D01*
X12024754Y-7262754D02*
X12004754Y-7282754D01*
X12008000Y-9750000D02*
X12028000Y-9770000D01*
X12028000Y-9750000D02*
X12008000Y-9770000D01*
X12010555Y-10851778D02*
X12030555Y-10871778D01*
X12030555Y-10851778D02*
X12010555Y-10871778D01*
X12016598Y-7700567D02*
X12036598Y-7720567D01*
X12036598Y-7700567D02*
X12016598Y-7720567D01*
X12022703Y-8558142D02*
X12042703Y-8578142D01*
X12042703Y-8558142D02*
X12022703Y-8578142D01*
X12024349Y-9335999D02*
X12044349Y-9355999D01*
X12044349Y-9335999D02*
X12024349Y-9355999D01*
X12025462Y-10983975D02*
X12045462Y-11003975D01*
X12045462Y-10983975D02*
X12025462Y-11003975D01*
X12028999Y-9094998D02*
X12048999Y-9114998D01*
X12048999Y-9094998D02*
X12028999Y-9114998D01*
X12029358Y-9174999D02*
X12049358Y-9194999D01*
X12049358Y-9174999D02*
X12029358Y-9194999D01*
X12029546Y-9257298D02*
X12049546Y-9277298D01*
X12049546Y-9257298D02*
X12029546Y-9277298D01*
X12031000Y-8697000D02*
X12051000Y-8717000D01*
X12051000Y-8697000D02*
X12031000Y-8717000D01*
X12031000Y-9575000D02*
X12051000Y-9595000D01*
X12051000Y-9575000D02*
X12031000Y-9595000D01*
X12031714Y-8772999D02*
X12051714Y-8792999D01*
X12051714Y-8772999D02*
X12031714Y-8792999D01*
X12035094Y-9014997D02*
X12055094Y-9034997D01*
X12055094Y-9014997D02*
X12035094Y-9034997D01*
X12040000Y-10931000D02*
X12060000Y-10951000D01*
X12060000Y-10931000D02*
X12040000Y-10951000D01*
X12042701Y-7504102D02*
X12062701Y-7524102D01*
X12062701Y-7504102D02*
X12042701Y-7524102D01*
X12047402Y-7979848D02*
X12067402Y-7999848D01*
X12067402Y-7979848D02*
X12047402Y-7999848D01*
X12050174Y-10634486D02*
X12070174Y-10654486D01*
X12070174Y-10634486D02*
X12050174Y-10654486D01*
X12064864Y-10840320D02*
X12084864Y-10860320D01*
X12084864Y-10840320D02*
X12064864Y-10860320D01*
X12073999Y-8483671D02*
X12093999Y-8503671D01*
X12093999Y-8483671D02*
X12073999Y-8503671D01*
X12083046Y-8564187D02*
X12103046Y-8584187D01*
X12103046Y-8564187D02*
X12083046Y-8584187D01*
X12083952Y-10699947D02*
X12103952Y-10719947D01*
X12103952Y-10699947D02*
X12083952Y-10719947D01*
X12095169Y-7488988D02*
X12115169Y-7508988D01*
X12115169Y-7488988D02*
X12095169Y-7508988D01*
X12106000Y-10981000D02*
X12126000Y-11001000D01*
X12126000Y-10981000D02*
X12106000Y-11001000D01*
X12108193Y-9414314D02*
X12128193Y-9434314D01*
X12128193Y-9414314D02*
X12108193Y-9434314D01*
X12109585Y-9893945D02*
X12129585Y-9913945D01*
X12129585Y-9893945D02*
X12109585Y-9913945D01*
X12109781Y-10055426D02*
X12129781Y-10075426D01*
X12129781Y-10055426D02*
X12109781Y-10075426D01*
X12110998Y-9095444D02*
X12130998Y-9115444D01*
X12130998Y-9095444D02*
X12110998Y-9115444D01*
X12111001Y-9253649D02*
X12131001Y-9273649D01*
X12131001Y-9253649D02*
X12111001Y-9273649D01*
X12111446Y-9171247D02*
X12131446Y-9191247D01*
X12131446Y-9171247D02*
X12111446Y-9191247D01*
X12112000Y-8937000D02*
X12132000Y-8957000D01*
X12132000Y-8937000D02*
X12112000Y-8957000D01*
X12113000Y-8849000D02*
X12133000Y-8869000D01*
X12133000Y-8849000D02*
X12113000Y-8869000D01*
X12113006Y-10132121D02*
X12133006Y-10152121D01*
X12133006Y-10132121D02*
X12113006Y-10152121D01*
X12113650Y-9333650D02*
X12133650Y-9353650D01*
X12133650Y-9333650D02*
X12113650Y-9353650D01*
X12130216Y-10670948D02*
X12150216Y-10690948D01*
X12150216Y-10670948D02*
X12130216Y-10690948D01*
X12138120Y-7522700D02*
X12158120Y-7542700D01*
X12158120Y-7522700D02*
X12138120Y-7542700D01*
X12140000Y-7243149D02*
X12160000Y-7263149D01*
X12160000Y-7243149D02*
X12140000Y-7263149D01*
X12140000Y-7297749D02*
X12160000Y-7317749D01*
X12160000Y-7297749D02*
X12140000Y-7317749D01*
X12145962Y-7583152D02*
X12165962Y-7603152D01*
X12165962Y-7583152D02*
X12145962Y-7603152D01*
X12146118Y-10250001D02*
X12166118Y-10270001D01*
X12166118Y-10250001D02*
X12146118Y-10270001D01*
X12158139Y-8487538D02*
X12178139Y-8507538D01*
X12178139Y-8487538D02*
X12158139Y-8507538D01*
X12158611Y-10966392D02*
X12178611Y-10986392D01*
X12178611Y-10966392D02*
X12158611Y-10986392D01*
X12167726Y-8433786D02*
X12187726Y-8453786D01*
X12187726Y-8433786D02*
X12167726Y-8453786D01*
X12169341Y-11117402D02*
X12189341Y-11137402D01*
X12189341Y-11117402D02*
X12169341Y-11137402D01*
X12177000Y-8350545D02*
X12197000Y-8370545D01*
X12197000Y-8350545D02*
X12177000Y-8370545D01*
X12187264Y-10063834D02*
X12207264Y-10083834D01*
X12207264Y-10063834D02*
X12187264Y-10083834D01*
X12188999Y-9256001D02*
X12208999Y-9276001D01*
X12208999Y-9256001D02*
X12188999Y-9276001D01*
X12189000Y-9655000D02*
X12209000Y-9675000D01*
X12209000Y-9655000D02*
X12189000Y-9675000D01*
X12189586Y-9900893D02*
X12209586Y-9920893D01*
X12209586Y-9900893D02*
X12189586Y-9920893D01*
X12189999Y-9573055D02*
X12209999Y-9593055D01*
X12209999Y-9573055D02*
X12189999Y-9593055D01*
X12190000Y-8937000D02*
X12210000Y-8957000D01*
X12210000Y-8937000D02*
X12190000Y-8957000D01*
X12190000Y-9015000D02*
X12210000Y-9035000D01*
X12210000Y-9015000D02*
X12190000Y-9035000D01*
X12190999Y-9095068D02*
X12210999Y-9115068D01*
X12210999Y-9095068D02*
X12190999Y-9115068D01*
X12191002Y-9412302D02*
X12211002Y-9432302D01*
X12211002Y-9412302D02*
X12191002Y-9432302D01*
X12192000Y-9495000D02*
X12212000Y-9515000D01*
X12212000Y-9495000D02*
X12192000Y-9515000D01*
X12193008Y-10135000D02*
X12213008Y-10155000D01*
X12213008Y-10135000D02*
X12193008Y-10155000D01*
X12193071Y-10547149D02*
X12213071Y-10567149D01*
X12213071Y-10547149D02*
X12193071Y-10567149D01*
X12193651Y-9336002D02*
X12213651Y-9356002D01*
X12213651Y-9336002D02*
X12193651Y-9356002D01*
X12193675Y-9807514D02*
X12213675Y-9827514D01*
X12213675Y-9807514D02*
X12193675Y-9827514D01*
X12195244Y-9726000D02*
X12215244Y-9746000D01*
X12215244Y-9726000D02*
X12195244Y-9746000D01*
X12195668Y-10854383D02*
X12215668Y-10874383D01*
X12215668Y-10854383D02*
X12195668Y-10874383D01*
X12198479Y-10265482D02*
X12218479Y-10285482D01*
X12218479Y-10265482D02*
X12198479Y-10285482D01*
X12223912Y-8308130D02*
X12243912Y-8328130D01*
X12243912Y-8308130D02*
X12223912Y-8328130D01*
X12230696Y-7251145D02*
X12250696Y-7271145D01*
X12250696Y-7251145D02*
X12230696Y-7271145D01*
X12239064Y-10887520D02*
X12259064Y-10907520D01*
X12259064Y-10887520D02*
X12239064Y-10907520D01*
X12259635Y-8251951D02*
X12279635Y-8271951D01*
X12279635Y-8251951D02*
X12259635Y-8271951D01*
X12261019Y-10684000D02*
X12281019Y-10704000D01*
X12281019Y-10684000D02*
X12261019Y-10704000D01*
X12264013Y-10981738D02*
X12284013Y-11001738D01*
X12284013Y-10981738D02*
X12264013Y-11001738D01*
X12264145Y-9972596D02*
X12284145Y-9992596D01*
X12284145Y-9972596D02*
X12264145Y-9992596D01*
X12267804Y-9014037D02*
X12287804Y-9034037D01*
X12287804Y-9014037D02*
X12267804Y-9034037D01*
X12269304Y-7289754D02*
X12289304Y-7309754D01*
X12289304Y-7289754D02*
X12269304Y-7309754D01*
X12269975Y-9898132D02*
X12289975Y-9918132D01*
X12289975Y-9898132D02*
X12269975Y-9918132D01*
X12270001Y-8932999D02*
X12290001Y-8952999D01*
X12290001Y-8932999D02*
X12270001Y-8952999D01*
X12270068Y-9255002D02*
X12290068Y-9275002D01*
X12290068Y-9255002D02*
X12270068Y-9275002D01*
X12270286Y-8015147D02*
X12290286Y-8035147D01*
X12290286Y-8015147D02*
X12270286Y-8035147D01*
X12270998Y-9494998D02*
X12290998Y-9514998D01*
X12290998Y-9494998D02*
X12270998Y-9514998D01*
X12271065Y-9175001D02*
X12291065Y-9195001D01*
X12291065Y-9175001D02*
X12271065Y-9195001D01*
X12271250Y-10058000D02*
X12291250Y-10078000D01*
X12291250Y-10058000D02*
X12271250Y-10078000D01*
X12271287Y-9094038D02*
X12291287Y-9114038D01*
X12291287Y-9094038D02*
X12271287Y-9114038D01*
X12271404Y-9411834D02*
X12291404Y-9431834D01*
X12291404Y-9411834D02*
X12271404Y-9431834D01*
X12273440Y-9576171D02*
X12293440Y-9596171D01*
X12293440Y-9576171D02*
X12273440Y-9596171D01*
X12275000Y-9648000D02*
X12295000Y-9668000D01*
X12295000Y-9648000D02*
X12275000Y-9668000D01*
X12275344Y-10928326D02*
X12295344Y-10948326D01*
X12295344Y-10928326D02*
X12275344Y-10948326D01*
X12277421Y-10835651D02*
X12297421Y-10855651D01*
X12297421Y-10835651D02*
X12277421Y-10855651D01*
X12278480Y-10263865D02*
X12298480Y-10283865D01*
X12298480Y-10263865D02*
X12278480Y-10283865D01*
X12290898Y-8481328D02*
X12310898Y-8501328D01*
X12310898Y-8481328D02*
X12290898Y-8501328D01*
X12291211Y-8207406D02*
X12311211Y-8227406D01*
X12311211Y-8207406D02*
X12291211Y-8227406D01*
X12305784Y-8154785D02*
X12325784Y-8174785D01*
X12325784Y-8154785D02*
X12305784Y-8174785D01*
X12310773Y-10218767D02*
X12330773Y-10238767D01*
X12330773Y-10218767D02*
X12310773Y-10238767D01*
X12329944Y-10928550D02*
X12349944Y-10948550D01*
X12349944Y-10928550D02*
X12329944Y-10948550D01*
X12344146Y-9972814D02*
X12364146Y-9992814D01*
X12364146Y-9972814D02*
X12344146Y-9992814D01*
X12346000Y-9095998D02*
X12366000Y-9115998D01*
X12366000Y-9095998D02*
X12346000Y-9115998D01*
X12347999Y-9014991D02*
X12367999Y-9034991D01*
X12367999Y-9014991D02*
X12347999Y-9034991D01*
X12348715Y-8854715D02*
X12368715Y-8874715D01*
X12368715Y-8854715D02*
X12348715Y-8874715D01*
X12350000Y-9410177D02*
X12370000Y-9430177D01*
X12370000Y-9410177D02*
X12350000Y-9430177D01*
X12350492Y-8619822D02*
X12370492Y-8639822D01*
X12370492Y-8619822D02*
X12350492Y-8639822D01*
X12350549Y-9251253D02*
X12370549Y-9271253D01*
X12370549Y-9251253D02*
X12350549Y-9271253D01*
X12351018Y-9490774D02*
X12371018Y-9510774D01*
X12371018Y-9490774D02*
X12351018Y-9510774D01*
X12351999Y-8696000D02*
X12371999Y-8716000D01*
X12371999Y-8696000D02*
X12351999Y-8716000D01*
X12352000Y-8776000D02*
X12372000Y-8796000D01*
X12372000Y-8776000D02*
X12352000Y-8796000D01*
X12352000Y-9333000D02*
X12372000Y-9353000D01*
X12372000Y-9333000D02*
X12352000Y-9353000D01*
X12352635Y-8932795D02*
X12372635Y-8952795D01*
X12372635Y-8932795D02*
X12352635Y-8952795D01*
X12352999Y-9816501D02*
X12372999Y-9836501D01*
X12372999Y-9816501D02*
X12352999Y-9836501D01*
X12354000Y-9575242D02*
X12374000Y-9595242D01*
X12374000Y-9575242D02*
X12354000Y-9595242D01*
X12355001Y-10053001D02*
X12375001Y-10073001D01*
X12375001Y-10053001D02*
X12355001Y-10073001D01*
X12356294Y-7489367D02*
X12376294Y-7509367D01*
X12376294Y-7489367D02*
X12356294Y-7509367D01*
X12358079Y-8455709D02*
X12378079Y-8475709D01*
X12378079Y-8455709D02*
X12358079Y-8475709D01*
X12358317Y-7985113D02*
X12378317Y-8005113D01*
X12378317Y-7985113D02*
X12358317Y-8005113D01*
X12369415Y-10968517D02*
X12389415Y-10988517D01*
X12389415Y-10968517D02*
X12369415Y-10988517D01*
X12373589Y-8203466D02*
X12393589Y-8223466D01*
X12393589Y-8203466D02*
X12373589Y-8223466D01*
X12386000Y-7312000D02*
X12406000Y-7332000D01*
X12406000Y-7312000D02*
X12386000Y-7332000D01*
X12390000Y-8309597D02*
X12410000Y-8329597D01*
X12410000Y-8309597D02*
X12390000Y-8329597D01*
X12395016Y-7527862D02*
X12415016Y-7547862D01*
X12415016Y-7527862D02*
X12395016Y-7547862D01*
X12405070Y-8483515D02*
X12425070Y-8503515D01*
X12425070Y-8483515D02*
X12405070Y-8503515D01*
X12408224Y-10890000D02*
X12428224Y-10910000D01*
X12428224Y-10890000D02*
X12408224Y-10910000D01*
X12417001Y-10238692D02*
X12437001Y-10258692D01*
X12437001Y-10238692D02*
X12417001Y-10258692D01*
X12417224Y-10678000D02*
X12437224Y-10698000D01*
X12437224Y-10678000D02*
X12417224Y-10698000D01*
X12427328Y-11102999D02*
X12447328Y-11122999D01*
X12447328Y-11102999D02*
X12427328Y-11122999D01*
X12428551Y-10053924D02*
X12448551Y-10073924D01*
X12448551Y-10053924D02*
X12428551Y-10073924D01*
X12429129Y-10833859D02*
X12449129Y-10853859D01*
X12449129Y-10833859D02*
X12429129Y-10853859D01*
X12431000Y-9338001D02*
X12451000Y-9358001D01*
X12451000Y-9338001D02*
X12431000Y-9358001D01*
X12431000Y-10138000D02*
X12451000Y-10158000D01*
X12451000Y-10138000D02*
X12431000Y-10158000D01*
X12431463Y-8349598D02*
X12451463Y-8369598D01*
X12451463Y-8349598D02*
X12431463Y-8369598D01*
X12434000Y-8699000D02*
X12454000Y-8719000D01*
X12454000Y-8699000D02*
X12434000Y-8719000D01*
X12435021Y-9255201D02*
X12455021Y-9275201D01*
X12455021Y-9255201D02*
X12435021Y-9275201D01*
X12435947Y-7564000D02*
X12455947Y-7584000D01*
X12455947Y-7564000D02*
X12435947Y-7584000D01*
X12444967Y-10191797D02*
X12464967Y-10211797D01*
X12464967Y-10191797D02*
X12444967Y-10211797D01*
X12459000Y-10921000D02*
X12479000Y-10941000D01*
X12479000Y-10921000D02*
X12459000Y-10941000D01*
X12464723Y-10705693D02*
X12484723Y-10725693D01*
X12484723Y-10705693D02*
X12464723Y-10725693D01*
X12472000Y-8659000D02*
X12492000Y-8679000D01*
X12492000Y-8659000D02*
X12472000Y-8679000D01*
X12474999Y-10863476D02*
X12494999Y-10883476D01*
X12494999Y-10863476D02*
X12474999Y-10883476D01*
X12475948Y-7503316D02*
X12495948Y-7523316D01*
X12495948Y-7503316D02*
X12475948Y-7523316D01*
X12481821Y-10975749D02*
X12501821Y-10995749D01*
X12501821Y-10975749D02*
X12481821Y-10995749D01*
X12497000Y-7239000D02*
X12517000Y-7259000D01*
X12517000Y-7239000D02*
X12497000Y-7259000D01*
X12499000Y-11102999D02*
X12519000Y-11122999D01*
X12519000Y-11102999D02*
X12499000Y-11122999D01*
X12506000Y-7310000D02*
X12526000Y-7330000D01*
X12526000Y-7310000D02*
X12506000Y-7330000D01*
X12506000Y-10363000D02*
X12526000Y-10383000D01*
X12526000Y-10363000D02*
X12506000Y-10383000D01*
X12526197Y-9295202D02*
X12546197Y-9315202D01*
X12546197Y-9295202D02*
X12526197Y-9315202D01*
X12529531Y-7492819D02*
X12549531Y-7512819D01*
X12549531Y-7492819D02*
X12529531Y-7512819D01*
X12533000Y-8619000D02*
X12553000Y-8639000D01*
X12553000Y-8619000D02*
X12533000Y-8639000D01*
X12544211Y-10680105D02*
X12564211Y-10700105D01*
X12564211Y-10680105D02*
X12544211Y-10700105D01*
X12553584Y-11111381D02*
X12573584Y-11131381D01*
X12573584Y-11111381D02*
X12553584Y-11131381D01*
X12554000Y-8102000D02*
X12574000Y-8122000D01*
X12574000Y-8102000D02*
X12554000Y-8122000D01*
X12566120Y-7568843D02*
X12586120Y-7588843D01*
X12586120Y-7568843D02*
X12566120Y-7588843D01*
X12570095Y-9335392D02*
X12590095Y-9355392D01*
X12590095Y-9335392D02*
X12570095Y-9355392D01*
X12577596Y-9229987D02*
X12597596Y-9249987D01*
X12597596Y-9229987D02*
X12577596Y-9249987D01*
X12587329Y-9046265D02*
X12607329Y-9066265D01*
X12607329Y-9046265D02*
X12587329Y-9066265D01*
X12587754Y-9684402D02*
X12607754Y-9704402D01*
X12607754Y-9684402D02*
X12587754Y-9704402D01*
X12588000Y-10977000D02*
X12608000Y-10997000D01*
X12608000Y-10977000D02*
X12588000Y-10997000D01*
X12589383Y-8008755D02*
X12609383Y-8028755D01*
X12609383Y-8008755D02*
X12589383Y-8028755D01*
X12590145Y-10825575D02*
X12610145Y-10845575D01*
X12610145Y-10825575D02*
X12590145Y-10845575D01*
X12594117Y-10702349D02*
X12614117Y-10722349D01*
X12614117Y-10702349D02*
X12594117Y-10722349D01*
X12597260Y-7488170D02*
X12617260Y-7508170D01*
X12617260Y-7488170D02*
X12597260Y-7508170D01*
X12599000Y-8904000D02*
X12619000Y-8924000D01*
X12619000Y-8904000D02*
X12599000Y-8924000D01*
X12620548Y-7573777D02*
X12640548Y-7593777D01*
X12640548Y-7573777D02*
X12620548Y-7593777D01*
X12620715Y-8096715D02*
X12640715Y-8116715D01*
X12640715Y-8096715D02*
X12620715Y-8116715D01*
X12626000Y-7311000D02*
X12646000Y-7331000D01*
X12646000Y-7311000D02*
X12626000Y-7331000D01*
X12629271Y-9210735D02*
X12649271Y-9230735D01*
X12649271Y-9210735D02*
X12629271Y-9230735D01*
X12643038Y-7436598D02*
X12663038Y-7456598D01*
X12663038Y-7436598D02*
X12643038Y-7456598D01*
X12643200Y-10838476D02*
X12663200Y-10858476D01*
X12663200Y-10838476D02*
X12643200Y-10858476D01*
X12648001Y-8827803D02*
X12668001Y-8847803D01*
X12668001Y-8827803D02*
X12648001Y-8847803D01*
X12657340Y-9684598D02*
X12677340Y-9704598D01*
X12677340Y-9684598D02*
X12657340Y-9704598D01*
X12664000Y-9017000D02*
X12684000Y-9037000D01*
X12684000Y-9017000D02*
X12664000Y-9037000D01*
X12667000Y-9506000D02*
X12687000Y-9526000D01*
X12687000Y-9506000D02*
X12667000Y-9526000D01*
X12697000Y-7239000D02*
X12717000Y-7259000D01*
X12717000Y-7239000D02*
X12697000Y-7259000D01*
X12697816Y-10829226D02*
X12717816Y-10849226D01*
X12717816Y-10829226D02*
X12697816Y-10849226D01*
X12698557Y-7428087D02*
X12718557Y-7448087D01*
X12718557Y-7428087D02*
X12698557Y-7448087D01*
X12706000Y-10982000D02*
X12726000Y-11002000D01*
X12726000Y-10982000D02*
X12706000Y-11002000D01*
X12714000Y-8095000D02*
X12734000Y-8115000D01*
X12734000Y-8095000D02*
X12714000Y-8115000D01*
X12716000Y-10144000D02*
X12736000Y-10164000D01*
X12736000Y-10144000D02*
X12716000Y-10164000D01*
X12735119Y-7533012D02*
X12755119Y-7553012D01*
X12755119Y-7533012D02*
X12735119Y-7553012D01*
X12741000Y-11109999D02*
X12761000Y-11129999D01*
X12761000Y-11109999D02*
X12741000Y-11129999D01*
X12742000Y-7706000D02*
X12762000Y-7726000D01*
X12762000Y-7706000D02*
X12742000Y-7726000D01*
X12742635Y-9305488D02*
X12762635Y-9325488D01*
X12762635Y-9305488D02*
X12742635Y-9325488D01*
X12744000Y-9460000D02*
X12764000Y-9480000D01*
X12764000Y-9460000D02*
X12744000Y-9480000D01*
X12745000Y-7300000D02*
X12765000Y-7320000D01*
X12765000Y-7300000D02*
X12745000Y-7320000D01*
X12764669Y-9379858D02*
X12784669Y-9399858D01*
X12784669Y-9379858D02*
X12764669Y-9399858D01*
X12776000Y-7975000D02*
X12796000Y-7995000D01*
X12796000Y-7975000D02*
X12776000Y-7995000D01*
X12776000Y-10147000D02*
X12796000Y-10167000D01*
X12796000Y-10147000D02*
X12776000Y-10167000D01*
X12776786Y-7429435D02*
X12796786Y-7449435D01*
X12796786Y-7429435D02*
X12776786Y-7449435D01*
X12791543Y-9128964D02*
X12811543Y-9148964D01*
X12811543Y-9128964D02*
X12791543Y-9148964D01*
X12795454Y-9291653D02*
X12815454Y-9311653D01*
X12815454Y-9291653D02*
X12795454Y-9311653D01*
X12796215Y-10338785D02*
X12816215Y-10358785D01*
X12816215Y-10338785D02*
X12796215Y-10358785D01*
X12813000Y-11110000D02*
X12833000Y-11130000D01*
X12833000Y-11110000D02*
X12813000Y-11130000D01*
X12816083Y-9399438D02*
X12836083Y-9419438D01*
X12836083Y-9399438D02*
X12816083Y-9419438D01*
X12834322Y-10979610D02*
X12854322Y-10999610D01*
X12854322Y-10979610D02*
X12834322Y-10999610D01*
X12837522Y-7433601D02*
X12857522Y-7453601D01*
X12857522Y-7433601D02*
X12837522Y-7453601D01*
X12841000Y-8162254D02*
X12861000Y-8182254D01*
X12861000Y-8162254D02*
X12841000Y-8182254D01*
X12851000Y-10070000D02*
X12871000Y-10090000D01*
X12871000Y-10070000D02*
X12851000Y-10090000D01*
X12860999Y-10268000D02*
X12880999Y-10288000D01*
X12880999Y-10268000D02*
X12860999Y-10288000D01*
X12860999Y-10330000D02*
X12880999Y-10350000D01*
X12880999Y-10330000D02*
X12860999Y-10350000D01*
X12861197Y-9430197D02*
X12881197Y-9450197D01*
X12881197Y-9430197D02*
X12861197Y-9450197D01*
X12864001Y-10709000D02*
X12884001Y-10729000D01*
X12884001Y-10709000D02*
X12864001Y-10729000D01*
X12866000Y-7301000D02*
X12886000Y-7321000D01*
X12886000Y-7301000D02*
X12866000Y-7321000D01*
X12877916Y-7577259D02*
X12897916Y-7597259D01*
X12897916Y-7577259D02*
X12877916Y-7597259D01*
X12882206Y-8118499D02*
X12902206Y-8138499D01*
X12902206Y-8118499D02*
X12882206Y-8138499D01*
X12892980Y-7432774D02*
X12912980Y-7452774D01*
X12912980Y-7432774D02*
X12892980Y-7452774D01*
X12897000Y-7239000D02*
X12917000Y-7259000D01*
X12917000Y-7239000D02*
X12897000Y-7259000D01*
X12898000Y-7944000D02*
X12918000Y-7964000D01*
X12918000Y-7944000D02*
X12898000Y-7964000D01*
X12904000Y-10102000D02*
X12924000Y-10122000D01*
X12924000Y-10102000D02*
X12904000Y-10122000D01*
X12928000Y-8032700D02*
X12948000Y-8052700D01*
X12948000Y-8032700D02*
X12928000Y-8052700D01*
X12928000Y-8087300D02*
X12948000Y-8107300D01*
X12948000Y-8087300D02*
X12928000Y-8107300D01*
X12932000Y-11152000D02*
X12952000Y-11172000D01*
X12952000Y-11152000D02*
X12932000Y-11172000D01*
X12942000Y-10149000D02*
X12962000Y-10169000D01*
X12962000Y-10149000D02*
X12942000Y-10169000D01*
X12945001Y-10286470D02*
X12965001Y-10306470D01*
X12965001Y-10286470D02*
X12945001Y-10306470D01*
X12952645Y-7437609D02*
X12972645Y-7457609D01*
X12972645Y-7437609D02*
X12952645Y-7457609D01*
X12952819Y-10974001D02*
X12972819Y-10994001D01*
X12972819Y-10974001D02*
X12952819Y-10994001D01*
X12953986Y-10864108D02*
X12973986Y-10884108D01*
X12973986Y-10864108D02*
X12953986Y-10884108D01*
X12955785Y-10222215D02*
X12975785Y-10242215D01*
X12975785Y-10222215D02*
X12955785Y-10242215D01*
X12986000Y-7303000D02*
X13006000Y-7323000D01*
X13006000Y-7303000D02*
X12986000Y-7323000D01*
X12987285Y-7504715D02*
X13007285Y-7524715D01*
X13007285Y-7504715D02*
X12987285Y-7524715D01*
X12991000Y-7958000D02*
X13011000Y-7978000D01*
X13011000Y-7958000D02*
X12991000Y-7978000D01*
X13009402Y-7568000D02*
X13029402Y-7588000D01*
X13029402Y-7568000D02*
X13009402Y-7588000D01*
X13012601Y-7446989D02*
X13032601Y-7466989D01*
X13032601Y-7446989D02*
X13012601Y-7466989D01*
X13015000Y-8131000D02*
X13035000Y-8151000D01*
X13035000Y-8131000D02*
X13015000Y-8151000D01*
X13022370Y-10912999D02*
X13042370Y-10932999D01*
X13042370Y-10912999D02*
X13022370Y-10932999D01*
X13026408Y-10995976D02*
X13046408Y-11015976D01*
X13046408Y-10995976D02*
X13026408Y-11015976D01*
X13042000Y-7999000D02*
X13062000Y-8019000D01*
X13062000Y-7999000D02*
X13042000Y-8019000D01*
X13064003Y-7568000D02*
X13084003Y-7588000D01*
X13084003Y-7568000D02*
X13064003Y-7588000D01*
X13067610Y-7425583D02*
X13087610Y-7445583D01*
X13087610Y-7425583D02*
X13067610Y-7445583D01*
X13094692Y-10506702D02*
X13114692Y-10526702D01*
X13114692Y-10506702D02*
X13094692Y-10526702D01*
X13097000Y-7239000D02*
X13117000Y-7259000D01*
X13117000Y-7239000D02*
X13097000Y-7259000D01*
X13097000Y-10702000D02*
X13117000Y-10722000D01*
X13117000Y-10702000D02*
X13097000Y-10722000D01*
X13101000Y-7703000D02*
X13121000Y-7723000D01*
X13121000Y-7703000D02*
X13101000Y-7723000D01*
X13107000Y-7300000D02*
X13127000Y-7320000D01*
X13127000Y-7300000D02*
X13107000Y-7320000D01*
X13108000Y-11154000D02*
X13128000Y-11174000D01*
X13128000Y-11154000D02*
X13108000Y-11174000D01*
X13108072Y-10966803D02*
X13128072Y-10986803D01*
X13128072Y-10966803D02*
X13108072Y-10986803D01*
X13118806Y-10835618D02*
X13138806Y-10855618D01*
X13138806Y-10835618D02*
X13118806Y-10855618D01*
X13143693Y-8651951D02*
X13163693Y-8671951D01*
X13163693Y-8651951D02*
X13143693Y-8671951D01*
X13151993Y-8800344D02*
X13171993Y-8820344D01*
X13171993Y-8800344D02*
X13151993Y-8820344D01*
X13153050Y-7462950D02*
X13173050Y-7482950D01*
X13173050Y-7462950D02*
X13153050Y-7482950D01*
X13156284Y-7958631D02*
X13176284Y-7978631D01*
X13176284Y-7958631D02*
X13156284Y-7978631D01*
X13168000Y-9167211D02*
X13188000Y-9187211D01*
X13188000Y-9167211D02*
X13168000Y-9187211D01*
X13172494Y-10702347D02*
X13192494Y-10722347D01*
X13192494Y-10702347D02*
X13172494Y-10722347D01*
X13178000Y-10290000D02*
X13198000Y-10310000D01*
X13198000Y-10290000D02*
X13178000Y-10310000D01*
X13199321Y-7992233D02*
X13219321Y-8012233D01*
X13219321Y-7992233D02*
X13199321Y-8012233D01*
X13207696Y-8073696D02*
X13227696Y-8093696D01*
X13227696Y-8073696D02*
X13207696Y-8093696D01*
X13219593Y-7438554D02*
X13239593Y-7458554D01*
X13239593Y-7438554D02*
X13219593Y-7458554D01*
X13225000Y-7303000D02*
X13245000Y-7323000D01*
X13245000Y-7303000D02*
X13225000Y-7323000D01*
X13230000Y-7582000D02*
X13250000Y-7602000D01*
X13250000Y-7582000D02*
X13230000Y-7602000D01*
X13237000Y-8772000D02*
X13257000Y-8792000D01*
X13257000Y-8772000D02*
X13237000Y-8792000D01*
X13239820Y-9165817D02*
X13259820Y-9185817D01*
X13259820Y-9165817D02*
X13239820Y-9185817D01*
X13240000Y-9249000D02*
X13260000Y-9269000D01*
X13260000Y-9249000D02*
X13240000Y-9269000D01*
X13246304Y-8112304D02*
X13266304Y-8132304D01*
X13266304Y-8112304D02*
X13246304Y-8132304D01*
X13259000Y-10874000D02*
X13279000Y-10894000D01*
X13279000Y-10874000D02*
X13259000Y-10894000D01*
X13265000Y-10682254D02*
X13285000Y-10702254D01*
X13285000Y-10682254D02*
X13265000Y-10702254D01*
X13277000Y-11157000D02*
X13297000Y-11177000D01*
X13297000Y-11157000D02*
X13277000Y-11177000D01*
X13297000Y-7239000D02*
X13317000Y-7259000D01*
X13317000Y-7239000D02*
X13297000Y-7259000D01*
X13307015Y-10838662D02*
X13327015Y-10858662D01*
X13327015Y-10838662D02*
X13307015Y-10858662D01*
X13320000Y-8775000D02*
X13340000Y-8795000D01*
X13340000Y-8775000D02*
X13320000Y-8795000D01*
X13334498Y-8074744D02*
X13354498Y-8094744D01*
X13354498Y-8074744D02*
X13334498Y-8094744D01*
X13335000Y-10276000D02*
X13355000Y-10296000D01*
X13355000Y-10276000D02*
X13335000Y-10296000D01*
X13335086Y-8129342D02*
X13355086Y-8149342D01*
X13355086Y-8129342D02*
X13335086Y-8149342D01*
X13343535Y-7694746D02*
X13363535Y-7714746D01*
X13363535Y-7694746D02*
X13343535Y-7714746D01*
X13355000Y-8250000D02*
X13375000Y-8270000D01*
X13375000Y-8250000D02*
X13355000Y-8270000D01*
X13374000Y-8171000D02*
X13394000Y-8191000D01*
X13394000Y-8171000D02*
X13374000Y-8191000D01*
X13374379Y-10905809D02*
X13394379Y-10925809D01*
X13394379Y-10905809D02*
X13374379Y-10925809D01*
X13385000Y-10976000D02*
X13405000Y-10996000D01*
X13405000Y-10976000D02*
X13385000Y-10996000D01*
X13394000Y-7575000D02*
X13414000Y-7595000D01*
X13414000Y-7575000D02*
X13394000Y-7595000D01*
X13398000Y-8774000D02*
X13418000Y-8794000D01*
X13418000Y-8774000D02*
X13398000Y-8794000D01*
X13399000Y-9168000D02*
X13419000Y-9188000D01*
X13419000Y-9168000D02*
X13399000Y-9188000D01*
X13406474Y-10859000D02*
X13426474Y-10879000D01*
X13426474Y-10859000D02*
X13406474Y-10879000D01*
X13431488Y-8220999D02*
X13451488Y-8240999D01*
X13451488Y-8220999D02*
X13431488Y-8240999D01*
X13477000Y-8772000D02*
X13497000Y-8792000D01*
X13497000Y-8772000D02*
X13477000Y-8792000D01*
X13479000Y-9172000D02*
X13499000Y-9192000D01*
X13499000Y-9172000D02*
X13479000Y-9192000D01*
X13495000Y-7395000D02*
X13515000Y-7415000D01*
X13515000Y-7395000D02*
X13495000Y-7415000D01*
X13513747Y-7621230D02*
X13533747Y-7641230D01*
X13533747Y-7621230D02*
X13513747Y-7641230D01*
X13536000Y-7356000D02*
X13556000Y-7376000D01*
X13556000Y-7356000D02*
X13536000Y-7376000D01*
X13555253Y-8770549D02*
X13575253Y-8790549D01*
X13575253Y-8770549D02*
X13555253Y-8790549D01*
X13556000Y-7657000D02*
X13576000Y-7677000D01*
X13576000Y-7657000D02*
X13556000Y-7677000D01*
X13560024Y-9174131D02*
X13580024Y-9194131D01*
X13580024Y-9174131D02*
X13560024Y-9194131D01*
X13562000Y-11077000D02*
X13582000Y-11097000D01*
X13582000Y-11077000D02*
X13562000Y-11097000D01*
X13583000Y-7985000D02*
X13603000Y-8005000D01*
X13603000Y-7985000D02*
X13583000Y-8005000D01*
X13645000Y-7246000D02*
X13665000Y-7266000D01*
X13665000Y-7246000D02*
X13645000Y-7266000D01*
X13671000Y-11156000D02*
X13691000Y-11176000D01*
X13691000Y-11156000D02*
X13671000Y-11176000D01*
X13695276Y-9906402D02*
X13715276Y-9926402D01*
X13715276Y-9906402D02*
X13695276Y-9926402D01*
X13729000Y-9452000D02*
X13749000Y-9472000D01*
X13749000Y-9452000D02*
X13729000Y-9472000D01*
X13739000Y-10815000D02*
X13759000Y-10835000D01*
X13759000Y-10815000D02*
X13739000Y-10835000D01*
X13768000Y-9906402D02*
X13788000Y-9926402D01*
X13788000Y-9906402D02*
X13768000Y-9926402D01*
X13843000Y-10720000D02*
X13863000Y-10740000D01*
X13863000Y-10720000D02*
X13843000Y-10740000D01*
X13856000Y-11101000D02*
X13876000Y-11121000D01*
X13876000Y-11101000D02*
X13856000Y-11121000D01*
X13858000Y-11041000D02*
X13878000Y-11061000D01*
X13878000Y-11041000D02*
X13858000Y-11061000D01*
X13870000Y-9313000D02*
X13890000Y-9333000D01*
X13890000Y-9313000D02*
X13870000Y-9333000D01*
X13885000Y-8651000D02*
X13905000Y-8671000D01*
X13905000Y-8651000D02*
X13885000Y-8671000D01*
X13910000Y-10776500D02*
X13930000Y-10796500D01*
X13930000Y-10776500D02*
X13910000Y-10796500D01*
X13916515Y-10300949D02*
X13936515Y-10320949D01*
X13936515Y-10300949D02*
X13916515Y-10320949D01*
X13920000Y-10489000D02*
X13940000Y-10509000D01*
X13940000Y-10489000D02*
X13920000Y-10509000D01*
X13930911Y-9290698D02*
X13950911Y-9310698D01*
X13950911Y-9290698D02*
X13930911Y-9310698D01*
X13982500Y-10386500D02*
X14002500Y-10406500D01*
X14002500Y-10386500D02*
X13982500Y-10406500D01*
X13997000Y-7239000D02*
X14017000Y-7259000D01*
X14017000Y-7239000D02*
X13997000Y-7259000D01*
X14003201Y-9290983D02*
X14023201Y-9310983D01*
X14023201Y-9290983D02*
X14003201Y-9310983D01*
X14012000Y-8273000D02*
X14032000Y-8293000D01*
X14032000Y-8273000D02*
X14012000Y-8293000D01*
X14023103Y-8334263D02*
X14043103Y-8354263D01*
X14043103Y-8334263D02*
X14023103Y-8354263D01*
X14037000Y-10856000D02*
X14057000Y-10876000D01*
X14057000Y-10856000D02*
X14037000Y-10876000D01*
X14039000Y-10913000D02*
X14059000Y-10933000D01*
X14059000Y-10913000D02*
X14039000Y-10933000D01*
X14069480Y-7861697D02*
X14089480Y-7881697D01*
X14089480Y-7861697D02*
X14069480Y-7881697D01*
X14088000Y-10953849D02*
X14108000Y-10973849D01*
X14108000Y-10953849D02*
X14088000Y-10973849D01*
X14088000Y-11008449D02*
X14108000Y-11028449D01*
X14108000Y-11008449D02*
X14088000Y-11028449D01*
X14108304Y-7821696D02*
X14128304Y-7841696D01*
X14128304Y-7821696D02*
X14108304Y-7841696D01*
X14142000Y-7402700D02*
X14162000Y-7422700D01*
X14162000Y-7402700D02*
X14142000Y-7422700D01*
X14142000Y-7457300D02*
X14162000Y-7477300D01*
X14162000Y-7457300D02*
X14142000Y-7477300D01*
X14145000Y-7639300D02*
X14165000Y-7659300D01*
X14165000Y-7639300D02*
X14145000Y-7659300D01*
X14145726Y-7583795D02*
X14165726Y-7603795D01*
X14165726Y-7583795D02*
X14145726Y-7603795D01*
X14164080Y-9363190D02*
X14184080Y-9383190D01*
X14184080Y-9363190D02*
X14164080Y-9383190D01*
X14175001Y-9301100D02*
X14195001Y-9321100D01*
X14195001Y-9301100D02*
X14175001Y-9321100D01*
X14178792Y-9422793D02*
X14198792Y-9442793D01*
X14198792Y-9422793D02*
X14178792Y-9442793D01*
X14182000Y-8358000D02*
X14202000Y-8378000D01*
X14202000Y-8358000D02*
X14182000Y-8378000D01*
X14197000Y-7239000D02*
X14217000Y-7259000D01*
X14217000Y-7239000D02*
X14197000Y-7259000D01*
X14208000Y-7752000D02*
X14228000Y-7772000D01*
X14228000Y-7752000D02*
X14208000Y-7772000D01*
X14273685Y-8646400D02*
X14293685Y-8666400D01*
X14293685Y-8646400D02*
X14273685Y-8666400D01*
X14288000Y-9682000D02*
X14308000Y-9702000D01*
X14308000Y-9682000D02*
X14288000Y-9702000D01*
X14323915Y-7934485D02*
X14343915Y-7954485D01*
X14343915Y-7934485D02*
X14323915Y-7954485D01*
X14327000Y-8886755D02*
X14347000Y-8906755D01*
X14347000Y-8886755D02*
X14327000Y-8906755D01*
X14397000Y-7239000D02*
X14417000Y-7259000D01*
X14417000Y-7239000D02*
X14397000Y-7259000D01*
X14405285Y-8729285D02*
X14425285Y-8749285D01*
X14425285Y-8729285D02*
X14405285Y-8749285D01*
X14409777Y-8656270D02*
X14429777Y-8676270D01*
X14429777Y-8656270D02*
X14409777Y-8676270D01*
X14422000Y-11166000D02*
X14442000Y-11186000D01*
X14442000Y-11166000D02*
X14422000Y-11186000D01*
X14471500Y-8297354D02*
X14491500Y-8317354D01*
X14491500Y-8297354D02*
X14471500Y-8317354D01*
X14629000Y-7839000D02*
X14649000Y-7859000D01*
X14649000Y-7839000D02*
X14629000Y-7859000D01*
X14639000Y-8982000D02*
X14659000Y-9002000D01*
X14659000Y-8982000D02*
X14639000Y-9002000D01*
X14706000Y-7258000D02*
X14726000Y-7278000D01*
X14726000Y-7258000D02*
X14706000Y-7278000D01*
X14827000Y-11047000D02*
X14847000Y-11067000D01*
X14847000Y-11047000D02*
X14827000Y-11067000D01*
X14877000Y-7559000D02*
X14897000Y-7579000D01*
X14897000Y-7559000D02*
X14877000Y-7579000D01*
X14877000Y-7814000D02*
X14897000Y-7834000D01*
X14897000Y-7814000D02*
X14877000Y-7834000D01*
X14877000Y-8014000D02*
X14897000Y-8034000D01*
X14897000Y-8014000D02*
X14877000Y-8034000D01*
X14877000Y-8214000D02*
X14897000Y-8234000D01*
X14897000Y-8214000D02*
X14877000Y-8234000D01*
X14877000Y-8414000D02*
X14897000Y-8434000D01*
X14897000Y-8414000D02*
X14877000Y-8434000D01*
X14877000Y-8614000D02*
X14897000Y-8634000D01*
X14897000Y-8614000D02*
X14877000Y-8634000D01*
X14877000Y-8814000D02*
X14897000Y-8834000D01*
X14897000Y-8814000D02*
X14877000Y-8834000D01*
X14877000Y-9014000D02*
X14897000Y-9034000D01*
X14897000Y-9014000D02*
X14877000Y-9034000D01*
X14877000Y-9214000D02*
X14897000Y-9234000D01*
X14897000Y-9214000D02*
X14877000Y-9234000D01*
X14877000Y-9414000D02*
X14897000Y-9434000D01*
X14897000Y-9414000D02*
X14877000Y-9434000D01*
X14877000Y-9614000D02*
X14897000Y-9634000D01*
X14897000Y-9614000D02*
X14877000Y-9634000D01*
X14877000Y-10814000D02*
X14897000Y-10834000D01*
X14897000Y-10814000D02*
X14877000Y-10834000D01*
X9704000Y-7809000D02*
G75*
G03*
X9704000Y-7809000I-15000J0D01*
G01*
X9856000Y-8167000D02*
G75*
G03*
X9856000Y-8167000I-15000J0D01*
G01*
X9859000Y-8249000D02*
G75*
G03*
X9859000Y-8249000I-15000J0D01*
G01*
X9914000Y-7820000D02*
G75*
G03*
X9914000Y-7820000I-15000J0D01*
G01*
X9933000Y-8888548D02*
G75*
G03*
X9933000Y-8888548I-15000J0D01*
G01*
X10018308Y-8229435D02*
G75*
G03*
X10018308Y-8229435I-15000J0D01*
G01*
X10147646Y-11056548D02*
G75*
G03*
X10147646Y-11056548I-15000J0D01*
G01*
X10431111Y-8454193D02*
G75*
G03*
X10431111Y-8454193I-15000J0D01*
G01*
X10496799Y-8658000D02*
G75*
G03*
X10496799Y-8658000I-15000J0D01*
G01*
X12278320Y-10359952D02*
G75*
G03*
X12278320Y-10359952I-15000J0D01*
G01*
X13557000Y-9628000D02*
G75*
G03*
X13557000Y-9628000I-15000J0D01*
G01*
X13586000Y-10420000D02*
G75*
G03*
X13586000Y-10420000I-15000J0D01*
G01*
X13619684Y-9531684D02*
G75*
G03*
X13619684Y-9531684I-15000J0D01*
G01*
X13670000Y-8447702D02*
G75*
G03*
X13670000Y-8447702I-15000J0D01*
G01*
X13957000Y-9539000D02*
G75*
G03*
X13957000Y-9539000I-15000J0D01*
G01*
X13994500Y-9634000D02*
G75*
G03*
X13994500Y-9634000I-15000J0D01*
G01*
X13997517Y-9484063D02*
G75*
G03*
X13997517Y-9484063I-15000J0D01*
G01*
X14041878Y-10788378D02*
G75*
G03*
X14041878Y-10788378I-15000J0D01*
G01*
X14044000Y-9539000D02*
G75*
G03*
X14044000Y-9539000I-15000J0D01*
G01*
X14072501Y-10451500D02*
G75*
G03*
X14072501Y-10451500I-15000J0D01*
G01*
X14099000Y-8132000D02*
G75*
G03*
X14099000Y-8132000I-15000J0D01*
G01*
X14171854Y-10663854D02*
G75*
G03*
X14171854Y-10663854I-15000J0D01*
G01*
X14172294Y-9876311D02*
G75*
G03*
X14172294Y-9876311I-15000J0D01*
G01*
X14172500Y-10414000D02*
G75*
G03*
X14172500Y-10414000I-15000J0D01*
G01*
X14172500Y-10489000D02*
G75*
G03*
X14172500Y-10489000I-15000J0D01*
G01*
X14267500Y-10451500D02*
G75*
G03*
X14267500Y-10451500I-15000J0D01*
G01*
X14775751Y-9451652D02*
G75*
G03*
X14775751Y-9451652I-15000J0D01*
G01*
X9624000Y-10259000D02*
X9624000Y-10309000D01*
X9599000Y-10284000D02*
X9649000Y-10284000D01*
X9624000Y-10359000D02*
X9624000Y-10409000D01*
X9599000Y-10384000D02*
X9649000Y-10384000D01*
X9624000Y-10459000D02*
X9624000Y-10509000D01*
X9599000Y-10484000D02*
X9649000Y-10484000D01*
X9624000Y-10559000D02*
X9624000Y-10609000D01*
X9599000Y-10584000D02*
X9649000Y-10584000D01*
X9724000Y-10259000D02*
X9724000Y-10309000D01*
X9699000Y-10284000D02*
X9749000Y-10284000D01*
X9724000Y-10359000D02*
X9724000Y-10409000D01*
X9699000Y-10384000D02*
X9749000Y-10384000D01*
X9724000Y-10459000D02*
X9724000Y-10509000D01*
X9699000Y-10484000D02*
X9749000Y-10484000D01*
X9724000Y-10559000D02*
X9724000Y-10609000D01*
X9699000Y-10584000D02*
X9749000Y-10584000D01*
X13810000Y-7282000D02*
X13810000Y-7332000D01*
X13785000Y-7307000D02*
X13835000Y-7307000D01*
X13810000Y-7382000D02*
X13810000Y-7432000D01*
X13785000Y-7407000D02*
X13835000Y-7407000D01*
X13810000Y-7482000D02*
X13810000Y-7532000D01*
X13785000Y-7507000D02*
X13835000Y-7507000D01*
X13810000Y-7582000D02*
X13810000Y-7632000D01*
X13785000Y-7607000D02*
X13835000Y-7607000D01*
X13810000Y-7682000D02*
X13810000Y-7732000D01*
X13785000Y-7707000D02*
X13835000Y-7707000D01*
X13810000Y-7782000D02*
X13810000Y-7832000D01*
X13785000Y-7807000D02*
X13835000Y-7807000D01*
X13810000Y-7882000D02*
X13810000Y-7932000D01*
X13785000Y-7907000D02*
X13835000Y-7907000D01*
X14852356Y-9876356D02*
X14852356Y-9805644D01*
X14781644Y-9805644D01*
X14781644Y-9876356D01*
X14852356Y-9876356D01*
X14852356Y-10130356D02*
X14852356Y-10059644D01*
X14781644Y-10059644D01*
X14781644Y-10130356D01*
X14852356Y-10130356D01*
X14852356Y-10384356D02*
X14852356Y-10313644D01*
X14781644Y-10313644D01*
X14781644Y-10384356D01*
X14852356Y-10384356D01*
X14852356Y-10638356D02*
X14852356Y-10567644D01*
X14781644Y-10567644D01*
X14781644Y-10638356D01*
X14852356Y-10638356D01*
X9762000Y-10982360D02*
X9872000Y-10872360D01*
X9762000Y-10762360D01*
X9652000Y-10872360D01*
X9762000Y-10982360D01*
X9762000Y-7674500D02*
X9872000Y-7564500D01*
X9762000Y-7454500D01*
X9652000Y-7564500D01*
X9762000Y-7674500D01*
X14562000Y-7674500D02*
X14672000Y-7564500D01*
X14562000Y-7454500D01*
X14452000Y-7564500D01*
X14562000Y-7674500D01*
X14562000Y-10982000D02*
X14672000Y-10872000D01*
X14562000Y-10762000D01*
X14452000Y-10872000D01*
X14562000Y-10982000D01*
D12*
X9691428Y-11685214D02*
X9691428Y-11385214D01*
X9762857Y-11385214D01*
X9805714Y-11399500D01*
X9834286Y-11428071D01*
X9848571Y-11456643D01*
X9862857Y-11513786D01*
X9862857Y-11556643D01*
X9848571Y-11613786D01*
X9834286Y-11642357D01*
X9805714Y-11670928D01*
X9762857Y-11685214D01*
X9691428Y-11685214D01*
X9991428Y-11685214D02*
X9991428Y-11485214D01*
X9991428Y-11542357D02*
X10005714Y-11513786D01*
X10020000Y-11499500D01*
X10048571Y-11485214D01*
X10077143Y-11485214D01*
X10177143Y-11685214D02*
X10177143Y-11485214D01*
X10177143Y-11385214D02*
X10162857Y-11399500D01*
X10177143Y-11413786D01*
X10191428Y-11399500D01*
X10177143Y-11385214D01*
X10177143Y-11413786D01*
X10362857Y-11685214D02*
X10334286Y-11670928D01*
X10320000Y-11642357D01*
X10320000Y-11385214D01*
X10520000Y-11685214D02*
X10491428Y-11670928D01*
X10477143Y-11642357D01*
X10477143Y-11385214D01*
X10862857Y-11685214D02*
X10862857Y-11385214D01*
X10962857Y-11599500D01*
X11062857Y-11385214D01*
X11062857Y-11685214D01*
X11334286Y-11685214D02*
X11334286Y-11528071D01*
X11320000Y-11499500D01*
X11291428Y-11485214D01*
X11234286Y-11485214D01*
X11205714Y-11499500D01*
X11334286Y-11670928D02*
X11305714Y-11685214D01*
X11234286Y-11685214D01*
X11205714Y-11670928D01*
X11191428Y-11642357D01*
X11191428Y-11613786D01*
X11205714Y-11585214D01*
X11234286Y-11570928D01*
X11305714Y-11570928D01*
X11334286Y-11556643D01*
X11477143Y-11485214D02*
X11477143Y-11785214D01*
X11477143Y-11499500D02*
X11505714Y-11485214D01*
X11562857Y-11485214D01*
X11591428Y-11499500D01*
X11605714Y-11513786D01*
X11620000Y-11542357D01*
X11620000Y-11628071D01*
X11605714Y-11656643D01*
X11591428Y-11670928D01*
X11562857Y-11685214D01*
X11505714Y-11685214D01*
X11477143Y-11670928D01*
X11748571Y-11656643D02*
X11762857Y-11670928D01*
X11748571Y-11685214D01*
X11734286Y-11670928D01*
X11748571Y-11656643D01*
X11748571Y-11685214D01*
X11748571Y-11499500D02*
X11762857Y-11513786D01*
X11748571Y-11528071D01*
X11734286Y-11513786D01*
X11748571Y-11499500D01*
X11748571Y-11528071D01*
X9385000Y-12169500D02*
X9405000Y-12189500D01*
X9405000Y-12169500D02*
X9385000Y-12189500D01*
X9748571Y-12015214D02*
X9777143Y-12015214D01*
X9805714Y-12029500D01*
X9820000Y-12043786D01*
X9834286Y-12072357D01*
X9848571Y-12129500D01*
X9848571Y-12200928D01*
X9834286Y-12258071D01*
X9820000Y-12286643D01*
X9805714Y-12300928D01*
X9777143Y-12315214D01*
X9748571Y-12315214D01*
X9720000Y-12300928D01*
X9705714Y-12286643D01*
X9691428Y-12258071D01*
X9677143Y-12200928D01*
X9677143Y-12129500D01*
X9691428Y-12072357D01*
X9705714Y-12043786D01*
X9720000Y-12029500D01*
X9748571Y-12015214D01*
X9977143Y-12286643D02*
X9991428Y-12300928D01*
X9977143Y-12315214D01*
X9962857Y-12300928D01*
X9977143Y-12286643D01*
X9977143Y-12315214D01*
X10105714Y-12043786D02*
X10120000Y-12029500D01*
X10148571Y-12015214D01*
X10220000Y-12015214D01*
X10248571Y-12029500D01*
X10262857Y-12043786D01*
X10277143Y-12072357D01*
X10277143Y-12100928D01*
X10262857Y-12143786D01*
X10091428Y-12315214D01*
X10277143Y-12315214D01*
X10462857Y-12015214D02*
X10491428Y-12015214D01*
X10520000Y-12029500D01*
X10534286Y-12043786D01*
X10548571Y-12072357D01*
X10562857Y-12129500D01*
X10562857Y-12200928D01*
X10548571Y-12258071D01*
X10534286Y-12286643D01*
X10520000Y-12300928D01*
X10491428Y-12315214D01*
X10462857Y-12315214D01*
X10434286Y-12300928D01*
X10420000Y-12286643D01*
X10405714Y-12258071D01*
X10391428Y-12200928D01*
X10391428Y-12129500D01*
X10405714Y-12072357D01*
X10420000Y-12043786D01*
X10434286Y-12029500D01*
X10462857Y-12015214D01*
X10691428Y-12315214D02*
X10691428Y-12115214D01*
X10691428Y-12143786D02*
X10705714Y-12129500D01*
X10734286Y-12115214D01*
X10777143Y-12115214D01*
X10805714Y-12129500D01*
X10820000Y-12158071D01*
X10820000Y-12315214D01*
X10820000Y-12158071D02*
X10834286Y-12129500D01*
X10862857Y-12115214D01*
X10905714Y-12115214D01*
X10934286Y-12129500D01*
X10948571Y-12158071D01*
X10948571Y-12315214D01*
X11091428Y-12315214D02*
X11091428Y-12115214D01*
X11091428Y-12143786D02*
X11105714Y-12129500D01*
X11134286Y-12115214D01*
X11177143Y-12115214D01*
X11205714Y-12129500D01*
X11220000Y-12158071D01*
X11220000Y-12315214D01*
X11220000Y-12158071D02*
X11234286Y-12129500D01*
X11262857Y-12115214D01*
X11305714Y-12115214D01*
X11334286Y-12129500D01*
X11348571Y-12158071D01*
X11348571Y-12315214D01*
X11934286Y-12000928D02*
X11677143Y-12386643D01*
X12320000Y-12015214D02*
X12348571Y-12015214D01*
X12377143Y-12029500D01*
X12391428Y-12043786D01*
X12405714Y-12072357D01*
X12420000Y-12129500D01*
X12420000Y-12200928D01*
X12405714Y-12258071D01*
X12391428Y-12286643D01*
X12377143Y-12300928D01*
X12348571Y-12315214D01*
X12320000Y-12315214D01*
X12291428Y-12300928D01*
X12277143Y-12286643D01*
X12262857Y-12258071D01*
X12248571Y-12200928D01*
X12248571Y-12129500D01*
X12262857Y-12072357D01*
X12277143Y-12043786D01*
X12291428Y-12029500D01*
X12320000Y-12015214D01*
X12548571Y-12286643D02*
X12562857Y-12300928D01*
X12548571Y-12315214D01*
X12534286Y-12300928D01*
X12548571Y-12286643D01*
X12548571Y-12315214D01*
X12748571Y-12015214D02*
X12777143Y-12015214D01*
X12805714Y-12029500D01*
X12820000Y-12043786D01*
X12834286Y-12072357D01*
X12848571Y-12129500D01*
X12848571Y-12200928D01*
X12834286Y-12258071D01*
X12820000Y-12286643D01*
X12805714Y-12300928D01*
X12777143Y-12315214D01*
X12748571Y-12315214D01*
X12720000Y-12300928D01*
X12705714Y-12286643D01*
X12691428Y-12258071D01*
X12677143Y-12200928D01*
X12677143Y-12129500D01*
X12691428Y-12072357D01*
X12705714Y-12043786D01*
X12720000Y-12029500D01*
X12748571Y-12015214D01*
X13034286Y-12015214D02*
X13062857Y-12015214D01*
X13091428Y-12029500D01*
X13105714Y-12043786D01*
X13120000Y-12072357D01*
X13134286Y-12129500D01*
X13134286Y-12200928D01*
X13120000Y-12258071D01*
X13105714Y-12286643D01*
X13091428Y-12300928D01*
X13062857Y-12315214D01*
X13034286Y-12315214D01*
X13005714Y-12300928D01*
X12991428Y-12286643D01*
X12977143Y-12258071D01*
X12962857Y-12200928D01*
X12962857Y-12129500D01*
X12977143Y-12072357D01*
X12991428Y-12043786D01*
X13005714Y-12029500D01*
X13034286Y-12015214D01*
X13305714Y-12143786D02*
X13277143Y-12129500D01*
X13262857Y-12115214D01*
X13248571Y-12086643D01*
X13248571Y-12072357D01*
X13262857Y-12043786D01*
X13277143Y-12029500D01*
X13305714Y-12015214D01*
X13362857Y-12015214D01*
X13391428Y-12029500D01*
X13405714Y-12043786D01*
X13420000Y-12072357D01*
X13420000Y-12086643D01*
X13405714Y-12115214D01*
X13391428Y-12129500D01*
X13362857Y-12143786D01*
X13305714Y-12143786D01*
X13277143Y-12158071D01*
X13262857Y-12172357D01*
X13248571Y-12200928D01*
X13248571Y-12258071D01*
X13262857Y-12286643D01*
X13277143Y-12300928D01*
X13305714Y-12315214D01*
X13362857Y-12315214D01*
X13391428Y-12300928D01*
X13405714Y-12286643D01*
X13420000Y-12258071D01*
X13420000Y-12200928D01*
X13405714Y-12172357D01*
X13391428Y-12158071D01*
X13362857Y-12143786D01*
X13534286Y-12015214D02*
X13534286Y-12072357D01*
X13648571Y-12015214D02*
X13648571Y-12072357D01*
X14091428Y-12429500D02*
X14077143Y-12415214D01*
X14048571Y-12372357D01*
X14034286Y-12343786D01*
X14020000Y-12300928D01*
X14005714Y-12229500D01*
X14005714Y-12172357D01*
X14020000Y-12100928D01*
X14034286Y-12058071D01*
X14048571Y-12029500D01*
X14077143Y-11986643D01*
X14091428Y-11972357D01*
X14334286Y-12015214D02*
X14277143Y-12015214D01*
X14248571Y-12029500D01*
X14234286Y-12043786D01*
X14205714Y-12086643D01*
X14191428Y-12143786D01*
X14191428Y-12258071D01*
X14205714Y-12286643D01*
X14220000Y-12300928D01*
X14248571Y-12315214D01*
X14305714Y-12315214D01*
X14334286Y-12300928D01*
X14348571Y-12286643D01*
X14362857Y-12258071D01*
X14362857Y-12186643D01*
X14348571Y-12158071D01*
X14334286Y-12143786D01*
X14305714Y-12129500D01*
X14248571Y-12129500D01*
X14220000Y-12143786D01*
X14205714Y-12158071D01*
X14191428Y-12186643D01*
X14534286Y-12143786D02*
X14505714Y-12129500D01*
X14491428Y-12115214D01*
X14477143Y-12086643D01*
X14477143Y-12072357D01*
X14491428Y-12043786D01*
X14505714Y-12029500D01*
X14534286Y-12015214D01*
X14591428Y-12015214D01*
X14620000Y-12029500D01*
X14634286Y-12043786D01*
X14648571Y-12072357D01*
X14648571Y-12086643D01*
X14634286Y-12115214D01*
X14620000Y-12129500D01*
X14591428Y-12143786D01*
X14534286Y-12143786D01*
X14505714Y-12158071D01*
X14491428Y-12172357D01*
X14477143Y-12200928D01*
X14477143Y-12258071D01*
X14491428Y-12286643D01*
X14505714Y-12300928D01*
X14534286Y-12315214D01*
X14591428Y-12315214D01*
X14620000Y-12300928D01*
X14634286Y-12286643D01*
X14648571Y-12258071D01*
X14648571Y-12200928D01*
X14634286Y-12172357D01*
X14620000Y-12158071D01*
X14591428Y-12143786D01*
X14748571Y-12015214D02*
X14948571Y-12015214D01*
X14820000Y-12315214D01*
X15291428Y-12315214D02*
X15291428Y-12015214D01*
X15420000Y-12315214D02*
X15420000Y-12158071D01*
X15405714Y-12129500D01*
X15377143Y-12115214D01*
X15334286Y-12115214D01*
X15305714Y-12129500D01*
X15291428Y-12143786D01*
X15605714Y-12315214D02*
X15577143Y-12300928D01*
X15562857Y-12286643D01*
X15548571Y-12258071D01*
X15548571Y-12172357D01*
X15562857Y-12143786D01*
X15577143Y-12129500D01*
X15605714Y-12115214D01*
X15648571Y-12115214D01*
X15677143Y-12129500D01*
X15691428Y-12143786D01*
X15705714Y-12172357D01*
X15705714Y-12258071D01*
X15691428Y-12286643D01*
X15677143Y-12300928D01*
X15648571Y-12315214D01*
X15605714Y-12315214D01*
X15877143Y-12315214D02*
X15848571Y-12300928D01*
X15834286Y-12272357D01*
X15834286Y-12015214D01*
X16105714Y-12300928D02*
X16077143Y-12315214D01*
X16020000Y-12315214D01*
X15991428Y-12300928D01*
X15977143Y-12272357D01*
X15977143Y-12158071D01*
X15991428Y-12129500D01*
X16020000Y-12115214D01*
X16077143Y-12115214D01*
X16105714Y-12129500D01*
X16120000Y-12158071D01*
X16120000Y-12186643D01*
X15977143Y-12215214D01*
X16234286Y-12300928D02*
X16262857Y-12315214D01*
X16320000Y-12315214D01*
X16348571Y-12300928D01*
X16362857Y-12272357D01*
X16362857Y-12258071D01*
X16348571Y-12229500D01*
X16320000Y-12215214D01*
X16277143Y-12215214D01*
X16248571Y-12200928D01*
X16234286Y-12172357D01*
X16234286Y-12158071D01*
X16248571Y-12129500D01*
X16277143Y-12115214D01*
X16320000Y-12115214D01*
X16348571Y-12129500D01*
X16462857Y-12429500D02*
X16477143Y-12415214D01*
X16505714Y-12372357D01*
X16520000Y-12343786D01*
X16534286Y-12300928D01*
X16548571Y-12229500D01*
X16548571Y-12172357D01*
X16534286Y-12100928D01*
X16520000Y-12058071D01*
X16505714Y-12029500D01*
X16477143Y-11986643D01*
X16462857Y-11972357D01*
X9405000Y-12575500D02*
G75*
G03*
X9405000Y-12575500I-15000J0D01*
G01*
X9748571Y-12411214D02*
X9777143Y-12411214D01*
X9805714Y-12425500D01*
X9820000Y-12439786D01*
X9834286Y-12468357D01*
X9848571Y-12525500D01*
X9848571Y-12596928D01*
X9834286Y-12654071D01*
X9820000Y-12682643D01*
X9805714Y-12696928D01*
X9777143Y-12711214D01*
X9748571Y-12711214D01*
X9720000Y-12696928D01*
X9705714Y-12682643D01*
X9691428Y-12654071D01*
X9677143Y-12596928D01*
X9677143Y-12525500D01*
X9691428Y-12468357D01*
X9705714Y-12439786D01*
X9720000Y-12425500D01*
X9748571Y-12411214D01*
X9977143Y-12682643D02*
X9991428Y-12696928D01*
X9977143Y-12711214D01*
X9962857Y-12696928D01*
X9977143Y-12682643D01*
X9977143Y-12711214D01*
X10091428Y-12411214D02*
X10277143Y-12411214D01*
X10177143Y-12525500D01*
X10220000Y-12525500D01*
X10248571Y-12539786D01*
X10262857Y-12554071D01*
X10277143Y-12582643D01*
X10277143Y-12654071D01*
X10262857Y-12682643D01*
X10248571Y-12696928D01*
X10220000Y-12711214D01*
X10134286Y-12711214D01*
X10105714Y-12696928D01*
X10091428Y-12682643D01*
X10462857Y-12411214D02*
X10491428Y-12411214D01*
X10520000Y-12425500D01*
X10534286Y-12439786D01*
X10548571Y-12468357D01*
X10562857Y-12525500D01*
X10562857Y-12596928D01*
X10548571Y-12654071D01*
X10534286Y-12682643D01*
X10520000Y-12696928D01*
X10491428Y-12711214D01*
X10462857Y-12711214D01*
X10434286Y-12696928D01*
X10420000Y-12682643D01*
X10405714Y-12654071D01*
X10391428Y-12596928D01*
X10391428Y-12525500D01*
X10405714Y-12468357D01*
X10420000Y-12439786D01*
X10434286Y-12425500D01*
X10462857Y-12411214D01*
X10691428Y-12711214D02*
X10691428Y-12511214D01*
X10691428Y-12539786D02*
X10705714Y-12525500D01*
X10734286Y-12511214D01*
X10777143Y-12511214D01*
X10805714Y-12525500D01*
X10820000Y-12554071D01*
X10820000Y-12711214D01*
X10820000Y-12554071D02*
X10834286Y-12525500D01*
X10862857Y-12511214D01*
X10905714Y-12511214D01*
X10934286Y-12525500D01*
X10948571Y-12554071D01*
X10948571Y-12711214D01*
X11091428Y-12711214D02*
X11091428Y-12511214D01*
X11091428Y-12539786D02*
X11105714Y-12525500D01*
X11134286Y-12511214D01*
X11177143Y-12511214D01*
X11205714Y-12525500D01*
X11220000Y-12554071D01*
X11220000Y-12711214D01*
X11220000Y-12554071D02*
X11234286Y-12525500D01*
X11262857Y-12511214D01*
X11305714Y-12511214D01*
X11334286Y-12525500D01*
X11348571Y-12554071D01*
X11348571Y-12711214D01*
X11934286Y-12396928D02*
X11677143Y-12782643D01*
X12320000Y-12411214D02*
X12348571Y-12411214D01*
X12377143Y-12425500D01*
X12391428Y-12439786D01*
X12405714Y-12468357D01*
X12420000Y-12525500D01*
X12420000Y-12596928D01*
X12405714Y-12654071D01*
X12391428Y-12682643D01*
X12377143Y-12696928D01*
X12348571Y-12711214D01*
X12320000Y-12711214D01*
X12291428Y-12696928D01*
X12277143Y-12682643D01*
X12262857Y-12654071D01*
X12248571Y-12596928D01*
X12248571Y-12525500D01*
X12262857Y-12468357D01*
X12277143Y-12439786D01*
X12291428Y-12425500D01*
X12320000Y-12411214D01*
X12548571Y-12682643D02*
X12562857Y-12696928D01*
X12548571Y-12711214D01*
X12534286Y-12696928D01*
X12548571Y-12682643D01*
X12548571Y-12711214D01*
X12748571Y-12411214D02*
X12777143Y-12411214D01*
X12805714Y-12425500D01*
X12820000Y-12439786D01*
X12834286Y-12468357D01*
X12848571Y-12525500D01*
X12848571Y-12596928D01*
X12834286Y-12654071D01*
X12820000Y-12682643D01*
X12805714Y-12696928D01*
X12777143Y-12711214D01*
X12748571Y-12711214D01*
X12720000Y-12696928D01*
X12705714Y-12682643D01*
X12691428Y-12654071D01*
X12677143Y-12596928D01*
X12677143Y-12525500D01*
X12691428Y-12468357D01*
X12705714Y-12439786D01*
X12720000Y-12425500D01*
X12748571Y-12411214D01*
X13134286Y-12711214D02*
X12962857Y-12711214D01*
X13048571Y-12711214D02*
X13048571Y-12411214D01*
X13020000Y-12454071D01*
X12991428Y-12482643D01*
X12962857Y-12496928D01*
X13248571Y-12439786D02*
X13262857Y-12425500D01*
X13291428Y-12411214D01*
X13362857Y-12411214D01*
X13391428Y-12425500D01*
X13405714Y-12439786D01*
X13420000Y-12468357D01*
X13420000Y-12496928D01*
X13405714Y-12539786D01*
X13234286Y-12711214D01*
X13420000Y-12711214D01*
X13534286Y-12411214D02*
X13534286Y-12468357D01*
X13648571Y-12411214D02*
X13648571Y-12468357D01*
X14091428Y-12825500D02*
X14077143Y-12811214D01*
X14048571Y-12768357D01*
X14034286Y-12739786D01*
X14020000Y-12696928D01*
X14005714Y-12625500D01*
X14005714Y-12568357D01*
X14020000Y-12496928D01*
X14034286Y-12454071D01*
X14048571Y-12425500D01*
X14077143Y-12382643D01*
X14091428Y-12368357D01*
X14191428Y-12439786D02*
X14205714Y-12425500D01*
X14234286Y-12411214D01*
X14305714Y-12411214D01*
X14334286Y-12425500D01*
X14348571Y-12439786D01*
X14362857Y-12468357D01*
X14362857Y-12496928D01*
X14348571Y-12539786D01*
X14177143Y-12711214D01*
X14362857Y-12711214D01*
X14462857Y-12411214D02*
X14662857Y-12411214D01*
X14534286Y-12711214D01*
X15005714Y-12711214D02*
X15005714Y-12411214D01*
X15134286Y-12711214D02*
X15134286Y-12554071D01*
X15120000Y-12525500D01*
X15091428Y-12511214D01*
X15048571Y-12511214D01*
X15020000Y-12525500D01*
X15005714Y-12539786D01*
X15320000Y-12711214D02*
X15291428Y-12696928D01*
X15277143Y-12682643D01*
X15262857Y-12654071D01*
X15262857Y-12568357D01*
X15277143Y-12539786D01*
X15291428Y-12525500D01*
X15320000Y-12511214D01*
X15362857Y-12511214D01*
X15391428Y-12525500D01*
X15405714Y-12539786D01*
X15420000Y-12568357D01*
X15420000Y-12654071D01*
X15405714Y-12682643D01*
X15391428Y-12696928D01*
X15362857Y-12711214D01*
X15320000Y-12711214D01*
X15591428Y-12711214D02*
X15562857Y-12696928D01*
X15548571Y-12668357D01*
X15548571Y-12411214D01*
X15820000Y-12696928D02*
X15791428Y-12711214D01*
X15734286Y-12711214D01*
X15705714Y-12696928D01*
X15691428Y-12668357D01*
X15691428Y-12554071D01*
X15705714Y-12525500D01*
X15734286Y-12511214D01*
X15791428Y-12511214D01*
X15820000Y-12525500D01*
X15834286Y-12554071D01*
X15834286Y-12582643D01*
X15691428Y-12611214D01*
X15948571Y-12696928D02*
X15977143Y-12711214D01*
X16034286Y-12711214D01*
X16062857Y-12696928D01*
X16077143Y-12668357D01*
X16077143Y-12654071D01*
X16062857Y-12625500D01*
X16034286Y-12611214D01*
X15991428Y-12611214D01*
X15962857Y-12596928D01*
X15948571Y-12568357D01*
X15948571Y-12554071D01*
X15962857Y-12525500D01*
X15991428Y-12511214D01*
X16034286Y-12511214D01*
X16062857Y-12525500D01*
X16177143Y-12825500D02*
X16191428Y-12811214D01*
X16220000Y-12768357D01*
X16234286Y-12739786D01*
X16248571Y-12696928D01*
X16262857Y-12625500D01*
X16262857Y-12568357D01*
X16248571Y-12496928D01*
X16234286Y-12454071D01*
X16220000Y-12425500D01*
X16191428Y-12382643D01*
X16177143Y-12368357D01*
X9380000Y-12946500D02*
X9380000Y-12996500D01*
X9355000Y-12971500D02*
X9405000Y-12971500D01*
X9748571Y-12807214D02*
X9777143Y-12807214D01*
X9805714Y-12821500D01*
X9820000Y-12835786D01*
X9834286Y-12864357D01*
X9848571Y-12921500D01*
X9848571Y-12992928D01*
X9834286Y-13050071D01*
X9820000Y-13078643D01*
X9805714Y-13092928D01*
X9777143Y-13107214D01*
X9748571Y-13107214D01*
X9720000Y-13092928D01*
X9705714Y-13078643D01*
X9691428Y-13050071D01*
X9677143Y-12992928D01*
X9677143Y-12921500D01*
X9691428Y-12864357D01*
X9705714Y-12835786D01*
X9720000Y-12821500D01*
X9748571Y-12807214D01*
X9977143Y-13078643D02*
X9991428Y-13092928D01*
X9977143Y-13107214D01*
X9962857Y-13092928D01*
X9977143Y-13078643D01*
X9977143Y-13107214D01*
X10262857Y-12807214D02*
X10120000Y-12807214D01*
X10105714Y-12950071D01*
X10120000Y-12935786D01*
X10148571Y-12921500D01*
X10220000Y-12921500D01*
X10248571Y-12935786D01*
X10262857Y-12950071D01*
X10277143Y-12978643D01*
X10277143Y-13050071D01*
X10262857Y-13078643D01*
X10248571Y-13092928D01*
X10220000Y-13107214D01*
X10148571Y-13107214D01*
X10120000Y-13092928D01*
X10105714Y-13078643D01*
X10462857Y-12807214D02*
X10491428Y-12807214D01*
X10520000Y-12821500D01*
X10534286Y-12835786D01*
X10548571Y-12864357D01*
X10562857Y-12921500D01*
X10562857Y-12992928D01*
X10548571Y-13050071D01*
X10534286Y-13078643D01*
X10520000Y-13092928D01*
X10491428Y-13107214D01*
X10462857Y-13107214D01*
X10434286Y-13092928D01*
X10420000Y-13078643D01*
X10405714Y-13050071D01*
X10391428Y-12992928D01*
X10391428Y-12921500D01*
X10405714Y-12864357D01*
X10420000Y-12835786D01*
X10434286Y-12821500D01*
X10462857Y-12807214D01*
X10691428Y-13107214D02*
X10691428Y-12907214D01*
X10691428Y-12935786D02*
X10705714Y-12921500D01*
X10734286Y-12907214D01*
X10777143Y-12907214D01*
X10805714Y-12921500D01*
X10820000Y-12950071D01*
X10820000Y-13107214D01*
X10820000Y-12950071D02*
X10834286Y-12921500D01*
X10862857Y-12907214D01*
X10905714Y-12907214D01*
X10934286Y-12921500D01*
X10948571Y-12950071D01*
X10948571Y-13107214D01*
X11091428Y-13107214D02*
X11091428Y-12907214D01*
X11091428Y-12935786D02*
X11105714Y-12921500D01*
X11134286Y-12907214D01*
X11177143Y-12907214D01*
X11205714Y-12921500D01*
X11220000Y-12950071D01*
X11220000Y-13107214D01*
X11220000Y-12950071D02*
X11234286Y-12921500D01*
X11262857Y-12907214D01*
X11305714Y-12907214D01*
X11334286Y-12921500D01*
X11348571Y-12950071D01*
X11348571Y-13107214D01*
X11934286Y-12792928D02*
X11677143Y-13178643D01*
X12320000Y-12807214D02*
X12348571Y-12807214D01*
X12377143Y-12821500D01*
X12391428Y-12835786D01*
X12405714Y-12864357D01*
X12420000Y-12921500D01*
X12420000Y-12992928D01*
X12405714Y-13050071D01*
X12391428Y-13078643D01*
X12377143Y-13092928D01*
X12348571Y-13107214D01*
X12320000Y-13107214D01*
X12291428Y-13092928D01*
X12277143Y-13078643D01*
X12262857Y-13050071D01*
X12248571Y-12992928D01*
X12248571Y-12921500D01*
X12262857Y-12864357D01*
X12277143Y-12835786D01*
X12291428Y-12821500D01*
X12320000Y-12807214D01*
X12548571Y-13078643D02*
X12562857Y-13092928D01*
X12548571Y-13107214D01*
X12534286Y-13092928D01*
X12548571Y-13078643D01*
X12548571Y-13107214D01*
X12748571Y-12807214D02*
X12777143Y-12807214D01*
X12805714Y-12821500D01*
X12820000Y-12835786D01*
X12834286Y-12864357D01*
X12848571Y-12921500D01*
X12848571Y-12992928D01*
X12834286Y-13050071D01*
X12820000Y-13078643D01*
X12805714Y-13092928D01*
X12777143Y-13107214D01*
X12748571Y-13107214D01*
X12720000Y-13092928D01*
X12705714Y-13078643D01*
X12691428Y-13050071D01*
X12677143Y-12992928D01*
X12677143Y-12921500D01*
X12691428Y-12864357D01*
X12705714Y-12835786D01*
X12720000Y-12821500D01*
X12748571Y-12807214D01*
X12962857Y-12835786D02*
X12977143Y-12821500D01*
X13005714Y-12807214D01*
X13077143Y-12807214D01*
X13105714Y-12821500D01*
X13120000Y-12835786D01*
X13134286Y-12864357D01*
X13134286Y-12892928D01*
X13120000Y-12935786D01*
X12948571Y-13107214D01*
X13134286Y-13107214D01*
X13320000Y-12807214D02*
X13348571Y-12807214D01*
X13377143Y-12821500D01*
X13391428Y-12835786D01*
X13405714Y-12864357D01*
X13420000Y-12921500D01*
X13420000Y-12992928D01*
X13405714Y-13050071D01*
X13391428Y-13078643D01*
X13377143Y-13092928D01*
X13348571Y-13107214D01*
X13320000Y-13107214D01*
X13291428Y-13092928D01*
X13277143Y-13078643D01*
X13262857Y-13050071D01*
X13248571Y-12992928D01*
X13248571Y-12921500D01*
X13262857Y-12864357D01*
X13277143Y-12835786D01*
X13291428Y-12821500D01*
X13320000Y-12807214D01*
X13534286Y-12807214D02*
X13534286Y-12864357D01*
X13648571Y-12807214D02*
X13648571Y-12864357D01*
X14091428Y-13221500D02*
X14077143Y-13207214D01*
X14048571Y-13164357D01*
X14034286Y-13135786D01*
X14020000Y-13092928D01*
X14005714Y-13021500D01*
X14005714Y-12964357D01*
X14020000Y-12892928D01*
X14034286Y-12850071D01*
X14048571Y-12821500D01*
X14077143Y-12778643D01*
X14091428Y-12764357D01*
X14362857Y-13107214D02*
X14191428Y-13107214D01*
X14277143Y-13107214D02*
X14277143Y-12807214D01*
X14248571Y-12850071D01*
X14220000Y-12878643D01*
X14191428Y-12892928D01*
X14634286Y-12807214D02*
X14491428Y-12807214D01*
X14477143Y-12950071D01*
X14491428Y-12935786D01*
X14520000Y-12921500D01*
X14591428Y-12921500D01*
X14620000Y-12935786D01*
X14634286Y-12950071D01*
X14648571Y-12978643D01*
X14648571Y-13050071D01*
X14634286Y-13078643D01*
X14620000Y-13092928D01*
X14591428Y-13107214D01*
X14520000Y-13107214D01*
X14491428Y-13092928D01*
X14477143Y-13078643D01*
X15005714Y-13107214D02*
X15005714Y-12807214D01*
X15134286Y-13107214D02*
X15134286Y-12950071D01*
X15120000Y-12921500D01*
X15091428Y-12907214D01*
X15048571Y-12907214D01*
X15020000Y-12921500D01*
X15005714Y-12935786D01*
X15320000Y-13107214D02*
X15291428Y-13092928D01*
X15277143Y-13078643D01*
X15262857Y-13050071D01*
X15262857Y-12964357D01*
X15277143Y-12935786D01*
X15291428Y-12921500D01*
X15320000Y-12907214D01*
X15362857Y-12907214D01*
X15391428Y-12921500D01*
X15405714Y-12935786D01*
X15420000Y-12964357D01*
X15420000Y-13050071D01*
X15405714Y-13078643D01*
X15391428Y-13092928D01*
X15362857Y-13107214D01*
X15320000Y-13107214D01*
X15591428Y-13107214D02*
X15562857Y-13092928D01*
X15548571Y-13064357D01*
X15548571Y-12807214D01*
X15820000Y-13092928D02*
X15791428Y-13107214D01*
X15734286Y-13107214D01*
X15705714Y-13092928D01*
X15691428Y-13064357D01*
X15691428Y-12950071D01*
X15705714Y-12921500D01*
X15734286Y-12907214D01*
X15791428Y-12907214D01*
X15820000Y-12921500D01*
X15834286Y-12950071D01*
X15834286Y-12978643D01*
X15691428Y-13007214D01*
X15948571Y-13092928D02*
X15977143Y-13107214D01*
X16034286Y-13107214D01*
X16062857Y-13092928D01*
X16077143Y-13064357D01*
X16077143Y-13050071D01*
X16062857Y-13021500D01*
X16034286Y-13007214D01*
X15991428Y-13007214D01*
X15962857Y-12992928D01*
X15948571Y-12964357D01*
X15948571Y-12950071D01*
X15962857Y-12921500D01*
X15991428Y-12907214D01*
X16034286Y-12907214D01*
X16062857Y-12921500D01*
X16177143Y-13221500D02*
X16191428Y-13207214D01*
X16220000Y-13164357D01*
X16234286Y-13135786D01*
X16248571Y-13092928D01*
X16262857Y-13021500D01*
X16262857Y-12964357D01*
X16248571Y-12892928D01*
X16234286Y-12850071D01*
X16220000Y-12821500D01*
X16191428Y-12778643D01*
X16177143Y-12764357D01*
X9390356Y-13402856D02*
X9390356Y-13332144D01*
X9319644Y-13332144D01*
X9319644Y-13402856D01*
X9390356Y-13402856D01*
X9848571Y-13503214D02*
X9677143Y-13503214D01*
X9762857Y-13503214D02*
X9762857Y-13203214D01*
X9734286Y-13246071D01*
X9705714Y-13274643D01*
X9677143Y-13288928D01*
X9977143Y-13474643D02*
X9991428Y-13488928D01*
X9977143Y-13503214D01*
X9962857Y-13488928D01*
X9977143Y-13474643D01*
X9977143Y-13503214D01*
X10177143Y-13203214D02*
X10205714Y-13203214D01*
X10234286Y-13217500D01*
X10248571Y-13231786D01*
X10262857Y-13260357D01*
X10277143Y-13317500D01*
X10277143Y-13388928D01*
X10262857Y-13446071D01*
X10248571Y-13474643D01*
X10234286Y-13488928D01*
X10205714Y-13503214D01*
X10177143Y-13503214D01*
X10148571Y-13488928D01*
X10134286Y-13474643D01*
X10120000Y-13446071D01*
X10105714Y-13388928D01*
X10105714Y-13317500D01*
X10120000Y-13260357D01*
X10134286Y-13231786D01*
X10148571Y-13217500D01*
X10177143Y-13203214D01*
X10462857Y-13203214D02*
X10491428Y-13203214D01*
X10520000Y-13217500D01*
X10534286Y-13231786D01*
X10548571Y-13260357D01*
X10562857Y-13317500D01*
X10562857Y-13388928D01*
X10548571Y-13446071D01*
X10534286Y-13474643D01*
X10520000Y-13488928D01*
X10491428Y-13503214D01*
X10462857Y-13503214D01*
X10434286Y-13488928D01*
X10420000Y-13474643D01*
X10405714Y-13446071D01*
X10391428Y-13388928D01*
X10391428Y-13317500D01*
X10405714Y-13260357D01*
X10420000Y-13231786D01*
X10434286Y-13217500D01*
X10462857Y-13203214D01*
X10691428Y-13503214D02*
X10691428Y-13303214D01*
X10691428Y-13331786D02*
X10705714Y-13317500D01*
X10734286Y-13303214D01*
X10777143Y-13303214D01*
X10805714Y-13317500D01*
X10820000Y-13346071D01*
X10820000Y-13503214D01*
X10820000Y-13346071D02*
X10834286Y-13317500D01*
X10862857Y-13303214D01*
X10905714Y-13303214D01*
X10934286Y-13317500D01*
X10948571Y-13346071D01*
X10948571Y-13503214D01*
X11091428Y-13503214D02*
X11091428Y-13303214D01*
X11091428Y-13331786D02*
X11105714Y-13317500D01*
X11134286Y-13303214D01*
X11177143Y-13303214D01*
X11205714Y-13317500D01*
X11220000Y-13346071D01*
X11220000Y-13503214D01*
X11220000Y-13346071D02*
X11234286Y-13317500D01*
X11262857Y-13303214D01*
X11305714Y-13303214D01*
X11334286Y-13317500D01*
X11348571Y-13346071D01*
X11348571Y-13503214D01*
X11934286Y-13188928D02*
X11677143Y-13574643D01*
X12320000Y-13203214D02*
X12348571Y-13203214D01*
X12377143Y-13217500D01*
X12391428Y-13231786D01*
X12405714Y-13260357D01*
X12420000Y-13317500D01*
X12420000Y-13388928D01*
X12405714Y-13446071D01*
X12391428Y-13474643D01*
X12377143Y-13488928D01*
X12348571Y-13503214D01*
X12320000Y-13503214D01*
X12291428Y-13488928D01*
X12277143Y-13474643D01*
X12262857Y-13446071D01*
X12248571Y-13388928D01*
X12248571Y-13317500D01*
X12262857Y-13260357D01*
X12277143Y-13231786D01*
X12291428Y-13217500D01*
X12320000Y-13203214D01*
X12548571Y-13474643D02*
X12562857Y-13488928D01*
X12548571Y-13503214D01*
X12534286Y-13488928D01*
X12548571Y-13474643D01*
X12548571Y-13503214D01*
X12748571Y-13203214D02*
X12777143Y-13203214D01*
X12805714Y-13217500D01*
X12820000Y-13231786D01*
X12834286Y-13260357D01*
X12848571Y-13317500D01*
X12848571Y-13388928D01*
X12834286Y-13446071D01*
X12820000Y-13474643D01*
X12805714Y-13488928D01*
X12777143Y-13503214D01*
X12748571Y-13503214D01*
X12720000Y-13488928D01*
X12705714Y-13474643D01*
X12691428Y-13446071D01*
X12677143Y-13388928D01*
X12677143Y-13317500D01*
X12691428Y-13260357D01*
X12705714Y-13231786D01*
X12720000Y-13217500D01*
X12748571Y-13203214D01*
X12948571Y-13203214D02*
X13134286Y-13203214D01*
X13034286Y-13317500D01*
X13077143Y-13317500D01*
X13105714Y-13331786D01*
X13120000Y-13346071D01*
X13134286Y-13374643D01*
X13134286Y-13446071D01*
X13120000Y-13474643D01*
X13105714Y-13488928D01*
X13077143Y-13503214D01*
X12991428Y-13503214D01*
X12962857Y-13488928D01*
X12948571Y-13474643D01*
X13277143Y-13503214D02*
X13334286Y-13503214D01*
X13362857Y-13488928D01*
X13377143Y-13474643D01*
X13405714Y-13431786D01*
X13420000Y-13374643D01*
X13420000Y-13260357D01*
X13405714Y-13231786D01*
X13391428Y-13217500D01*
X13362857Y-13203214D01*
X13305714Y-13203214D01*
X13277143Y-13217500D01*
X13262857Y-13231786D01*
X13248571Y-13260357D01*
X13248571Y-13331786D01*
X13262857Y-13360357D01*
X13277143Y-13374643D01*
X13305714Y-13388928D01*
X13362857Y-13388928D01*
X13391428Y-13374643D01*
X13405714Y-13360357D01*
X13420000Y-13331786D01*
X13534286Y-13203214D02*
X13534286Y-13260357D01*
X13648571Y-13203214D02*
X13648571Y-13260357D01*
X14091428Y-13617500D02*
X14077143Y-13603214D01*
X14048571Y-13560357D01*
X14034286Y-13531786D01*
X14020000Y-13488928D01*
X14005714Y-13417500D01*
X14005714Y-13360357D01*
X14020000Y-13288928D01*
X14034286Y-13246071D01*
X14048571Y-13217500D01*
X14077143Y-13174643D01*
X14091428Y-13160357D01*
X14334286Y-13303214D02*
X14334286Y-13503214D01*
X14262857Y-13188928D02*
X14191428Y-13403214D01*
X14377143Y-13403214D01*
X14720000Y-13503214D02*
X14720000Y-13203214D01*
X14848571Y-13503214D02*
X14848571Y-13346071D01*
X14834286Y-13317500D01*
X14805714Y-13303214D01*
X14762857Y-13303214D01*
X14734286Y-13317500D01*
X14720000Y-13331786D01*
X15034286Y-13503214D02*
X15005714Y-13488928D01*
X14991428Y-13474643D01*
X14977143Y-13446071D01*
X14977143Y-13360357D01*
X14991428Y-13331786D01*
X15005714Y-13317500D01*
X15034286Y-13303214D01*
X15077143Y-13303214D01*
X15105714Y-13317500D01*
X15120000Y-13331786D01*
X15134286Y-13360357D01*
X15134286Y-13446071D01*
X15120000Y-13474643D01*
X15105714Y-13488928D01*
X15077143Y-13503214D01*
X15034286Y-13503214D01*
X15305714Y-13503214D02*
X15277143Y-13488928D01*
X15262857Y-13460357D01*
X15262857Y-13203214D01*
X15534286Y-13488928D02*
X15505714Y-13503214D01*
X15448571Y-13503214D01*
X15420000Y-13488928D01*
X15405714Y-13460357D01*
X15405714Y-13346071D01*
X15420000Y-13317500D01*
X15448571Y-13303214D01*
X15505714Y-13303214D01*
X15534286Y-13317500D01*
X15548571Y-13346071D01*
X15548571Y-13374643D01*
X15405714Y-13403214D01*
X15662857Y-13488928D02*
X15691428Y-13503214D01*
X15748571Y-13503214D01*
X15777143Y-13488928D01*
X15791428Y-13460357D01*
X15791428Y-13446071D01*
X15777143Y-13417500D01*
X15748571Y-13403214D01*
X15705714Y-13403214D01*
X15677143Y-13388928D01*
X15662857Y-13360357D01*
X15662857Y-13346071D01*
X15677143Y-13317500D01*
X15705714Y-13303214D01*
X15748571Y-13303214D01*
X15777143Y-13317500D01*
X15891428Y-13617500D02*
X15905714Y-13603214D01*
X15934286Y-13560357D01*
X15948571Y-13531786D01*
X15962857Y-13488928D01*
X15977143Y-13417500D01*
X15977143Y-13360357D01*
X15962857Y-13288928D01*
X15948571Y-13246071D01*
X15934286Y-13217500D01*
X15905714Y-13174643D01*
X15891428Y-13160357D01*
X9295000Y-13873500D02*
X9405000Y-13763500D01*
X9295000Y-13653500D01*
X9185000Y-13763500D01*
X9295000Y-13873500D01*
X9677143Y-13627786D02*
X9691428Y-13613500D01*
X9720000Y-13599214D01*
X9791428Y-13599214D01*
X9820000Y-13613500D01*
X9834286Y-13627786D01*
X9848571Y-13656357D01*
X9848571Y-13684928D01*
X9834286Y-13727786D01*
X9662857Y-13899214D01*
X9848571Y-13899214D01*
X9977143Y-13870643D02*
X9991428Y-13884928D01*
X9977143Y-13899214D01*
X9962857Y-13884928D01*
X9977143Y-13870643D01*
X9977143Y-13899214D01*
X10105714Y-13627786D02*
X10120000Y-13613500D01*
X10148571Y-13599214D01*
X10220000Y-13599214D01*
X10248571Y-13613500D01*
X10262857Y-13627786D01*
X10277143Y-13656357D01*
X10277143Y-13684928D01*
X10262857Y-13727786D01*
X10091428Y-13899214D01*
X10277143Y-13899214D01*
X10462857Y-13599214D02*
X10491428Y-13599214D01*
X10520000Y-13613500D01*
X10534286Y-13627786D01*
X10548571Y-13656357D01*
X10562857Y-13713500D01*
X10562857Y-13784928D01*
X10548571Y-13842071D01*
X10534286Y-13870643D01*
X10520000Y-13884928D01*
X10491428Y-13899214D01*
X10462857Y-13899214D01*
X10434286Y-13884928D01*
X10420000Y-13870643D01*
X10405714Y-13842071D01*
X10391428Y-13784928D01*
X10391428Y-13713500D01*
X10405714Y-13656357D01*
X10420000Y-13627786D01*
X10434286Y-13613500D01*
X10462857Y-13599214D01*
X10691428Y-13899214D02*
X10691428Y-13699214D01*
X10691428Y-13727786D02*
X10705714Y-13713500D01*
X10734286Y-13699214D01*
X10777143Y-13699214D01*
X10805714Y-13713500D01*
X10820000Y-13742071D01*
X10820000Y-13899214D01*
X10820000Y-13742071D02*
X10834286Y-13713500D01*
X10862857Y-13699214D01*
X10905714Y-13699214D01*
X10934286Y-13713500D01*
X10948571Y-13742071D01*
X10948571Y-13899214D01*
X11091428Y-13899214D02*
X11091428Y-13699214D01*
X11091428Y-13727786D02*
X11105714Y-13713500D01*
X11134286Y-13699214D01*
X11177143Y-13699214D01*
X11205714Y-13713500D01*
X11220000Y-13742071D01*
X11220000Y-13899214D01*
X11220000Y-13742071D02*
X11234286Y-13713500D01*
X11262857Y-13699214D01*
X11305714Y-13699214D01*
X11334286Y-13713500D01*
X11348571Y-13742071D01*
X11348571Y-13899214D01*
X11934286Y-13584928D02*
X11677143Y-13970643D01*
X12320000Y-13599214D02*
X12348571Y-13599214D01*
X12377143Y-13613500D01*
X12391428Y-13627786D01*
X12405714Y-13656357D01*
X12420000Y-13713500D01*
X12420000Y-13784928D01*
X12405714Y-13842071D01*
X12391428Y-13870643D01*
X12377143Y-13884928D01*
X12348571Y-13899214D01*
X12320000Y-13899214D01*
X12291428Y-13884928D01*
X12277143Y-13870643D01*
X12262857Y-13842071D01*
X12248571Y-13784928D01*
X12248571Y-13713500D01*
X12262857Y-13656357D01*
X12277143Y-13627786D01*
X12291428Y-13613500D01*
X12320000Y-13599214D01*
X12548571Y-13870643D02*
X12562857Y-13884928D01*
X12548571Y-13899214D01*
X12534286Y-13884928D01*
X12548571Y-13870643D01*
X12548571Y-13899214D01*
X12748571Y-13599214D02*
X12777143Y-13599214D01*
X12805714Y-13613500D01*
X12820000Y-13627786D01*
X12834286Y-13656357D01*
X12848571Y-13713500D01*
X12848571Y-13784928D01*
X12834286Y-13842071D01*
X12820000Y-13870643D01*
X12805714Y-13884928D01*
X12777143Y-13899214D01*
X12748571Y-13899214D01*
X12720000Y-13884928D01*
X12705714Y-13870643D01*
X12691428Y-13842071D01*
X12677143Y-13784928D01*
X12677143Y-13713500D01*
X12691428Y-13656357D01*
X12705714Y-13627786D01*
X12720000Y-13613500D01*
X12748571Y-13599214D01*
X13020000Y-13727786D02*
X12991428Y-13713500D01*
X12977143Y-13699214D01*
X12962857Y-13670643D01*
X12962857Y-13656357D01*
X12977143Y-13627786D01*
X12991428Y-13613500D01*
X13020000Y-13599214D01*
X13077143Y-13599214D01*
X13105714Y-13613500D01*
X13120000Y-13627786D01*
X13134286Y-13656357D01*
X13134286Y-13670643D01*
X13120000Y-13699214D01*
X13105714Y-13713500D01*
X13077143Y-13727786D01*
X13020000Y-13727786D01*
X12991428Y-13742071D01*
X12977143Y-13756357D01*
X12962857Y-13784928D01*
X12962857Y-13842071D01*
X12977143Y-13870643D01*
X12991428Y-13884928D01*
X13020000Y-13899214D01*
X13077143Y-13899214D01*
X13105714Y-13884928D01*
X13120000Y-13870643D01*
X13134286Y-13842071D01*
X13134286Y-13784928D01*
X13120000Y-13756357D01*
X13105714Y-13742071D01*
X13077143Y-13727786D01*
X13234286Y-13599214D02*
X13434286Y-13599214D01*
X13305714Y-13899214D01*
X13534286Y-13599214D02*
X13534286Y-13656357D01*
X13648571Y-13599214D02*
X13648571Y-13656357D01*
X14091428Y-14013500D02*
X14077143Y-13999214D01*
X14048571Y-13956357D01*
X14034286Y-13927786D01*
X14020000Y-13884928D01*
X14005714Y-13813500D01*
X14005714Y-13756357D01*
X14020000Y-13684928D01*
X14034286Y-13642071D01*
X14048571Y-13613500D01*
X14077143Y-13570643D01*
X14091428Y-13556357D01*
X14334286Y-13699214D02*
X14334286Y-13899214D01*
X14262857Y-13584928D02*
X14191428Y-13799214D01*
X14377143Y-13799214D01*
X14720000Y-13899214D02*
X14720000Y-13599214D01*
X14848571Y-13899214D02*
X14848571Y-13742071D01*
X14834286Y-13713500D01*
X14805714Y-13699214D01*
X14762857Y-13699214D01*
X14734286Y-13713500D01*
X14720000Y-13727786D01*
X15034286Y-13899214D02*
X15005714Y-13884928D01*
X14991428Y-13870643D01*
X14977143Y-13842071D01*
X14977143Y-13756357D01*
X14991428Y-13727786D01*
X15005714Y-13713500D01*
X15034286Y-13699214D01*
X15077143Y-13699214D01*
X15105714Y-13713500D01*
X15120000Y-13727786D01*
X15134286Y-13756357D01*
X15134286Y-13842071D01*
X15120000Y-13870643D01*
X15105714Y-13884928D01*
X15077143Y-13899214D01*
X15034286Y-13899214D01*
X15305714Y-13899214D02*
X15277143Y-13884928D01*
X15262857Y-13856357D01*
X15262857Y-13599214D01*
X15534286Y-13884928D02*
X15505714Y-13899214D01*
X15448571Y-13899214D01*
X15420000Y-13884928D01*
X15405714Y-13856357D01*
X15405714Y-13742071D01*
X15420000Y-13713500D01*
X15448571Y-13699214D01*
X15505714Y-13699214D01*
X15534286Y-13713500D01*
X15548571Y-13742071D01*
X15548571Y-13770643D01*
X15405714Y-13799214D01*
X15662857Y-13884928D02*
X15691428Y-13899214D01*
X15748571Y-13899214D01*
X15777143Y-13884928D01*
X15791428Y-13856357D01*
X15791428Y-13842071D01*
X15777143Y-13813500D01*
X15748571Y-13799214D01*
X15705714Y-13799214D01*
X15677143Y-13784928D01*
X15662857Y-13756357D01*
X15662857Y-13742071D01*
X15677143Y-13713500D01*
X15705714Y-13699214D01*
X15748571Y-13699214D01*
X15777143Y-13713500D01*
X15891428Y-14013500D02*
X15905714Y-13999214D01*
X15934286Y-13956357D01*
X15948571Y-13927786D01*
X15962857Y-13884928D01*
X15977143Y-13813500D01*
X15977143Y-13756357D01*
X15962857Y-13684928D01*
X15948571Y-13642071D01*
X15934286Y-13613500D01*
X15905714Y-13570643D01*
X15891428Y-13556357D01*
M02*
