G04 #@! TF.GenerationSoftware,KiCad,Pcbnew,5.1.9+dfsg1-1+deb11u1*
G04 #@! TF.CreationDate,2022-10-19T12:21:59+02:00*
G04 #@! TF.ProjectId,ulx4m,756c7834-6d2e-46b6-9963-61645f706362,v0.0.3*
G04 #@! TF.SameCoordinates,Original*
G04 #@! TF.FileFunction,Soldermask,Bot*
G04 #@! TF.FilePolarity,Negative*
%FSLAX46Y46*%
G04 Gerber Fmt 4.6, Leading zero omitted, Abs format (unit mm)*
G04 Created by KiCad (PCBNEW 5.1.9+dfsg1-1+deb11u1) date 2022-10-19 12:21:59*
%MOMM*%
%LPD*%
G01*
G04 APERTURE LIST*
%ADD10C,1.200000*%
%ADD11R,0.850000X0.850000*%
%ADD12O,0.850000X0.850000*%
%ADD13C,1.000000*%
%ADD14O,1.700000X1.700000*%
%ADD15R,1.700000X1.700000*%
%ADD16R,0.230000X0.660000*%
%ADD17R,0.350000X0.660000*%
%ADD18C,3.300000*%
%ADD19R,2.700000X1.500000*%
%ADD20R,1.500000X2.700000*%
%ADD21R,1.200000X0.700000*%
%ADD22R,0.700000X1.200000*%
%ADD23R,0.600000X0.450000*%
%ADD24R,0.450000X0.600000*%
%ADD25R,1.000000X1.000000*%
G04 APERTURE END LIST*
D10*
X138660000Y-85330000D02*
X136660000Y-85330000D01*
X137050000Y-101315000D02*
X135050000Y-101315000D01*
X102740000Y-85300000D02*
X104740000Y-85300000D01*
X143000000Y-90850000D02*
X143000000Y-88850000D01*
D11*
X96240000Y-102840000D03*
D12*
X97240000Y-102840000D03*
X96240000Y-103840000D03*
X97240000Y-103840000D03*
X96240000Y-104840000D03*
X97240000Y-104840000D03*
X96240000Y-105840000D03*
X97240000Y-105840000D03*
D11*
X138100000Y-79070000D03*
D12*
X138100000Y-78070000D03*
X138100000Y-77070000D03*
X138100000Y-76070000D03*
X138100000Y-75070000D03*
X138100000Y-74070000D03*
X138100000Y-73070000D03*
G36*
G01*
X138520000Y-108215000D02*
X138520000Y-108585000D01*
G75*
G02*
X138385000Y-108720000I-135000J0D01*
G01*
X138115000Y-108720000D01*
G75*
G02*
X137980000Y-108585000I0J135000D01*
G01*
X137980000Y-108215000D01*
G75*
G02*
X138115000Y-108080000I135000J0D01*
G01*
X138385000Y-108080000D01*
G75*
G02*
X138520000Y-108215000I0J-135000D01*
G01*
G37*
G36*
G01*
X139540000Y-108215000D02*
X139540000Y-108585000D01*
G75*
G02*
X139405000Y-108720000I-135000J0D01*
G01*
X139135000Y-108720000D01*
G75*
G02*
X139000000Y-108585000I0J135000D01*
G01*
X139000000Y-108215000D01*
G75*
G02*
X139135000Y-108080000I135000J0D01*
G01*
X139405000Y-108080000D01*
G75*
G02*
X139540000Y-108215000I0J-135000D01*
G01*
G37*
G36*
G01*
X137784998Y-93200001D02*
X137784998Y-92830001D01*
G75*
G02*
X137919998Y-92695001I135000J0D01*
G01*
X138189998Y-92695001D01*
G75*
G02*
X138324998Y-92830001I0J-135000D01*
G01*
X138324998Y-93200001D01*
G75*
G02*
X138189998Y-93335001I-135000J0D01*
G01*
X137919998Y-93335001D01*
G75*
G02*
X137784998Y-93200001I0J135000D01*
G01*
G37*
G36*
G01*
X136764998Y-93200001D02*
X136764998Y-92830001D01*
G75*
G02*
X136899998Y-92695001I135000J0D01*
G01*
X137169998Y-92695001D01*
G75*
G02*
X137304998Y-92830001I0J-135000D01*
G01*
X137304998Y-93200001D01*
G75*
G02*
X137169998Y-93335001I-135000J0D01*
G01*
X136899998Y-93335001D01*
G75*
G02*
X136764998Y-93200001I0J135000D01*
G01*
G37*
G36*
G01*
X143475002Y-83529999D02*
X143475002Y-83899999D01*
G75*
G02*
X143340002Y-84034999I-135000J0D01*
G01*
X143070002Y-84034999D01*
G75*
G02*
X142935002Y-83899999I0J135000D01*
G01*
X142935002Y-83529999D01*
G75*
G02*
X143070002Y-83394999I135000J0D01*
G01*
X143340002Y-83394999D01*
G75*
G02*
X143475002Y-83529999I0J-135000D01*
G01*
G37*
G36*
G01*
X144495002Y-83529999D02*
X144495002Y-83899999D01*
G75*
G02*
X144360002Y-84034999I-135000J0D01*
G01*
X144090002Y-84034999D01*
G75*
G02*
X143955002Y-83899999I0J135000D01*
G01*
X143955002Y-83529999D01*
G75*
G02*
X144090002Y-83394999I135000J0D01*
G01*
X144360002Y-83394999D01*
G75*
G02*
X144495002Y-83529999I0J-135000D01*
G01*
G37*
G36*
G01*
X100405000Y-80090000D02*
X100775000Y-80090000D01*
G75*
G02*
X100910000Y-80225000I0J-135000D01*
G01*
X100910000Y-80495000D01*
G75*
G02*
X100775000Y-80630000I-135000J0D01*
G01*
X100405000Y-80630000D01*
G75*
G02*
X100270000Y-80495000I0J135000D01*
G01*
X100270000Y-80225000D01*
G75*
G02*
X100405000Y-80090000I135000J0D01*
G01*
G37*
G36*
G01*
X100405000Y-79070000D02*
X100775000Y-79070000D01*
G75*
G02*
X100910000Y-79205000I0J-135000D01*
G01*
X100910000Y-79475000D01*
G75*
G02*
X100775000Y-79610000I-135000J0D01*
G01*
X100405000Y-79610000D01*
G75*
G02*
X100270000Y-79475000I0J135000D01*
G01*
X100270000Y-79205000D01*
G75*
G02*
X100405000Y-79070000I135000J0D01*
G01*
G37*
G36*
G01*
X139385001Y-106525000D02*
X139015001Y-106525000D01*
G75*
G02*
X138880001Y-106390000I0J135000D01*
G01*
X138880001Y-106120000D01*
G75*
G02*
X139015001Y-105985000I135000J0D01*
G01*
X139385001Y-105985000D01*
G75*
G02*
X139520001Y-106120000I0J-135000D01*
G01*
X139520001Y-106390000D01*
G75*
G02*
X139385001Y-106525000I-135000J0D01*
G01*
G37*
G36*
G01*
X139385001Y-107545000D02*
X139015001Y-107545000D01*
G75*
G02*
X138880001Y-107410000I0J135000D01*
G01*
X138880001Y-107140000D01*
G75*
G02*
X139015001Y-107005000I135000J0D01*
G01*
X139385001Y-107005000D01*
G75*
G02*
X139520001Y-107140000I0J-135000D01*
G01*
X139520001Y-107410000D01*
G75*
G02*
X139385001Y-107545000I-135000J0D01*
G01*
G37*
G36*
G01*
X137805000Y-91700000D02*
X138175000Y-91700000D01*
G75*
G02*
X138310000Y-91835000I0J-135000D01*
G01*
X138310000Y-92105000D01*
G75*
G02*
X138175000Y-92240000I-135000J0D01*
G01*
X137805000Y-92240000D01*
G75*
G02*
X137670000Y-92105000I0J135000D01*
G01*
X137670000Y-91835000D01*
G75*
G02*
X137805000Y-91700000I135000J0D01*
G01*
G37*
G36*
G01*
X137805000Y-90680000D02*
X138175000Y-90680000D01*
G75*
G02*
X138310000Y-90815000I0J-135000D01*
G01*
X138310000Y-91085000D01*
G75*
G02*
X138175000Y-91220000I-135000J0D01*
G01*
X137805000Y-91220000D01*
G75*
G02*
X137670000Y-91085000I0J135000D01*
G01*
X137670000Y-90815000D01*
G75*
G02*
X137805000Y-90680000I135000J0D01*
G01*
G37*
G36*
G01*
X143450001Y-85035001D02*
X143080001Y-85035001D01*
G75*
G02*
X142945001Y-84900001I0J135000D01*
G01*
X142945001Y-84630001D01*
G75*
G02*
X143080001Y-84495001I135000J0D01*
G01*
X143450001Y-84495001D01*
G75*
G02*
X143585001Y-84630001I0J-135000D01*
G01*
X143585001Y-84900001D01*
G75*
G02*
X143450001Y-85035001I-135000J0D01*
G01*
G37*
G36*
G01*
X143450001Y-86055001D02*
X143080001Y-86055001D01*
G75*
G02*
X142945001Y-85920001I0J135000D01*
G01*
X142945001Y-85650001D01*
G75*
G02*
X143080001Y-85515001I135000J0D01*
G01*
X143450001Y-85515001D01*
G75*
G02*
X143585001Y-85650001I0J-135000D01*
G01*
X143585001Y-85920001D01*
G75*
G02*
X143450001Y-86055001I-135000J0D01*
G01*
G37*
G36*
G01*
X101910000Y-80115000D02*
X101910000Y-80485000D01*
G75*
G02*
X101775000Y-80620000I-135000J0D01*
G01*
X101505000Y-80620000D01*
G75*
G02*
X101370000Y-80485000I0J135000D01*
G01*
X101370000Y-80115000D01*
G75*
G02*
X101505000Y-79980000I135000J0D01*
G01*
X101775000Y-79980000D01*
G75*
G02*
X101910000Y-80115000I0J-135000D01*
G01*
G37*
G36*
G01*
X102930000Y-80115000D02*
X102930000Y-80485000D01*
G75*
G02*
X102795000Y-80620000I-135000J0D01*
G01*
X102525000Y-80620000D01*
G75*
G02*
X102390000Y-80485000I0J135000D01*
G01*
X102390000Y-80115000D01*
G75*
G02*
X102525000Y-79980000I135000J0D01*
G01*
X102795000Y-79980000D01*
G75*
G02*
X102930000Y-80115000I0J-135000D01*
G01*
G37*
G36*
G01*
X137880000Y-106499999D02*
X137880000Y-106129999D01*
G75*
G02*
X138015000Y-105994999I135000J0D01*
G01*
X138285000Y-105994999D01*
G75*
G02*
X138420000Y-106129999I0J-135000D01*
G01*
X138420000Y-106499999D01*
G75*
G02*
X138285000Y-106634999I-135000J0D01*
G01*
X138015000Y-106634999D01*
G75*
G02*
X137880000Y-106499999I0J135000D01*
G01*
G37*
G36*
G01*
X136860000Y-106499999D02*
X136860000Y-106129999D01*
G75*
G02*
X136995000Y-105994999I135000J0D01*
G01*
X137265000Y-105994999D01*
G75*
G02*
X137400000Y-106129999I0J-135000D01*
G01*
X137400000Y-106499999D01*
G75*
G02*
X137265000Y-106634999I-135000J0D01*
G01*
X136995000Y-106634999D01*
G75*
G02*
X136860000Y-106499999I0J135000D01*
G01*
G37*
G36*
G01*
X105245000Y-100650000D02*
X105615000Y-100650000D01*
G75*
G02*
X105750000Y-100785000I0J-135000D01*
G01*
X105750000Y-101055000D01*
G75*
G02*
X105615000Y-101190000I-135000J0D01*
G01*
X105245000Y-101190000D01*
G75*
G02*
X105110000Y-101055000I0J135000D01*
G01*
X105110000Y-100785000D01*
G75*
G02*
X105245000Y-100650000I135000J0D01*
G01*
G37*
G36*
G01*
X105245000Y-99630000D02*
X105615000Y-99630000D01*
G75*
G02*
X105750000Y-99765000I0J-135000D01*
G01*
X105750000Y-100035000D01*
G75*
G02*
X105615000Y-100170000I-135000J0D01*
G01*
X105245000Y-100170000D01*
G75*
G02*
X105110000Y-100035000I0J135000D01*
G01*
X105110000Y-99765000D01*
G75*
G02*
X105245000Y-99630000I135000J0D01*
G01*
G37*
G36*
G01*
X104245000Y-100730000D02*
X104615000Y-100730000D01*
G75*
G02*
X104750000Y-100865000I0J-135000D01*
G01*
X104750000Y-101135000D01*
G75*
G02*
X104615000Y-101270000I-135000J0D01*
G01*
X104245000Y-101270000D01*
G75*
G02*
X104110000Y-101135000I0J135000D01*
G01*
X104110000Y-100865000D01*
G75*
G02*
X104245000Y-100730000I135000J0D01*
G01*
G37*
G36*
G01*
X104245000Y-99710000D02*
X104615000Y-99710000D01*
G75*
G02*
X104750000Y-99845000I0J-135000D01*
G01*
X104750000Y-100115000D01*
G75*
G02*
X104615000Y-100250000I-135000J0D01*
G01*
X104245000Y-100250000D01*
G75*
G02*
X104110000Y-100115000I0J135000D01*
G01*
X104110000Y-99845000D01*
G75*
G02*
X104245000Y-99710000I135000J0D01*
G01*
G37*
G36*
G01*
X109660000Y-103105000D02*
X109660000Y-102735000D01*
G75*
G02*
X109795000Y-102600000I135000J0D01*
G01*
X110065000Y-102600000D01*
G75*
G02*
X110200000Y-102735000I0J-135000D01*
G01*
X110200000Y-103105000D01*
G75*
G02*
X110065000Y-103240000I-135000J0D01*
G01*
X109795000Y-103240000D01*
G75*
G02*
X109660000Y-103105000I0J135000D01*
G01*
G37*
G36*
G01*
X108640000Y-103105000D02*
X108640000Y-102735000D01*
G75*
G02*
X108775000Y-102600000I135000J0D01*
G01*
X109045000Y-102600000D01*
G75*
G02*
X109180000Y-102735000I0J-135000D01*
G01*
X109180000Y-103105000D01*
G75*
G02*
X109045000Y-103240000I-135000J0D01*
G01*
X108775000Y-103240000D01*
G75*
G02*
X108640000Y-103105000I0J135000D01*
G01*
G37*
G36*
G01*
X95345000Y-86150000D02*
X95715000Y-86150000D01*
G75*
G02*
X95850000Y-86285000I0J-135000D01*
G01*
X95850000Y-86555000D01*
G75*
G02*
X95715000Y-86690000I-135000J0D01*
G01*
X95345000Y-86690000D01*
G75*
G02*
X95210000Y-86555000I0J135000D01*
G01*
X95210000Y-86285000D01*
G75*
G02*
X95345000Y-86150000I135000J0D01*
G01*
G37*
G36*
G01*
X95345000Y-85130000D02*
X95715000Y-85130000D01*
G75*
G02*
X95850000Y-85265000I0J-135000D01*
G01*
X95850000Y-85535000D01*
G75*
G02*
X95715000Y-85670000I-135000J0D01*
G01*
X95345000Y-85670000D01*
G75*
G02*
X95210000Y-85535000I0J135000D01*
G01*
X95210000Y-85265000D01*
G75*
G02*
X95345000Y-85130000I135000J0D01*
G01*
G37*
D13*
X115800000Y-90200000D03*
X115850000Y-88690800D03*
D14*
X148170000Y-106030000D03*
X148170000Y-103490000D03*
X148170000Y-100950000D03*
D15*
X148170000Y-98410000D03*
G36*
G01*
X137340000Y-84953750D02*
X137340000Y-85706250D01*
G75*
G02*
X137016250Y-86030000I-323750J0D01*
G01*
X136368750Y-86030000D01*
G75*
G02*
X136045000Y-85706250I0J323750D01*
G01*
X136045000Y-84953750D01*
G75*
G02*
X136368750Y-84630000I323750J0D01*
G01*
X137016250Y-84630000D01*
G75*
G02*
X137340000Y-84953750I0J-323750D01*
G01*
G37*
G36*
G01*
X139275000Y-84953750D02*
X139275000Y-85706250D01*
G75*
G02*
X138951250Y-86030000I-323750J0D01*
G01*
X138303750Y-86030000D01*
G75*
G02*
X137980000Y-85706250I0J323750D01*
G01*
X137980000Y-84953750D01*
G75*
G02*
X138303750Y-84630000I323750J0D01*
G01*
X138951250Y-84630000D01*
G75*
G02*
X139275000Y-84953750I0J-323750D01*
G01*
G37*
D16*
X133958000Y-107790000D03*
X133958000Y-110500000D03*
X133558000Y-107790000D03*
X133558000Y-110500000D03*
X133158000Y-107790000D03*
X133158000Y-110500000D03*
X132758000Y-107790000D03*
X132758000Y-110500000D03*
X132358000Y-107790000D03*
X132358000Y-110500000D03*
X131958000Y-107790000D03*
X131958000Y-110500000D03*
X131558000Y-107790000D03*
X131558000Y-110500000D03*
X131158000Y-107790000D03*
X131158000Y-110500000D03*
X130758000Y-107790000D03*
X130758000Y-110500000D03*
X130358000Y-107790000D03*
X130358000Y-110500000D03*
X129958000Y-107790000D03*
X129958000Y-110500000D03*
X129558000Y-107790000D03*
X129558000Y-110500000D03*
X129158000Y-107790000D03*
X129158000Y-110500000D03*
X128758000Y-107790000D03*
X128758000Y-110500000D03*
X128358000Y-107790000D03*
X128358000Y-110500000D03*
X127958000Y-107790000D03*
X127958000Y-110500000D03*
X127558000Y-107790000D03*
X127558000Y-110500000D03*
X127158000Y-107790000D03*
X127158000Y-110500000D03*
X126758000Y-107790000D03*
X126758000Y-110500000D03*
X126358000Y-107790000D03*
X126358000Y-110500000D03*
X125958000Y-107790000D03*
X125958000Y-110500000D03*
X125558000Y-107790000D03*
X125558000Y-110500000D03*
X125158000Y-107790000D03*
X125158000Y-110500000D03*
X124758000Y-107790000D03*
X124758000Y-110500000D03*
X124358000Y-107790000D03*
X124358000Y-110500000D03*
X123958000Y-107790000D03*
X123958000Y-110500000D03*
X123558000Y-107790000D03*
X123558000Y-110500000D03*
X123158000Y-107790000D03*
X123158000Y-110500000D03*
X122758000Y-107790000D03*
X122758000Y-110500000D03*
X122358000Y-107790000D03*
X122358000Y-110500000D03*
X121958000Y-107790000D03*
X121958000Y-110500000D03*
X121558000Y-107790000D03*
X121558000Y-110500000D03*
X121158000Y-107790000D03*
X121158000Y-110500000D03*
X120758000Y-107790000D03*
X120758000Y-110500000D03*
X120358000Y-107790000D03*
X120358000Y-110500000D03*
X119958000Y-107790000D03*
X119958000Y-110500000D03*
X119558000Y-107790000D03*
X119558000Y-110500000D03*
X119158000Y-107790000D03*
X119158000Y-110500000D03*
X118758000Y-107790000D03*
X118758000Y-110500000D03*
X118358000Y-107790000D03*
X118358000Y-110500000D03*
D17*
X134433000Y-110500000D03*
X134433000Y-107790000D03*
X113883000Y-110500000D03*
X113883000Y-107790000D03*
D16*
X117958000Y-107790000D03*
X117958000Y-110500000D03*
X117558000Y-107790000D03*
X117558000Y-110500000D03*
X117158000Y-107790000D03*
X117158000Y-110500000D03*
X116758000Y-107790000D03*
X116758000Y-110500000D03*
X116358000Y-107790000D03*
X116358000Y-110500000D03*
X115958000Y-107790000D03*
X115958000Y-110500000D03*
X115558000Y-107790000D03*
X115558000Y-110500000D03*
X115158000Y-107790000D03*
X115158000Y-110500000D03*
X114758000Y-107790000D03*
X114758000Y-110500000D03*
X114358000Y-107790000D03*
X114358000Y-110500000D03*
D18*
X97620000Y-75644999D03*
X145620000Y-75645000D03*
X145620000Y-108720000D03*
X97619999Y-108723599D03*
G36*
G01*
X135730000Y-100938750D02*
X135730000Y-101691250D01*
G75*
G02*
X135406250Y-102015000I-323750J0D01*
G01*
X134758750Y-102015000D01*
G75*
G02*
X134435000Y-101691250I0J323750D01*
G01*
X134435000Y-100938750D01*
G75*
G02*
X134758750Y-100615000I323750J0D01*
G01*
X135406250Y-100615000D01*
G75*
G02*
X135730000Y-100938750I0J-323750D01*
G01*
G37*
G36*
G01*
X137665000Y-100938750D02*
X137665000Y-101691250D01*
G75*
G02*
X137341250Y-102015000I-323750J0D01*
G01*
X136693750Y-102015000D01*
G75*
G02*
X136370000Y-101691250I0J323750D01*
G01*
X136370000Y-100938750D01*
G75*
G02*
X136693750Y-100615000I323750J0D01*
G01*
X137341250Y-100615000D01*
G75*
G02*
X137665000Y-100938750I0J-323750D01*
G01*
G37*
G36*
G01*
X102125000Y-85676250D02*
X102125000Y-84923750D01*
G75*
G02*
X102448750Y-84600000I323750J0D01*
G01*
X103096250Y-84600000D01*
G75*
G02*
X103420000Y-84923750I0J-323750D01*
G01*
X103420000Y-85676250D01*
G75*
G02*
X103096250Y-86000000I-323750J0D01*
G01*
X102448750Y-86000000D01*
G75*
G02*
X102125000Y-85676250I0J323750D01*
G01*
G37*
G36*
G01*
X104060000Y-85676250D02*
X104060000Y-84923750D01*
G75*
G02*
X104383750Y-84600000I323750J0D01*
G01*
X105031250Y-84600000D01*
G75*
G02*
X105355000Y-84923750I0J-323750D01*
G01*
X105355000Y-85676250D01*
G75*
G02*
X105031250Y-86000000I-323750J0D01*
G01*
X104383750Y-86000000D01*
G75*
G02*
X104060000Y-85676250I0J323750D01*
G01*
G37*
D19*
X137640000Y-80760000D03*
X137640000Y-83300000D03*
D20*
X141580000Y-100690000D03*
X139040000Y-100690000D03*
X98210000Y-85925000D03*
X100750000Y-85925000D03*
G36*
G01*
X100373750Y-75880000D02*
X100886250Y-75880000D01*
G75*
G02*
X101105000Y-76098750I0J-218750D01*
G01*
X101105000Y-76536250D01*
G75*
G02*
X100886250Y-76755000I-218750J0D01*
G01*
X100373750Y-76755000D01*
G75*
G02*
X100155000Y-76536250I0J218750D01*
G01*
X100155000Y-76098750D01*
G75*
G02*
X100373750Y-75880000I218750J0D01*
G01*
G37*
G36*
G01*
X100373750Y-74305000D02*
X100886250Y-74305000D01*
G75*
G02*
X101105000Y-74523750I0J-218750D01*
G01*
X101105000Y-74961250D01*
G75*
G02*
X100886250Y-75180000I-218750J0D01*
G01*
X100373750Y-75180000D01*
G75*
G02*
X100155000Y-74961250I0J218750D01*
G01*
X100155000Y-74523750D01*
G75*
G02*
X100373750Y-74305000I218750J0D01*
G01*
G37*
G36*
G01*
X105075000Y-76348750D02*
X105075000Y-76861250D01*
G75*
G02*
X104856250Y-77080000I-218750J0D01*
G01*
X104418750Y-77080000D01*
G75*
G02*
X104200000Y-76861250I0J218750D01*
G01*
X104200000Y-76348750D01*
G75*
G02*
X104418750Y-76130000I218750J0D01*
G01*
X104856250Y-76130000D01*
G75*
G02*
X105075000Y-76348750I0J-218750D01*
G01*
G37*
G36*
G01*
X106650000Y-76348750D02*
X106650000Y-76861250D01*
G75*
G02*
X106431250Y-77080000I-218750J0D01*
G01*
X105993750Y-77080000D01*
G75*
G02*
X105775000Y-76861250I0J218750D01*
G01*
X105775000Y-76348750D01*
G75*
G02*
X105993750Y-76130000I218750J0D01*
G01*
X106431250Y-76130000D01*
G75*
G02*
X106650000Y-76348750I0J-218750D01*
G01*
G37*
G36*
G01*
X143610000Y-78996250D02*
X143610000Y-78483750D01*
G75*
G02*
X143828750Y-78265000I218750J0D01*
G01*
X144266250Y-78265000D01*
G75*
G02*
X144485000Y-78483750I0J-218750D01*
G01*
X144485000Y-78996250D01*
G75*
G02*
X144266250Y-79215000I-218750J0D01*
G01*
X143828750Y-79215000D01*
G75*
G02*
X143610000Y-78996250I0J218750D01*
G01*
G37*
G36*
G01*
X142035000Y-78996250D02*
X142035000Y-78483750D01*
G75*
G02*
X142253750Y-78265000I218750J0D01*
G01*
X142691250Y-78265000D01*
G75*
G02*
X142910000Y-78483750I0J-218750D01*
G01*
X142910000Y-78996250D01*
G75*
G02*
X142691250Y-79215000I-218750J0D01*
G01*
X142253750Y-79215000D01*
G75*
G02*
X142035000Y-78996250I0J218750D01*
G01*
G37*
G36*
G01*
X111283750Y-107990000D02*
X111796250Y-107990000D01*
G75*
G02*
X112015000Y-108208750I0J-218750D01*
G01*
X112015000Y-108646250D01*
G75*
G02*
X111796250Y-108865000I-218750J0D01*
G01*
X111283750Y-108865000D01*
G75*
G02*
X111065000Y-108646250I0J218750D01*
G01*
X111065000Y-108208750D01*
G75*
G02*
X111283750Y-107990000I218750J0D01*
G01*
G37*
G36*
G01*
X111283750Y-106415000D02*
X111796250Y-106415000D01*
G75*
G02*
X112015000Y-106633750I0J-218750D01*
G01*
X112015000Y-107071250D01*
G75*
G02*
X111796250Y-107290000I-218750J0D01*
G01*
X111283750Y-107290000D01*
G75*
G02*
X111065000Y-107071250I0J218750D01*
G01*
X111065000Y-106633750D01*
G75*
G02*
X111283750Y-106415000I218750J0D01*
G01*
G37*
G36*
G01*
X109723750Y-107990000D02*
X110236250Y-107990000D01*
G75*
G02*
X110455000Y-108208750I0J-218750D01*
G01*
X110455000Y-108646250D01*
G75*
G02*
X110236250Y-108865000I-218750J0D01*
G01*
X109723750Y-108865000D01*
G75*
G02*
X109505000Y-108646250I0J218750D01*
G01*
X109505000Y-108208750D01*
G75*
G02*
X109723750Y-107990000I218750J0D01*
G01*
G37*
G36*
G01*
X109723750Y-106415000D02*
X110236250Y-106415000D01*
G75*
G02*
X110455000Y-106633750I0J-218750D01*
G01*
X110455000Y-107071250D01*
G75*
G02*
X110236250Y-107290000I-218750J0D01*
G01*
X109723750Y-107290000D01*
G75*
G02*
X109505000Y-107071250I0J218750D01*
G01*
X109505000Y-106633750D01*
G75*
G02*
X109723750Y-106415000I218750J0D01*
G01*
G37*
D21*
X140150001Y-82285000D03*
X140150001Y-81335000D03*
X140150001Y-80385000D03*
X142750001Y-80385000D03*
X142750001Y-82285000D03*
G36*
G01*
X102143750Y-75850000D02*
X102656250Y-75850000D01*
G75*
G02*
X102875000Y-76068750I0J-218750D01*
G01*
X102875000Y-76506250D01*
G75*
G02*
X102656250Y-76725000I-218750J0D01*
G01*
X102143750Y-76725000D01*
G75*
G02*
X101925000Y-76506250I0J218750D01*
G01*
X101925000Y-76068750D01*
G75*
G02*
X102143750Y-75850000I218750J0D01*
G01*
G37*
G36*
G01*
X102143750Y-74275000D02*
X102656250Y-74275000D01*
G75*
G02*
X102875000Y-74493750I0J-218750D01*
G01*
X102875000Y-74931250D01*
G75*
G02*
X102656250Y-75150000I-218750J0D01*
G01*
X102143750Y-75150000D01*
G75*
G02*
X101925000Y-74931250I0J218750D01*
G01*
X101925000Y-74493750D01*
G75*
G02*
X102143750Y-74275000I218750J0D01*
G01*
G37*
D22*
X140630000Y-103200000D03*
X141580000Y-103200000D03*
X142530000Y-103200000D03*
X142530000Y-105800000D03*
X140630000Y-105800000D03*
X99160000Y-83415000D03*
X98210000Y-83415000D03*
X97260000Y-83415000D03*
X97260000Y-80815000D03*
X99160000Y-80815000D03*
G36*
G01*
X96990000Y-79335000D02*
X96990000Y-78835000D01*
G75*
G02*
X97215000Y-78610000I225000J0D01*
G01*
X97665000Y-78610000D01*
G75*
G02*
X97890000Y-78835000I0J-225000D01*
G01*
X97890000Y-79335000D01*
G75*
G02*
X97665000Y-79560000I-225000J0D01*
G01*
X97215000Y-79560000D01*
G75*
G02*
X96990000Y-79335000I0J225000D01*
G01*
G37*
G36*
G01*
X98540000Y-79335000D02*
X98540000Y-78835000D01*
G75*
G02*
X98765000Y-78610000I225000J0D01*
G01*
X99215000Y-78610000D01*
G75*
G02*
X99440000Y-78835000I0J-225000D01*
G01*
X99440000Y-79335000D01*
G75*
G02*
X99215000Y-79560000I-225000J0D01*
G01*
X98765000Y-79560000D01*
G75*
G02*
X98540000Y-79335000I0J225000D01*
G01*
G37*
G36*
G01*
X137850001Y-107535000D02*
X137850001Y-107195000D01*
G75*
G02*
X137990001Y-107055000I140000J0D01*
G01*
X138270001Y-107055000D01*
G75*
G02*
X138410001Y-107195000I0J-140000D01*
G01*
X138410001Y-107535000D01*
G75*
G02*
X138270001Y-107675000I-140000J0D01*
G01*
X137990001Y-107675000D01*
G75*
G02*
X137850001Y-107535000I0J140000D01*
G01*
G37*
G36*
G01*
X136890001Y-107535000D02*
X136890001Y-107195000D01*
G75*
G02*
X137030001Y-107055000I140000J0D01*
G01*
X137310001Y-107055000D01*
G75*
G02*
X137450001Y-107195000I0J-140000D01*
G01*
X137450001Y-107535000D01*
G75*
G02*
X137310001Y-107675000I-140000J0D01*
G01*
X137030001Y-107675000D01*
G75*
G02*
X136890001Y-107535000I0J140000D01*
G01*
G37*
G36*
G01*
X136500000Y-105239999D02*
X136500000Y-104739999D01*
G75*
G02*
X136725000Y-104514999I225000J0D01*
G01*
X137175000Y-104514999D01*
G75*
G02*
X137400000Y-104739999I0J-225000D01*
G01*
X137400000Y-105239999D01*
G75*
G02*
X137175000Y-105464999I-225000J0D01*
G01*
X136725000Y-105464999D01*
G75*
G02*
X136500000Y-105239999I0J225000D01*
G01*
G37*
G36*
G01*
X138050000Y-105239999D02*
X138050000Y-104739999D01*
G75*
G02*
X138275000Y-104514999I225000J0D01*
G01*
X138725000Y-104514999D01*
G75*
G02*
X138950000Y-104739999I0J-225000D01*
G01*
X138950000Y-105239999D01*
G75*
G02*
X138725000Y-105464999I-225000J0D01*
G01*
X138275000Y-105464999D01*
G75*
G02*
X138050000Y-105239999I0J225000D01*
G01*
G37*
G36*
G01*
X138040000Y-103605000D02*
X138040000Y-103105000D01*
G75*
G02*
X138265000Y-102880000I225000J0D01*
G01*
X138715000Y-102880000D01*
G75*
G02*
X138940000Y-103105000I0J-225000D01*
G01*
X138940000Y-103605000D01*
G75*
G02*
X138715000Y-103830000I-225000J0D01*
G01*
X138265000Y-103830000D01*
G75*
G02*
X138040000Y-103605000I0J225000D01*
G01*
G37*
G36*
G01*
X136490000Y-103605000D02*
X136490000Y-103105000D01*
G75*
G02*
X136715000Y-102880000I225000J0D01*
G01*
X137165000Y-102880000D01*
G75*
G02*
X137390000Y-103105000I0J-225000D01*
G01*
X137390000Y-103605000D01*
G75*
G02*
X137165000Y-103830000I-225000J0D01*
G01*
X136715000Y-103830000D01*
G75*
G02*
X136490000Y-103605000I0J225000D01*
G01*
G37*
G36*
G01*
X142800000Y-107280000D02*
X142800000Y-107780000D01*
G75*
G02*
X142575000Y-108005000I-225000J0D01*
G01*
X142125000Y-108005000D01*
G75*
G02*
X141900000Y-107780000I0J225000D01*
G01*
X141900000Y-107280000D01*
G75*
G02*
X142125000Y-107055000I225000J0D01*
G01*
X142575000Y-107055000D01*
G75*
G02*
X142800000Y-107280000I0J-225000D01*
G01*
G37*
G36*
G01*
X141250000Y-107280000D02*
X141250000Y-107780000D01*
G75*
G02*
X141025000Y-108005000I-225000J0D01*
G01*
X140575000Y-108005000D01*
G75*
G02*
X140350000Y-107780000I0J225000D01*
G01*
X140350000Y-107280000D01*
G75*
G02*
X140575000Y-107055000I225000J0D01*
G01*
X141025000Y-107055000D01*
G75*
G02*
X141250000Y-107280000I0J-225000D01*
G01*
G37*
G36*
G01*
X144484999Y-86025000D02*
X144144999Y-86025000D01*
G75*
G02*
X144004999Y-85885000I0J140000D01*
G01*
X144004999Y-85605000D01*
G75*
G02*
X144144999Y-85465000I140000J0D01*
G01*
X144484999Y-85465000D01*
G75*
G02*
X144624999Y-85605000I0J-140000D01*
G01*
X144624999Y-85885000D01*
G75*
G02*
X144484999Y-86025000I-140000J0D01*
G01*
G37*
G36*
G01*
X144484999Y-85065000D02*
X144144999Y-85065000D01*
G75*
G02*
X144004999Y-84925000I0J140000D01*
G01*
X144004999Y-84645000D01*
G75*
G02*
X144144999Y-84505000I140000J0D01*
G01*
X144484999Y-84505000D01*
G75*
G02*
X144624999Y-84645000I0J-140000D01*
G01*
X144624999Y-84925000D01*
G75*
G02*
X144484999Y-85065000I-140000J0D01*
G01*
G37*
G36*
G01*
X142190001Y-84864999D02*
X141690001Y-84864999D01*
G75*
G02*
X141465001Y-84639999I0J225000D01*
G01*
X141465001Y-84189999D01*
G75*
G02*
X141690001Y-83964999I225000J0D01*
G01*
X142190001Y-83964999D01*
G75*
G02*
X142415001Y-84189999I0J-225000D01*
G01*
X142415001Y-84639999D01*
G75*
G02*
X142190001Y-84864999I-225000J0D01*
G01*
G37*
G36*
G01*
X142190001Y-86414999D02*
X141690001Y-86414999D01*
G75*
G02*
X141465001Y-86189999I0J225000D01*
G01*
X141465001Y-85739999D01*
G75*
G02*
X141690001Y-85514999I225000J0D01*
G01*
X142190001Y-85514999D01*
G75*
G02*
X142415001Y-85739999I0J-225000D01*
G01*
X142415001Y-86189999D01*
G75*
G02*
X142190001Y-86414999I-225000J0D01*
G01*
G37*
G36*
G01*
X140555000Y-86424999D02*
X140055000Y-86424999D01*
G75*
G02*
X139830000Y-86199999I0J225000D01*
G01*
X139830000Y-85749999D01*
G75*
G02*
X140055000Y-85524999I225000J0D01*
G01*
X140555000Y-85524999D01*
G75*
G02*
X140780000Y-85749999I0J-225000D01*
G01*
X140780000Y-86199999D01*
G75*
G02*
X140555000Y-86424999I-225000J0D01*
G01*
G37*
G36*
G01*
X140555000Y-84874999D02*
X140055000Y-84874999D01*
G75*
G02*
X139830000Y-84649999I0J225000D01*
G01*
X139830000Y-84199999D01*
G75*
G02*
X140055000Y-83974999I225000J0D01*
G01*
X140555000Y-83974999D01*
G75*
G02*
X140780000Y-84199999I0J-225000D01*
G01*
X140780000Y-84649999D01*
G75*
G02*
X140555000Y-84874999I-225000J0D01*
G01*
G37*
G36*
G01*
X144230001Y-80115000D02*
X144730001Y-80115000D01*
G75*
G02*
X144955001Y-80340000I0J-225000D01*
G01*
X144955001Y-80790000D01*
G75*
G02*
X144730001Y-81015000I-225000J0D01*
G01*
X144230001Y-81015000D01*
G75*
G02*
X144005001Y-80790000I0J225000D01*
G01*
X144005001Y-80340000D01*
G75*
G02*
X144230001Y-80115000I225000J0D01*
G01*
G37*
G36*
G01*
X144230001Y-81665000D02*
X144730001Y-81665000D01*
G75*
G02*
X144955001Y-81890000I0J-225000D01*
G01*
X144955001Y-82340000D01*
G75*
G02*
X144730001Y-82565000I-225000J0D01*
G01*
X144230001Y-82565000D01*
G75*
G02*
X144005001Y-82340000I0J225000D01*
G01*
X144005001Y-81890000D01*
G75*
G02*
X144230001Y-81665000I225000J0D01*
G01*
G37*
G36*
G01*
X102900000Y-79080000D02*
X102900000Y-79420000D01*
G75*
G02*
X102760000Y-79560000I-140000J0D01*
G01*
X102480000Y-79560000D01*
G75*
G02*
X102340000Y-79420000I0J140000D01*
G01*
X102340000Y-79080000D01*
G75*
G02*
X102480000Y-78940000I140000J0D01*
G01*
X102760000Y-78940000D01*
G75*
G02*
X102900000Y-79080000I0J-140000D01*
G01*
G37*
G36*
G01*
X101940000Y-79080000D02*
X101940000Y-79420000D01*
G75*
G02*
X101800000Y-79560000I-140000J0D01*
G01*
X101520000Y-79560000D01*
G75*
G02*
X101380000Y-79420000I0J140000D01*
G01*
X101380000Y-79080000D01*
G75*
G02*
X101520000Y-78940000I140000J0D01*
G01*
X101800000Y-78940000D01*
G75*
G02*
X101940000Y-79080000I0J-140000D01*
G01*
G37*
G36*
G01*
X101740000Y-81375000D02*
X101740000Y-81875000D01*
G75*
G02*
X101515000Y-82100000I-225000J0D01*
G01*
X101065000Y-82100000D01*
G75*
G02*
X100840000Y-81875000I0J225000D01*
G01*
X100840000Y-81375000D01*
G75*
G02*
X101065000Y-81150000I225000J0D01*
G01*
X101515000Y-81150000D01*
G75*
G02*
X101740000Y-81375000I0J-225000D01*
G01*
G37*
G36*
G01*
X103290000Y-81375000D02*
X103290000Y-81875000D01*
G75*
G02*
X103065000Y-82100000I-225000J0D01*
G01*
X102615000Y-82100000D01*
G75*
G02*
X102390000Y-81875000I0J225000D01*
G01*
X102390000Y-81375000D01*
G75*
G02*
X102615000Y-81150000I225000J0D01*
G01*
X103065000Y-81150000D01*
G75*
G02*
X103290000Y-81375000I0J-225000D01*
G01*
G37*
G36*
G01*
X103300000Y-83010000D02*
X103300000Y-83510000D01*
G75*
G02*
X103075000Y-83735000I-225000J0D01*
G01*
X102625000Y-83735000D01*
G75*
G02*
X102400000Y-83510000I0J225000D01*
G01*
X102400000Y-83010000D01*
G75*
G02*
X102625000Y-82785000I225000J0D01*
G01*
X103075000Y-82785000D01*
G75*
G02*
X103300000Y-83010000I0J-225000D01*
G01*
G37*
G36*
G01*
X101750000Y-83010000D02*
X101750000Y-83510000D01*
G75*
G02*
X101525000Y-83735000I-225000J0D01*
G01*
X101075000Y-83735000D01*
G75*
G02*
X100850000Y-83510000I0J225000D01*
G01*
X100850000Y-83010000D01*
G75*
G02*
X101075000Y-82785000I225000J0D01*
G01*
X101525000Y-82785000D01*
G75*
G02*
X101750000Y-83010000I0J-225000D01*
G01*
G37*
G36*
G01*
X132965000Y-104000000D02*
X132965000Y-103500000D01*
G75*
G02*
X133190000Y-103275000I225000J0D01*
G01*
X133640000Y-103275000D01*
G75*
G02*
X133865000Y-103500000I0J-225000D01*
G01*
X133865000Y-104000000D01*
G75*
G02*
X133640000Y-104225000I-225000J0D01*
G01*
X133190000Y-104225000D01*
G75*
G02*
X132965000Y-104000000I0J225000D01*
G01*
G37*
G36*
G01*
X131415000Y-104000000D02*
X131415000Y-103500000D01*
G75*
G02*
X131640000Y-103275000I225000J0D01*
G01*
X132090000Y-103275000D01*
G75*
G02*
X132315000Y-103500000I0J-225000D01*
G01*
X132315000Y-104000000D01*
G75*
G02*
X132090000Y-104225000I-225000J0D01*
G01*
X131640000Y-104225000D01*
G75*
G02*
X131415000Y-104000000I0J225000D01*
G01*
G37*
G36*
G01*
X116980000Y-98395000D02*
X117480000Y-98395000D01*
G75*
G02*
X117705000Y-98620000I0J-225000D01*
G01*
X117705000Y-99070000D01*
G75*
G02*
X117480000Y-99295000I-225000J0D01*
G01*
X116980000Y-99295000D01*
G75*
G02*
X116755000Y-99070000I0J225000D01*
G01*
X116755000Y-98620000D01*
G75*
G02*
X116980000Y-98395000I225000J0D01*
G01*
G37*
G36*
G01*
X116980000Y-96845000D02*
X117480000Y-96845000D01*
G75*
G02*
X117705000Y-97070000I0J-225000D01*
G01*
X117705000Y-97520000D01*
G75*
G02*
X117480000Y-97745000I-225000J0D01*
G01*
X116980000Y-97745000D01*
G75*
G02*
X116755000Y-97520000I0J225000D01*
G01*
X116755000Y-97070000D01*
G75*
G02*
X116980000Y-96845000I225000J0D01*
G01*
G37*
G36*
G01*
X117480000Y-89095000D02*
X116980000Y-89095000D01*
G75*
G02*
X116755000Y-88870000I0J225000D01*
G01*
X116755000Y-88420000D01*
G75*
G02*
X116980000Y-88195000I225000J0D01*
G01*
X117480000Y-88195000D01*
G75*
G02*
X117705000Y-88420000I0J-225000D01*
G01*
X117705000Y-88870000D01*
G75*
G02*
X117480000Y-89095000I-225000J0D01*
G01*
G37*
G36*
G01*
X117480000Y-87545000D02*
X116980000Y-87545000D01*
G75*
G02*
X116755000Y-87320000I0J225000D01*
G01*
X116755000Y-86870000D01*
G75*
G02*
X116980000Y-86645000I225000J0D01*
G01*
X117480000Y-86645000D01*
G75*
G02*
X117705000Y-86870000I0J-225000D01*
G01*
X117705000Y-87320000D01*
G75*
G02*
X117480000Y-87545000I-225000J0D01*
G01*
G37*
G36*
G01*
X116980000Y-93395000D02*
X117480000Y-93395000D01*
G75*
G02*
X117705000Y-93620000I0J-225000D01*
G01*
X117705000Y-94070000D01*
G75*
G02*
X117480000Y-94295000I-225000J0D01*
G01*
X116980000Y-94295000D01*
G75*
G02*
X116755000Y-94070000I0J225000D01*
G01*
X116755000Y-93620000D01*
G75*
G02*
X116980000Y-93395000I225000J0D01*
G01*
G37*
G36*
G01*
X116980000Y-91845000D02*
X117480000Y-91845000D01*
G75*
G02*
X117705000Y-92070000I0J-225000D01*
G01*
X117705000Y-92520000D01*
G75*
G02*
X117480000Y-92745000I-225000J0D01*
G01*
X116980000Y-92745000D01*
G75*
G02*
X116755000Y-92520000I0J225000D01*
G01*
X116755000Y-92070000D01*
G75*
G02*
X116980000Y-91845000I225000J0D01*
G01*
G37*
G36*
G01*
X138633999Y-98498000D02*
X138633999Y-97998000D01*
G75*
G02*
X138858999Y-97773000I225000J0D01*
G01*
X139308999Y-97773000D01*
G75*
G02*
X139533999Y-97998000I0J-225000D01*
G01*
X139533999Y-98498000D01*
G75*
G02*
X139308999Y-98723000I-225000J0D01*
G01*
X138858999Y-98723000D01*
G75*
G02*
X138633999Y-98498000I0J225000D01*
G01*
G37*
G36*
G01*
X140183999Y-98498000D02*
X140183999Y-97998000D01*
G75*
G02*
X140408999Y-97773000I225000J0D01*
G01*
X140858999Y-97773000D01*
G75*
G02*
X141083999Y-97998000I0J-225000D01*
G01*
X141083999Y-98498000D01*
G75*
G02*
X140858999Y-98723000I-225000J0D01*
G01*
X140408999Y-98723000D01*
G75*
G02*
X140183999Y-98498000I0J225000D01*
G01*
G37*
G36*
G01*
X99606000Y-88117000D02*
X99606000Y-88617000D01*
G75*
G02*
X99381000Y-88842000I-225000J0D01*
G01*
X98931000Y-88842000D01*
G75*
G02*
X98706000Y-88617000I0J225000D01*
G01*
X98706000Y-88117000D01*
G75*
G02*
X98931000Y-87892000I225000J0D01*
G01*
X99381000Y-87892000D01*
G75*
G02*
X99606000Y-88117000I0J-225000D01*
G01*
G37*
G36*
G01*
X101156000Y-88117000D02*
X101156000Y-88617000D01*
G75*
G02*
X100931000Y-88842000I-225000J0D01*
G01*
X100481000Y-88842000D01*
G75*
G02*
X100256000Y-88617000I0J225000D01*
G01*
X100256000Y-88117000D01*
G75*
G02*
X100481000Y-87892000I225000J0D01*
G01*
X100931000Y-87892000D01*
G75*
G02*
X101156000Y-88117000I0J-225000D01*
G01*
G37*
G36*
G01*
X135490000Y-82315000D02*
X134990000Y-82315000D01*
G75*
G02*
X134765000Y-82090000I0J225000D01*
G01*
X134765000Y-81640000D01*
G75*
G02*
X134990000Y-81415000I225000J0D01*
G01*
X135490000Y-81415000D01*
G75*
G02*
X135715000Y-81640000I0J-225000D01*
G01*
X135715000Y-82090000D01*
G75*
G02*
X135490000Y-82315000I-225000J0D01*
G01*
G37*
G36*
G01*
X135490000Y-83865000D02*
X134990000Y-83865000D01*
G75*
G02*
X134765000Y-83640000I0J225000D01*
G01*
X134765000Y-83190000D01*
G75*
G02*
X134990000Y-82965000I225000J0D01*
G01*
X135490000Y-82965000D01*
G75*
G02*
X135715000Y-83190000I0J-225000D01*
G01*
X135715000Y-83640000D01*
G75*
G02*
X135490000Y-83865000I-225000J0D01*
G01*
G37*
G36*
G01*
X119460000Y-92870000D02*
X119800000Y-92870000D01*
G75*
G02*
X119940000Y-93010000I0J-140000D01*
G01*
X119940000Y-93290000D01*
G75*
G02*
X119800000Y-93430000I-140000J0D01*
G01*
X119460000Y-93430000D01*
G75*
G02*
X119320000Y-93290000I0J140000D01*
G01*
X119320000Y-93010000D01*
G75*
G02*
X119460000Y-92870000I140000J0D01*
G01*
G37*
G36*
G01*
X119460000Y-91910000D02*
X119800000Y-91910000D01*
G75*
G02*
X119940000Y-92050000I0J-140000D01*
G01*
X119940000Y-92330000D01*
G75*
G02*
X119800000Y-92470000I-140000J0D01*
G01*
X119460000Y-92470000D01*
G75*
G02*
X119320000Y-92330000I0J140000D01*
G01*
X119320000Y-92050000D01*
G75*
G02*
X119460000Y-91910000I140000J0D01*
G01*
G37*
G36*
G01*
X114660000Y-92870000D02*
X115000000Y-92870000D01*
G75*
G02*
X115140000Y-93010000I0J-140000D01*
G01*
X115140000Y-93290000D01*
G75*
G02*
X115000000Y-93430000I-140000J0D01*
G01*
X114660000Y-93430000D01*
G75*
G02*
X114520000Y-93290000I0J140000D01*
G01*
X114520000Y-93010000D01*
G75*
G02*
X114660000Y-92870000I140000J0D01*
G01*
G37*
G36*
G01*
X114660000Y-91910000D02*
X115000000Y-91910000D01*
G75*
G02*
X115140000Y-92050000I0J-140000D01*
G01*
X115140000Y-92330000D01*
G75*
G02*
X115000000Y-92470000I-140000J0D01*
G01*
X114660000Y-92470000D01*
G75*
G02*
X114520000Y-92330000I0J140000D01*
G01*
X114520000Y-92050000D01*
G75*
G02*
X114660000Y-91910000I140000J0D01*
G01*
G37*
G36*
G01*
X115460001Y-96910000D02*
X115800001Y-96910000D01*
G75*
G02*
X115940001Y-97050000I0J-140000D01*
G01*
X115940001Y-97330000D01*
G75*
G02*
X115800001Y-97470000I-140000J0D01*
G01*
X115460001Y-97470000D01*
G75*
G02*
X115320001Y-97330000I0J140000D01*
G01*
X115320001Y-97050000D01*
G75*
G02*
X115460001Y-96910000I140000J0D01*
G01*
G37*
G36*
G01*
X115460001Y-97870000D02*
X115800001Y-97870000D01*
G75*
G02*
X115940001Y-98010000I0J-140000D01*
G01*
X115940001Y-98290000D01*
G75*
G02*
X115800001Y-98430000I-140000J0D01*
G01*
X115460001Y-98430000D01*
G75*
G02*
X115320001Y-98290000I0J140000D01*
G01*
X115320001Y-98010000D01*
G75*
G02*
X115460001Y-97870000I140000J0D01*
G01*
G37*
G36*
G01*
X118660000Y-97870000D02*
X119000000Y-97870000D01*
G75*
G02*
X119140000Y-98010000I0J-140000D01*
G01*
X119140000Y-98290000D01*
G75*
G02*
X119000000Y-98430000I-140000J0D01*
G01*
X118660000Y-98430000D01*
G75*
G02*
X118520000Y-98290000I0J140000D01*
G01*
X118520000Y-98010000D01*
G75*
G02*
X118660000Y-97870000I140000J0D01*
G01*
G37*
G36*
G01*
X118660000Y-96910000D02*
X119000000Y-96910000D01*
G75*
G02*
X119140000Y-97050000I0J-140000D01*
G01*
X119140000Y-97330000D01*
G75*
G02*
X119000000Y-97470000I-140000J0D01*
G01*
X118660000Y-97470000D01*
G75*
G02*
X118520000Y-97330000I0J140000D01*
G01*
X118520000Y-97050000D01*
G75*
G02*
X118660000Y-96910000I140000J0D01*
G01*
G37*
G36*
G01*
X120560000Y-96810000D02*
X120900000Y-96810000D01*
G75*
G02*
X121040000Y-96950000I0J-140000D01*
G01*
X121040000Y-97230000D01*
G75*
G02*
X120900000Y-97370000I-140000J0D01*
G01*
X120560000Y-97370000D01*
G75*
G02*
X120420000Y-97230000I0J140000D01*
G01*
X120420000Y-96950000D01*
G75*
G02*
X120560000Y-96810000I140000J0D01*
G01*
G37*
G36*
G01*
X120560000Y-97770000D02*
X120900000Y-97770000D01*
G75*
G02*
X121040000Y-97910000I0J-140000D01*
G01*
X121040000Y-98190000D01*
G75*
G02*
X120900000Y-98330000I-140000J0D01*
G01*
X120560000Y-98330000D01*
G75*
G02*
X120420000Y-98190000I0J140000D01*
G01*
X120420000Y-97910000D01*
G75*
G02*
X120560000Y-97770000I140000J0D01*
G01*
G37*
G36*
G01*
X113460000Y-97670001D02*
X113800000Y-97670001D01*
G75*
G02*
X113940000Y-97810001I0J-140000D01*
G01*
X113940000Y-98090001D01*
G75*
G02*
X113800000Y-98230001I-140000J0D01*
G01*
X113460000Y-98230001D01*
G75*
G02*
X113320000Y-98090001I0J140000D01*
G01*
X113320000Y-97810001D01*
G75*
G02*
X113460000Y-97670001I140000J0D01*
G01*
G37*
G36*
G01*
X113460000Y-96710001D02*
X113800000Y-96710001D01*
G75*
G02*
X113940000Y-96850001I0J-140000D01*
G01*
X113940000Y-97130001D01*
G75*
G02*
X113800000Y-97270001I-140000J0D01*
G01*
X113460000Y-97270001D01*
G75*
G02*
X113320000Y-97130001I0J140000D01*
G01*
X113320000Y-96850001D01*
G75*
G02*
X113460000Y-96710001I140000J0D01*
G01*
G37*
G36*
G01*
X115030000Y-95040000D02*
X115030000Y-94700000D01*
G75*
G02*
X115170000Y-94560000I140000J0D01*
G01*
X115450000Y-94560000D01*
G75*
G02*
X115590000Y-94700000I0J-140000D01*
G01*
X115590000Y-95040000D01*
G75*
G02*
X115450000Y-95180000I-140000J0D01*
G01*
X115170000Y-95180000D01*
G75*
G02*
X115030000Y-95040000I0J140000D01*
G01*
G37*
G36*
G01*
X114070000Y-95040000D02*
X114070000Y-94700000D01*
G75*
G02*
X114210000Y-94560000I140000J0D01*
G01*
X114490000Y-94560000D01*
G75*
G02*
X114630000Y-94700000I0J-140000D01*
G01*
X114630000Y-95040000D01*
G75*
G02*
X114490000Y-95180000I-140000J0D01*
G01*
X114210000Y-95180000D01*
G75*
G02*
X114070000Y-95040000I0J140000D01*
G01*
G37*
G36*
G01*
X120390000Y-94700000D02*
X120390000Y-95040000D01*
G75*
G02*
X120250000Y-95180000I-140000J0D01*
G01*
X119970000Y-95180000D01*
G75*
G02*
X119830000Y-95040000I0J140000D01*
G01*
X119830000Y-94700000D01*
G75*
G02*
X119970000Y-94560000I140000J0D01*
G01*
X120250000Y-94560000D01*
G75*
G02*
X120390000Y-94700000I0J-140000D01*
G01*
G37*
G36*
G01*
X119430000Y-94700000D02*
X119430000Y-95040000D01*
G75*
G02*
X119290000Y-95180000I-140000J0D01*
G01*
X119010000Y-95180000D01*
G75*
G02*
X118870000Y-95040000I0J140000D01*
G01*
X118870000Y-94700000D01*
G75*
G02*
X119010000Y-94560000I140000J0D01*
G01*
X119290000Y-94560000D01*
G75*
G02*
X119430000Y-94700000I0J-140000D01*
G01*
G37*
G36*
G01*
X110890000Y-73470000D02*
X110890000Y-73130000D01*
G75*
G02*
X111030000Y-72990000I140000J0D01*
G01*
X111310000Y-72990000D01*
G75*
G02*
X111450000Y-73130000I0J-140000D01*
G01*
X111450000Y-73470000D01*
G75*
G02*
X111310000Y-73610000I-140000J0D01*
G01*
X111030000Y-73610000D01*
G75*
G02*
X110890000Y-73470000I0J140000D01*
G01*
G37*
G36*
G01*
X109930000Y-73470000D02*
X109930000Y-73130000D01*
G75*
G02*
X110070000Y-72990000I140000J0D01*
G01*
X110350000Y-72990000D01*
G75*
G02*
X110490000Y-73130000I0J-140000D01*
G01*
X110490000Y-73470000D01*
G75*
G02*
X110350000Y-73610000I-140000J0D01*
G01*
X110070000Y-73610000D01*
G75*
G02*
X109930000Y-73470000I0J140000D01*
G01*
G37*
G36*
G01*
X101360000Y-105000000D02*
X101360000Y-105340000D01*
G75*
G02*
X101220000Y-105480000I-140000J0D01*
G01*
X100940000Y-105480000D01*
G75*
G02*
X100800000Y-105340000I0J140000D01*
G01*
X100800000Y-105000000D01*
G75*
G02*
X100940000Y-104860000I140000J0D01*
G01*
X101220000Y-104860000D01*
G75*
G02*
X101360000Y-105000000I0J-140000D01*
G01*
G37*
G36*
G01*
X100400000Y-105000000D02*
X100400000Y-105340000D01*
G75*
G02*
X100260000Y-105480000I-140000J0D01*
G01*
X99980000Y-105480000D01*
G75*
G02*
X99840000Y-105340000I0J140000D01*
G01*
X99840000Y-105000000D01*
G75*
G02*
X99980000Y-104860000I140000J0D01*
G01*
X100260000Y-104860000D01*
G75*
G02*
X100400000Y-105000000I0J-140000D01*
G01*
G37*
G36*
G01*
X105105000Y-74830000D02*
X105105000Y-75330000D01*
G75*
G02*
X104880000Y-75555000I-225000J0D01*
G01*
X104430000Y-75555000D01*
G75*
G02*
X104205000Y-75330000I0J225000D01*
G01*
X104205000Y-74830000D01*
G75*
G02*
X104430000Y-74605000I225000J0D01*
G01*
X104880000Y-74605000D01*
G75*
G02*
X105105000Y-74830000I0J-225000D01*
G01*
G37*
G36*
G01*
X106655000Y-74830000D02*
X106655000Y-75330000D01*
G75*
G02*
X106430000Y-75555000I-225000J0D01*
G01*
X105980000Y-75555000D01*
G75*
G02*
X105755000Y-75330000I0J225000D01*
G01*
X105755000Y-74830000D01*
G75*
G02*
X105980000Y-74605000I225000J0D01*
G01*
X106430000Y-74605000D01*
G75*
G02*
X106655000Y-74830000I0J-225000D01*
G01*
G37*
D16*
X114358000Y-76500000D03*
X114358000Y-73790000D03*
X114758000Y-76500000D03*
X114758000Y-73790000D03*
X115158000Y-76500000D03*
X115158000Y-73790000D03*
X115558000Y-76500000D03*
X115558000Y-73790000D03*
X115958000Y-76500000D03*
X115958000Y-73790000D03*
X116358000Y-76500000D03*
X116358000Y-73790000D03*
X116758000Y-76500000D03*
X116758000Y-73790000D03*
X117158000Y-76500000D03*
X117158000Y-73790000D03*
X117558000Y-76500000D03*
X117558000Y-73790000D03*
X117958000Y-76500000D03*
X117958000Y-73790000D03*
D17*
X113883000Y-73790000D03*
X113883000Y-76500000D03*
X134433000Y-73790000D03*
X134433000Y-76500000D03*
D16*
X118358000Y-76500000D03*
X118358000Y-73790000D03*
X118758000Y-76500000D03*
X118758000Y-73790000D03*
X119158000Y-76500000D03*
X119158000Y-73790000D03*
X119558000Y-76500000D03*
X119558000Y-73790000D03*
X119958000Y-76500000D03*
X119958000Y-73790000D03*
X120358000Y-76500000D03*
X120358000Y-73790000D03*
X120758000Y-76500000D03*
X120758000Y-73790000D03*
X121158000Y-76500000D03*
X121158000Y-73790000D03*
X121558000Y-76500000D03*
X121558000Y-73790000D03*
X121958000Y-76500000D03*
X121958000Y-73790000D03*
X122358000Y-76500000D03*
X122358000Y-73790000D03*
X122758000Y-76500000D03*
X122758000Y-73790000D03*
X123158000Y-76500000D03*
X123158000Y-73790000D03*
X123558000Y-76500000D03*
X123558000Y-73790000D03*
X123958000Y-76500000D03*
X123958000Y-73790000D03*
X124358000Y-76500000D03*
X124358000Y-73790000D03*
X124758000Y-76500000D03*
X124758000Y-73790000D03*
X125158000Y-76500000D03*
X125158000Y-73790000D03*
X125558000Y-76500000D03*
X125558000Y-73790000D03*
X125958000Y-76500000D03*
X125958000Y-73790000D03*
X126358000Y-76500000D03*
X126358000Y-73790000D03*
X126758000Y-76500000D03*
X126758000Y-73790000D03*
X127158000Y-76500000D03*
X127158000Y-73790000D03*
X127558000Y-76500000D03*
X127558000Y-73790000D03*
X127958000Y-76500000D03*
X127958000Y-73790000D03*
X128358000Y-76500000D03*
X128358000Y-73790000D03*
X128758000Y-76500000D03*
X128758000Y-73790000D03*
X129158000Y-76500000D03*
X129158000Y-73790000D03*
X129558000Y-76500000D03*
X129558000Y-73790000D03*
X129958000Y-76500000D03*
X129958000Y-73790000D03*
X130358000Y-76500000D03*
X130358000Y-73790000D03*
X130758000Y-76500000D03*
X130758000Y-73790000D03*
X131158000Y-76500000D03*
X131158000Y-73790000D03*
X131558000Y-76500000D03*
X131558000Y-73790000D03*
X131958000Y-76500000D03*
X131958000Y-73790000D03*
X132358000Y-76500000D03*
X132358000Y-73790000D03*
X132758000Y-76500000D03*
X132758000Y-73790000D03*
X133158000Y-76500000D03*
X133158000Y-73790000D03*
X133558000Y-76500000D03*
X133558000Y-73790000D03*
X133958000Y-76500000D03*
X133958000Y-73790000D03*
D23*
X107540000Y-76030001D03*
X109640000Y-76030001D03*
X107540002Y-78000000D03*
X109640002Y-78000000D03*
D24*
X110230000Y-81660000D03*
X110230000Y-79560000D03*
X108250000Y-81640000D03*
X108250000Y-79540000D03*
G36*
G01*
X112030000Y-76225000D02*
X112030000Y-76595000D01*
G75*
G02*
X111895000Y-76730000I-135000J0D01*
G01*
X111625000Y-76730000D01*
G75*
G02*
X111490000Y-76595000I0J135000D01*
G01*
X111490000Y-76225000D01*
G75*
G02*
X111625000Y-76090000I135000J0D01*
G01*
X111895000Y-76090000D01*
G75*
G02*
X112030000Y-76225000I0J-135000D01*
G01*
G37*
G36*
G01*
X111010000Y-76225000D02*
X111010000Y-76595000D01*
G75*
G02*
X110875000Y-76730000I-135000J0D01*
G01*
X110605000Y-76730000D01*
G75*
G02*
X110470000Y-76595000I0J135000D01*
G01*
X110470000Y-76225000D01*
G75*
G02*
X110605000Y-76090000I135000J0D01*
G01*
X110875000Y-76090000D01*
G75*
G02*
X111010000Y-76225000I0J-135000D01*
G01*
G37*
G36*
G01*
X111000000Y-75215000D02*
X111000000Y-75585000D01*
G75*
G02*
X110865000Y-75720000I-135000J0D01*
G01*
X110595000Y-75720000D01*
G75*
G02*
X110460000Y-75585000I0J135000D01*
G01*
X110460000Y-75215000D01*
G75*
G02*
X110595000Y-75080000I135000J0D01*
G01*
X110865000Y-75080000D01*
G75*
G02*
X111000000Y-75215000I0J-135000D01*
G01*
G37*
G36*
G01*
X112020000Y-75215000D02*
X112020000Y-75585000D01*
G75*
G02*
X111885000Y-75720000I-135000J0D01*
G01*
X111615000Y-75720000D01*
G75*
G02*
X111480000Y-75585000I0J135000D01*
G01*
X111480000Y-75215000D01*
G75*
G02*
X111615000Y-75080000I135000J0D01*
G01*
X111885000Y-75080000D01*
G75*
G02*
X112020000Y-75215000I0J-135000D01*
G01*
G37*
G36*
G01*
X110020000Y-74324999D02*
X110020000Y-74694999D01*
G75*
G02*
X109885000Y-74829999I-135000J0D01*
G01*
X109615000Y-74829999D01*
G75*
G02*
X109480000Y-74694999I0J135000D01*
G01*
X109480000Y-74324999D01*
G75*
G02*
X109615000Y-74189999I135000J0D01*
G01*
X109885000Y-74189999D01*
G75*
G02*
X110020000Y-74324999I0J-135000D01*
G01*
G37*
G36*
G01*
X109000000Y-74324999D02*
X109000000Y-74694999D01*
G75*
G02*
X108865000Y-74829999I-135000J0D01*
G01*
X108595000Y-74829999D01*
G75*
G02*
X108460000Y-74694999I0J135000D01*
G01*
X108460000Y-74324999D01*
G75*
G02*
X108595000Y-74189999I135000J0D01*
G01*
X108865000Y-74189999D01*
G75*
G02*
X109000000Y-74324999I0J-135000D01*
G01*
G37*
G36*
G01*
X111500000Y-77635000D02*
X111500000Y-77265000D01*
G75*
G02*
X111635000Y-77130000I135000J0D01*
G01*
X111905000Y-77130000D01*
G75*
G02*
X112040000Y-77265000I0J-135000D01*
G01*
X112040000Y-77635000D01*
G75*
G02*
X111905000Y-77770000I-135000J0D01*
G01*
X111635000Y-77770000D01*
G75*
G02*
X111500000Y-77635000I0J135000D01*
G01*
G37*
G36*
G01*
X110480000Y-77635000D02*
X110480000Y-77265000D01*
G75*
G02*
X110615000Y-77130000I135000J0D01*
G01*
X110885000Y-77130000D01*
G75*
G02*
X111020000Y-77265000I0J-135000D01*
G01*
X111020000Y-77635000D01*
G75*
G02*
X110885000Y-77770000I-135000J0D01*
G01*
X110615000Y-77770000D01*
G75*
G02*
X110480000Y-77635000I0J135000D01*
G01*
G37*
G36*
G01*
X111935000Y-79720001D02*
X111565000Y-79720001D01*
G75*
G02*
X111430000Y-79585001I0J135000D01*
G01*
X111430000Y-79315001D01*
G75*
G02*
X111565000Y-79180001I135000J0D01*
G01*
X111935000Y-79180001D01*
G75*
G02*
X112070000Y-79315001I0J-135000D01*
G01*
X112070000Y-79585001D01*
G75*
G02*
X111935000Y-79720001I-135000J0D01*
G01*
G37*
G36*
G01*
X111935000Y-80740001D02*
X111565000Y-80740001D01*
G75*
G02*
X111430000Y-80605001I0J135000D01*
G01*
X111430000Y-80335001D01*
G75*
G02*
X111565000Y-80200001I135000J0D01*
G01*
X111935000Y-80200001D01*
G75*
G02*
X112070000Y-80335001I0J-135000D01*
G01*
X112070000Y-80605001D01*
G75*
G02*
X111935000Y-80740001I-135000J0D01*
G01*
G37*
G36*
G01*
X110475001Y-78649999D02*
X110475001Y-78279999D01*
G75*
G02*
X110610001Y-78144999I135000J0D01*
G01*
X110880001Y-78144999D01*
G75*
G02*
X111015001Y-78279999I0J-135000D01*
G01*
X111015001Y-78649999D01*
G75*
G02*
X110880001Y-78784999I-135000J0D01*
G01*
X110610001Y-78784999D01*
G75*
G02*
X110475001Y-78649999I0J135000D01*
G01*
G37*
G36*
G01*
X111495001Y-78649999D02*
X111495001Y-78279999D01*
G75*
G02*
X111630001Y-78144999I135000J0D01*
G01*
X111900001Y-78144999D01*
G75*
G02*
X112035001Y-78279999I0J-135000D01*
G01*
X112035001Y-78649999D01*
G75*
G02*
X111900001Y-78784999I-135000J0D01*
G01*
X111630001Y-78784999D01*
G75*
G02*
X111495001Y-78649999I0J135000D01*
G01*
G37*
G36*
G01*
X125155000Y-80140000D02*
X124785000Y-80140000D01*
G75*
G02*
X124650000Y-80005000I0J135000D01*
G01*
X124650000Y-79735000D01*
G75*
G02*
X124785000Y-79600000I135000J0D01*
G01*
X125155000Y-79600000D01*
G75*
G02*
X125290000Y-79735000I0J-135000D01*
G01*
X125290000Y-80005000D01*
G75*
G02*
X125155000Y-80140000I-135000J0D01*
G01*
G37*
G36*
G01*
X125155000Y-79120000D02*
X124785000Y-79120000D01*
G75*
G02*
X124650000Y-78985000I0J135000D01*
G01*
X124650000Y-78715000D01*
G75*
G02*
X124785000Y-78580000I135000J0D01*
G01*
X125155000Y-78580000D01*
G75*
G02*
X125290000Y-78715000I0J-135000D01*
G01*
X125290000Y-78985000D01*
G75*
G02*
X125155000Y-79120000I-135000J0D01*
G01*
G37*
G36*
G01*
X126155000Y-80140000D02*
X125785000Y-80140000D01*
G75*
G02*
X125650000Y-80005000I0J135000D01*
G01*
X125650000Y-79735000D01*
G75*
G02*
X125785000Y-79600000I135000J0D01*
G01*
X126155000Y-79600000D01*
G75*
G02*
X126290000Y-79735000I0J-135000D01*
G01*
X126290000Y-80005000D01*
G75*
G02*
X126155000Y-80140000I-135000J0D01*
G01*
G37*
G36*
G01*
X126155000Y-79120000D02*
X125785000Y-79120000D01*
G75*
G02*
X125650000Y-78985000I0J135000D01*
G01*
X125650000Y-78715000D01*
G75*
G02*
X125785000Y-78580000I135000J0D01*
G01*
X126155000Y-78580000D01*
G75*
G02*
X126290000Y-78715000I0J-135000D01*
G01*
X126290000Y-78985000D01*
G75*
G02*
X126155000Y-79120000I-135000J0D01*
G01*
G37*
G36*
G01*
X123155000Y-80150000D02*
X122785000Y-80150000D01*
G75*
G02*
X122650000Y-80015000I0J135000D01*
G01*
X122650000Y-79745000D01*
G75*
G02*
X122785000Y-79610000I135000J0D01*
G01*
X123155000Y-79610000D01*
G75*
G02*
X123290000Y-79745000I0J-135000D01*
G01*
X123290000Y-80015000D01*
G75*
G02*
X123155000Y-80150000I-135000J0D01*
G01*
G37*
G36*
G01*
X123155000Y-79130000D02*
X122785000Y-79130000D01*
G75*
G02*
X122650000Y-78995000I0J135000D01*
G01*
X122650000Y-78725000D01*
G75*
G02*
X122785000Y-78590000I135000J0D01*
G01*
X123155000Y-78590000D01*
G75*
G02*
X123290000Y-78725000I0J-135000D01*
G01*
X123290000Y-78995000D01*
G75*
G02*
X123155000Y-79130000I-135000J0D01*
G01*
G37*
G36*
G01*
X122155000Y-79131370D02*
X121785000Y-79131370D01*
G75*
G02*
X121650000Y-78996370I0J135000D01*
G01*
X121650000Y-78726370D01*
G75*
G02*
X121785000Y-78591370I135000J0D01*
G01*
X122155000Y-78591370D01*
G75*
G02*
X122290000Y-78726370I0J-135000D01*
G01*
X122290000Y-78996370D01*
G75*
G02*
X122155000Y-79131370I-135000J0D01*
G01*
G37*
G36*
G01*
X122155000Y-80151370D02*
X121785000Y-80151370D01*
G75*
G02*
X121650000Y-80016370I0J135000D01*
G01*
X121650000Y-79746370D01*
G75*
G02*
X121785000Y-79611370I135000J0D01*
G01*
X122155000Y-79611370D01*
G75*
G02*
X122290000Y-79746370I0J-135000D01*
G01*
X122290000Y-80016370D01*
G75*
G02*
X122155000Y-80151370I-135000J0D01*
G01*
G37*
G36*
G01*
X124155000Y-80150000D02*
X123785000Y-80150000D01*
G75*
G02*
X123650000Y-80015000I0J135000D01*
G01*
X123650000Y-79745000D01*
G75*
G02*
X123785000Y-79610000I135000J0D01*
G01*
X124155000Y-79610000D01*
G75*
G02*
X124290000Y-79745000I0J-135000D01*
G01*
X124290000Y-80015000D01*
G75*
G02*
X124155000Y-80150000I-135000J0D01*
G01*
G37*
G36*
G01*
X124155000Y-79130000D02*
X123785000Y-79130000D01*
G75*
G02*
X123650000Y-78995000I0J135000D01*
G01*
X123650000Y-78725000D01*
G75*
G02*
X123785000Y-78590000I135000J0D01*
G01*
X124155000Y-78590000D01*
G75*
G02*
X124290000Y-78725000I0J-135000D01*
G01*
X124290000Y-78995000D01*
G75*
G02*
X124155000Y-79130000I-135000J0D01*
G01*
G37*
G36*
G01*
X121155293Y-79131371D02*
X120785293Y-79131371D01*
G75*
G02*
X120650293Y-78996371I0J135000D01*
G01*
X120650293Y-78726371D01*
G75*
G02*
X120785293Y-78591371I135000J0D01*
G01*
X121155293Y-78591371D01*
G75*
G02*
X121290293Y-78726371I0J-135000D01*
G01*
X121290293Y-78996371D01*
G75*
G02*
X121155293Y-79131371I-135000J0D01*
G01*
G37*
G36*
G01*
X121155293Y-80151371D02*
X120785293Y-80151371D01*
G75*
G02*
X120650293Y-80016371I0J135000D01*
G01*
X120650293Y-79746371D01*
G75*
G02*
X120785293Y-79611371I135000J0D01*
G01*
X121155293Y-79611371D01*
G75*
G02*
X121290293Y-79746371I0J-135000D01*
G01*
X121290293Y-80016371D01*
G75*
G02*
X121155293Y-80151371I-135000J0D01*
G01*
G37*
G36*
G01*
X116340000Y-105990000D02*
X116000000Y-105990000D01*
G75*
G02*
X115860000Y-105850000I0J140000D01*
G01*
X115860000Y-105570000D01*
G75*
G02*
X116000000Y-105430000I140000J0D01*
G01*
X116340000Y-105430000D01*
G75*
G02*
X116480000Y-105570000I0J-140000D01*
G01*
X116480000Y-105850000D01*
G75*
G02*
X116340000Y-105990000I-140000J0D01*
G01*
G37*
G36*
G01*
X116340000Y-105030000D02*
X116000000Y-105030000D01*
G75*
G02*
X115860000Y-104890000I0J140000D01*
G01*
X115860000Y-104610000D01*
G75*
G02*
X116000000Y-104470000I140000J0D01*
G01*
X116340000Y-104470000D01*
G75*
G02*
X116480000Y-104610000I0J-140000D01*
G01*
X116480000Y-104890000D01*
G75*
G02*
X116340000Y-105030000I-140000J0D01*
G01*
G37*
G36*
G01*
X117360000Y-105030000D02*
X117020000Y-105030000D01*
G75*
G02*
X116880000Y-104890000I0J140000D01*
G01*
X116880000Y-104610000D01*
G75*
G02*
X117020000Y-104470000I140000J0D01*
G01*
X117360000Y-104470000D01*
G75*
G02*
X117500000Y-104610000I0J-140000D01*
G01*
X117500000Y-104890000D01*
G75*
G02*
X117360000Y-105030000I-140000J0D01*
G01*
G37*
G36*
G01*
X117360000Y-105990000D02*
X117020000Y-105990000D01*
G75*
G02*
X116880000Y-105850000I0J140000D01*
G01*
X116880000Y-105570000D01*
G75*
G02*
X117020000Y-105430000I140000J0D01*
G01*
X117360000Y-105430000D01*
G75*
G02*
X117500000Y-105570000I0J-140000D01*
G01*
X117500000Y-105850000D01*
G75*
G02*
X117360000Y-105990000I-140000J0D01*
G01*
G37*
G36*
G01*
X113340000Y-105990000D02*
X113000000Y-105990000D01*
G75*
G02*
X112860000Y-105850000I0J140000D01*
G01*
X112860000Y-105570000D01*
G75*
G02*
X113000000Y-105430000I140000J0D01*
G01*
X113340000Y-105430000D01*
G75*
G02*
X113480000Y-105570000I0J-140000D01*
G01*
X113480000Y-105850000D01*
G75*
G02*
X113340000Y-105990000I-140000J0D01*
G01*
G37*
G36*
G01*
X113340000Y-105030000D02*
X113000000Y-105030000D01*
G75*
G02*
X112860000Y-104890000I0J140000D01*
G01*
X112860000Y-104610000D01*
G75*
G02*
X113000000Y-104470000I140000J0D01*
G01*
X113340000Y-104470000D01*
G75*
G02*
X113480000Y-104610000I0J-140000D01*
G01*
X113480000Y-104890000D01*
G75*
G02*
X113340000Y-105030000I-140000J0D01*
G01*
G37*
G36*
G01*
X120360000Y-105990000D02*
X120020000Y-105990000D01*
G75*
G02*
X119880000Y-105850000I0J140000D01*
G01*
X119880000Y-105570000D01*
G75*
G02*
X120020000Y-105430000I140000J0D01*
G01*
X120360000Y-105430000D01*
G75*
G02*
X120500000Y-105570000I0J-140000D01*
G01*
X120500000Y-105850000D01*
G75*
G02*
X120360000Y-105990000I-140000J0D01*
G01*
G37*
G36*
G01*
X120360000Y-105030000D02*
X120020000Y-105030000D01*
G75*
G02*
X119880000Y-104890000I0J140000D01*
G01*
X119880000Y-104610000D01*
G75*
G02*
X120020000Y-104470000I140000J0D01*
G01*
X120360000Y-104470000D01*
G75*
G02*
X120500000Y-104610000I0J-140000D01*
G01*
X120500000Y-104890000D01*
G75*
G02*
X120360000Y-105030000I-140000J0D01*
G01*
G37*
G36*
G01*
X114000000Y-104470000D02*
X114340000Y-104470000D01*
G75*
G02*
X114480000Y-104610000I0J-140000D01*
G01*
X114480000Y-104890000D01*
G75*
G02*
X114340000Y-105030000I-140000J0D01*
G01*
X114000000Y-105030000D01*
G75*
G02*
X113860000Y-104890000I0J140000D01*
G01*
X113860000Y-104610000D01*
G75*
G02*
X114000000Y-104470000I140000J0D01*
G01*
G37*
G36*
G01*
X114000000Y-105430000D02*
X114340000Y-105430000D01*
G75*
G02*
X114480000Y-105570000I0J-140000D01*
G01*
X114480000Y-105850000D01*
G75*
G02*
X114340000Y-105990000I-140000J0D01*
G01*
X114000000Y-105990000D01*
G75*
G02*
X113860000Y-105850000I0J140000D01*
G01*
X113860000Y-105570000D01*
G75*
G02*
X114000000Y-105430000I140000J0D01*
G01*
G37*
G36*
G01*
X119020000Y-104470000D02*
X119360000Y-104470000D01*
G75*
G02*
X119500000Y-104610000I0J-140000D01*
G01*
X119500000Y-104890000D01*
G75*
G02*
X119360000Y-105030000I-140000J0D01*
G01*
X119020000Y-105030000D01*
G75*
G02*
X118880000Y-104890000I0J140000D01*
G01*
X118880000Y-104610000D01*
G75*
G02*
X119020000Y-104470000I140000J0D01*
G01*
G37*
G36*
G01*
X119020000Y-105430000D02*
X119360000Y-105430000D01*
G75*
G02*
X119500000Y-105570000I0J-140000D01*
G01*
X119500000Y-105850000D01*
G75*
G02*
X119360000Y-105990000I-140000J0D01*
G01*
X119020000Y-105990000D01*
G75*
G02*
X118880000Y-105850000I0J140000D01*
G01*
X118880000Y-105570000D01*
G75*
G02*
X119020000Y-105430000I140000J0D01*
G01*
G37*
G36*
G01*
X115000000Y-105430000D02*
X115340000Y-105430000D01*
G75*
G02*
X115480000Y-105570000I0J-140000D01*
G01*
X115480000Y-105850000D01*
G75*
G02*
X115340000Y-105990000I-140000J0D01*
G01*
X115000000Y-105990000D01*
G75*
G02*
X114860000Y-105850000I0J140000D01*
G01*
X114860000Y-105570000D01*
G75*
G02*
X115000000Y-105430000I140000J0D01*
G01*
G37*
G36*
G01*
X115000000Y-104470000D02*
X115340000Y-104470000D01*
G75*
G02*
X115480000Y-104610000I0J-140000D01*
G01*
X115480000Y-104890000D01*
G75*
G02*
X115340000Y-105030000I-140000J0D01*
G01*
X115000000Y-105030000D01*
G75*
G02*
X114860000Y-104890000I0J140000D01*
G01*
X114860000Y-104610000D01*
G75*
G02*
X115000000Y-104470000I140000J0D01*
G01*
G37*
G36*
G01*
X118020000Y-105430000D02*
X118360000Y-105430000D01*
G75*
G02*
X118500000Y-105570000I0J-140000D01*
G01*
X118500000Y-105850000D01*
G75*
G02*
X118360000Y-105990000I-140000J0D01*
G01*
X118020000Y-105990000D01*
G75*
G02*
X117880000Y-105850000I0J140000D01*
G01*
X117880000Y-105570000D01*
G75*
G02*
X118020000Y-105430000I140000J0D01*
G01*
G37*
G36*
G01*
X118020000Y-104470000D02*
X118360000Y-104470000D01*
G75*
G02*
X118500000Y-104610000I0J-140000D01*
G01*
X118500000Y-104890000D01*
G75*
G02*
X118360000Y-105030000I-140000J0D01*
G01*
X118020000Y-105030000D01*
G75*
G02*
X117880000Y-104890000I0J140000D01*
G01*
X117880000Y-104610000D01*
G75*
G02*
X118020000Y-104470000I140000J0D01*
G01*
G37*
D25*
X114170000Y-80600000D03*
X114170000Y-83100000D03*
X112210000Y-84220000D03*
X112210000Y-81720000D03*
G36*
G01*
X113730000Y-78485000D02*
X113730000Y-78115000D01*
G75*
G02*
X113865000Y-77980000I135000J0D01*
G01*
X114135000Y-77980000D01*
G75*
G02*
X114270000Y-78115000I0J-135000D01*
G01*
X114270000Y-78485000D01*
G75*
G02*
X114135000Y-78620000I-135000J0D01*
G01*
X113865000Y-78620000D01*
G75*
G02*
X113730000Y-78485000I0J135000D01*
G01*
G37*
G36*
G01*
X114750000Y-78485000D02*
X114750000Y-78115000D01*
G75*
G02*
X114885000Y-77980000I135000J0D01*
G01*
X115155000Y-77980000D01*
G75*
G02*
X115290000Y-78115000I0J-135000D01*
G01*
X115290000Y-78485000D01*
G75*
G02*
X115155000Y-78620000I-135000J0D01*
G01*
X114885000Y-78620000D01*
G75*
G02*
X114750000Y-78485000I0J135000D01*
G01*
G37*
G36*
G01*
X127860728Y-84667643D02*
X128122357Y-84929272D01*
G75*
G02*
X128122357Y-85120190I-95459J-95459D01*
G01*
X127931438Y-85311109D01*
G75*
G02*
X127740520Y-85311109I-95459J95459D01*
G01*
X127478891Y-85049480D01*
G75*
G02*
X127478891Y-84858562I95459J95459D01*
G01*
X127669810Y-84667643D01*
G75*
G02*
X127860728Y-84667643I95459J-95459D01*
G01*
G37*
G36*
G01*
X127139480Y-85388891D02*
X127401109Y-85650520D01*
G75*
G02*
X127401109Y-85841438I-95459J-95459D01*
G01*
X127210190Y-86032357D01*
G75*
G02*
X127019272Y-86032357I-95459J95459D01*
G01*
X126757643Y-85770728D01*
G75*
G02*
X126757643Y-85579810I95459J95459D01*
G01*
X126948562Y-85388891D01*
G75*
G02*
X127139480Y-85388891I95459J-95459D01*
G01*
G37*
G36*
G01*
X125650728Y-84027643D02*
X125912357Y-84289272D01*
G75*
G02*
X125912357Y-84480190I-95459J-95459D01*
G01*
X125721438Y-84671109D01*
G75*
G02*
X125530520Y-84671109I-95459J95459D01*
G01*
X125268891Y-84409480D01*
G75*
G02*
X125268891Y-84218562I95459J95459D01*
G01*
X125459810Y-84027643D01*
G75*
G02*
X125650728Y-84027643I95459J-95459D01*
G01*
G37*
G36*
G01*
X124929480Y-84748891D02*
X125191109Y-85010520D01*
G75*
G02*
X125191109Y-85201438I-95459J-95459D01*
G01*
X125000190Y-85392357D01*
G75*
G02*
X124809272Y-85392357I-95459J95459D01*
G01*
X124547643Y-85130728D01*
G75*
G02*
X124547643Y-84939810I95459J95459D01*
G01*
X124738562Y-84748891D01*
G75*
G02*
X124929480Y-84748891I95459J-95459D01*
G01*
G37*
G36*
G01*
X119268856Y-83319515D02*
X119530485Y-83581144D01*
G75*
G02*
X119530485Y-83772062I-95459J-95459D01*
G01*
X119339566Y-83962981D01*
G75*
G02*
X119148648Y-83962981I-95459J95459D01*
G01*
X118887019Y-83701352D01*
G75*
G02*
X118887019Y-83510434I95459J95459D01*
G01*
X119077938Y-83319515D01*
G75*
G02*
X119268856Y-83319515I95459J-95459D01*
G01*
G37*
G36*
G01*
X119990104Y-82598267D02*
X120251733Y-82859896D01*
G75*
G02*
X120251733Y-83050814I-95459J-95459D01*
G01*
X120060814Y-83241733D01*
G75*
G02*
X119869896Y-83241733I-95459J95459D01*
G01*
X119608267Y-82980104D01*
G75*
G02*
X119608267Y-82789186I95459J95459D01*
G01*
X119799186Y-82598267D01*
G75*
G02*
X119990104Y-82598267I95459J-95459D01*
G01*
G37*
G36*
G01*
X120699480Y-81928891D02*
X120961109Y-82190520D01*
G75*
G02*
X120961109Y-82381438I-95459J-95459D01*
G01*
X120770190Y-82572357D01*
G75*
G02*
X120579272Y-82572357I-95459J95459D01*
G01*
X120317643Y-82310728D01*
G75*
G02*
X120317643Y-82119810I95459J95459D01*
G01*
X120508562Y-81928891D01*
G75*
G02*
X120699480Y-81928891I95459J-95459D01*
G01*
G37*
G36*
G01*
X121420728Y-81207643D02*
X121682357Y-81469272D01*
G75*
G02*
X121682357Y-81660190I-95459J-95459D01*
G01*
X121491438Y-81851109D01*
G75*
G02*
X121300520Y-81851109I-95459J95459D01*
G01*
X121038891Y-81589480D01*
G75*
G02*
X121038891Y-81398562I95459J95459D01*
G01*
X121229810Y-81207643D01*
G75*
G02*
X121420728Y-81207643I95459J-95459D01*
G01*
G37*
G36*
G01*
X125779272Y-87542357D02*
X125517643Y-87280728D01*
G75*
G02*
X125517643Y-87089810I95459J95459D01*
G01*
X125708562Y-86898891D01*
G75*
G02*
X125899480Y-86898891I95459J-95459D01*
G01*
X126161109Y-87160520D01*
G75*
G02*
X126161109Y-87351438I-95459J-95459D01*
G01*
X125970190Y-87542357D01*
G75*
G02*
X125779272Y-87542357I-95459J95459D01*
G01*
G37*
G36*
G01*
X126500520Y-86821109D02*
X126238891Y-86559480D01*
G75*
G02*
X126238891Y-86368562I95459J95459D01*
G01*
X126429810Y-86177643D01*
G75*
G02*
X126620728Y-86177643I95459J-95459D01*
G01*
X126882357Y-86439272D01*
G75*
G02*
X126882357Y-86630190I-95459J-95459D01*
G01*
X126691438Y-86821109D01*
G75*
G02*
X126500520Y-86821109I-95459J95459D01*
G01*
G37*
G36*
G01*
X126580520Y-85041109D02*
X126318891Y-84779480D01*
G75*
G02*
X126318891Y-84588562I95459J95459D01*
G01*
X126509810Y-84397643D01*
G75*
G02*
X126700728Y-84397643I95459J-95459D01*
G01*
X126962357Y-84659272D01*
G75*
G02*
X126962357Y-84850190I-95459J-95459D01*
G01*
X126771438Y-85041109D01*
G75*
G02*
X126580520Y-85041109I-95459J95459D01*
G01*
G37*
G36*
G01*
X125859272Y-85762357D02*
X125597643Y-85500728D01*
G75*
G02*
X125597643Y-85309810I95459J95459D01*
G01*
X125788562Y-85118891D01*
G75*
G02*
X125979480Y-85118891I95459J-95459D01*
G01*
X126241109Y-85380520D01*
G75*
G02*
X126241109Y-85571438I-95459J-95459D01*
G01*
X126050190Y-85762357D01*
G75*
G02*
X125859272Y-85762357I-95459J95459D01*
G01*
G37*
G36*
G01*
X119859272Y-84662357D02*
X119597643Y-84400728D01*
G75*
G02*
X119597643Y-84209810I95459J95459D01*
G01*
X119788562Y-84018891D01*
G75*
G02*
X119979480Y-84018891I95459J-95459D01*
G01*
X120241109Y-84280520D01*
G75*
G02*
X120241109Y-84471438I-95459J-95459D01*
G01*
X120050190Y-84662357D01*
G75*
G02*
X119859272Y-84662357I-95459J95459D01*
G01*
G37*
G36*
G01*
X120580520Y-83941109D02*
X120318891Y-83679480D01*
G75*
G02*
X120318891Y-83488562I95459J95459D01*
G01*
X120509810Y-83297643D01*
G75*
G02*
X120700728Y-83297643I95459J-95459D01*
G01*
X120962357Y-83559272D01*
G75*
G02*
X120962357Y-83750190I-95459J-95459D01*
G01*
X120771438Y-83941109D01*
G75*
G02*
X120580520Y-83941109I-95459J95459D01*
G01*
G37*
G36*
G01*
X121299272Y-83282357D02*
X121037643Y-83020728D01*
G75*
G02*
X121037643Y-82829810I95459J95459D01*
G01*
X121228562Y-82638891D01*
G75*
G02*
X121419480Y-82638891I95459J-95459D01*
G01*
X121681109Y-82900520D01*
G75*
G02*
X121681109Y-83091438I-95459J-95459D01*
G01*
X121490190Y-83282357D01*
G75*
G02*
X121299272Y-83282357I-95459J95459D01*
G01*
G37*
G36*
G01*
X122020520Y-82561109D02*
X121758891Y-82299480D01*
G75*
G02*
X121758891Y-82108562I95459J95459D01*
G01*
X121949810Y-81917643D01*
G75*
G02*
X122140728Y-81917643I95459J-95459D01*
G01*
X122402357Y-82179272D01*
G75*
G02*
X122402357Y-82370190I-95459J-95459D01*
G01*
X122211438Y-82561109D01*
G75*
G02*
X122020520Y-82561109I-95459J95459D01*
G01*
G37*
G36*
G01*
X121025000Y-87090000D02*
X121395000Y-87090000D01*
G75*
G02*
X121530000Y-87225000I0J-135000D01*
G01*
X121530000Y-87495000D01*
G75*
G02*
X121395000Y-87630000I-135000J0D01*
G01*
X121025000Y-87630000D01*
G75*
G02*
X120890000Y-87495000I0J135000D01*
G01*
X120890000Y-87225000D01*
G75*
G02*
X121025000Y-87090000I135000J0D01*
G01*
G37*
G36*
G01*
X121025000Y-86070000D02*
X121395000Y-86070000D01*
G75*
G02*
X121530000Y-86205000I0J-135000D01*
G01*
X121530000Y-86475000D01*
G75*
G02*
X121395000Y-86610000I-135000J0D01*
G01*
X121025000Y-86610000D01*
G75*
G02*
X120890000Y-86475000I0J135000D01*
G01*
X120890000Y-86205000D01*
G75*
G02*
X121025000Y-86070000I135000J0D01*
G01*
G37*
G36*
G01*
X122035000Y-86070000D02*
X122405000Y-86070000D01*
G75*
G02*
X122540000Y-86205000I0J-135000D01*
G01*
X122540000Y-86475000D01*
G75*
G02*
X122405000Y-86610000I-135000J0D01*
G01*
X122035000Y-86610000D01*
G75*
G02*
X121900000Y-86475000I0J135000D01*
G01*
X121900000Y-86205000D01*
G75*
G02*
X122035000Y-86070000I135000J0D01*
G01*
G37*
G36*
G01*
X122035000Y-87090000D02*
X122405000Y-87090000D01*
G75*
G02*
X122540000Y-87225000I0J-135000D01*
G01*
X122540000Y-87495000D01*
G75*
G02*
X122405000Y-87630000I-135000J0D01*
G01*
X122035000Y-87630000D01*
G75*
G02*
X121900000Y-87495000I0J135000D01*
G01*
X121900000Y-87225000D01*
G75*
G02*
X122035000Y-87090000I135000J0D01*
G01*
G37*
G36*
G01*
X137030000Y-96614999D02*
X136530000Y-96614999D01*
G75*
G02*
X136305000Y-96389999I0J225000D01*
G01*
X136305000Y-95939999D01*
G75*
G02*
X136530000Y-95714999I225000J0D01*
G01*
X137030000Y-95714999D01*
G75*
G02*
X137255000Y-95939999I0J-225000D01*
G01*
X137255000Y-96389999D01*
G75*
G02*
X137030000Y-96614999I-225000J0D01*
G01*
G37*
G36*
G01*
X137030000Y-95064999D02*
X136530000Y-95064999D01*
G75*
G02*
X136305000Y-94839999I0J225000D01*
G01*
X136305000Y-94389999D01*
G75*
G02*
X136530000Y-94164999I225000J0D01*
G01*
X137030000Y-94164999D01*
G75*
G02*
X137255000Y-94389999I0J-225000D01*
G01*
X137255000Y-94839999D01*
G75*
G02*
X137030000Y-95064999I-225000J0D01*
G01*
G37*
G36*
G01*
X136775001Y-90705000D02*
X137115001Y-90705000D01*
G75*
G02*
X137255001Y-90845000I0J-140000D01*
G01*
X137255001Y-91125000D01*
G75*
G02*
X137115001Y-91265000I-140000J0D01*
G01*
X136775001Y-91265000D01*
G75*
G02*
X136635001Y-91125000I0J140000D01*
G01*
X136635001Y-90845000D01*
G75*
G02*
X136775001Y-90705000I140000J0D01*
G01*
G37*
G36*
G01*
X136775001Y-91665000D02*
X137115001Y-91665000D01*
G75*
G02*
X137255001Y-91805000I0J-140000D01*
G01*
X137255001Y-92085000D01*
G75*
G02*
X137115001Y-92225000I-140000J0D01*
G01*
X136775001Y-92225000D01*
G75*
G02*
X136635001Y-92085000I0J140000D01*
G01*
X136635001Y-91805000D01*
G75*
G02*
X136775001Y-91665000I140000J0D01*
G01*
G37*
G36*
G01*
X139069998Y-91865001D02*
X139569998Y-91865001D01*
G75*
G02*
X139794998Y-92090001I0J-225000D01*
G01*
X139794998Y-92540001D01*
G75*
G02*
X139569998Y-92765001I-225000J0D01*
G01*
X139069998Y-92765001D01*
G75*
G02*
X138844998Y-92540001I0J225000D01*
G01*
X138844998Y-92090001D01*
G75*
G02*
X139069998Y-91865001I225000J0D01*
G01*
G37*
G36*
G01*
X139069998Y-90315001D02*
X139569998Y-90315001D01*
G75*
G02*
X139794998Y-90540001I0J-225000D01*
G01*
X139794998Y-90990001D01*
G75*
G02*
X139569998Y-91215001I-225000J0D01*
G01*
X139069998Y-91215001D01*
G75*
G02*
X138844998Y-90990001I0J225000D01*
G01*
X138844998Y-90540001D01*
G75*
G02*
X139069998Y-90315001I225000J0D01*
G01*
G37*
G36*
G01*
X140705000Y-90305001D02*
X141205000Y-90305001D01*
G75*
G02*
X141430000Y-90530001I0J-225000D01*
G01*
X141430000Y-90980001D01*
G75*
G02*
X141205000Y-91205001I-225000J0D01*
G01*
X140705000Y-91205001D01*
G75*
G02*
X140480000Y-90980001I0J225000D01*
G01*
X140480000Y-90530001D01*
G75*
G02*
X140705000Y-90305001I225000J0D01*
G01*
G37*
G36*
G01*
X140705000Y-91855001D02*
X141205000Y-91855001D01*
G75*
G02*
X141430000Y-92080001I0J-225000D01*
G01*
X141430000Y-92530001D01*
G75*
G02*
X141205000Y-92755001I-225000J0D01*
G01*
X140705000Y-92755001D01*
G75*
G02*
X140480000Y-92530001I0J225000D01*
G01*
X140480000Y-92080001D01*
G75*
G02*
X140705000Y-91855001I225000J0D01*
G01*
G37*
G36*
G01*
X145812001Y-92449000D02*
X146312001Y-92449000D01*
G75*
G02*
X146537001Y-92674000I0J-225000D01*
G01*
X146537001Y-93124000D01*
G75*
G02*
X146312001Y-93349000I-225000J0D01*
G01*
X145812001Y-93349000D01*
G75*
G02*
X145587001Y-93124000I0J225000D01*
G01*
X145587001Y-92674000D01*
G75*
G02*
X145812001Y-92449000I225000J0D01*
G01*
G37*
G36*
G01*
X145812001Y-93999000D02*
X146312001Y-93999000D01*
G75*
G02*
X146537001Y-94224000I0J-225000D01*
G01*
X146537001Y-94674000D01*
G75*
G02*
X146312001Y-94899000I-225000J0D01*
G01*
X145812001Y-94899000D01*
G75*
G02*
X145587001Y-94674000I0J225000D01*
G01*
X145587001Y-94224000D01*
G75*
G02*
X145812001Y-93999000I225000J0D01*
G01*
G37*
G36*
G01*
X146125000Y-89480000D02*
X146125000Y-88980000D01*
G75*
G02*
X146350000Y-88755000I225000J0D01*
G01*
X146800000Y-88755000D01*
G75*
G02*
X147025000Y-88980000I0J-225000D01*
G01*
X147025000Y-89480000D01*
G75*
G02*
X146800000Y-89705000I-225000J0D01*
G01*
X146350000Y-89705000D01*
G75*
G02*
X146125000Y-89480000I0J225000D01*
G01*
G37*
G36*
G01*
X144575000Y-89480000D02*
X144575000Y-88980000D01*
G75*
G02*
X144800000Y-88755000I225000J0D01*
G01*
X145250000Y-88755000D01*
G75*
G02*
X145475000Y-88980000I0J-225000D01*
G01*
X145475000Y-89480000D01*
G75*
G02*
X145250000Y-89705000I-225000J0D01*
G01*
X144800000Y-89705000D01*
G75*
G02*
X144575000Y-89480000I0J225000D01*
G01*
G37*
D19*
X143620000Y-92855001D03*
X143620000Y-95395001D03*
G36*
G01*
X143376250Y-91465000D02*
X142623750Y-91465000D01*
G75*
G02*
X142300000Y-91141250I0J323750D01*
G01*
X142300000Y-90493750D01*
G75*
G02*
X142623750Y-90170000I323750J0D01*
G01*
X143376250Y-90170000D01*
G75*
G02*
X143700000Y-90493750I0J-323750D01*
G01*
X143700000Y-91141250D01*
G75*
G02*
X143376250Y-91465000I-323750J0D01*
G01*
G37*
G36*
G01*
X143376250Y-89530000D02*
X142623750Y-89530000D01*
G75*
G02*
X142300000Y-89206250I0J323750D01*
G01*
X142300000Y-88558750D01*
G75*
G02*
X142623750Y-88235000I323750J0D01*
G01*
X143376250Y-88235000D01*
G75*
G02*
X143700000Y-88558750I0J-323750D01*
G01*
X143700000Y-89206250D01*
G75*
G02*
X143376250Y-89530000I-323750J0D01*
G01*
G37*
D21*
X138510000Y-94440000D03*
X138510000Y-96340000D03*
X141110000Y-96340000D03*
X141110000Y-95390000D03*
X141110000Y-94440000D03*
D13*
X117070000Y-90220800D03*
X120400000Y-89050000D03*
X122010000Y-89120000D03*
X147580000Y-73700000D03*
X147350000Y-110700000D03*
X95770000Y-110710000D03*
G36*
G01*
X133215000Y-88980000D02*
X133215000Y-88480000D01*
G75*
G02*
X133440000Y-88255000I225000J0D01*
G01*
X133890000Y-88255000D01*
G75*
G02*
X134115000Y-88480000I0J-225000D01*
G01*
X134115000Y-88980000D01*
G75*
G02*
X133890000Y-89205000I-225000J0D01*
G01*
X133440000Y-89205000D01*
G75*
G02*
X133215000Y-88980000I0J225000D01*
G01*
G37*
G36*
G01*
X131665000Y-88980000D02*
X131665000Y-88480000D01*
G75*
G02*
X131890000Y-88255000I225000J0D01*
G01*
X132340000Y-88255000D01*
G75*
G02*
X132565000Y-88480000I0J-225000D01*
G01*
X132565000Y-88980000D01*
G75*
G02*
X132340000Y-89205000I-225000J0D01*
G01*
X131890000Y-89205000D01*
G75*
G02*
X131665000Y-88980000I0J225000D01*
G01*
G37*
G36*
G01*
X135160000Y-89990000D02*
X135160000Y-90330000D01*
G75*
G02*
X135020000Y-90470000I-140000J0D01*
G01*
X134740000Y-90470000D01*
G75*
G02*
X134600000Y-90330000I0J140000D01*
G01*
X134600000Y-89990000D01*
G75*
G02*
X134740000Y-89850000I140000J0D01*
G01*
X135020000Y-89850000D01*
G75*
G02*
X135160000Y-89990000I0J-140000D01*
G01*
G37*
G36*
G01*
X134200000Y-89990000D02*
X134200000Y-90330000D01*
G75*
G02*
X134060000Y-90470000I-140000J0D01*
G01*
X133780000Y-90470000D01*
G75*
G02*
X133640000Y-90330000I0J140000D01*
G01*
X133640000Y-89990000D01*
G75*
G02*
X133780000Y-89850000I140000J0D01*
G01*
X134060000Y-89850000D01*
G75*
G02*
X134200000Y-89990000I0J-140000D01*
G01*
G37*
G36*
G01*
X136110000Y-88340000D02*
X136110000Y-88680000D01*
G75*
G02*
X135970000Y-88820000I-140000J0D01*
G01*
X135690000Y-88820000D01*
G75*
G02*
X135550000Y-88680000I0J140000D01*
G01*
X135550000Y-88340000D01*
G75*
G02*
X135690000Y-88200000I140000J0D01*
G01*
X135970000Y-88200000D01*
G75*
G02*
X136110000Y-88340000I0J-140000D01*
G01*
G37*
G36*
G01*
X135150000Y-88340000D02*
X135150000Y-88680000D01*
G75*
G02*
X135010000Y-88820000I-140000J0D01*
G01*
X134730000Y-88820000D01*
G75*
G02*
X134590000Y-88680000I0J140000D01*
G01*
X134590000Y-88340000D01*
G75*
G02*
X134730000Y-88200000I140000J0D01*
G01*
X135010000Y-88200000D01*
G75*
G02*
X135150000Y-88340000I0J-140000D01*
G01*
G37*
G36*
G01*
X134200000Y-90990000D02*
X134200000Y-91330000D01*
G75*
G02*
X134060000Y-91470000I-140000J0D01*
G01*
X133780000Y-91470000D01*
G75*
G02*
X133640000Y-91330000I0J140000D01*
G01*
X133640000Y-90990000D01*
G75*
G02*
X133780000Y-90850000I140000J0D01*
G01*
X134060000Y-90850000D01*
G75*
G02*
X134200000Y-90990000I0J-140000D01*
G01*
G37*
G36*
G01*
X135160000Y-90990000D02*
X135160000Y-91330000D01*
G75*
G02*
X135020000Y-91470000I-140000J0D01*
G01*
X134740000Y-91470000D01*
G75*
G02*
X134600000Y-91330000I0J140000D01*
G01*
X134600000Y-90990000D01*
G75*
G02*
X134740000Y-90850000I140000J0D01*
G01*
X135020000Y-90850000D01*
G75*
G02*
X135160000Y-90990000I0J-140000D01*
G01*
G37*
G36*
G01*
X133165000Y-90810000D02*
X133165000Y-91310000D01*
G75*
G02*
X132940000Y-91535000I-225000J0D01*
G01*
X132490000Y-91535000D01*
G75*
G02*
X132265000Y-91310000I0J225000D01*
G01*
X132265000Y-90810000D01*
G75*
G02*
X132490000Y-90585000I225000J0D01*
G01*
X132940000Y-90585000D01*
G75*
G02*
X133165000Y-90810000I0J-225000D01*
G01*
G37*
G36*
G01*
X131615000Y-90810000D02*
X131615000Y-91310000D01*
G75*
G02*
X131390000Y-91535000I-225000J0D01*
G01*
X130940000Y-91535000D01*
G75*
G02*
X130715000Y-91310000I0J225000D01*
G01*
X130715000Y-90810000D01*
G75*
G02*
X130940000Y-90585000I225000J0D01*
G01*
X131390000Y-90585000D01*
G75*
G02*
X131615000Y-90810000I0J-225000D01*
G01*
G37*
G36*
G01*
X95100000Y-100850000D02*
X94760000Y-100850000D01*
G75*
G02*
X94620000Y-100710000I0J140000D01*
G01*
X94620000Y-100430000D01*
G75*
G02*
X94760000Y-100290000I140000J0D01*
G01*
X95100000Y-100290000D01*
G75*
G02*
X95240000Y-100430000I0J-140000D01*
G01*
X95240000Y-100710000D01*
G75*
G02*
X95100000Y-100850000I-140000J0D01*
G01*
G37*
G36*
G01*
X95100000Y-99890000D02*
X94760000Y-99890000D01*
G75*
G02*
X94620000Y-99750000I0J140000D01*
G01*
X94620000Y-99470000D01*
G75*
G02*
X94760000Y-99330000I140000J0D01*
G01*
X95100000Y-99330000D01*
G75*
G02*
X95240000Y-99470000I0J-140000D01*
G01*
X95240000Y-99750000D01*
G75*
G02*
X95100000Y-99890000I-140000J0D01*
G01*
G37*
G36*
G01*
X99320000Y-102280000D02*
X99660000Y-102280000D01*
G75*
G02*
X99800000Y-102420000I0J-140000D01*
G01*
X99800000Y-102700000D01*
G75*
G02*
X99660000Y-102840000I-140000J0D01*
G01*
X99320000Y-102840000D01*
G75*
G02*
X99180000Y-102700000I0J140000D01*
G01*
X99180000Y-102420000D01*
G75*
G02*
X99320000Y-102280000I140000J0D01*
G01*
G37*
G36*
G01*
X99320000Y-103240000D02*
X99660000Y-103240000D01*
G75*
G02*
X99800000Y-103380000I0J-140000D01*
G01*
X99800000Y-103660000D01*
G75*
G02*
X99660000Y-103800000I-140000J0D01*
G01*
X99320000Y-103800000D01*
G75*
G02*
X99180000Y-103660000I0J140000D01*
G01*
X99180000Y-103380000D01*
G75*
G02*
X99320000Y-103240000I140000J0D01*
G01*
G37*
G36*
G01*
X101130000Y-103720000D02*
X101130000Y-103380000D01*
G75*
G02*
X101270000Y-103240000I140000J0D01*
G01*
X101550000Y-103240000D01*
G75*
G02*
X101690000Y-103380000I0J-140000D01*
G01*
X101690000Y-103720000D01*
G75*
G02*
X101550000Y-103860000I-140000J0D01*
G01*
X101270000Y-103860000D01*
G75*
G02*
X101130000Y-103720000I0J140000D01*
G01*
G37*
G36*
G01*
X100170000Y-103720000D02*
X100170000Y-103380000D01*
G75*
G02*
X100310000Y-103240000I140000J0D01*
G01*
X100590000Y-103240000D01*
G75*
G02*
X100730000Y-103380000I0J-140000D01*
G01*
X100730000Y-103720000D01*
G75*
G02*
X100590000Y-103860000I-140000J0D01*
G01*
X100310000Y-103860000D01*
G75*
G02*
X100170000Y-103720000I0J140000D01*
G01*
G37*
G36*
G01*
X101140000Y-102730000D02*
X101140000Y-102390000D01*
G75*
G02*
X101280000Y-102250000I140000J0D01*
G01*
X101560000Y-102250000D01*
G75*
G02*
X101700000Y-102390000I0J-140000D01*
G01*
X101700000Y-102730000D01*
G75*
G02*
X101560000Y-102870000I-140000J0D01*
G01*
X101280000Y-102870000D01*
G75*
G02*
X101140000Y-102730000I0J140000D01*
G01*
G37*
G36*
G01*
X100180000Y-102730000D02*
X100180000Y-102390000D01*
G75*
G02*
X100320000Y-102250000I140000J0D01*
G01*
X100600000Y-102250000D01*
G75*
G02*
X100740000Y-102390000I0J-140000D01*
G01*
X100740000Y-102730000D01*
G75*
G02*
X100600000Y-102870000I-140000J0D01*
G01*
X100320000Y-102870000D01*
G75*
G02*
X100180000Y-102730000I0J140000D01*
G01*
G37*
G36*
G01*
X103196250Y-104925000D02*
X102683750Y-104925000D01*
G75*
G02*
X102465000Y-104706250I0J218750D01*
G01*
X102465000Y-104268750D01*
G75*
G02*
X102683750Y-104050000I218750J0D01*
G01*
X103196250Y-104050000D01*
G75*
G02*
X103415000Y-104268750I0J-218750D01*
G01*
X103415000Y-104706250D01*
G75*
G02*
X103196250Y-104925000I-218750J0D01*
G01*
G37*
G36*
G01*
X103196250Y-103350000D02*
X102683750Y-103350000D01*
G75*
G02*
X102465000Y-103131250I0J218750D01*
G01*
X102465000Y-102693750D01*
G75*
G02*
X102683750Y-102475000I218750J0D01*
G01*
X103196250Y-102475000D01*
G75*
G02*
X103415000Y-102693750I0J-218750D01*
G01*
X103415000Y-103131250D01*
G75*
G02*
X103196250Y-103350000I-218750J0D01*
G01*
G37*
G36*
G01*
X94855000Y-95400000D02*
X95225000Y-95400000D01*
G75*
G02*
X95360000Y-95535000I0J-135000D01*
G01*
X95360000Y-95805000D01*
G75*
G02*
X95225000Y-95940000I-135000J0D01*
G01*
X94855000Y-95940000D01*
G75*
G02*
X94720000Y-95805000I0J135000D01*
G01*
X94720000Y-95535000D01*
G75*
G02*
X94855000Y-95400000I135000J0D01*
G01*
G37*
G36*
G01*
X94855000Y-96420000D02*
X95225000Y-96420000D01*
G75*
G02*
X95360000Y-96555000I0J-135000D01*
G01*
X95360000Y-96825000D01*
G75*
G02*
X95225000Y-96960000I-135000J0D01*
G01*
X94855000Y-96960000D01*
G75*
G02*
X94720000Y-96825000I0J135000D01*
G01*
X94720000Y-96555000D01*
G75*
G02*
X94855000Y-96420000I135000J0D01*
G01*
G37*
G36*
G01*
X142260000Y-109270000D02*
X142260000Y-109470000D01*
G75*
G02*
X142160000Y-109570000I-100000J0D01*
G01*
X141900000Y-109570000D01*
G75*
G02*
X141800000Y-109470000I0J100000D01*
G01*
X141800000Y-109270000D01*
G75*
G02*
X141900000Y-109170000I100000J0D01*
G01*
X142160000Y-109170000D01*
G75*
G02*
X142260000Y-109270000I0J-100000D01*
G01*
G37*
G36*
G01*
X141620000Y-109270000D02*
X141620000Y-109470000D01*
G75*
G02*
X141520000Y-109570000I-100000J0D01*
G01*
X141260000Y-109570000D01*
G75*
G02*
X141160000Y-109470000I0J100000D01*
G01*
X141160000Y-109270000D01*
G75*
G02*
X141260000Y-109170000I100000J0D01*
G01*
X141520000Y-109170000D01*
G75*
G02*
X141620000Y-109270000I0J-100000D01*
G01*
G37*
G36*
G01*
X141620000Y-110030000D02*
X141620000Y-110230000D01*
G75*
G02*
X141520000Y-110330000I-100000J0D01*
G01*
X141260000Y-110330000D01*
G75*
G02*
X141160000Y-110230000I0J100000D01*
G01*
X141160000Y-110030000D01*
G75*
G02*
X141260000Y-109930000I100000J0D01*
G01*
X141520000Y-109930000D01*
G75*
G02*
X141620000Y-110030000I0J-100000D01*
G01*
G37*
G36*
G01*
X142260000Y-110030000D02*
X142260000Y-110230000D01*
G75*
G02*
X142160000Y-110330000I-100000J0D01*
G01*
X141900000Y-110330000D01*
G75*
G02*
X141800000Y-110230000I0J100000D01*
G01*
X141800000Y-110030000D01*
G75*
G02*
X141900000Y-109930000I100000J0D01*
G01*
X142160000Y-109930000D01*
G75*
G02*
X142260000Y-110030000I0J-100000D01*
G01*
G37*
G36*
G01*
X140030000Y-110380000D02*
X140030000Y-110580000D01*
G75*
G02*
X139930000Y-110680000I-100000J0D01*
G01*
X139670000Y-110680000D01*
G75*
G02*
X139570000Y-110580000I0J100000D01*
G01*
X139570000Y-110380000D01*
G75*
G02*
X139670000Y-110280000I100000J0D01*
G01*
X139930000Y-110280000D01*
G75*
G02*
X140030000Y-110380000I0J-100000D01*
G01*
G37*
G36*
G01*
X139390000Y-110380000D02*
X139390000Y-110580000D01*
G75*
G02*
X139290000Y-110680000I-100000J0D01*
G01*
X139030000Y-110680000D01*
G75*
G02*
X138930000Y-110580000I0J100000D01*
G01*
X138930000Y-110380000D01*
G75*
G02*
X139030000Y-110280000I100000J0D01*
G01*
X139290000Y-110280000D01*
G75*
G02*
X139390000Y-110380000I0J-100000D01*
G01*
G37*
G36*
G01*
X139380000Y-111140000D02*
X139380000Y-111340000D01*
G75*
G02*
X139280000Y-111440000I-100000J0D01*
G01*
X139020000Y-111440000D01*
G75*
G02*
X138920000Y-111340000I0J100000D01*
G01*
X138920000Y-111140000D01*
G75*
G02*
X139020000Y-111040000I100000J0D01*
G01*
X139280000Y-111040000D01*
G75*
G02*
X139380000Y-111140000I0J-100000D01*
G01*
G37*
G36*
G01*
X140020000Y-111140000D02*
X140020000Y-111340000D01*
G75*
G02*
X139920000Y-111440000I-100000J0D01*
G01*
X139660000Y-111440000D01*
G75*
G02*
X139560000Y-111340000I0J100000D01*
G01*
X139560000Y-111140000D01*
G75*
G02*
X139660000Y-111040000I100000J0D01*
G01*
X139920000Y-111040000D01*
G75*
G02*
X140020000Y-111140000I0J-100000D01*
G01*
G37*
M02*
