G04 #@! TF.GenerationSoftware,KiCad,Pcbnew,5.1.9+dfsg1-1+deb11u1*
G04 #@! TF.CreationDate,2022-10-19T12:21:59+02:00*
G04 #@! TF.ProjectId,ulx4m,756c7834-6d2e-46b6-9963-61645f706362,v0.0.3*
G04 #@! TF.SameCoordinates,Original*
G04 #@! TF.FileFunction,Paste,Bot*
G04 #@! TF.FilePolarity,Positive*
%FSLAX46Y46*%
G04 Gerber Fmt 4.6, Leading zero omitted, Abs format (unit mm)*
G04 Created by KiCad (PCBNEW 5.1.9+dfsg1-1+deb11u1) date 2022-10-19 12:21:59*
%MOMM*%
%LPD*%
G01*
G04 APERTURE LIST*
%ADD10R,0.130000X0.560000*%
%ADD11R,0.250000X0.560000*%
%ADD12R,2.400000X1.200000*%
%ADD13R,1.200000X2.400000*%
%ADD14R,1.100000X0.600000*%
%ADD15R,0.600000X1.100000*%
%ADD16R,0.500000X0.350000*%
%ADD17R,0.350000X0.500000*%
%ADD18R,0.900000X0.900000*%
G04 APERTURE END LIST*
G36*
G01*
X138470000Y-108240000D02*
X138470000Y-108560000D01*
G75*
G02*
X138360000Y-108670000I-110000J0D01*
G01*
X138140000Y-108670000D01*
G75*
G02*
X138030000Y-108560000I0J110000D01*
G01*
X138030000Y-108240000D01*
G75*
G02*
X138140000Y-108130000I110000J0D01*
G01*
X138360000Y-108130000D01*
G75*
G02*
X138470000Y-108240000I0J-110000D01*
G01*
G37*
G36*
G01*
X139490000Y-108240000D02*
X139490000Y-108560000D01*
G75*
G02*
X139380000Y-108670000I-110000J0D01*
G01*
X139160000Y-108670000D01*
G75*
G02*
X139050000Y-108560000I0J110000D01*
G01*
X139050000Y-108240000D01*
G75*
G02*
X139160000Y-108130000I110000J0D01*
G01*
X139380000Y-108130000D01*
G75*
G02*
X139490000Y-108240000I0J-110000D01*
G01*
G37*
G36*
G01*
X137834998Y-93175001D02*
X137834998Y-92855001D01*
G75*
G02*
X137944998Y-92745001I110000J0D01*
G01*
X138164998Y-92745001D01*
G75*
G02*
X138274998Y-92855001I0J-110000D01*
G01*
X138274998Y-93175001D01*
G75*
G02*
X138164998Y-93285001I-110000J0D01*
G01*
X137944998Y-93285001D01*
G75*
G02*
X137834998Y-93175001I0J110000D01*
G01*
G37*
G36*
G01*
X136814998Y-93175001D02*
X136814998Y-92855001D01*
G75*
G02*
X136924998Y-92745001I110000J0D01*
G01*
X137144998Y-92745001D01*
G75*
G02*
X137254998Y-92855001I0J-110000D01*
G01*
X137254998Y-93175001D01*
G75*
G02*
X137144998Y-93285001I-110000J0D01*
G01*
X136924998Y-93285001D01*
G75*
G02*
X136814998Y-93175001I0J110000D01*
G01*
G37*
G36*
G01*
X143425002Y-83554999D02*
X143425002Y-83874999D01*
G75*
G02*
X143315002Y-83984999I-110000J0D01*
G01*
X143095002Y-83984999D01*
G75*
G02*
X142985002Y-83874999I0J110000D01*
G01*
X142985002Y-83554999D01*
G75*
G02*
X143095002Y-83444999I110000J0D01*
G01*
X143315002Y-83444999D01*
G75*
G02*
X143425002Y-83554999I0J-110000D01*
G01*
G37*
G36*
G01*
X144445002Y-83554999D02*
X144445002Y-83874999D01*
G75*
G02*
X144335002Y-83984999I-110000J0D01*
G01*
X144115002Y-83984999D01*
G75*
G02*
X144005002Y-83874999I0J110000D01*
G01*
X144005002Y-83554999D01*
G75*
G02*
X144115002Y-83444999I110000J0D01*
G01*
X144335002Y-83444999D01*
G75*
G02*
X144445002Y-83554999I0J-110000D01*
G01*
G37*
G36*
G01*
X100430000Y-80140000D02*
X100750000Y-80140000D01*
G75*
G02*
X100860000Y-80250000I0J-110000D01*
G01*
X100860000Y-80470000D01*
G75*
G02*
X100750000Y-80580000I-110000J0D01*
G01*
X100430000Y-80580000D01*
G75*
G02*
X100320000Y-80470000I0J110000D01*
G01*
X100320000Y-80250000D01*
G75*
G02*
X100430000Y-80140000I110000J0D01*
G01*
G37*
G36*
G01*
X100430000Y-79120000D02*
X100750000Y-79120000D01*
G75*
G02*
X100860000Y-79230000I0J-110000D01*
G01*
X100860000Y-79450000D01*
G75*
G02*
X100750000Y-79560000I-110000J0D01*
G01*
X100430000Y-79560000D01*
G75*
G02*
X100320000Y-79450000I0J110000D01*
G01*
X100320000Y-79230000D01*
G75*
G02*
X100430000Y-79120000I110000J0D01*
G01*
G37*
G36*
G01*
X139360001Y-106475000D02*
X139040001Y-106475000D01*
G75*
G02*
X138930001Y-106365000I0J110000D01*
G01*
X138930001Y-106145000D01*
G75*
G02*
X139040001Y-106035000I110000J0D01*
G01*
X139360001Y-106035000D01*
G75*
G02*
X139470001Y-106145000I0J-110000D01*
G01*
X139470001Y-106365000D01*
G75*
G02*
X139360001Y-106475000I-110000J0D01*
G01*
G37*
G36*
G01*
X139360001Y-107495000D02*
X139040001Y-107495000D01*
G75*
G02*
X138930001Y-107385000I0J110000D01*
G01*
X138930001Y-107165000D01*
G75*
G02*
X139040001Y-107055000I110000J0D01*
G01*
X139360001Y-107055000D01*
G75*
G02*
X139470001Y-107165000I0J-110000D01*
G01*
X139470001Y-107385000D01*
G75*
G02*
X139360001Y-107495000I-110000J0D01*
G01*
G37*
G36*
G01*
X137830000Y-91750000D02*
X138150000Y-91750000D01*
G75*
G02*
X138260000Y-91860000I0J-110000D01*
G01*
X138260000Y-92080000D01*
G75*
G02*
X138150000Y-92190000I-110000J0D01*
G01*
X137830000Y-92190000D01*
G75*
G02*
X137720000Y-92080000I0J110000D01*
G01*
X137720000Y-91860000D01*
G75*
G02*
X137830000Y-91750000I110000J0D01*
G01*
G37*
G36*
G01*
X137830000Y-90730000D02*
X138150000Y-90730000D01*
G75*
G02*
X138260000Y-90840000I0J-110000D01*
G01*
X138260000Y-91060000D01*
G75*
G02*
X138150000Y-91170000I-110000J0D01*
G01*
X137830000Y-91170000D01*
G75*
G02*
X137720000Y-91060000I0J110000D01*
G01*
X137720000Y-90840000D01*
G75*
G02*
X137830000Y-90730000I110000J0D01*
G01*
G37*
G36*
G01*
X143425001Y-84985001D02*
X143105001Y-84985001D01*
G75*
G02*
X142995001Y-84875001I0J110000D01*
G01*
X142995001Y-84655001D01*
G75*
G02*
X143105001Y-84545001I110000J0D01*
G01*
X143425001Y-84545001D01*
G75*
G02*
X143535001Y-84655001I0J-110000D01*
G01*
X143535001Y-84875001D01*
G75*
G02*
X143425001Y-84985001I-110000J0D01*
G01*
G37*
G36*
G01*
X143425001Y-86005001D02*
X143105001Y-86005001D01*
G75*
G02*
X142995001Y-85895001I0J110000D01*
G01*
X142995001Y-85675001D01*
G75*
G02*
X143105001Y-85565001I110000J0D01*
G01*
X143425001Y-85565001D01*
G75*
G02*
X143535001Y-85675001I0J-110000D01*
G01*
X143535001Y-85895001D01*
G75*
G02*
X143425001Y-86005001I-110000J0D01*
G01*
G37*
G36*
G01*
X101860000Y-80140000D02*
X101860000Y-80460000D01*
G75*
G02*
X101750000Y-80570000I-110000J0D01*
G01*
X101530000Y-80570000D01*
G75*
G02*
X101420000Y-80460000I0J110000D01*
G01*
X101420000Y-80140000D01*
G75*
G02*
X101530000Y-80030000I110000J0D01*
G01*
X101750000Y-80030000D01*
G75*
G02*
X101860000Y-80140000I0J-110000D01*
G01*
G37*
G36*
G01*
X102880000Y-80140000D02*
X102880000Y-80460000D01*
G75*
G02*
X102770000Y-80570000I-110000J0D01*
G01*
X102550000Y-80570000D01*
G75*
G02*
X102440000Y-80460000I0J110000D01*
G01*
X102440000Y-80140000D01*
G75*
G02*
X102550000Y-80030000I110000J0D01*
G01*
X102770000Y-80030000D01*
G75*
G02*
X102880000Y-80140000I0J-110000D01*
G01*
G37*
G36*
G01*
X137930000Y-106474999D02*
X137930000Y-106154999D01*
G75*
G02*
X138040000Y-106044999I110000J0D01*
G01*
X138260000Y-106044999D01*
G75*
G02*
X138370000Y-106154999I0J-110000D01*
G01*
X138370000Y-106474999D01*
G75*
G02*
X138260000Y-106584999I-110000J0D01*
G01*
X138040000Y-106584999D01*
G75*
G02*
X137930000Y-106474999I0J110000D01*
G01*
G37*
G36*
G01*
X136910000Y-106474999D02*
X136910000Y-106154999D01*
G75*
G02*
X137020000Y-106044999I110000J0D01*
G01*
X137240000Y-106044999D01*
G75*
G02*
X137350000Y-106154999I0J-110000D01*
G01*
X137350000Y-106474999D01*
G75*
G02*
X137240000Y-106584999I-110000J0D01*
G01*
X137020000Y-106584999D01*
G75*
G02*
X136910000Y-106474999I0J110000D01*
G01*
G37*
G36*
G01*
X105270000Y-100700000D02*
X105590000Y-100700000D01*
G75*
G02*
X105700000Y-100810000I0J-110000D01*
G01*
X105700000Y-101030000D01*
G75*
G02*
X105590000Y-101140000I-110000J0D01*
G01*
X105270000Y-101140000D01*
G75*
G02*
X105160000Y-101030000I0J110000D01*
G01*
X105160000Y-100810000D01*
G75*
G02*
X105270000Y-100700000I110000J0D01*
G01*
G37*
G36*
G01*
X105270000Y-99680000D02*
X105590000Y-99680000D01*
G75*
G02*
X105700000Y-99790000I0J-110000D01*
G01*
X105700000Y-100010000D01*
G75*
G02*
X105590000Y-100120000I-110000J0D01*
G01*
X105270000Y-100120000D01*
G75*
G02*
X105160000Y-100010000I0J110000D01*
G01*
X105160000Y-99790000D01*
G75*
G02*
X105270000Y-99680000I110000J0D01*
G01*
G37*
G36*
G01*
X104270000Y-100780000D02*
X104590000Y-100780000D01*
G75*
G02*
X104700000Y-100890000I0J-110000D01*
G01*
X104700000Y-101110000D01*
G75*
G02*
X104590000Y-101220000I-110000J0D01*
G01*
X104270000Y-101220000D01*
G75*
G02*
X104160000Y-101110000I0J110000D01*
G01*
X104160000Y-100890000D01*
G75*
G02*
X104270000Y-100780000I110000J0D01*
G01*
G37*
G36*
G01*
X104270000Y-99760000D02*
X104590000Y-99760000D01*
G75*
G02*
X104700000Y-99870000I0J-110000D01*
G01*
X104700000Y-100090000D01*
G75*
G02*
X104590000Y-100200000I-110000J0D01*
G01*
X104270000Y-100200000D01*
G75*
G02*
X104160000Y-100090000I0J110000D01*
G01*
X104160000Y-99870000D01*
G75*
G02*
X104270000Y-99760000I110000J0D01*
G01*
G37*
G36*
G01*
X109710000Y-103080000D02*
X109710000Y-102760000D01*
G75*
G02*
X109820000Y-102650000I110000J0D01*
G01*
X110040000Y-102650000D01*
G75*
G02*
X110150000Y-102760000I0J-110000D01*
G01*
X110150000Y-103080000D01*
G75*
G02*
X110040000Y-103190000I-110000J0D01*
G01*
X109820000Y-103190000D01*
G75*
G02*
X109710000Y-103080000I0J110000D01*
G01*
G37*
G36*
G01*
X108690000Y-103080000D02*
X108690000Y-102760000D01*
G75*
G02*
X108800000Y-102650000I110000J0D01*
G01*
X109020000Y-102650000D01*
G75*
G02*
X109130000Y-102760000I0J-110000D01*
G01*
X109130000Y-103080000D01*
G75*
G02*
X109020000Y-103190000I-110000J0D01*
G01*
X108800000Y-103190000D01*
G75*
G02*
X108690000Y-103080000I0J110000D01*
G01*
G37*
G36*
G01*
X95370000Y-86200000D02*
X95690000Y-86200000D01*
G75*
G02*
X95800000Y-86310000I0J-110000D01*
G01*
X95800000Y-86530000D01*
G75*
G02*
X95690000Y-86640000I-110000J0D01*
G01*
X95370000Y-86640000D01*
G75*
G02*
X95260000Y-86530000I0J110000D01*
G01*
X95260000Y-86310000D01*
G75*
G02*
X95370000Y-86200000I110000J0D01*
G01*
G37*
G36*
G01*
X95370000Y-85180000D02*
X95690000Y-85180000D01*
G75*
G02*
X95800000Y-85290000I0J-110000D01*
G01*
X95800000Y-85510000D01*
G75*
G02*
X95690000Y-85620000I-110000J0D01*
G01*
X95370000Y-85620000D01*
G75*
G02*
X95260000Y-85510000I0J110000D01*
G01*
X95260000Y-85290000D01*
G75*
G02*
X95370000Y-85180000I110000J0D01*
G01*
G37*
D10*
X133958000Y-107790000D03*
X133958000Y-110500000D03*
X133558000Y-107790000D03*
X133558000Y-110500000D03*
X133158000Y-107790000D03*
X133158000Y-110500000D03*
X132758000Y-107790000D03*
X132758000Y-110500000D03*
X132358000Y-107790000D03*
X132358000Y-110500000D03*
X131958000Y-107790000D03*
X131958000Y-110500000D03*
X131558000Y-107790000D03*
X131558000Y-110500000D03*
X131158000Y-107790000D03*
X131158000Y-110500000D03*
X130758000Y-107790000D03*
X130758000Y-110500000D03*
X130358000Y-107790000D03*
X130358000Y-110500000D03*
X129958000Y-107790000D03*
X129958000Y-110500000D03*
X129558000Y-107790000D03*
X129558000Y-110500000D03*
X129158000Y-107790000D03*
X129158000Y-110500000D03*
X128758000Y-107790000D03*
X128758000Y-110500000D03*
X128358000Y-107790000D03*
X128358000Y-110500000D03*
X127958000Y-107790000D03*
X127958000Y-110500000D03*
X127558000Y-107790000D03*
X127558000Y-110500000D03*
X127158000Y-107790000D03*
X127158000Y-110500000D03*
X126758000Y-107790000D03*
X126758000Y-110500000D03*
X126358000Y-107790000D03*
X126358000Y-110500000D03*
X125958000Y-107790000D03*
X125958000Y-110500000D03*
X125558000Y-107790000D03*
X125558000Y-110500000D03*
X125158000Y-107790000D03*
X125158000Y-110500000D03*
X124758000Y-107790000D03*
X124758000Y-110500000D03*
X124358000Y-107790000D03*
X124358000Y-110500000D03*
X123958000Y-107790000D03*
X123958000Y-110500000D03*
X123558000Y-107790000D03*
X123558000Y-110500000D03*
X123158000Y-107790000D03*
X123158000Y-110500000D03*
X122758000Y-107790000D03*
X122758000Y-110500000D03*
X122358000Y-107790000D03*
X122358000Y-110500000D03*
X121958000Y-107790000D03*
X121958000Y-110500000D03*
X121558000Y-107790000D03*
X121558000Y-110500000D03*
X121158000Y-107790000D03*
X121158000Y-110500000D03*
X120758000Y-107790000D03*
X120758000Y-110500000D03*
X120358000Y-107790000D03*
X120358000Y-110500000D03*
X119958000Y-107790000D03*
X119958000Y-110500000D03*
X119558000Y-107790000D03*
X119558000Y-110500000D03*
X119158000Y-107790000D03*
X119158000Y-110500000D03*
X118758000Y-107790000D03*
X118758000Y-110500000D03*
X118358000Y-107790000D03*
X118358000Y-110500000D03*
D11*
X134433000Y-110500000D03*
X134433000Y-107790000D03*
X113883000Y-110500000D03*
X113883000Y-107790000D03*
D10*
X117958000Y-107790000D03*
X117958000Y-110500000D03*
X117558000Y-107790000D03*
X117558000Y-110500000D03*
X117158000Y-107790000D03*
X117158000Y-110500000D03*
X116758000Y-107790000D03*
X116758000Y-110500000D03*
X116358000Y-107790000D03*
X116358000Y-110500000D03*
X115958000Y-107790000D03*
X115958000Y-110500000D03*
X115558000Y-107790000D03*
X115558000Y-110500000D03*
X115158000Y-107790000D03*
X115158000Y-110500000D03*
X114758000Y-107790000D03*
X114758000Y-110500000D03*
X114358000Y-107790000D03*
X114358000Y-110500000D03*
D12*
X137640000Y-80760000D03*
X137640000Y-83300000D03*
D13*
X141580000Y-100690000D03*
X139040000Y-100690000D03*
X98210000Y-85925000D03*
X100750000Y-85925000D03*
G36*
G01*
X100398750Y-75930000D02*
X100861250Y-75930000D01*
G75*
G02*
X101055000Y-76123750I0J-193750D01*
G01*
X101055000Y-76511250D01*
G75*
G02*
X100861250Y-76705000I-193750J0D01*
G01*
X100398750Y-76705000D01*
G75*
G02*
X100205000Y-76511250I0J193750D01*
G01*
X100205000Y-76123750D01*
G75*
G02*
X100398750Y-75930000I193750J0D01*
G01*
G37*
G36*
G01*
X100398750Y-74355000D02*
X100861250Y-74355000D01*
G75*
G02*
X101055000Y-74548750I0J-193750D01*
G01*
X101055000Y-74936250D01*
G75*
G02*
X100861250Y-75130000I-193750J0D01*
G01*
X100398750Y-75130000D01*
G75*
G02*
X100205000Y-74936250I0J193750D01*
G01*
X100205000Y-74548750D01*
G75*
G02*
X100398750Y-74355000I193750J0D01*
G01*
G37*
G36*
G01*
X105025000Y-76373750D02*
X105025000Y-76836250D01*
G75*
G02*
X104831250Y-77030000I-193750J0D01*
G01*
X104443750Y-77030000D01*
G75*
G02*
X104250000Y-76836250I0J193750D01*
G01*
X104250000Y-76373750D01*
G75*
G02*
X104443750Y-76180000I193750J0D01*
G01*
X104831250Y-76180000D01*
G75*
G02*
X105025000Y-76373750I0J-193750D01*
G01*
G37*
G36*
G01*
X106600000Y-76373750D02*
X106600000Y-76836250D01*
G75*
G02*
X106406250Y-77030000I-193750J0D01*
G01*
X106018750Y-77030000D01*
G75*
G02*
X105825000Y-76836250I0J193750D01*
G01*
X105825000Y-76373750D01*
G75*
G02*
X106018750Y-76180000I193750J0D01*
G01*
X106406250Y-76180000D01*
G75*
G02*
X106600000Y-76373750I0J-193750D01*
G01*
G37*
G36*
G01*
X143660000Y-78971250D02*
X143660000Y-78508750D01*
G75*
G02*
X143853750Y-78315000I193750J0D01*
G01*
X144241250Y-78315000D01*
G75*
G02*
X144435000Y-78508750I0J-193750D01*
G01*
X144435000Y-78971250D01*
G75*
G02*
X144241250Y-79165000I-193750J0D01*
G01*
X143853750Y-79165000D01*
G75*
G02*
X143660000Y-78971250I0J193750D01*
G01*
G37*
G36*
G01*
X142085000Y-78971250D02*
X142085000Y-78508750D01*
G75*
G02*
X142278750Y-78315000I193750J0D01*
G01*
X142666250Y-78315000D01*
G75*
G02*
X142860000Y-78508750I0J-193750D01*
G01*
X142860000Y-78971250D01*
G75*
G02*
X142666250Y-79165000I-193750J0D01*
G01*
X142278750Y-79165000D01*
G75*
G02*
X142085000Y-78971250I0J193750D01*
G01*
G37*
G36*
G01*
X111308750Y-108040000D02*
X111771250Y-108040000D01*
G75*
G02*
X111965000Y-108233750I0J-193750D01*
G01*
X111965000Y-108621250D01*
G75*
G02*
X111771250Y-108815000I-193750J0D01*
G01*
X111308750Y-108815000D01*
G75*
G02*
X111115000Y-108621250I0J193750D01*
G01*
X111115000Y-108233750D01*
G75*
G02*
X111308750Y-108040000I193750J0D01*
G01*
G37*
G36*
G01*
X111308750Y-106465000D02*
X111771250Y-106465000D01*
G75*
G02*
X111965000Y-106658750I0J-193750D01*
G01*
X111965000Y-107046250D01*
G75*
G02*
X111771250Y-107240000I-193750J0D01*
G01*
X111308750Y-107240000D01*
G75*
G02*
X111115000Y-107046250I0J193750D01*
G01*
X111115000Y-106658750D01*
G75*
G02*
X111308750Y-106465000I193750J0D01*
G01*
G37*
G36*
G01*
X109748750Y-108040000D02*
X110211250Y-108040000D01*
G75*
G02*
X110405000Y-108233750I0J-193750D01*
G01*
X110405000Y-108621250D01*
G75*
G02*
X110211250Y-108815000I-193750J0D01*
G01*
X109748750Y-108815000D01*
G75*
G02*
X109555000Y-108621250I0J193750D01*
G01*
X109555000Y-108233750D01*
G75*
G02*
X109748750Y-108040000I193750J0D01*
G01*
G37*
G36*
G01*
X109748750Y-106465000D02*
X110211250Y-106465000D01*
G75*
G02*
X110405000Y-106658750I0J-193750D01*
G01*
X110405000Y-107046250D01*
G75*
G02*
X110211250Y-107240000I-193750J0D01*
G01*
X109748750Y-107240000D01*
G75*
G02*
X109555000Y-107046250I0J193750D01*
G01*
X109555000Y-106658750D01*
G75*
G02*
X109748750Y-106465000I193750J0D01*
G01*
G37*
D14*
X140150001Y-82285000D03*
X140150001Y-81335000D03*
X140150001Y-80385000D03*
X142750001Y-80385000D03*
X142750001Y-82285000D03*
G36*
G01*
X102168750Y-75900000D02*
X102631250Y-75900000D01*
G75*
G02*
X102825000Y-76093750I0J-193750D01*
G01*
X102825000Y-76481250D01*
G75*
G02*
X102631250Y-76675000I-193750J0D01*
G01*
X102168750Y-76675000D01*
G75*
G02*
X101975000Y-76481250I0J193750D01*
G01*
X101975000Y-76093750D01*
G75*
G02*
X102168750Y-75900000I193750J0D01*
G01*
G37*
G36*
G01*
X102168750Y-74325000D02*
X102631250Y-74325000D01*
G75*
G02*
X102825000Y-74518750I0J-193750D01*
G01*
X102825000Y-74906250D01*
G75*
G02*
X102631250Y-75100000I-193750J0D01*
G01*
X102168750Y-75100000D01*
G75*
G02*
X101975000Y-74906250I0J193750D01*
G01*
X101975000Y-74518750D01*
G75*
G02*
X102168750Y-74325000I193750J0D01*
G01*
G37*
D15*
X140630000Y-103200000D03*
X141580000Y-103200000D03*
X142530000Y-103200000D03*
X142530000Y-105800000D03*
X140630000Y-105800000D03*
X99160000Y-83415000D03*
X98210000Y-83415000D03*
X97260000Y-83415000D03*
X97260000Y-80815000D03*
X99160000Y-80815000D03*
G36*
G01*
X97040000Y-79310000D02*
X97040000Y-78860000D01*
G75*
G02*
X97240000Y-78660000I200000J0D01*
G01*
X97640000Y-78660000D01*
G75*
G02*
X97840000Y-78860000I0J-200000D01*
G01*
X97840000Y-79310000D01*
G75*
G02*
X97640000Y-79510000I-200000J0D01*
G01*
X97240000Y-79510000D01*
G75*
G02*
X97040000Y-79310000I0J200000D01*
G01*
G37*
G36*
G01*
X98590000Y-79310000D02*
X98590000Y-78860000D01*
G75*
G02*
X98790000Y-78660000I200000J0D01*
G01*
X99190000Y-78660000D01*
G75*
G02*
X99390000Y-78860000I0J-200000D01*
G01*
X99390000Y-79310000D01*
G75*
G02*
X99190000Y-79510000I-200000J0D01*
G01*
X98790000Y-79510000D01*
G75*
G02*
X98590000Y-79310000I0J200000D01*
G01*
G37*
G36*
G01*
X137900001Y-107510000D02*
X137900001Y-107220000D01*
G75*
G02*
X138015001Y-107105000I115000J0D01*
G01*
X138245001Y-107105000D01*
G75*
G02*
X138360001Y-107220000I0J-115000D01*
G01*
X138360001Y-107510000D01*
G75*
G02*
X138245001Y-107625000I-115000J0D01*
G01*
X138015001Y-107625000D01*
G75*
G02*
X137900001Y-107510000I0J115000D01*
G01*
G37*
G36*
G01*
X136940001Y-107510000D02*
X136940001Y-107220000D01*
G75*
G02*
X137055001Y-107105000I115000J0D01*
G01*
X137285001Y-107105000D01*
G75*
G02*
X137400001Y-107220000I0J-115000D01*
G01*
X137400001Y-107510000D01*
G75*
G02*
X137285001Y-107625000I-115000J0D01*
G01*
X137055001Y-107625000D01*
G75*
G02*
X136940001Y-107510000I0J115000D01*
G01*
G37*
G36*
G01*
X136550000Y-105214999D02*
X136550000Y-104764999D01*
G75*
G02*
X136750000Y-104564999I200000J0D01*
G01*
X137150000Y-104564999D01*
G75*
G02*
X137350000Y-104764999I0J-200000D01*
G01*
X137350000Y-105214999D01*
G75*
G02*
X137150000Y-105414999I-200000J0D01*
G01*
X136750000Y-105414999D01*
G75*
G02*
X136550000Y-105214999I0J200000D01*
G01*
G37*
G36*
G01*
X138100000Y-105214999D02*
X138100000Y-104764999D01*
G75*
G02*
X138300000Y-104564999I200000J0D01*
G01*
X138700000Y-104564999D01*
G75*
G02*
X138900000Y-104764999I0J-200000D01*
G01*
X138900000Y-105214999D01*
G75*
G02*
X138700000Y-105414999I-200000J0D01*
G01*
X138300000Y-105414999D01*
G75*
G02*
X138100000Y-105214999I0J200000D01*
G01*
G37*
G36*
G01*
X138090000Y-103580000D02*
X138090000Y-103130000D01*
G75*
G02*
X138290000Y-102930000I200000J0D01*
G01*
X138690000Y-102930000D01*
G75*
G02*
X138890000Y-103130000I0J-200000D01*
G01*
X138890000Y-103580000D01*
G75*
G02*
X138690000Y-103780000I-200000J0D01*
G01*
X138290000Y-103780000D01*
G75*
G02*
X138090000Y-103580000I0J200000D01*
G01*
G37*
G36*
G01*
X136540000Y-103580000D02*
X136540000Y-103130000D01*
G75*
G02*
X136740000Y-102930000I200000J0D01*
G01*
X137140000Y-102930000D01*
G75*
G02*
X137340000Y-103130000I0J-200000D01*
G01*
X137340000Y-103580000D01*
G75*
G02*
X137140000Y-103780000I-200000J0D01*
G01*
X136740000Y-103780000D01*
G75*
G02*
X136540000Y-103580000I0J200000D01*
G01*
G37*
G36*
G01*
X142750000Y-107305000D02*
X142750000Y-107755000D01*
G75*
G02*
X142550000Y-107955000I-200000J0D01*
G01*
X142150000Y-107955000D01*
G75*
G02*
X141950000Y-107755000I0J200000D01*
G01*
X141950000Y-107305000D01*
G75*
G02*
X142150000Y-107105000I200000J0D01*
G01*
X142550000Y-107105000D01*
G75*
G02*
X142750000Y-107305000I0J-200000D01*
G01*
G37*
G36*
G01*
X141200000Y-107305000D02*
X141200000Y-107755000D01*
G75*
G02*
X141000000Y-107955000I-200000J0D01*
G01*
X140600000Y-107955000D01*
G75*
G02*
X140400000Y-107755000I0J200000D01*
G01*
X140400000Y-107305000D01*
G75*
G02*
X140600000Y-107105000I200000J0D01*
G01*
X141000000Y-107105000D01*
G75*
G02*
X141200000Y-107305000I0J-200000D01*
G01*
G37*
G36*
G01*
X144459999Y-85975000D02*
X144169999Y-85975000D01*
G75*
G02*
X144054999Y-85860000I0J115000D01*
G01*
X144054999Y-85630000D01*
G75*
G02*
X144169999Y-85515000I115000J0D01*
G01*
X144459999Y-85515000D01*
G75*
G02*
X144574999Y-85630000I0J-115000D01*
G01*
X144574999Y-85860000D01*
G75*
G02*
X144459999Y-85975000I-115000J0D01*
G01*
G37*
G36*
G01*
X144459999Y-85015000D02*
X144169999Y-85015000D01*
G75*
G02*
X144054999Y-84900000I0J115000D01*
G01*
X144054999Y-84670000D01*
G75*
G02*
X144169999Y-84555000I115000J0D01*
G01*
X144459999Y-84555000D01*
G75*
G02*
X144574999Y-84670000I0J-115000D01*
G01*
X144574999Y-84900000D01*
G75*
G02*
X144459999Y-85015000I-115000J0D01*
G01*
G37*
G36*
G01*
X142165001Y-84814999D02*
X141715001Y-84814999D01*
G75*
G02*
X141515001Y-84614999I0J200000D01*
G01*
X141515001Y-84214999D01*
G75*
G02*
X141715001Y-84014999I200000J0D01*
G01*
X142165001Y-84014999D01*
G75*
G02*
X142365001Y-84214999I0J-200000D01*
G01*
X142365001Y-84614999D01*
G75*
G02*
X142165001Y-84814999I-200000J0D01*
G01*
G37*
G36*
G01*
X142165001Y-86364999D02*
X141715001Y-86364999D01*
G75*
G02*
X141515001Y-86164999I0J200000D01*
G01*
X141515001Y-85764999D01*
G75*
G02*
X141715001Y-85564999I200000J0D01*
G01*
X142165001Y-85564999D01*
G75*
G02*
X142365001Y-85764999I0J-200000D01*
G01*
X142365001Y-86164999D01*
G75*
G02*
X142165001Y-86364999I-200000J0D01*
G01*
G37*
G36*
G01*
X140530000Y-86374999D02*
X140080000Y-86374999D01*
G75*
G02*
X139880000Y-86174999I0J200000D01*
G01*
X139880000Y-85774999D01*
G75*
G02*
X140080000Y-85574999I200000J0D01*
G01*
X140530000Y-85574999D01*
G75*
G02*
X140730000Y-85774999I0J-200000D01*
G01*
X140730000Y-86174999D01*
G75*
G02*
X140530000Y-86374999I-200000J0D01*
G01*
G37*
G36*
G01*
X140530000Y-84824999D02*
X140080000Y-84824999D01*
G75*
G02*
X139880000Y-84624999I0J200000D01*
G01*
X139880000Y-84224999D01*
G75*
G02*
X140080000Y-84024999I200000J0D01*
G01*
X140530000Y-84024999D01*
G75*
G02*
X140730000Y-84224999I0J-200000D01*
G01*
X140730000Y-84624999D01*
G75*
G02*
X140530000Y-84824999I-200000J0D01*
G01*
G37*
G36*
G01*
X144255001Y-80165000D02*
X144705001Y-80165000D01*
G75*
G02*
X144905001Y-80365000I0J-200000D01*
G01*
X144905001Y-80765000D01*
G75*
G02*
X144705001Y-80965000I-200000J0D01*
G01*
X144255001Y-80965000D01*
G75*
G02*
X144055001Y-80765000I0J200000D01*
G01*
X144055001Y-80365000D01*
G75*
G02*
X144255001Y-80165000I200000J0D01*
G01*
G37*
G36*
G01*
X144255001Y-81715000D02*
X144705001Y-81715000D01*
G75*
G02*
X144905001Y-81915000I0J-200000D01*
G01*
X144905001Y-82315000D01*
G75*
G02*
X144705001Y-82515000I-200000J0D01*
G01*
X144255001Y-82515000D01*
G75*
G02*
X144055001Y-82315000I0J200000D01*
G01*
X144055001Y-81915000D01*
G75*
G02*
X144255001Y-81715000I200000J0D01*
G01*
G37*
G36*
G01*
X102850000Y-79105000D02*
X102850000Y-79395000D01*
G75*
G02*
X102735000Y-79510000I-115000J0D01*
G01*
X102505000Y-79510000D01*
G75*
G02*
X102390000Y-79395000I0J115000D01*
G01*
X102390000Y-79105000D01*
G75*
G02*
X102505000Y-78990000I115000J0D01*
G01*
X102735000Y-78990000D01*
G75*
G02*
X102850000Y-79105000I0J-115000D01*
G01*
G37*
G36*
G01*
X101890000Y-79105000D02*
X101890000Y-79395000D01*
G75*
G02*
X101775000Y-79510000I-115000J0D01*
G01*
X101545000Y-79510000D01*
G75*
G02*
X101430000Y-79395000I0J115000D01*
G01*
X101430000Y-79105000D01*
G75*
G02*
X101545000Y-78990000I115000J0D01*
G01*
X101775000Y-78990000D01*
G75*
G02*
X101890000Y-79105000I0J-115000D01*
G01*
G37*
G36*
G01*
X101690000Y-81400000D02*
X101690000Y-81850000D01*
G75*
G02*
X101490000Y-82050000I-200000J0D01*
G01*
X101090000Y-82050000D01*
G75*
G02*
X100890000Y-81850000I0J200000D01*
G01*
X100890000Y-81400000D01*
G75*
G02*
X101090000Y-81200000I200000J0D01*
G01*
X101490000Y-81200000D01*
G75*
G02*
X101690000Y-81400000I0J-200000D01*
G01*
G37*
G36*
G01*
X103240000Y-81400000D02*
X103240000Y-81850000D01*
G75*
G02*
X103040000Y-82050000I-200000J0D01*
G01*
X102640000Y-82050000D01*
G75*
G02*
X102440000Y-81850000I0J200000D01*
G01*
X102440000Y-81400000D01*
G75*
G02*
X102640000Y-81200000I200000J0D01*
G01*
X103040000Y-81200000D01*
G75*
G02*
X103240000Y-81400000I0J-200000D01*
G01*
G37*
G36*
G01*
X103250000Y-83035000D02*
X103250000Y-83485000D01*
G75*
G02*
X103050000Y-83685000I-200000J0D01*
G01*
X102650000Y-83685000D01*
G75*
G02*
X102450000Y-83485000I0J200000D01*
G01*
X102450000Y-83035000D01*
G75*
G02*
X102650000Y-82835000I200000J0D01*
G01*
X103050000Y-82835000D01*
G75*
G02*
X103250000Y-83035000I0J-200000D01*
G01*
G37*
G36*
G01*
X101700000Y-83035000D02*
X101700000Y-83485000D01*
G75*
G02*
X101500000Y-83685000I-200000J0D01*
G01*
X101100000Y-83685000D01*
G75*
G02*
X100900000Y-83485000I0J200000D01*
G01*
X100900000Y-83035000D01*
G75*
G02*
X101100000Y-82835000I200000J0D01*
G01*
X101500000Y-82835000D01*
G75*
G02*
X101700000Y-83035000I0J-200000D01*
G01*
G37*
G36*
G01*
X133015000Y-103975000D02*
X133015000Y-103525000D01*
G75*
G02*
X133215000Y-103325000I200000J0D01*
G01*
X133615000Y-103325000D01*
G75*
G02*
X133815000Y-103525000I0J-200000D01*
G01*
X133815000Y-103975000D01*
G75*
G02*
X133615000Y-104175000I-200000J0D01*
G01*
X133215000Y-104175000D01*
G75*
G02*
X133015000Y-103975000I0J200000D01*
G01*
G37*
G36*
G01*
X131465000Y-103975000D02*
X131465000Y-103525000D01*
G75*
G02*
X131665000Y-103325000I200000J0D01*
G01*
X132065000Y-103325000D01*
G75*
G02*
X132265000Y-103525000I0J-200000D01*
G01*
X132265000Y-103975000D01*
G75*
G02*
X132065000Y-104175000I-200000J0D01*
G01*
X131665000Y-104175000D01*
G75*
G02*
X131465000Y-103975000I0J200000D01*
G01*
G37*
G36*
G01*
X117005000Y-98445000D02*
X117455000Y-98445000D01*
G75*
G02*
X117655000Y-98645000I0J-200000D01*
G01*
X117655000Y-99045000D01*
G75*
G02*
X117455000Y-99245000I-200000J0D01*
G01*
X117005000Y-99245000D01*
G75*
G02*
X116805000Y-99045000I0J200000D01*
G01*
X116805000Y-98645000D01*
G75*
G02*
X117005000Y-98445000I200000J0D01*
G01*
G37*
G36*
G01*
X117005000Y-96895000D02*
X117455000Y-96895000D01*
G75*
G02*
X117655000Y-97095000I0J-200000D01*
G01*
X117655000Y-97495000D01*
G75*
G02*
X117455000Y-97695000I-200000J0D01*
G01*
X117005000Y-97695000D01*
G75*
G02*
X116805000Y-97495000I0J200000D01*
G01*
X116805000Y-97095000D01*
G75*
G02*
X117005000Y-96895000I200000J0D01*
G01*
G37*
G36*
G01*
X117455000Y-89045000D02*
X117005000Y-89045000D01*
G75*
G02*
X116805000Y-88845000I0J200000D01*
G01*
X116805000Y-88445000D01*
G75*
G02*
X117005000Y-88245000I200000J0D01*
G01*
X117455000Y-88245000D01*
G75*
G02*
X117655000Y-88445000I0J-200000D01*
G01*
X117655000Y-88845000D01*
G75*
G02*
X117455000Y-89045000I-200000J0D01*
G01*
G37*
G36*
G01*
X117455000Y-87495000D02*
X117005000Y-87495000D01*
G75*
G02*
X116805000Y-87295000I0J200000D01*
G01*
X116805000Y-86895000D01*
G75*
G02*
X117005000Y-86695000I200000J0D01*
G01*
X117455000Y-86695000D01*
G75*
G02*
X117655000Y-86895000I0J-200000D01*
G01*
X117655000Y-87295000D01*
G75*
G02*
X117455000Y-87495000I-200000J0D01*
G01*
G37*
G36*
G01*
X117005000Y-93445000D02*
X117455000Y-93445000D01*
G75*
G02*
X117655000Y-93645000I0J-200000D01*
G01*
X117655000Y-94045000D01*
G75*
G02*
X117455000Y-94245000I-200000J0D01*
G01*
X117005000Y-94245000D01*
G75*
G02*
X116805000Y-94045000I0J200000D01*
G01*
X116805000Y-93645000D01*
G75*
G02*
X117005000Y-93445000I200000J0D01*
G01*
G37*
G36*
G01*
X117005000Y-91895000D02*
X117455000Y-91895000D01*
G75*
G02*
X117655000Y-92095000I0J-200000D01*
G01*
X117655000Y-92495000D01*
G75*
G02*
X117455000Y-92695000I-200000J0D01*
G01*
X117005000Y-92695000D01*
G75*
G02*
X116805000Y-92495000I0J200000D01*
G01*
X116805000Y-92095000D01*
G75*
G02*
X117005000Y-91895000I200000J0D01*
G01*
G37*
G36*
G01*
X138683999Y-98473000D02*
X138683999Y-98023000D01*
G75*
G02*
X138883999Y-97823000I200000J0D01*
G01*
X139283999Y-97823000D01*
G75*
G02*
X139483999Y-98023000I0J-200000D01*
G01*
X139483999Y-98473000D01*
G75*
G02*
X139283999Y-98673000I-200000J0D01*
G01*
X138883999Y-98673000D01*
G75*
G02*
X138683999Y-98473000I0J200000D01*
G01*
G37*
G36*
G01*
X140233999Y-98473000D02*
X140233999Y-98023000D01*
G75*
G02*
X140433999Y-97823000I200000J0D01*
G01*
X140833999Y-97823000D01*
G75*
G02*
X141033999Y-98023000I0J-200000D01*
G01*
X141033999Y-98473000D01*
G75*
G02*
X140833999Y-98673000I-200000J0D01*
G01*
X140433999Y-98673000D01*
G75*
G02*
X140233999Y-98473000I0J200000D01*
G01*
G37*
G36*
G01*
X99556000Y-88142000D02*
X99556000Y-88592000D01*
G75*
G02*
X99356000Y-88792000I-200000J0D01*
G01*
X98956000Y-88792000D01*
G75*
G02*
X98756000Y-88592000I0J200000D01*
G01*
X98756000Y-88142000D01*
G75*
G02*
X98956000Y-87942000I200000J0D01*
G01*
X99356000Y-87942000D01*
G75*
G02*
X99556000Y-88142000I0J-200000D01*
G01*
G37*
G36*
G01*
X101106000Y-88142000D02*
X101106000Y-88592000D01*
G75*
G02*
X100906000Y-88792000I-200000J0D01*
G01*
X100506000Y-88792000D01*
G75*
G02*
X100306000Y-88592000I0J200000D01*
G01*
X100306000Y-88142000D01*
G75*
G02*
X100506000Y-87942000I200000J0D01*
G01*
X100906000Y-87942000D01*
G75*
G02*
X101106000Y-88142000I0J-200000D01*
G01*
G37*
G36*
G01*
X135465000Y-82265000D02*
X135015000Y-82265000D01*
G75*
G02*
X134815000Y-82065000I0J200000D01*
G01*
X134815000Y-81665000D01*
G75*
G02*
X135015000Y-81465000I200000J0D01*
G01*
X135465000Y-81465000D01*
G75*
G02*
X135665000Y-81665000I0J-200000D01*
G01*
X135665000Y-82065000D01*
G75*
G02*
X135465000Y-82265000I-200000J0D01*
G01*
G37*
G36*
G01*
X135465000Y-83815000D02*
X135015000Y-83815000D01*
G75*
G02*
X134815000Y-83615000I0J200000D01*
G01*
X134815000Y-83215000D01*
G75*
G02*
X135015000Y-83015000I200000J0D01*
G01*
X135465000Y-83015000D01*
G75*
G02*
X135665000Y-83215000I0J-200000D01*
G01*
X135665000Y-83615000D01*
G75*
G02*
X135465000Y-83815000I-200000J0D01*
G01*
G37*
G36*
G01*
X119485000Y-92920000D02*
X119775000Y-92920000D01*
G75*
G02*
X119890000Y-93035000I0J-115000D01*
G01*
X119890000Y-93265000D01*
G75*
G02*
X119775000Y-93380000I-115000J0D01*
G01*
X119485000Y-93380000D01*
G75*
G02*
X119370000Y-93265000I0J115000D01*
G01*
X119370000Y-93035000D01*
G75*
G02*
X119485000Y-92920000I115000J0D01*
G01*
G37*
G36*
G01*
X119485000Y-91960000D02*
X119775000Y-91960000D01*
G75*
G02*
X119890000Y-92075000I0J-115000D01*
G01*
X119890000Y-92305000D01*
G75*
G02*
X119775000Y-92420000I-115000J0D01*
G01*
X119485000Y-92420000D01*
G75*
G02*
X119370000Y-92305000I0J115000D01*
G01*
X119370000Y-92075000D01*
G75*
G02*
X119485000Y-91960000I115000J0D01*
G01*
G37*
G36*
G01*
X114685000Y-92920000D02*
X114975000Y-92920000D01*
G75*
G02*
X115090000Y-93035000I0J-115000D01*
G01*
X115090000Y-93265000D01*
G75*
G02*
X114975000Y-93380000I-115000J0D01*
G01*
X114685000Y-93380000D01*
G75*
G02*
X114570000Y-93265000I0J115000D01*
G01*
X114570000Y-93035000D01*
G75*
G02*
X114685000Y-92920000I115000J0D01*
G01*
G37*
G36*
G01*
X114685000Y-91960000D02*
X114975000Y-91960000D01*
G75*
G02*
X115090000Y-92075000I0J-115000D01*
G01*
X115090000Y-92305000D01*
G75*
G02*
X114975000Y-92420000I-115000J0D01*
G01*
X114685000Y-92420000D01*
G75*
G02*
X114570000Y-92305000I0J115000D01*
G01*
X114570000Y-92075000D01*
G75*
G02*
X114685000Y-91960000I115000J0D01*
G01*
G37*
G36*
G01*
X115485001Y-96960000D02*
X115775001Y-96960000D01*
G75*
G02*
X115890001Y-97075000I0J-115000D01*
G01*
X115890001Y-97305000D01*
G75*
G02*
X115775001Y-97420000I-115000J0D01*
G01*
X115485001Y-97420000D01*
G75*
G02*
X115370001Y-97305000I0J115000D01*
G01*
X115370001Y-97075000D01*
G75*
G02*
X115485001Y-96960000I115000J0D01*
G01*
G37*
G36*
G01*
X115485001Y-97920000D02*
X115775001Y-97920000D01*
G75*
G02*
X115890001Y-98035000I0J-115000D01*
G01*
X115890001Y-98265000D01*
G75*
G02*
X115775001Y-98380000I-115000J0D01*
G01*
X115485001Y-98380000D01*
G75*
G02*
X115370001Y-98265000I0J115000D01*
G01*
X115370001Y-98035000D01*
G75*
G02*
X115485001Y-97920000I115000J0D01*
G01*
G37*
G36*
G01*
X118685000Y-97920000D02*
X118975000Y-97920000D01*
G75*
G02*
X119090000Y-98035000I0J-115000D01*
G01*
X119090000Y-98265000D01*
G75*
G02*
X118975000Y-98380000I-115000J0D01*
G01*
X118685000Y-98380000D01*
G75*
G02*
X118570000Y-98265000I0J115000D01*
G01*
X118570000Y-98035000D01*
G75*
G02*
X118685000Y-97920000I115000J0D01*
G01*
G37*
G36*
G01*
X118685000Y-96960000D02*
X118975000Y-96960000D01*
G75*
G02*
X119090000Y-97075000I0J-115000D01*
G01*
X119090000Y-97305000D01*
G75*
G02*
X118975000Y-97420000I-115000J0D01*
G01*
X118685000Y-97420000D01*
G75*
G02*
X118570000Y-97305000I0J115000D01*
G01*
X118570000Y-97075000D01*
G75*
G02*
X118685000Y-96960000I115000J0D01*
G01*
G37*
G36*
G01*
X120585000Y-96860000D02*
X120875000Y-96860000D01*
G75*
G02*
X120990000Y-96975000I0J-115000D01*
G01*
X120990000Y-97205000D01*
G75*
G02*
X120875000Y-97320000I-115000J0D01*
G01*
X120585000Y-97320000D01*
G75*
G02*
X120470000Y-97205000I0J115000D01*
G01*
X120470000Y-96975000D01*
G75*
G02*
X120585000Y-96860000I115000J0D01*
G01*
G37*
G36*
G01*
X120585000Y-97820000D02*
X120875000Y-97820000D01*
G75*
G02*
X120990000Y-97935000I0J-115000D01*
G01*
X120990000Y-98165000D01*
G75*
G02*
X120875000Y-98280000I-115000J0D01*
G01*
X120585000Y-98280000D01*
G75*
G02*
X120470000Y-98165000I0J115000D01*
G01*
X120470000Y-97935000D01*
G75*
G02*
X120585000Y-97820000I115000J0D01*
G01*
G37*
G36*
G01*
X113485000Y-97720001D02*
X113775000Y-97720001D01*
G75*
G02*
X113890000Y-97835001I0J-115000D01*
G01*
X113890000Y-98065001D01*
G75*
G02*
X113775000Y-98180001I-115000J0D01*
G01*
X113485000Y-98180001D01*
G75*
G02*
X113370000Y-98065001I0J115000D01*
G01*
X113370000Y-97835001D01*
G75*
G02*
X113485000Y-97720001I115000J0D01*
G01*
G37*
G36*
G01*
X113485000Y-96760001D02*
X113775000Y-96760001D01*
G75*
G02*
X113890000Y-96875001I0J-115000D01*
G01*
X113890000Y-97105001D01*
G75*
G02*
X113775000Y-97220001I-115000J0D01*
G01*
X113485000Y-97220001D01*
G75*
G02*
X113370000Y-97105001I0J115000D01*
G01*
X113370000Y-96875001D01*
G75*
G02*
X113485000Y-96760001I115000J0D01*
G01*
G37*
G36*
G01*
X115080000Y-95015000D02*
X115080000Y-94725000D01*
G75*
G02*
X115195000Y-94610000I115000J0D01*
G01*
X115425000Y-94610000D01*
G75*
G02*
X115540000Y-94725000I0J-115000D01*
G01*
X115540000Y-95015000D01*
G75*
G02*
X115425000Y-95130000I-115000J0D01*
G01*
X115195000Y-95130000D01*
G75*
G02*
X115080000Y-95015000I0J115000D01*
G01*
G37*
G36*
G01*
X114120000Y-95015000D02*
X114120000Y-94725000D01*
G75*
G02*
X114235000Y-94610000I115000J0D01*
G01*
X114465000Y-94610000D01*
G75*
G02*
X114580000Y-94725000I0J-115000D01*
G01*
X114580000Y-95015000D01*
G75*
G02*
X114465000Y-95130000I-115000J0D01*
G01*
X114235000Y-95130000D01*
G75*
G02*
X114120000Y-95015000I0J115000D01*
G01*
G37*
G36*
G01*
X120340000Y-94725000D02*
X120340000Y-95015000D01*
G75*
G02*
X120225000Y-95130000I-115000J0D01*
G01*
X119995000Y-95130000D01*
G75*
G02*
X119880000Y-95015000I0J115000D01*
G01*
X119880000Y-94725000D01*
G75*
G02*
X119995000Y-94610000I115000J0D01*
G01*
X120225000Y-94610000D01*
G75*
G02*
X120340000Y-94725000I0J-115000D01*
G01*
G37*
G36*
G01*
X119380000Y-94725000D02*
X119380000Y-95015000D01*
G75*
G02*
X119265000Y-95130000I-115000J0D01*
G01*
X119035000Y-95130000D01*
G75*
G02*
X118920000Y-95015000I0J115000D01*
G01*
X118920000Y-94725000D01*
G75*
G02*
X119035000Y-94610000I115000J0D01*
G01*
X119265000Y-94610000D01*
G75*
G02*
X119380000Y-94725000I0J-115000D01*
G01*
G37*
G36*
G01*
X110940000Y-73445000D02*
X110940000Y-73155000D01*
G75*
G02*
X111055000Y-73040000I115000J0D01*
G01*
X111285000Y-73040000D01*
G75*
G02*
X111400000Y-73155000I0J-115000D01*
G01*
X111400000Y-73445000D01*
G75*
G02*
X111285000Y-73560000I-115000J0D01*
G01*
X111055000Y-73560000D01*
G75*
G02*
X110940000Y-73445000I0J115000D01*
G01*
G37*
G36*
G01*
X109980000Y-73445000D02*
X109980000Y-73155000D01*
G75*
G02*
X110095000Y-73040000I115000J0D01*
G01*
X110325000Y-73040000D01*
G75*
G02*
X110440000Y-73155000I0J-115000D01*
G01*
X110440000Y-73445000D01*
G75*
G02*
X110325000Y-73560000I-115000J0D01*
G01*
X110095000Y-73560000D01*
G75*
G02*
X109980000Y-73445000I0J115000D01*
G01*
G37*
G36*
G01*
X101310000Y-105025000D02*
X101310000Y-105315000D01*
G75*
G02*
X101195000Y-105430000I-115000J0D01*
G01*
X100965000Y-105430000D01*
G75*
G02*
X100850000Y-105315000I0J115000D01*
G01*
X100850000Y-105025000D01*
G75*
G02*
X100965000Y-104910000I115000J0D01*
G01*
X101195000Y-104910000D01*
G75*
G02*
X101310000Y-105025000I0J-115000D01*
G01*
G37*
G36*
G01*
X100350000Y-105025000D02*
X100350000Y-105315000D01*
G75*
G02*
X100235000Y-105430000I-115000J0D01*
G01*
X100005000Y-105430000D01*
G75*
G02*
X99890000Y-105315000I0J115000D01*
G01*
X99890000Y-105025000D01*
G75*
G02*
X100005000Y-104910000I115000J0D01*
G01*
X100235000Y-104910000D01*
G75*
G02*
X100350000Y-105025000I0J-115000D01*
G01*
G37*
G36*
G01*
X105055000Y-74855000D02*
X105055000Y-75305000D01*
G75*
G02*
X104855000Y-75505000I-200000J0D01*
G01*
X104455000Y-75505000D01*
G75*
G02*
X104255000Y-75305000I0J200000D01*
G01*
X104255000Y-74855000D01*
G75*
G02*
X104455000Y-74655000I200000J0D01*
G01*
X104855000Y-74655000D01*
G75*
G02*
X105055000Y-74855000I0J-200000D01*
G01*
G37*
G36*
G01*
X106605000Y-74855000D02*
X106605000Y-75305000D01*
G75*
G02*
X106405000Y-75505000I-200000J0D01*
G01*
X106005000Y-75505000D01*
G75*
G02*
X105805000Y-75305000I0J200000D01*
G01*
X105805000Y-74855000D01*
G75*
G02*
X106005000Y-74655000I200000J0D01*
G01*
X106405000Y-74655000D01*
G75*
G02*
X106605000Y-74855000I0J-200000D01*
G01*
G37*
D10*
X114358000Y-76500000D03*
X114358000Y-73790000D03*
X114758000Y-76500000D03*
X114758000Y-73790000D03*
X115158000Y-76500000D03*
X115158000Y-73790000D03*
X115558000Y-76500000D03*
X115558000Y-73790000D03*
X115958000Y-76500000D03*
X115958000Y-73790000D03*
X116358000Y-76500000D03*
X116358000Y-73790000D03*
X116758000Y-76500000D03*
X116758000Y-73790000D03*
X117158000Y-76500000D03*
X117158000Y-73790000D03*
X117558000Y-76500000D03*
X117558000Y-73790000D03*
X117958000Y-76500000D03*
X117958000Y-73790000D03*
D11*
X113883000Y-73790000D03*
X113883000Y-76500000D03*
X134433000Y-73790000D03*
X134433000Y-76500000D03*
D10*
X118358000Y-76500000D03*
X118358000Y-73790000D03*
X118758000Y-76500000D03*
X118758000Y-73790000D03*
X119158000Y-76500000D03*
X119158000Y-73790000D03*
X119558000Y-76500000D03*
X119558000Y-73790000D03*
X119958000Y-76500000D03*
X119958000Y-73790000D03*
X120358000Y-76500000D03*
X120358000Y-73790000D03*
X120758000Y-76500000D03*
X120758000Y-73790000D03*
X121158000Y-76500000D03*
X121158000Y-73790000D03*
X121558000Y-76500000D03*
X121558000Y-73790000D03*
X121958000Y-76500000D03*
X121958000Y-73790000D03*
X122358000Y-76500000D03*
X122358000Y-73790000D03*
X122758000Y-76500000D03*
X122758000Y-73790000D03*
X123158000Y-76500000D03*
X123158000Y-73790000D03*
X123558000Y-76500000D03*
X123558000Y-73790000D03*
X123958000Y-76500000D03*
X123958000Y-73790000D03*
X124358000Y-76500000D03*
X124358000Y-73790000D03*
X124758000Y-76500000D03*
X124758000Y-73790000D03*
X125158000Y-76500000D03*
X125158000Y-73790000D03*
X125558000Y-76500000D03*
X125558000Y-73790000D03*
X125958000Y-76500000D03*
X125958000Y-73790000D03*
X126358000Y-76500000D03*
X126358000Y-73790000D03*
X126758000Y-76500000D03*
X126758000Y-73790000D03*
X127158000Y-76500000D03*
X127158000Y-73790000D03*
X127558000Y-76500000D03*
X127558000Y-73790000D03*
X127958000Y-76500000D03*
X127958000Y-73790000D03*
X128358000Y-76500000D03*
X128358000Y-73790000D03*
X128758000Y-76500000D03*
X128758000Y-73790000D03*
X129158000Y-76500000D03*
X129158000Y-73790000D03*
X129558000Y-76500000D03*
X129558000Y-73790000D03*
X129958000Y-76500000D03*
X129958000Y-73790000D03*
X130358000Y-76500000D03*
X130358000Y-73790000D03*
X130758000Y-76500000D03*
X130758000Y-73790000D03*
X131158000Y-76500000D03*
X131158000Y-73790000D03*
X131558000Y-76500000D03*
X131558000Y-73790000D03*
X131958000Y-76500000D03*
X131958000Y-73790000D03*
X132358000Y-76500000D03*
X132358000Y-73790000D03*
X132758000Y-76500000D03*
X132758000Y-73790000D03*
X133158000Y-76500000D03*
X133158000Y-73790000D03*
X133558000Y-76500000D03*
X133558000Y-73790000D03*
X133958000Y-76500000D03*
X133958000Y-73790000D03*
D16*
X107540000Y-76030001D03*
X109640000Y-76030001D03*
X107540002Y-78000000D03*
X109640002Y-78000000D03*
D17*
X110230000Y-81660000D03*
X110230000Y-79560000D03*
X108250000Y-81640000D03*
X108250000Y-79540000D03*
G36*
G01*
X111980000Y-76250000D02*
X111980000Y-76570000D01*
G75*
G02*
X111870000Y-76680000I-110000J0D01*
G01*
X111650000Y-76680000D01*
G75*
G02*
X111540000Y-76570000I0J110000D01*
G01*
X111540000Y-76250000D01*
G75*
G02*
X111650000Y-76140000I110000J0D01*
G01*
X111870000Y-76140000D01*
G75*
G02*
X111980000Y-76250000I0J-110000D01*
G01*
G37*
G36*
G01*
X110960000Y-76250000D02*
X110960000Y-76570000D01*
G75*
G02*
X110850000Y-76680000I-110000J0D01*
G01*
X110630000Y-76680000D01*
G75*
G02*
X110520000Y-76570000I0J110000D01*
G01*
X110520000Y-76250000D01*
G75*
G02*
X110630000Y-76140000I110000J0D01*
G01*
X110850000Y-76140000D01*
G75*
G02*
X110960000Y-76250000I0J-110000D01*
G01*
G37*
G36*
G01*
X110950000Y-75240000D02*
X110950000Y-75560000D01*
G75*
G02*
X110840000Y-75670000I-110000J0D01*
G01*
X110620000Y-75670000D01*
G75*
G02*
X110510000Y-75560000I0J110000D01*
G01*
X110510000Y-75240000D01*
G75*
G02*
X110620000Y-75130000I110000J0D01*
G01*
X110840000Y-75130000D01*
G75*
G02*
X110950000Y-75240000I0J-110000D01*
G01*
G37*
G36*
G01*
X111970000Y-75240000D02*
X111970000Y-75560000D01*
G75*
G02*
X111860000Y-75670000I-110000J0D01*
G01*
X111640000Y-75670000D01*
G75*
G02*
X111530000Y-75560000I0J110000D01*
G01*
X111530000Y-75240000D01*
G75*
G02*
X111640000Y-75130000I110000J0D01*
G01*
X111860000Y-75130000D01*
G75*
G02*
X111970000Y-75240000I0J-110000D01*
G01*
G37*
G36*
G01*
X109970000Y-74349999D02*
X109970000Y-74669999D01*
G75*
G02*
X109860000Y-74779999I-110000J0D01*
G01*
X109640000Y-74779999D01*
G75*
G02*
X109530000Y-74669999I0J110000D01*
G01*
X109530000Y-74349999D01*
G75*
G02*
X109640000Y-74239999I110000J0D01*
G01*
X109860000Y-74239999D01*
G75*
G02*
X109970000Y-74349999I0J-110000D01*
G01*
G37*
G36*
G01*
X108950000Y-74349999D02*
X108950000Y-74669999D01*
G75*
G02*
X108840000Y-74779999I-110000J0D01*
G01*
X108620000Y-74779999D01*
G75*
G02*
X108510000Y-74669999I0J110000D01*
G01*
X108510000Y-74349999D01*
G75*
G02*
X108620000Y-74239999I110000J0D01*
G01*
X108840000Y-74239999D01*
G75*
G02*
X108950000Y-74349999I0J-110000D01*
G01*
G37*
G36*
G01*
X111550000Y-77610000D02*
X111550000Y-77290000D01*
G75*
G02*
X111660000Y-77180000I110000J0D01*
G01*
X111880000Y-77180000D01*
G75*
G02*
X111990000Y-77290000I0J-110000D01*
G01*
X111990000Y-77610000D01*
G75*
G02*
X111880000Y-77720000I-110000J0D01*
G01*
X111660000Y-77720000D01*
G75*
G02*
X111550000Y-77610000I0J110000D01*
G01*
G37*
G36*
G01*
X110530000Y-77610000D02*
X110530000Y-77290000D01*
G75*
G02*
X110640000Y-77180000I110000J0D01*
G01*
X110860000Y-77180000D01*
G75*
G02*
X110970000Y-77290000I0J-110000D01*
G01*
X110970000Y-77610000D01*
G75*
G02*
X110860000Y-77720000I-110000J0D01*
G01*
X110640000Y-77720000D01*
G75*
G02*
X110530000Y-77610000I0J110000D01*
G01*
G37*
G36*
G01*
X111910000Y-79670001D02*
X111590000Y-79670001D01*
G75*
G02*
X111480000Y-79560001I0J110000D01*
G01*
X111480000Y-79340001D01*
G75*
G02*
X111590000Y-79230001I110000J0D01*
G01*
X111910000Y-79230001D01*
G75*
G02*
X112020000Y-79340001I0J-110000D01*
G01*
X112020000Y-79560001D01*
G75*
G02*
X111910000Y-79670001I-110000J0D01*
G01*
G37*
G36*
G01*
X111910000Y-80690001D02*
X111590000Y-80690001D01*
G75*
G02*
X111480000Y-80580001I0J110000D01*
G01*
X111480000Y-80360001D01*
G75*
G02*
X111590000Y-80250001I110000J0D01*
G01*
X111910000Y-80250001D01*
G75*
G02*
X112020000Y-80360001I0J-110000D01*
G01*
X112020000Y-80580001D01*
G75*
G02*
X111910000Y-80690001I-110000J0D01*
G01*
G37*
G36*
G01*
X110525001Y-78624999D02*
X110525001Y-78304999D01*
G75*
G02*
X110635001Y-78194999I110000J0D01*
G01*
X110855001Y-78194999D01*
G75*
G02*
X110965001Y-78304999I0J-110000D01*
G01*
X110965001Y-78624999D01*
G75*
G02*
X110855001Y-78734999I-110000J0D01*
G01*
X110635001Y-78734999D01*
G75*
G02*
X110525001Y-78624999I0J110000D01*
G01*
G37*
G36*
G01*
X111545001Y-78624999D02*
X111545001Y-78304999D01*
G75*
G02*
X111655001Y-78194999I110000J0D01*
G01*
X111875001Y-78194999D01*
G75*
G02*
X111985001Y-78304999I0J-110000D01*
G01*
X111985001Y-78624999D01*
G75*
G02*
X111875001Y-78734999I-110000J0D01*
G01*
X111655001Y-78734999D01*
G75*
G02*
X111545001Y-78624999I0J110000D01*
G01*
G37*
G36*
G01*
X125130000Y-80090000D02*
X124810000Y-80090000D01*
G75*
G02*
X124700000Y-79980000I0J110000D01*
G01*
X124700000Y-79760000D01*
G75*
G02*
X124810000Y-79650000I110000J0D01*
G01*
X125130000Y-79650000D01*
G75*
G02*
X125240000Y-79760000I0J-110000D01*
G01*
X125240000Y-79980000D01*
G75*
G02*
X125130000Y-80090000I-110000J0D01*
G01*
G37*
G36*
G01*
X125130000Y-79070000D02*
X124810000Y-79070000D01*
G75*
G02*
X124700000Y-78960000I0J110000D01*
G01*
X124700000Y-78740000D01*
G75*
G02*
X124810000Y-78630000I110000J0D01*
G01*
X125130000Y-78630000D01*
G75*
G02*
X125240000Y-78740000I0J-110000D01*
G01*
X125240000Y-78960000D01*
G75*
G02*
X125130000Y-79070000I-110000J0D01*
G01*
G37*
G36*
G01*
X126130000Y-80090000D02*
X125810000Y-80090000D01*
G75*
G02*
X125700000Y-79980000I0J110000D01*
G01*
X125700000Y-79760000D01*
G75*
G02*
X125810000Y-79650000I110000J0D01*
G01*
X126130000Y-79650000D01*
G75*
G02*
X126240000Y-79760000I0J-110000D01*
G01*
X126240000Y-79980000D01*
G75*
G02*
X126130000Y-80090000I-110000J0D01*
G01*
G37*
G36*
G01*
X126130000Y-79070000D02*
X125810000Y-79070000D01*
G75*
G02*
X125700000Y-78960000I0J110000D01*
G01*
X125700000Y-78740000D01*
G75*
G02*
X125810000Y-78630000I110000J0D01*
G01*
X126130000Y-78630000D01*
G75*
G02*
X126240000Y-78740000I0J-110000D01*
G01*
X126240000Y-78960000D01*
G75*
G02*
X126130000Y-79070000I-110000J0D01*
G01*
G37*
G36*
G01*
X123130000Y-80100000D02*
X122810000Y-80100000D01*
G75*
G02*
X122700000Y-79990000I0J110000D01*
G01*
X122700000Y-79770000D01*
G75*
G02*
X122810000Y-79660000I110000J0D01*
G01*
X123130000Y-79660000D01*
G75*
G02*
X123240000Y-79770000I0J-110000D01*
G01*
X123240000Y-79990000D01*
G75*
G02*
X123130000Y-80100000I-110000J0D01*
G01*
G37*
G36*
G01*
X123130000Y-79080000D02*
X122810000Y-79080000D01*
G75*
G02*
X122700000Y-78970000I0J110000D01*
G01*
X122700000Y-78750000D01*
G75*
G02*
X122810000Y-78640000I110000J0D01*
G01*
X123130000Y-78640000D01*
G75*
G02*
X123240000Y-78750000I0J-110000D01*
G01*
X123240000Y-78970000D01*
G75*
G02*
X123130000Y-79080000I-110000J0D01*
G01*
G37*
G36*
G01*
X122130000Y-79081370D02*
X121810000Y-79081370D01*
G75*
G02*
X121700000Y-78971370I0J110000D01*
G01*
X121700000Y-78751370D01*
G75*
G02*
X121810000Y-78641370I110000J0D01*
G01*
X122130000Y-78641370D01*
G75*
G02*
X122240000Y-78751370I0J-110000D01*
G01*
X122240000Y-78971370D01*
G75*
G02*
X122130000Y-79081370I-110000J0D01*
G01*
G37*
G36*
G01*
X122130000Y-80101370D02*
X121810000Y-80101370D01*
G75*
G02*
X121700000Y-79991370I0J110000D01*
G01*
X121700000Y-79771370D01*
G75*
G02*
X121810000Y-79661370I110000J0D01*
G01*
X122130000Y-79661370D01*
G75*
G02*
X122240000Y-79771370I0J-110000D01*
G01*
X122240000Y-79991370D01*
G75*
G02*
X122130000Y-80101370I-110000J0D01*
G01*
G37*
G36*
G01*
X124130000Y-80100000D02*
X123810000Y-80100000D01*
G75*
G02*
X123700000Y-79990000I0J110000D01*
G01*
X123700000Y-79770000D01*
G75*
G02*
X123810000Y-79660000I110000J0D01*
G01*
X124130000Y-79660000D01*
G75*
G02*
X124240000Y-79770000I0J-110000D01*
G01*
X124240000Y-79990000D01*
G75*
G02*
X124130000Y-80100000I-110000J0D01*
G01*
G37*
G36*
G01*
X124130000Y-79080000D02*
X123810000Y-79080000D01*
G75*
G02*
X123700000Y-78970000I0J110000D01*
G01*
X123700000Y-78750000D01*
G75*
G02*
X123810000Y-78640000I110000J0D01*
G01*
X124130000Y-78640000D01*
G75*
G02*
X124240000Y-78750000I0J-110000D01*
G01*
X124240000Y-78970000D01*
G75*
G02*
X124130000Y-79080000I-110000J0D01*
G01*
G37*
G36*
G01*
X121130293Y-79081371D02*
X120810293Y-79081371D01*
G75*
G02*
X120700293Y-78971371I0J110000D01*
G01*
X120700293Y-78751371D01*
G75*
G02*
X120810293Y-78641371I110000J0D01*
G01*
X121130293Y-78641371D01*
G75*
G02*
X121240293Y-78751371I0J-110000D01*
G01*
X121240293Y-78971371D01*
G75*
G02*
X121130293Y-79081371I-110000J0D01*
G01*
G37*
G36*
G01*
X121130293Y-80101371D02*
X120810293Y-80101371D01*
G75*
G02*
X120700293Y-79991371I0J110000D01*
G01*
X120700293Y-79771371D01*
G75*
G02*
X120810293Y-79661371I110000J0D01*
G01*
X121130293Y-79661371D01*
G75*
G02*
X121240293Y-79771371I0J-110000D01*
G01*
X121240293Y-79991371D01*
G75*
G02*
X121130293Y-80101371I-110000J0D01*
G01*
G37*
G36*
G01*
X116315000Y-105940000D02*
X116025000Y-105940000D01*
G75*
G02*
X115910000Y-105825000I0J115000D01*
G01*
X115910000Y-105595000D01*
G75*
G02*
X116025000Y-105480000I115000J0D01*
G01*
X116315000Y-105480000D01*
G75*
G02*
X116430000Y-105595000I0J-115000D01*
G01*
X116430000Y-105825000D01*
G75*
G02*
X116315000Y-105940000I-115000J0D01*
G01*
G37*
G36*
G01*
X116315000Y-104980000D02*
X116025000Y-104980000D01*
G75*
G02*
X115910000Y-104865000I0J115000D01*
G01*
X115910000Y-104635000D01*
G75*
G02*
X116025000Y-104520000I115000J0D01*
G01*
X116315000Y-104520000D01*
G75*
G02*
X116430000Y-104635000I0J-115000D01*
G01*
X116430000Y-104865000D01*
G75*
G02*
X116315000Y-104980000I-115000J0D01*
G01*
G37*
G36*
G01*
X117335000Y-104980000D02*
X117045000Y-104980000D01*
G75*
G02*
X116930000Y-104865000I0J115000D01*
G01*
X116930000Y-104635000D01*
G75*
G02*
X117045000Y-104520000I115000J0D01*
G01*
X117335000Y-104520000D01*
G75*
G02*
X117450000Y-104635000I0J-115000D01*
G01*
X117450000Y-104865000D01*
G75*
G02*
X117335000Y-104980000I-115000J0D01*
G01*
G37*
G36*
G01*
X117335000Y-105940000D02*
X117045000Y-105940000D01*
G75*
G02*
X116930000Y-105825000I0J115000D01*
G01*
X116930000Y-105595000D01*
G75*
G02*
X117045000Y-105480000I115000J0D01*
G01*
X117335000Y-105480000D01*
G75*
G02*
X117450000Y-105595000I0J-115000D01*
G01*
X117450000Y-105825000D01*
G75*
G02*
X117335000Y-105940000I-115000J0D01*
G01*
G37*
G36*
G01*
X113315000Y-105940000D02*
X113025000Y-105940000D01*
G75*
G02*
X112910000Y-105825000I0J115000D01*
G01*
X112910000Y-105595000D01*
G75*
G02*
X113025000Y-105480000I115000J0D01*
G01*
X113315000Y-105480000D01*
G75*
G02*
X113430000Y-105595000I0J-115000D01*
G01*
X113430000Y-105825000D01*
G75*
G02*
X113315000Y-105940000I-115000J0D01*
G01*
G37*
G36*
G01*
X113315000Y-104980000D02*
X113025000Y-104980000D01*
G75*
G02*
X112910000Y-104865000I0J115000D01*
G01*
X112910000Y-104635000D01*
G75*
G02*
X113025000Y-104520000I115000J0D01*
G01*
X113315000Y-104520000D01*
G75*
G02*
X113430000Y-104635000I0J-115000D01*
G01*
X113430000Y-104865000D01*
G75*
G02*
X113315000Y-104980000I-115000J0D01*
G01*
G37*
G36*
G01*
X120335000Y-105940000D02*
X120045000Y-105940000D01*
G75*
G02*
X119930000Y-105825000I0J115000D01*
G01*
X119930000Y-105595000D01*
G75*
G02*
X120045000Y-105480000I115000J0D01*
G01*
X120335000Y-105480000D01*
G75*
G02*
X120450000Y-105595000I0J-115000D01*
G01*
X120450000Y-105825000D01*
G75*
G02*
X120335000Y-105940000I-115000J0D01*
G01*
G37*
G36*
G01*
X120335000Y-104980000D02*
X120045000Y-104980000D01*
G75*
G02*
X119930000Y-104865000I0J115000D01*
G01*
X119930000Y-104635000D01*
G75*
G02*
X120045000Y-104520000I115000J0D01*
G01*
X120335000Y-104520000D01*
G75*
G02*
X120450000Y-104635000I0J-115000D01*
G01*
X120450000Y-104865000D01*
G75*
G02*
X120335000Y-104980000I-115000J0D01*
G01*
G37*
G36*
G01*
X114025000Y-104520000D02*
X114315000Y-104520000D01*
G75*
G02*
X114430000Y-104635000I0J-115000D01*
G01*
X114430000Y-104865000D01*
G75*
G02*
X114315000Y-104980000I-115000J0D01*
G01*
X114025000Y-104980000D01*
G75*
G02*
X113910000Y-104865000I0J115000D01*
G01*
X113910000Y-104635000D01*
G75*
G02*
X114025000Y-104520000I115000J0D01*
G01*
G37*
G36*
G01*
X114025000Y-105480000D02*
X114315000Y-105480000D01*
G75*
G02*
X114430000Y-105595000I0J-115000D01*
G01*
X114430000Y-105825000D01*
G75*
G02*
X114315000Y-105940000I-115000J0D01*
G01*
X114025000Y-105940000D01*
G75*
G02*
X113910000Y-105825000I0J115000D01*
G01*
X113910000Y-105595000D01*
G75*
G02*
X114025000Y-105480000I115000J0D01*
G01*
G37*
G36*
G01*
X119045000Y-104520000D02*
X119335000Y-104520000D01*
G75*
G02*
X119450000Y-104635000I0J-115000D01*
G01*
X119450000Y-104865000D01*
G75*
G02*
X119335000Y-104980000I-115000J0D01*
G01*
X119045000Y-104980000D01*
G75*
G02*
X118930000Y-104865000I0J115000D01*
G01*
X118930000Y-104635000D01*
G75*
G02*
X119045000Y-104520000I115000J0D01*
G01*
G37*
G36*
G01*
X119045000Y-105480000D02*
X119335000Y-105480000D01*
G75*
G02*
X119450000Y-105595000I0J-115000D01*
G01*
X119450000Y-105825000D01*
G75*
G02*
X119335000Y-105940000I-115000J0D01*
G01*
X119045000Y-105940000D01*
G75*
G02*
X118930000Y-105825000I0J115000D01*
G01*
X118930000Y-105595000D01*
G75*
G02*
X119045000Y-105480000I115000J0D01*
G01*
G37*
G36*
G01*
X115025000Y-105480000D02*
X115315000Y-105480000D01*
G75*
G02*
X115430000Y-105595000I0J-115000D01*
G01*
X115430000Y-105825000D01*
G75*
G02*
X115315000Y-105940000I-115000J0D01*
G01*
X115025000Y-105940000D01*
G75*
G02*
X114910000Y-105825000I0J115000D01*
G01*
X114910000Y-105595000D01*
G75*
G02*
X115025000Y-105480000I115000J0D01*
G01*
G37*
G36*
G01*
X115025000Y-104520000D02*
X115315000Y-104520000D01*
G75*
G02*
X115430000Y-104635000I0J-115000D01*
G01*
X115430000Y-104865000D01*
G75*
G02*
X115315000Y-104980000I-115000J0D01*
G01*
X115025000Y-104980000D01*
G75*
G02*
X114910000Y-104865000I0J115000D01*
G01*
X114910000Y-104635000D01*
G75*
G02*
X115025000Y-104520000I115000J0D01*
G01*
G37*
G36*
G01*
X118045000Y-105480000D02*
X118335000Y-105480000D01*
G75*
G02*
X118450000Y-105595000I0J-115000D01*
G01*
X118450000Y-105825000D01*
G75*
G02*
X118335000Y-105940000I-115000J0D01*
G01*
X118045000Y-105940000D01*
G75*
G02*
X117930000Y-105825000I0J115000D01*
G01*
X117930000Y-105595000D01*
G75*
G02*
X118045000Y-105480000I115000J0D01*
G01*
G37*
G36*
G01*
X118045000Y-104520000D02*
X118335000Y-104520000D01*
G75*
G02*
X118450000Y-104635000I0J-115000D01*
G01*
X118450000Y-104865000D01*
G75*
G02*
X118335000Y-104980000I-115000J0D01*
G01*
X118045000Y-104980000D01*
G75*
G02*
X117930000Y-104865000I0J115000D01*
G01*
X117930000Y-104635000D01*
G75*
G02*
X118045000Y-104520000I115000J0D01*
G01*
G37*
D18*
X114170000Y-80600000D03*
X114170000Y-83100000D03*
X112210000Y-84220000D03*
X112210000Y-81720000D03*
G36*
G01*
X113780000Y-78460000D02*
X113780000Y-78140000D01*
G75*
G02*
X113890000Y-78030000I110000J0D01*
G01*
X114110000Y-78030000D01*
G75*
G02*
X114220000Y-78140000I0J-110000D01*
G01*
X114220000Y-78460000D01*
G75*
G02*
X114110000Y-78570000I-110000J0D01*
G01*
X113890000Y-78570000D01*
G75*
G02*
X113780000Y-78460000I0J110000D01*
G01*
G37*
G36*
G01*
X114800000Y-78460000D02*
X114800000Y-78140000D01*
G75*
G02*
X114910000Y-78030000I110000J0D01*
G01*
X115130000Y-78030000D01*
G75*
G02*
X115240000Y-78140000I0J-110000D01*
G01*
X115240000Y-78460000D01*
G75*
G02*
X115130000Y-78570000I-110000J0D01*
G01*
X114910000Y-78570000D01*
G75*
G02*
X114800000Y-78460000I0J110000D01*
G01*
G37*
G36*
G01*
X127843051Y-84720675D02*
X128069325Y-84946949D01*
G75*
G02*
X128069325Y-85102513I-77782J-77782D01*
G01*
X127913761Y-85258077D01*
G75*
G02*
X127758197Y-85258077I-77782J77782D01*
G01*
X127531923Y-85031803D01*
G75*
G02*
X127531923Y-84876239I77782J77782D01*
G01*
X127687487Y-84720675D01*
G75*
G02*
X127843051Y-84720675I77782J-77782D01*
G01*
G37*
G36*
G01*
X127121803Y-85441923D02*
X127348077Y-85668197D01*
G75*
G02*
X127348077Y-85823761I-77782J-77782D01*
G01*
X127192513Y-85979325D01*
G75*
G02*
X127036949Y-85979325I-77782J77782D01*
G01*
X126810675Y-85753051D01*
G75*
G02*
X126810675Y-85597487I77782J77782D01*
G01*
X126966239Y-85441923D01*
G75*
G02*
X127121803Y-85441923I77782J-77782D01*
G01*
G37*
G36*
G01*
X125633051Y-84080675D02*
X125859325Y-84306949D01*
G75*
G02*
X125859325Y-84462513I-77782J-77782D01*
G01*
X125703761Y-84618077D01*
G75*
G02*
X125548197Y-84618077I-77782J77782D01*
G01*
X125321923Y-84391803D01*
G75*
G02*
X125321923Y-84236239I77782J77782D01*
G01*
X125477487Y-84080675D01*
G75*
G02*
X125633051Y-84080675I77782J-77782D01*
G01*
G37*
G36*
G01*
X124911803Y-84801923D02*
X125138077Y-85028197D01*
G75*
G02*
X125138077Y-85183761I-77782J-77782D01*
G01*
X124982513Y-85339325D01*
G75*
G02*
X124826949Y-85339325I-77782J77782D01*
G01*
X124600675Y-85113051D01*
G75*
G02*
X124600675Y-84957487I77782J77782D01*
G01*
X124756239Y-84801923D01*
G75*
G02*
X124911803Y-84801923I77782J-77782D01*
G01*
G37*
G36*
G01*
X119251179Y-83372547D02*
X119477453Y-83598821D01*
G75*
G02*
X119477453Y-83754385I-77782J-77782D01*
G01*
X119321889Y-83909949D01*
G75*
G02*
X119166325Y-83909949I-77782J77782D01*
G01*
X118940051Y-83683675D01*
G75*
G02*
X118940051Y-83528111I77782J77782D01*
G01*
X119095615Y-83372547D01*
G75*
G02*
X119251179Y-83372547I77782J-77782D01*
G01*
G37*
G36*
G01*
X119972427Y-82651299D02*
X120198701Y-82877573D01*
G75*
G02*
X120198701Y-83033137I-77782J-77782D01*
G01*
X120043137Y-83188701D01*
G75*
G02*
X119887573Y-83188701I-77782J77782D01*
G01*
X119661299Y-82962427D01*
G75*
G02*
X119661299Y-82806863I77782J77782D01*
G01*
X119816863Y-82651299D01*
G75*
G02*
X119972427Y-82651299I77782J-77782D01*
G01*
G37*
G36*
G01*
X120681803Y-81981923D02*
X120908077Y-82208197D01*
G75*
G02*
X120908077Y-82363761I-77782J-77782D01*
G01*
X120752513Y-82519325D01*
G75*
G02*
X120596949Y-82519325I-77782J77782D01*
G01*
X120370675Y-82293051D01*
G75*
G02*
X120370675Y-82137487I77782J77782D01*
G01*
X120526239Y-81981923D01*
G75*
G02*
X120681803Y-81981923I77782J-77782D01*
G01*
G37*
G36*
G01*
X121403051Y-81260675D02*
X121629325Y-81486949D01*
G75*
G02*
X121629325Y-81642513I-77782J-77782D01*
G01*
X121473761Y-81798077D01*
G75*
G02*
X121318197Y-81798077I-77782J77782D01*
G01*
X121091923Y-81571803D01*
G75*
G02*
X121091923Y-81416239I77782J77782D01*
G01*
X121247487Y-81260675D01*
G75*
G02*
X121403051Y-81260675I77782J-77782D01*
G01*
G37*
G36*
G01*
X125796949Y-87489325D02*
X125570675Y-87263051D01*
G75*
G02*
X125570675Y-87107487I77782J77782D01*
G01*
X125726239Y-86951923D01*
G75*
G02*
X125881803Y-86951923I77782J-77782D01*
G01*
X126108077Y-87178197D01*
G75*
G02*
X126108077Y-87333761I-77782J-77782D01*
G01*
X125952513Y-87489325D01*
G75*
G02*
X125796949Y-87489325I-77782J77782D01*
G01*
G37*
G36*
G01*
X126518197Y-86768077D02*
X126291923Y-86541803D01*
G75*
G02*
X126291923Y-86386239I77782J77782D01*
G01*
X126447487Y-86230675D01*
G75*
G02*
X126603051Y-86230675I77782J-77782D01*
G01*
X126829325Y-86456949D01*
G75*
G02*
X126829325Y-86612513I-77782J-77782D01*
G01*
X126673761Y-86768077D01*
G75*
G02*
X126518197Y-86768077I-77782J77782D01*
G01*
G37*
G36*
G01*
X126598197Y-84988077D02*
X126371923Y-84761803D01*
G75*
G02*
X126371923Y-84606239I77782J77782D01*
G01*
X126527487Y-84450675D01*
G75*
G02*
X126683051Y-84450675I77782J-77782D01*
G01*
X126909325Y-84676949D01*
G75*
G02*
X126909325Y-84832513I-77782J-77782D01*
G01*
X126753761Y-84988077D01*
G75*
G02*
X126598197Y-84988077I-77782J77782D01*
G01*
G37*
G36*
G01*
X125876949Y-85709325D02*
X125650675Y-85483051D01*
G75*
G02*
X125650675Y-85327487I77782J77782D01*
G01*
X125806239Y-85171923D01*
G75*
G02*
X125961803Y-85171923I77782J-77782D01*
G01*
X126188077Y-85398197D01*
G75*
G02*
X126188077Y-85553761I-77782J-77782D01*
G01*
X126032513Y-85709325D01*
G75*
G02*
X125876949Y-85709325I-77782J77782D01*
G01*
G37*
G36*
G01*
X119876949Y-84609325D02*
X119650675Y-84383051D01*
G75*
G02*
X119650675Y-84227487I77782J77782D01*
G01*
X119806239Y-84071923D01*
G75*
G02*
X119961803Y-84071923I77782J-77782D01*
G01*
X120188077Y-84298197D01*
G75*
G02*
X120188077Y-84453761I-77782J-77782D01*
G01*
X120032513Y-84609325D01*
G75*
G02*
X119876949Y-84609325I-77782J77782D01*
G01*
G37*
G36*
G01*
X120598197Y-83888077D02*
X120371923Y-83661803D01*
G75*
G02*
X120371923Y-83506239I77782J77782D01*
G01*
X120527487Y-83350675D01*
G75*
G02*
X120683051Y-83350675I77782J-77782D01*
G01*
X120909325Y-83576949D01*
G75*
G02*
X120909325Y-83732513I-77782J-77782D01*
G01*
X120753761Y-83888077D01*
G75*
G02*
X120598197Y-83888077I-77782J77782D01*
G01*
G37*
G36*
G01*
X121316949Y-83229325D02*
X121090675Y-83003051D01*
G75*
G02*
X121090675Y-82847487I77782J77782D01*
G01*
X121246239Y-82691923D01*
G75*
G02*
X121401803Y-82691923I77782J-77782D01*
G01*
X121628077Y-82918197D01*
G75*
G02*
X121628077Y-83073761I-77782J-77782D01*
G01*
X121472513Y-83229325D01*
G75*
G02*
X121316949Y-83229325I-77782J77782D01*
G01*
G37*
G36*
G01*
X122038197Y-82508077D02*
X121811923Y-82281803D01*
G75*
G02*
X121811923Y-82126239I77782J77782D01*
G01*
X121967487Y-81970675D01*
G75*
G02*
X122123051Y-81970675I77782J-77782D01*
G01*
X122349325Y-82196949D01*
G75*
G02*
X122349325Y-82352513I-77782J-77782D01*
G01*
X122193761Y-82508077D01*
G75*
G02*
X122038197Y-82508077I-77782J77782D01*
G01*
G37*
G36*
G01*
X121050000Y-87140000D02*
X121370000Y-87140000D01*
G75*
G02*
X121480000Y-87250000I0J-110000D01*
G01*
X121480000Y-87470000D01*
G75*
G02*
X121370000Y-87580000I-110000J0D01*
G01*
X121050000Y-87580000D01*
G75*
G02*
X120940000Y-87470000I0J110000D01*
G01*
X120940000Y-87250000D01*
G75*
G02*
X121050000Y-87140000I110000J0D01*
G01*
G37*
G36*
G01*
X121050000Y-86120000D02*
X121370000Y-86120000D01*
G75*
G02*
X121480000Y-86230000I0J-110000D01*
G01*
X121480000Y-86450000D01*
G75*
G02*
X121370000Y-86560000I-110000J0D01*
G01*
X121050000Y-86560000D01*
G75*
G02*
X120940000Y-86450000I0J110000D01*
G01*
X120940000Y-86230000D01*
G75*
G02*
X121050000Y-86120000I110000J0D01*
G01*
G37*
G36*
G01*
X122060000Y-86120000D02*
X122380000Y-86120000D01*
G75*
G02*
X122490000Y-86230000I0J-110000D01*
G01*
X122490000Y-86450000D01*
G75*
G02*
X122380000Y-86560000I-110000J0D01*
G01*
X122060000Y-86560000D01*
G75*
G02*
X121950000Y-86450000I0J110000D01*
G01*
X121950000Y-86230000D01*
G75*
G02*
X122060000Y-86120000I110000J0D01*
G01*
G37*
G36*
G01*
X122060000Y-87140000D02*
X122380000Y-87140000D01*
G75*
G02*
X122490000Y-87250000I0J-110000D01*
G01*
X122490000Y-87470000D01*
G75*
G02*
X122380000Y-87580000I-110000J0D01*
G01*
X122060000Y-87580000D01*
G75*
G02*
X121950000Y-87470000I0J110000D01*
G01*
X121950000Y-87250000D01*
G75*
G02*
X122060000Y-87140000I110000J0D01*
G01*
G37*
G36*
G01*
X137005000Y-96564999D02*
X136555000Y-96564999D01*
G75*
G02*
X136355000Y-96364999I0J200000D01*
G01*
X136355000Y-95964999D01*
G75*
G02*
X136555000Y-95764999I200000J0D01*
G01*
X137005000Y-95764999D01*
G75*
G02*
X137205000Y-95964999I0J-200000D01*
G01*
X137205000Y-96364999D01*
G75*
G02*
X137005000Y-96564999I-200000J0D01*
G01*
G37*
G36*
G01*
X137005000Y-95014999D02*
X136555000Y-95014999D01*
G75*
G02*
X136355000Y-94814999I0J200000D01*
G01*
X136355000Y-94414999D01*
G75*
G02*
X136555000Y-94214999I200000J0D01*
G01*
X137005000Y-94214999D01*
G75*
G02*
X137205000Y-94414999I0J-200000D01*
G01*
X137205000Y-94814999D01*
G75*
G02*
X137005000Y-95014999I-200000J0D01*
G01*
G37*
G36*
G01*
X136800001Y-90755000D02*
X137090001Y-90755000D01*
G75*
G02*
X137205001Y-90870000I0J-115000D01*
G01*
X137205001Y-91100000D01*
G75*
G02*
X137090001Y-91215000I-115000J0D01*
G01*
X136800001Y-91215000D01*
G75*
G02*
X136685001Y-91100000I0J115000D01*
G01*
X136685001Y-90870000D01*
G75*
G02*
X136800001Y-90755000I115000J0D01*
G01*
G37*
G36*
G01*
X136800001Y-91715000D02*
X137090001Y-91715000D01*
G75*
G02*
X137205001Y-91830000I0J-115000D01*
G01*
X137205001Y-92060000D01*
G75*
G02*
X137090001Y-92175000I-115000J0D01*
G01*
X136800001Y-92175000D01*
G75*
G02*
X136685001Y-92060000I0J115000D01*
G01*
X136685001Y-91830000D01*
G75*
G02*
X136800001Y-91715000I115000J0D01*
G01*
G37*
G36*
G01*
X139094998Y-91915001D02*
X139544998Y-91915001D01*
G75*
G02*
X139744998Y-92115001I0J-200000D01*
G01*
X139744998Y-92515001D01*
G75*
G02*
X139544998Y-92715001I-200000J0D01*
G01*
X139094998Y-92715001D01*
G75*
G02*
X138894998Y-92515001I0J200000D01*
G01*
X138894998Y-92115001D01*
G75*
G02*
X139094998Y-91915001I200000J0D01*
G01*
G37*
G36*
G01*
X139094998Y-90365001D02*
X139544998Y-90365001D01*
G75*
G02*
X139744998Y-90565001I0J-200000D01*
G01*
X139744998Y-90965001D01*
G75*
G02*
X139544998Y-91165001I-200000J0D01*
G01*
X139094998Y-91165001D01*
G75*
G02*
X138894998Y-90965001I0J200000D01*
G01*
X138894998Y-90565001D01*
G75*
G02*
X139094998Y-90365001I200000J0D01*
G01*
G37*
G36*
G01*
X140730000Y-90355001D02*
X141180000Y-90355001D01*
G75*
G02*
X141380000Y-90555001I0J-200000D01*
G01*
X141380000Y-90955001D01*
G75*
G02*
X141180000Y-91155001I-200000J0D01*
G01*
X140730000Y-91155001D01*
G75*
G02*
X140530000Y-90955001I0J200000D01*
G01*
X140530000Y-90555001D01*
G75*
G02*
X140730000Y-90355001I200000J0D01*
G01*
G37*
G36*
G01*
X140730000Y-91905001D02*
X141180000Y-91905001D01*
G75*
G02*
X141380000Y-92105001I0J-200000D01*
G01*
X141380000Y-92505001D01*
G75*
G02*
X141180000Y-92705001I-200000J0D01*
G01*
X140730000Y-92705001D01*
G75*
G02*
X140530000Y-92505001I0J200000D01*
G01*
X140530000Y-92105001D01*
G75*
G02*
X140730000Y-91905001I200000J0D01*
G01*
G37*
G36*
G01*
X145837001Y-92499000D02*
X146287001Y-92499000D01*
G75*
G02*
X146487001Y-92699000I0J-200000D01*
G01*
X146487001Y-93099000D01*
G75*
G02*
X146287001Y-93299000I-200000J0D01*
G01*
X145837001Y-93299000D01*
G75*
G02*
X145637001Y-93099000I0J200000D01*
G01*
X145637001Y-92699000D01*
G75*
G02*
X145837001Y-92499000I200000J0D01*
G01*
G37*
G36*
G01*
X145837001Y-94049000D02*
X146287001Y-94049000D01*
G75*
G02*
X146487001Y-94249000I0J-200000D01*
G01*
X146487001Y-94649000D01*
G75*
G02*
X146287001Y-94849000I-200000J0D01*
G01*
X145837001Y-94849000D01*
G75*
G02*
X145637001Y-94649000I0J200000D01*
G01*
X145637001Y-94249000D01*
G75*
G02*
X145837001Y-94049000I200000J0D01*
G01*
G37*
G36*
G01*
X146175000Y-89455000D02*
X146175000Y-89005000D01*
G75*
G02*
X146375000Y-88805000I200000J0D01*
G01*
X146775000Y-88805000D01*
G75*
G02*
X146975000Y-89005000I0J-200000D01*
G01*
X146975000Y-89455000D01*
G75*
G02*
X146775000Y-89655000I-200000J0D01*
G01*
X146375000Y-89655000D01*
G75*
G02*
X146175000Y-89455000I0J200000D01*
G01*
G37*
G36*
G01*
X144625000Y-89455000D02*
X144625000Y-89005000D01*
G75*
G02*
X144825000Y-88805000I200000J0D01*
G01*
X145225000Y-88805000D01*
G75*
G02*
X145425000Y-89005000I0J-200000D01*
G01*
X145425000Y-89455000D01*
G75*
G02*
X145225000Y-89655000I-200000J0D01*
G01*
X144825000Y-89655000D01*
G75*
G02*
X144625000Y-89455000I0J200000D01*
G01*
G37*
D12*
X143620000Y-92855001D03*
X143620000Y-95395001D03*
D14*
X138510000Y-94440000D03*
X138510000Y-96340000D03*
X141110000Y-96340000D03*
X141110000Y-95390000D03*
X141110000Y-94440000D03*
G36*
G01*
X133265000Y-88955000D02*
X133265000Y-88505000D01*
G75*
G02*
X133465000Y-88305000I200000J0D01*
G01*
X133865000Y-88305000D01*
G75*
G02*
X134065000Y-88505000I0J-200000D01*
G01*
X134065000Y-88955000D01*
G75*
G02*
X133865000Y-89155000I-200000J0D01*
G01*
X133465000Y-89155000D01*
G75*
G02*
X133265000Y-88955000I0J200000D01*
G01*
G37*
G36*
G01*
X131715000Y-88955000D02*
X131715000Y-88505000D01*
G75*
G02*
X131915000Y-88305000I200000J0D01*
G01*
X132315000Y-88305000D01*
G75*
G02*
X132515000Y-88505000I0J-200000D01*
G01*
X132515000Y-88955000D01*
G75*
G02*
X132315000Y-89155000I-200000J0D01*
G01*
X131915000Y-89155000D01*
G75*
G02*
X131715000Y-88955000I0J200000D01*
G01*
G37*
G36*
G01*
X135110000Y-90015000D02*
X135110000Y-90305000D01*
G75*
G02*
X134995000Y-90420000I-115000J0D01*
G01*
X134765000Y-90420000D01*
G75*
G02*
X134650000Y-90305000I0J115000D01*
G01*
X134650000Y-90015000D01*
G75*
G02*
X134765000Y-89900000I115000J0D01*
G01*
X134995000Y-89900000D01*
G75*
G02*
X135110000Y-90015000I0J-115000D01*
G01*
G37*
G36*
G01*
X134150000Y-90015000D02*
X134150000Y-90305000D01*
G75*
G02*
X134035000Y-90420000I-115000J0D01*
G01*
X133805000Y-90420000D01*
G75*
G02*
X133690000Y-90305000I0J115000D01*
G01*
X133690000Y-90015000D01*
G75*
G02*
X133805000Y-89900000I115000J0D01*
G01*
X134035000Y-89900000D01*
G75*
G02*
X134150000Y-90015000I0J-115000D01*
G01*
G37*
G36*
G01*
X136060000Y-88365000D02*
X136060000Y-88655000D01*
G75*
G02*
X135945000Y-88770000I-115000J0D01*
G01*
X135715000Y-88770000D01*
G75*
G02*
X135600000Y-88655000I0J115000D01*
G01*
X135600000Y-88365000D01*
G75*
G02*
X135715000Y-88250000I115000J0D01*
G01*
X135945000Y-88250000D01*
G75*
G02*
X136060000Y-88365000I0J-115000D01*
G01*
G37*
G36*
G01*
X135100000Y-88365000D02*
X135100000Y-88655000D01*
G75*
G02*
X134985000Y-88770000I-115000J0D01*
G01*
X134755000Y-88770000D01*
G75*
G02*
X134640000Y-88655000I0J115000D01*
G01*
X134640000Y-88365000D01*
G75*
G02*
X134755000Y-88250000I115000J0D01*
G01*
X134985000Y-88250000D01*
G75*
G02*
X135100000Y-88365000I0J-115000D01*
G01*
G37*
G36*
G01*
X134150000Y-91015000D02*
X134150000Y-91305000D01*
G75*
G02*
X134035000Y-91420000I-115000J0D01*
G01*
X133805000Y-91420000D01*
G75*
G02*
X133690000Y-91305000I0J115000D01*
G01*
X133690000Y-91015000D01*
G75*
G02*
X133805000Y-90900000I115000J0D01*
G01*
X134035000Y-90900000D01*
G75*
G02*
X134150000Y-91015000I0J-115000D01*
G01*
G37*
G36*
G01*
X135110000Y-91015000D02*
X135110000Y-91305000D01*
G75*
G02*
X134995000Y-91420000I-115000J0D01*
G01*
X134765000Y-91420000D01*
G75*
G02*
X134650000Y-91305000I0J115000D01*
G01*
X134650000Y-91015000D01*
G75*
G02*
X134765000Y-90900000I115000J0D01*
G01*
X134995000Y-90900000D01*
G75*
G02*
X135110000Y-91015000I0J-115000D01*
G01*
G37*
G36*
G01*
X133115000Y-90835000D02*
X133115000Y-91285000D01*
G75*
G02*
X132915000Y-91485000I-200000J0D01*
G01*
X132515000Y-91485000D01*
G75*
G02*
X132315000Y-91285000I0J200000D01*
G01*
X132315000Y-90835000D01*
G75*
G02*
X132515000Y-90635000I200000J0D01*
G01*
X132915000Y-90635000D01*
G75*
G02*
X133115000Y-90835000I0J-200000D01*
G01*
G37*
G36*
G01*
X131565000Y-90835000D02*
X131565000Y-91285000D01*
G75*
G02*
X131365000Y-91485000I-200000J0D01*
G01*
X130965000Y-91485000D01*
G75*
G02*
X130765000Y-91285000I0J200000D01*
G01*
X130765000Y-90835000D01*
G75*
G02*
X130965000Y-90635000I200000J0D01*
G01*
X131365000Y-90635000D01*
G75*
G02*
X131565000Y-90835000I0J-200000D01*
G01*
G37*
G36*
G01*
X95075000Y-100800000D02*
X94785000Y-100800000D01*
G75*
G02*
X94670000Y-100685000I0J115000D01*
G01*
X94670000Y-100455000D01*
G75*
G02*
X94785000Y-100340000I115000J0D01*
G01*
X95075000Y-100340000D01*
G75*
G02*
X95190000Y-100455000I0J-115000D01*
G01*
X95190000Y-100685000D01*
G75*
G02*
X95075000Y-100800000I-115000J0D01*
G01*
G37*
G36*
G01*
X95075000Y-99840000D02*
X94785000Y-99840000D01*
G75*
G02*
X94670000Y-99725000I0J115000D01*
G01*
X94670000Y-99495000D01*
G75*
G02*
X94785000Y-99380000I115000J0D01*
G01*
X95075000Y-99380000D01*
G75*
G02*
X95190000Y-99495000I0J-115000D01*
G01*
X95190000Y-99725000D01*
G75*
G02*
X95075000Y-99840000I-115000J0D01*
G01*
G37*
G36*
G01*
X99345000Y-102330000D02*
X99635000Y-102330000D01*
G75*
G02*
X99750000Y-102445000I0J-115000D01*
G01*
X99750000Y-102675000D01*
G75*
G02*
X99635000Y-102790000I-115000J0D01*
G01*
X99345000Y-102790000D01*
G75*
G02*
X99230000Y-102675000I0J115000D01*
G01*
X99230000Y-102445000D01*
G75*
G02*
X99345000Y-102330000I115000J0D01*
G01*
G37*
G36*
G01*
X99345000Y-103290000D02*
X99635000Y-103290000D01*
G75*
G02*
X99750000Y-103405000I0J-115000D01*
G01*
X99750000Y-103635000D01*
G75*
G02*
X99635000Y-103750000I-115000J0D01*
G01*
X99345000Y-103750000D01*
G75*
G02*
X99230000Y-103635000I0J115000D01*
G01*
X99230000Y-103405000D01*
G75*
G02*
X99345000Y-103290000I115000J0D01*
G01*
G37*
G36*
G01*
X101180000Y-103695000D02*
X101180000Y-103405000D01*
G75*
G02*
X101295000Y-103290000I115000J0D01*
G01*
X101525000Y-103290000D01*
G75*
G02*
X101640000Y-103405000I0J-115000D01*
G01*
X101640000Y-103695000D01*
G75*
G02*
X101525000Y-103810000I-115000J0D01*
G01*
X101295000Y-103810000D01*
G75*
G02*
X101180000Y-103695000I0J115000D01*
G01*
G37*
G36*
G01*
X100220000Y-103695000D02*
X100220000Y-103405000D01*
G75*
G02*
X100335000Y-103290000I115000J0D01*
G01*
X100565000Y-103290000D01*
G75*
G02*
X100680000Y-103405000I0J-115000D01*
G01*
X100680000Y-103695000D01*
G75*
G02*
X100565000Y-103810000I-115000J0D01*
G01*
X100335000Y-103810000D01*
G75*
G02*
X100220000Y-103695000I0J115000D01*
G01*
G37*
G36*
G01*
X101190000Y-102705000D02*
X101190000Y-102415000D01*
G75*
G02*
X101305000Y-102300000I115000J0D01*
G01*
X101535000Y-102300000D01*
G75*
G02*
X101650000Y-102415000I0J-115000D01*
G01*
X101650000Y-102705000D01*
G75*
G02*
X101535000Y-102820000I-115000J0D01*
G01*
X101305000Y-102820000D01*
G75*
G02*
X101190000Y-102705000I0J115000D01*
G01*
G37*
G36*
G01*
X100230000Y-102705000D02*
X100230000Y-102415000D01*
G75*
G02*
X100345000Y-102300000I115000J0D01*
G01*
X100575000Y-102300000D01*
G75*
G02*
X100690000Y-102415000I0J-115000D01*
G01*
X100690000Y-102705000D01*
G75*
G02*
X100575000Y-102820000I-115000J0D01*
G01*
X100345000Y-102820000D01*
G75*
G02*
X100230000Y-102705000I0J115000D01*
G01*
G37*
G36*
G01*
X103171250Y-104875000D02*
X102708750Y-104875000D01*
G75*
G02*
X102515000Y-104681250I0J193750D01*
G01*
X102515000Y-104293750D01*
G75*
G02*
X102708750Y-104100000I193750J0D01*
G01*
X103171250Y-104100000D01*
G75*
G02*
X103365000Y-104293750I0J-193750D01*
G01*
X103365000Y-104681250D01*
G75*
G02*
X103171250Y-104875000I-193750J0D01*
G01*
G37*
G36*
G01*
X103171250Y-103300000D02*
X102708750Y-103300000D01*
G75*
G02*
X102515000Y-103106250I0J193750D01*
G01*
X102515000Y-102718750D01*
G75*
G02*
X102708750Y-102525000I193750J0D01*
G01*
X103171250Y-102525000D01*
G75*
G02*
X103365000Y-102718750I0J-193750D01*
G01*
X103365000Y-103106250D01*
G75*
G02*
X103171250Y-103300000I-193750J0D01*
G01*
G37*
G36*
G01*
X94880000Y-95450000D02*
X95200000Y-95450000D01*
G75*
G02*
X95310000Y-95560000I0J-110000D01*
G01*
X95310000Y-95780000D01*
G75*
G02*
X95200000Y-95890000I-110000J0D01*
G01*
X94880000Y-95890000D01*
G75*
G02*
X94770000Y-95780000I0J110000D01*
G01*
X94770000Y-95560000D01*
G75*
G02*
X94880000Y-95450000I110000J0D01*
G01*
G37*
G36*
G01*
X94880000Y-96470000D02*
X95200000Y-96470000D01*
G75*
G02*
X95310000Y-96580000I0J-110000D01*
G01*
X95310000Y-96800000D01*
G75*
G02*
X95200000Y-96910000I-110000J0D01*
G01*
X94880000Y-96910000D01*
G75*
G02*
X94770000Y-96800000I0J110000D01*
G01*
X94770000Y-96580000D01*
G75*
G02*
X94880000Y-96470000I110000J0D01*
G01*
G37*
G36*
G01*
X142214000Y-109269500D02*
X142214000Y-109470500D01*
G75*
G02*
X142134500Y-109550000I-79500J0D01*
G01*
X141975500Y-109550000D01*
G75*
G02*
X141896000Y-109470500I0J79500D01*
G01*
X141896000Y-109269500D01*
G75*
G02*
X141975500Y-109190000I79500J0D01*
G01*
X142134500Y-109190000D01*
G75*
G02*
X142214000Y-109269500I0J-79500D01*
G01*
G37*
G36*
G01*
X141524000Y-109269500D02*
X141524000Y-109470500D01*
G75*
G02*
X141444500Y-109550000I-79500J0D01*
G01*
X141285500Y-109550000D01*
G75*
G02*
X141206000Y-109470500I0J79500D01*
G01*
X141206000Y-109269500D01*
G75*
G02*
X141285500Y-109190000I79500J0D01*
G01*
X141444500Y-109190000D01*
G75*
G02*
X141524000Y-109269500I0J-79500D01*
G01*
G37*
G36*
G01*
X141524000Y-110029500D02*
X141524000Y-110230500D01*
G75*
G02*
X141444500Y-110310000I-79500J0D01*
G01*
X141285500Y-110310000D01*
G75*
G02*
X141206000Y-110230500I0J79500D01*
G01*
X141206000Y-110029500D01*
G75*
G02*
X141285500Y-109950000I79500J0D01*
G01*
X141444500Y-109950000D01*
G75*
G02*
X141524000Y-110029500I0J-79500D01*
G01*
G37*
G36*
G01*
X142214000Y-110029500D02*
X142214000Y-110230500D01*
G75*
G02*
X142134500Y-110310000I-79500J0D01*
G01*
X141975500Y-110310000D01*
G75*
G02*
X141896000Y-110230500I0J79500D01*
G01*
X141896000Y-110029500D01*
G75*
G02*
X141975500Y-109950000I79500J0D01*
G01*
X142134500Y-109950000D01*
G75*
G02*
X142214000Y-110029500I0J-79500D01*
G01*
G37*
G36*
G01*
X139984000Y-110379500D02*
X139984000Y-110580500D01*
G75*
G02*
X139904500Y-110660000I-79500J0D01*
G01*
X139745500Y-110660000D01*
G75*
G02*
X139666000Y-110580500I0J79500D01*
G01*
X139666000Y-110379500D01*
G75*
G02*
X139745500Y-110300000I79500J0D01*
G01*
X139904500Y-110300000D01*
G75*
G02*
X139984000Y-110379500I0J-79500D01*
G01*
G37*
G36*
G01*
X139294000Y-110379500D02*
X139294000Y-110580500D01*
G75*
G02*
X139214500Y-110660000I-79500J0D01*
G01*
X139055500Y-110660000D01*
G75*
G02*
X138976000Y-110580500I0J79500D01*
G01*
X138976000Y-110379500D01*
G75*
G02*
X139055500Y-110300000I79500J0D01*
G01*
X139214500Y-110300000D01*
G75*
G02*
X139294000Y-110379500I0J-79500D01*
G01*
G37*
G36*
G01*
X139284000Y-111139500D02*
X139284000Y-111340500D01*
G75*
G02*
X139204500Y-111420000I-79500J0D01*
G01*
X139045500Y-111420000D01*
G75*
G02*
X138966000Y-111340500I0J79500D01*
G01*
X138966000Y-111139500D01*
G75*
G02*
X139045500Y-111060000I79500J0D01*
G01*
X139204500Y-111060000D01*
G75*
G02*
X139284000Y-111139500I0J-79500D01*
G01*
G37*
G36*
G01*
X139974000Y-111139500D02*
X139974000Y-111340500D01*
G75*
G02*
X139894500Y-111420000I-79500J0D01*
G01*
X139735500Y-111420000D01*
G75*
G02*
X139656000Y-111340500I0J79500D01*
G01*
X139656000Y-111139500D01*
G75*
G02*
X139735500Y-111060000I79500J0D01*
G01*
X139894500Y-111060000D01*
G75*
G02*
X139974000Y-111139500I0J-79500D01*
G01*
G37*
M02*
