G04 #@! TF.GenerationSoftware,KiCad,Pcbnew,5.1.9+dfsg1-1+deb11u1*
G04 #@! TF.CreationDate,2022-10-19T12:30:35+02:00*
G04 #@! TF.ProjectId,ulx4m-panel,756c7834-6d2d-4706-916e-656c2e6b6963,v0.0.3*
G04 #@! TF.SameCoordinates,Original*
G04 #@! TF.FileFunction,Profile,NP*
%FSLAX46Y46*%
G04 Gerber Fmt 4.6, Leading zero omitted, Abs format (unit mm)*
G04 Created by KiCad (PCBNEW 5.1.9+dfsg1-1+deb11u1) date 2022-10-19 12:30:35*
%MOMM*%
%LPD*%
G01*
G04 APERTURE LIST*
G04 #@! TA.AperFunction,Profile*
%ADD10C,0.100000*%
G04 #@! TD*
G04 APERTURE END LIST*
D10*
X22298563Y-87322812D02*
X22298563Y-87322812D01*
X22265060Y-87287620D02*
X22298563Y-87322812D01*
X22229871Y-87254114D02*
X22265060Y-87287620D01*
X22193081Y-87222376D02*
X22229871Y-87254114D01*
X22161430Y-87197673D02*
X22193081Y-87222376D01*
X32948691Y-87198516D02*
X22161430Y-87197673D01*
X32916986Y-87223257D02*
X32948691Y-87198516D01*
X32880189Y-87254995D02*
X32916986Y-87223257D01*
X32844993Y-87288501D02*
X32880189Y-87254995D01*
X32811484Y-87323694D02*
X32844993Y-87288501D01*
X32779743Y-87360489D02*
X32811484Y-87323694D01*
X32749845Y-87398797D02*
X32779743Y-87360489D01*
X32721863Y-87438525D02*
X32749845Y-87398797D01*
X32695864Y-87479579D02*
X32721863Y-87438525D01*
X32671912Y-87521860D02*
X32695864Y-87479579D01*
X32650062Y-87565264D02*
X32671912Y-87521860D01*
X32630369Y-87609689D02*
X32650062Y-87565264D01*
X32612879Y-87655027D02*
X32630369Y-87609689D01*
X32597636Y-87701168D02*
X32612879Y-87655027D01*
X32584674Y-87748001D02*
X32597636Y-87701168D01*
X32574027Y-87795414D02*
X32584674Y-87748001D01*
X32565719Y-87843292D02*
X32574027Y-87795414D01*
X32559770Y-87891521D02*
X32565719Y-87843292D01*
X32556195Y-87939983D02*
X32559770Y-87891521D01*
X32555000Y-87988685D02*
X32556195Y-87939983D01*
X32555000Y-88009891D02*
X32555000Y-87988685D01*
X32556195Y-88058590D02*
X32555000Y-88009891D01*
X32559770Y-88107050D02*
X32556195Y-88058590D01*
X32565718Y-88155276D02*
X32559770Y-88107050D01*
X32574025Y-88203152D02*
X32565718Y-88155276D01*
X32584671Y-88250563D02*
X32574025Y-88203152D01*
X32597631Y-88297394D02*
X32584671Y-88250563D01*
X32612874Y-88343533D02*
X32597631Y-88297394D01*
X32630362Y-88388869D02*
X32612874Y-88343533D01*
X32650053Y-88433292D02*
X32630362Y-88388869D01*
X32671900Y-88476695D02*
X32650053Y-88433292D01*
X32695851Y-88518974D02*
X32671900Y-88476695D01*
X32721847Y-88560026D02*
X32695851Y-88518974D01*
X32749826Y-88599754D02*
X32721847Y-88560026D01*
X32779721Y-88638061D02*
X32749826Y-88599754D01*
X32811460Y-88674855D02*
X32779721Y-88638061D01*
X32844966Y-88710047D02*
X32811460Y-88674855D01*
X32880158Y-88743553D02*
X32844966Y-88710047D01*
X32916952Y-88775292D02*
X32880158Y-88743553D01*
X32955259Y-88805187D02*
X32916952Y-88775292D01*
X32994987Y-88833166D02*
X32955259Y-88805187D01*
X33036039Y-88859162D02*
X32994987Y-88833166D01*
X33078318Y-88883113D02*
X33036039Y-88859162D01*
X33121721Y-88904960D02*
X33078318Y-88883113D01*
X33166144Y-88924651D02*
X33121721Y-88904960D01*
X33211480Y-88942139D02*
X33166144Y-88924651D01*
X33257619Y-88957382D02*
X33211480Y-88942139D01*
X33304450Y-88970342D02*
X33257619Y-88957382D01*
X33351861Y-88980988D02*
X33304450Y-88970342D01*
X33399737Y-88989295D02*
X33351861Y-88980988D01*
X33447963Y-88995243D02*
X33399737Y-88989295D01*
X33496423Y-88998818D02*
X33447963Y-88995243D01*
X33545122Y-89000014D02*
X33496423Y-88998818D01*
X78674879Y-89000014D02*
X33545122Y-89000014D01*
X78723578Y-88998818D02*
X78674879Y-89000014D01*
X78772038Y-88995243D02*
X78723578Y-88998818D01*
X78820264Y-88989295D02*
X78772038Y-88995243D01*
X78868140Y-88980988D02*
X78820264Y-88989295D01*
X78915551Y-88970342D02*
X78868140Y-88980988D01*
X78962382Y-88957382D02*
X78915551Y-88970342D01*
X79008521Y-88942139D02*
X78962382Y-88957382D01*
X79053857Y-88924651D02*
X79008521Y-88942139D01*
X79098280Y-88904960D02*
X79053857Y-88924651D01*
X79141683Y-88883113D02*
X79098280Y-88904960D01*
X79183962Y-88859162D02*
X79141683Y-88883113D01*
X79225014Y-88833166D02*
X79183962Y-88859162D01*
X79264742Y-88805187D02*
X79225014Y-88833166D01*
X79303049Y-88775292D02*
X79264742Y-88805187D01*
X79339843Y-88743553D02*
X79303049Y-88775292D01*
X79375035Y-88710047D02*
X79339843Y-88743553D01*
X79408541Y-88674855D02*
X79375035Y-88710047D01*
X79440280Y-88638061D02*
X79408541Y-88674855D01*
X79470175Y-88599754D02*
X79440280Y-88638061D01*
X79498154Y-88560026D02*
X79470175Y-88599754D01*
X79524150Y-88518974D02*
X79498154Y-88560026D01*
X79548101Y-88476695D02*
X79524150Y-88518974D01*
X79569948Y-88433292D02*
X79548101Y-88476695D01*
X79589639Y-88388869D02*
X79569948Y-88433292D01*
X79607127Y-88343533D02*
X79589639Y-88388869D01*
X79622370Y-88297394D02*
X79607127Y-88343533D01*
X79635330Y-88250563D02*
X79622370Y-88297394D01*
X79645976Y-88203152D02*
X79635330Y-88250563D01*
X79654283Y-88155276D02*
X79645976Y-88203152D01*
X79660231Y-88107050D02*
X79654283Y-88155276D01*
X79663806Y-88058590D02*
X79660231Y-88107050D01*
X79665002Y-88009891D02*
X79663806Y-88058590D01*
X79665002Y-87987749D02*
X79665002Y-88009891D01*
X79663806Y-87939052D02*
X79665002Y-87987749D01*
X79660232Y-87890594D02*
X79663806Y-87939052D01*
X79654284Y-87842370D02*
X79660232Y-87890594D01*
X79645978Y-87794497D02*
X79654284Y-87842370D01*
X79635332Y-87747088D02*
X79645978Y-87794497D01*
X79622374Y-87700259D02*
X79635332Y-87747088D01*
X79607133Y-87654122D02*
X79622374Y-87700259D01*
X79589647Y-87608788D02*
X79607133Y-87654122D01*
X79569957Y-87564367D02*
X79589647Y-87608788D01*
X79548112Y-87520966D02*
X79569957Y-87564367D01*
X79524164Y-87478689D02*
X79548112Y-87520966D01*
X79498170Y-87437637D02*
X79524164Y-87478689D01*
X79470193Y-87397911D02*
X79498170Y-87437637D01*
X79440301Y-87359605D02*
X79470193Y-87397911D01*
X79408565Y-87322812D02*
X79440301Y-87359605D01*
X79375062Y-87287620D02*
X79408565Y-87322812D01*
X79339873Y-87254114D02*
X79375062Y-87287620D01*
X79303083Y-87222376D02*
X79339873Y-87254114D01*
X79271432Y-87197673D02*
X79303083Y-87222376D01*
X90058693Y-87198516D02*
X79271432Y-87197673D01*
X90026988Y-87223257D02*
X90058693Y-87198516D01*
X89990191Y-87254995D02*
X90026988Y-87223257D01*
X89954995Y-87288501D02*
X89990191Y-87254995D01*
X89921486Y-87323694D02*
X89954995Y-87288501D01*
X89889745Y-87360489D02*
X89921486Y-87323694D01*
X89859847Y-87398797D02*
X89889745Y-87360489D01*
X89831865Y-87438525D02*
X89859847Y-87398797D01*
X89805866Y-87479579D02*
X89831865Y-87438525D01*
X89781914Y-87521860D02*
X89805866Y-87479579D01*
X89760064Y-87565264D02*
X89781914Y-87521860D01*
X89740371Y-87609689D02*
X89760064Y-87565264D01*
X89722881Y-87655027D02*
X89740371Y-87609689D01*
X89707638Y-87701168D02*
X89722881Y-87655027D01*
X89694676Y-87748001D02*
X89707638Y-87701168D01*
X89684029Y-87795414D02*
X89694676Y-87748001D01*
X89675721Y-87843292D02*
X89684029Y-87795414D01*
X89669772Y-87891521D02*
X89675721Y-87843292D01*
X89666197Y-87939983D02*
X89669772Y-87891521D01*
X89665002Y-87988685D02*
X89666197Y-87939983D01*
X89665002Y-88009891D02*
X89665002Y-87988685D01*
X89666197Y-88058590D02*
X89665002Y-88009891D01*
X89669772Y-88107050D02*
X89666197Y-88058590D01*
X89675720Y-88155276D02*
X89669772Y-88107050D01*
X89684027Y-88203152D02*
X89675720Y-88155276D01*
X89694673Y-88250563D02*
X89684027Y-88203152D01*
X89707633Y-88297394D02*
X89694673Y-88250563D01*
X89722876Y-88343533D02*
X89707633Y-88297394D01*
X89740364Y-88388869D02*
X89722876Y-88343533D01*
X89760055Y-88433292D02*
X89740364Y-88388869D01*
X89781902Y-88476695D02*
X89760055Y-88433292D01*
X89805853Y-88518974D02*
X89781902Y-88476695D01*
X89831849Y-88560026D02*
X89805853Y-88518974D01*
X89859828Y-88599754D02*
X89831849Y-88560026D01*
X89889723Y-88638061D02*
X89859828Y-88599754D01*
X89921462Y-88674855D02*
X89889723Y-88638061D01*
X89954968Y-88710047D02*
X89921462Y-88674855D01*
X89990160Y-88743553D02*
X89954968Y-88710047D01*
X90026954Y-88775292D02*
X89990160Y-88743553D01*
X90065261Y-88805187D02*
X90026954Y-88775292D01*
X90104989Y-88833166D02*
X90065261Y-88805187D01*
X90146041Y-88859162D02*
X90104989Y-88833166D01*
X90188320Y-88883113D02*
X90146041Y-88859162D01*
X90231723Y-88904960D02*
X90188320Y-88883113D01*
X90276146Y-88924651D02*
X90231723Y-88904960D01*
X90321482Y-88942139D02*
X90276146Y-88924651D01*
X90367621Y-88957382D02*
X90321482Y-88942139D01*
X90414452Y-88970342D02*
X90367621Y-88957382D01*
X90461863Y-88980988D02*
X90414452Y-88970342D01*
X90509739Y-88989295D02*
X90461863Y-88980988D01*
X90557965Y-88995243D02*
X90509739Y-88989295D01*
X90606425Y-88998818D02*
X90557965Y-88995243D01*
X90655124Y-89000014D02*
X90606425Y-88998818D01*
X112207729Y-89000014D02*
X90655124Y-89000014D01*
X112207974Y-89000017D02*
X112207729Y-89000014D01*
X112210192Y-89000071D02*
X112207974Y-89000017D01*
X112210683Y-89000095D02*
X112210192Y-89000071D01*
X112211171Y-89000143D02*
X112210683Y-89000095D01*
X112211657Y-89000215D02*
X112211171Y-89000143D01*
X112212138Y-89000311D02*
X112211657Y-89000215D01*
X112212614Y-89000430D02*
X112212138Y-89000311D01*
X112213084Y-89000573D02*
X112212614Y-89000430D01*
X112213546Y-89000738D02*
X112213084Y-89000573D01*
X112213999Y-89000926D02*
X112213546Y-89000738D01*
X112214443Y-89001136D02*
X112213999Y-89000926D01*
X112214876Y-89001367D02*
X112214443Y-89001136D01*
X112215297Y-89001619D02*
X112214876Y-89001367D01*
X112215705Y-89001892D02*
X112215297Y-89001619D01*
X112216099Y-89002184D02*
X112215705Y-89001892D01*
X112216479Y-89002496D02*
X112216099Y-89002184D01*
X112216842Y-89002825D02*
X112216479Y-89002496D01*
X112217190Y-89003173D02*
X112216842Y-89002825D01*
X112217519Y-89003536D02*
X112217190Y-89003173D01*
X112217831Y-89003916D02*
X112217519Y-89003536D01*
X112218123Y-89004310D02*
X112217831Y-89003916D01*
X112218396Y-89004718D02*
X112218123Y-89004310D01*
X112218648Y-89005139D02*
X112218396Y-89004718D01*
X112218879Y-89005572D02*
X112218648Y-89005139D01*
X112219089Y-89006016D02*
X112218879Y-89005572D01*
X112219277Y-89006469D02*
X112219089Y-89006016D01*
X112219442Y-89006931D02*
X112219277Y-89006469D01*
X112219585Y-89007401D02*
X112219442Y-89006931D01*
X112219704Y-89007877D02*
X112219585Y-89007401D01*
X112219800Y-89008358D02*
X112219704Y-89007877D01*
X112219872Y-89008844D02*
X112219800Y-89008358D01*
X112219920Y-89009332D02*
X112219872Y-89008844D01*
X112219944Y-89009823D02*
X112219920Y-89009332D01*
X112219998Y-89012041D02*
X112219944Y-89009823D01*
X112220002Y-89012286D02*
X112219998Y-89012041D01*
X112220002Y-91987741D02*
X112220002Y-89012286D01*
X112219998Y-91987986D02*
X112220002Y-91987741D01*
X112219944Y-91990204D02*
X112219998Y-91987986D01*
X112219920Y-91990695D02*
X112219944Y-91990204D01*
X112219872Y-91991183D02*
X112219920Y-91990695D01*
X112219800Y-91991669D02*
X112219872Y-91991183D01*
X112219704Y-91992150D02*
X112219800Y-91991669D01*
X112219585Y-91992626D02*
X112219704Y-91992150D01*
X112219442Y-91993096D02*
X112219585Y-91992626D01*
X112219277Y-91993558D02*
X112219442Y-91993096D01*
X112219089Y-91994011D02*
X112219277Y-91993558D01*
X112218879Y-91994455D02*
X112219089Y-91994011D01*
X112218648Y-91994888D02*
X112218879Y-91994455D01*
X112218396Y-91995309D02*
X112218648Y-91994888D01*
X112218123Y-91995717D02*
X112218396Y-91995309D01*
X112217831Y-91996111D02*
X112218123Y-91995717D01*
X112217519Y-91996491D02*
X112217831Y-91996111D01*
X112217190Y-91996854D02*
X112217519Y-91996491D01*
X112216842Y-91997202D02*
X112217190Y-91996854D01*
X112216479Y-91997531D02*
X112216842Y-91997202D01*
X112216099Y-91997843D02*
X112216479Y-91997531D01*
X112215705Y-91998135D02*
X112216099Y-91997843D01*
X112215297Y-91998408D02*
X112215705Y-91998135D01*
X112214876Y-91998660D02*
X112215297Y-91998408D01*
X112214443Y-91998891D02*
X112214876Y-91998660D01*
X112213999Y-91999101D02*
X112214443Y-91998891D01*
X112213546Y-91999289D02*
X112213999Y-91999101D01*
X112213084Y-91999454D02*
X112213546Y-91999289D01*
X112212614Y-91999597D02*
X112213084Y-91999454D01*
X112212138Y-91999716D02*
X112212614Y-91999597D01*
X112211657Y-91999812D02*
X112212138Y-91999716D01*
X112211171Y-91999884D02*
X112211657Y-91999812D01*
X112210683Y-91999932D02*
X112211171Y-91999884D01*
X112210192Y-91999956D02*
X112210683Y-91999932D01*
X112207974Y-92000010D02*
X112210192Y-91999956D01*
X112207729Y-92000014D02*
X112207974Y-92000010D01*
X12272Y-92000014D02*
X112207729Y-92000014D01*
X12027Y-92000010D02*
X12272Y-92000014D01*
X9809Y-91999956D02*
X12027Y-92000010D01*
X9318Y-91999932D02*
X9809Y-91999956D01*
X8830Y-91999884D02*
X9318Y-91999932D01*
X8344Y-91999812D02*
X8830Y-91999884D01*
X7863Y-91999716D02*
X8344Y-91999812D01*
X7387Y-91999597D02*
X7863Y-91999716D01*
X6917Y-91999454D02*
X7387Y-91999597D01*
X6455Y-91999289D02*
X6917Y-91999454D01*
X6002Y-91999101D02*
X6455Y-91999289D01*
X5558Y-91998891D02*
X6002Y-91999101D01*
X5125Y-91998660D02*
X5558Y-91998891D01*
X4704Y-91998408D02*
X5125Y-91998660D01*
X4296Y-91998135D02*
X4704Y-91998408D01*
X3902Y-91997843D02*
X4296Y-91998135D01*
X3522Y-91997531D02*
X3902Y-91997843D01*
X3159Y-91997202D02*
X3522Y-91997531D01*
X2811Y-91996854D02*
X3159Y-91997202D01*
X2482Y-91996491D02*
X2811Y-91996854D01*
X2170Y-91996111D02*
X2482Y-91996491D01*
X1878Y-91995717D02*
X2170Y-91996111D01*
X1605Y-91995309D02*
X1878Y-91995717D01*
X1353Y-91994888D02*
X1605Y-91995309D01*
X1122Y-91994455D02*
X1353Y-91994888D01*
X912Y-91994011D02*
X1122Y-91994455D01*
X724Y-91993558D02*
X912Y-91994011D01*
X559Y-91993096D02*
X724Y-91993558D01*
X416Y-91992626D02*
X559Y-91993096D01*
X297Y-91992150D02*
X416Y-91992626D01*
X201Y-91991669D02*
X297Y-91992150D01*
X129Y-91991183D02*
X201Y-91991669D01*
X81Y-91990695D02*
X129Y-91991183D01*
X57Y-91990204D02*
X81Y-91990695D01*
X3Y-91987986D02*
X57Y-91990204D01*
X0Y-91987741D02*
X3Y-91987986D01*
X0Y-89012286D02*
X0Y-91987741D01*
X3Y-89012041D02*
X0Y-89012286D01*
X57Y-89009823D02*
X3Y-89012041D01*
X81Y-89009332D02*
X57Y-89009823D01*
X129Y-89008844D02*
X81Y-89009332D01*
X201Y-89008358D02*
X129Y-89008844D01*
X297Y-89007877D02*
X201Y-89008358D01*
X416Y-89007401D02*
X297Y-89007877D01*
X559Y-89006931D02*
X416Y-89007401D01*
X724Y-89006469D02*
X559Y-89006931D01*
X912Y-89006016D02*
X724Y-89006469D01*
X1122Y-89005572D02*
X912Y-89006016D01*
X1353Y-89005139D02*
X1122Y-89005572D01*
X1605Y-89004718D02*
X1353Y-89005139D01*
X1878Y-89004310D02*
X1605Y-89004718D01*
X2170Y-89003916D02*
X1878Y-89004310D01*
X2482Y-89003536D02*
X2170Y-89003916D01*
X2811Y-89003173D02*
X2482Y-89003536D01*
X3159Y-89002825D02*
X2811Y-89003173D01*
X3522Y-89002496D02*
X3159Y-89002825D01*
X3902Y-89002184D02*
X3522Y-89002496D01*
X4296Y-89001892D02*
X3902Y-89002184D01*
X4704Y-89001619D02*
X4296Y-89001892D01*
X5125Y-89001367D02*
X4704Y-89001619D01*
X5558Y-89001136D02*
X5125Y-89001367D01*
X6002Y-89000926D02*
X5558Y-89001136D01*
X6455Y-89000738D02*
X6002Y-89000926D01*
X6917Y-89000573D02*
X6455Y-89000738D01*
X7387Y-89000430D02*
X6917Y-89000573D01*
X7863Y-89000311D02*
X7387Y-89000430D01*
X8344Y-89000215D02*
X7863Y-89000311D01*
X8830Y-89000143D02*
X8344Y-89000215D01*
X9318Y-89000095D02*
X8830Y-89000143D01*
X9809Y-89000071D02*
X9318Y-89000095D01*
X12027Y-89000017D02*
X9809Y-89000071D01*
X12272Y-89000014D02*
X12027Y-89000017D01*
X21564877Y-89000014D02*
X12272Y-89000014D01*
X21613576Y-88998818D02*
X21564877Y-89000014D01*
X21662036Y-88995243D02*
X21613576Y-88998818D01*
X21710262Y-88989295D02*
X21662036Y-88995243D01*
X21758138Y-88980988D02*
X21710262Y-88989295D01*
X21805549Y-88970342D02*
X21758138Y-88980988D01*
X21852380Y-88957382D02*
X21805549Y-88970342D01*
X21898519Y-88942139D02*
X21852380Y-88957382D01*
X21943855Y-88924651D02*
X21898519Y-88942139D01*
X21988278Y-88904960D02*
X21943855Y-88924651D01*
X22031681Y-88883113D02*
X21988278Y-88904960D01*
X22073960Y-88859162D02*
X22031681Y-88883113D01*
X22115012Y-88833166D02*
X22073960Y-88859162D01*
X22154740Y-88805187D02*
X22115012Y-88833166D01*
X22193047Y-88775292D02*
X22154740Y-88805187D01*
X22229841Y-88743553D02*
X22193047Y-88775292D01*
X22265033Y-88710047D02*
X22229841Y-88743553D01*
X22298539Y-88674855D02*
X22265033Y-88710047D01*
X22330278Y-88638061D02*
X22298539Y-88674855D01*
X22360173Y-88599754D02*
X22330278Y-88638061D01*
X22388152Y-88560026D02*
X22360173Y-88599754D01*
X22414148Y-88518974D02*
X22388152Y-88560026D01*
X22438099Y-88476695D02*
X22414148Y-88518974D01*
X22459946Y-88433292D02*
X22438099Y-88476695D01*
X22479637Y-88388869D02*
X22459946Y-88433292D01*
X22497125Y-88343533D02*
X22479637Y-88388869D01*
X22512368Y-88297394D02*
X22497125Y-88343533D01*
X22525328Y-88250563D02*
X22512368Y-88297394D01*
X22535974Y-88203152D02*
X22525328Y-88250563D01*
X22544281Y-88155276D02*
X22535974Y-88203152D01*
X22550229Y-88107050D02*
X22544281Y-88155276D01*
X22553804Y-88058590D02*
X22550229Y-88107050D01*
X22555000Y-88009891D02*
X22553804Y-88058590D01*
X22555000Y-87987749D02*
X22555000Y-88009891D01*
X22553804Y-87939052D02*
X22555000Y-87987749D01*
X22550230Y-87890594D02*
X22553804Y-87939052D01*
X22544282Y-87842370D02*
X22550230Y-87890594D01*
X22535976Y-87794497D02*
X22544282Y-87842370D01*
X22525330Y-87747088D02*
X22535976Y-87794497D01*
X22512372Y-87700259D02*
X22525330Y-87747088D01*
X22497131Y-87654122D02*
X22512372Y-87700259D01*
X22479645Y-87608788D02*
X22497131Y-87654122D01*
X22459955Y-87564367D02*
X22479645Y-87608788D01*
X22438110Y-87520966D02*
X22459955Y-87564367D01*
X22414162Y-87478689D02*
X22438110Y-87520966D01*
X22388168Y-87437637D02*
X22414162Y-87478689D01*
X22360191Y-87397911D02*
X22388168Y-87437637D01*
X22330299Y-87359605D02*
X22360191Y-87397911D01*
X22298563Y-87322812D02*
X22330299Y-87359605D01*
X55432604Y-72256436D02*
X55432604Y-72256436D01*
X55397413Y-72289937D02*
X55432604Y-72256436D01*
X55363907Y-72325125D02*
X55397413Y-72289937D01*
X55332169Y-72361915D02*
X55363907Y-72325125D01*
X55307474Y-72393553D02*
X55332169Y-72361915D01*
X55308691Y-61606292D02*
X55307474Y-72393553D01*
X55333440Y-61638009D02*
X55308691Y-61606292D01*
X55365179Y-61674808D02*
X55333440Y-61638009D01*
X55398685Y-61710005D02*
X55365179Y-61674808D01*
X55433878Y-61743515D02*
X55398685Y-61710005D01*
X55470673Y-61775258D02*
X55433878Y-61743515D01*
X55508981Y-61805157D02*
X55470673Y-61775258D01*
X55548710Y-61833140D02*
X55508981Y-61805157D01*
X55589765Y-61859140D02*
X55548710Y-61833140D01*
X55632046Y-61883093D02*
X55589765Y-61859140D01*
X55675451Y-61904944D02*
X55632046Y-61883093D01*
X55719877Y-61924638D02*
X55675451Y-61904944D01*
X55765215Y-61942128D02*
X55719877Y-61924638D01*
X55811357Y-61957372D02*
X55765215Y-61942128D01*
X55858191Y-61970334D02*
X55811357Y-61957372D01*
X55905605Y-61980982D02*
X55858191Y-61970334D01*
X55953485Y-61989291D02*
X55905605Y-61980982D01*
X56001714Y-61995240D02*
X55953485Y-61989291D01*
X56050178Y-61998815D02*
X56001714Y-61995240D01*
X56098881Y-62000011D02*
X56050178Y-61998815D01*
X56122471Y-62000011D02*
X56098881Y-62000011D01*
X56171167Y-61998815D02*
X56122471Y-62000011D01*
X56219623Y-61995241D02*
X56171167Y-61998815D01*
X56267846Y-61989294D02*
X56219623Y-61995241D01*
X56315719Y-61980988D02*
X56267846Y-61989294D01*
X56363126Y-61970343D02*
X56315719Y-61980988D01*
X56409954Y-61957385D02*
X56363126Y-61970343D01*
X56456090Y-61942145D02*
X56409954Y-61957385D01*
X56501423Y-61924659D02*
X56456090Y-61942145D01*
X56545843Y-61904971D02*
X56501423Y-61924659D01*
X56589244Y-61883126D02*
X56545843Y-61904971D01*
X56631521Y-61859179D02*
X56589244Y-61883126D01*
X56672571Y-61833186D02*
X56631521Y-61859179D01*
X56712297Y-61805211D02*
X56672571Y-61833186D01*
X56750603Y-61775319D02*
X56712297Y-61805211D01*
X56787396Y-61743585D02*
X56750603Y-61775319D01*
X56822588Y-61710084D02*
X56787396Y-61743585D01*
X56856093Y-61674896D02*
X56822588Y-61710084D01*
X56887832Y-61638106D02*
X56856093Y-61674896D01*
X56912526Y-61606468D02*
X56887832Y-61638106D01*
X56911310Y-72393729D02*
X56912526Y-61606468D01*
X56886561Y-72362012D02*
X56911310Y-72393729D01*
X56854822Y-72325213D02*
X56886561Y-72362012D01*
X56821316Y-72290016D02*
X56854822Y-72325213D01*
X56786123Y-72256506D02*
X56821316Y-72290016D01*
X56749328Y-72224763D02*
X56786123Y-72256506D01*
X56711020Y-72194864D02*
X56749328Y-72224763D01*
X56671290Y-72166881D02*
X56711020Y-72194864D01*
X56630236Y-72140881D02*
X56671290Y-72166881D01*
X56587955Y-72116928D02*
X56630236Y-72140881D01*
X56544549Y-72095077D02*
X56587955Y-72116928D01*
X56500124Y-72075383D02*
X56544549Y-72095077D01*
X56454786Y-72057893D02*
X56500124Y-72075383D01*
X56408644Y-72042649D02*
X56454786Y-72057893D01*
X56361809Y-72029687D02*
X56408644Y-72042649D01*
X56314395Y-72019039D02*
X56361809Y-72029687D01*
X56266516Y-72010730D02*
X56314395Y-72019039D01*
X56218286Y-72004781D02*
X56266516Y-72010730D01*
X56169823Y-72001206D02*
X56218286Y-72004781D01*
X56121120Y-72000011D02*
X56169823Y-72001206D01*
X56097530Y-72000011D02*
X56121120Y-72000011D01*
X56048834Y-72001206D02*
X56097530Y-72000011D01*
X56000377Y-72004780D02*
X56048834Y-72001206D01*
X55952155Y-72010727D02*
X56000377Y-72004780D01*
X55904282Y-72019033D02*
X55952155Y-72010727D01*
X55856874Y-72029678D02*
X55904282Y-72019033D01*
X55810046Y-72042636D02*
X55856874Y-72029678D01*
X55763910Y-72057876D02*
X55810046Y-72042636D01*
X55718577Y-72075362D02*
X55763910Y-72057876D01*
X55674157Y-72095050D02*
X55718577Y-72075362D01*
X55630756Y-72116895D02*
X55674157Y-72095050D01*
X55588480Y-72140842D02*
X55630756Y-72116895D01*
X55547429Y-72166835D02*
X55588480Y-72140842D01*
X55507703Y-72194810D02*
X55547429Y-72166835D01*
X55469397Y-72224701D02*
X55507703Y-72194810D01*
X55432604Y-72256436D02*
X55469397Y-72224701D01*
X89954941Y-46712406D02*
X89954941Y-46712406D01*
X89990130Y-46745911D02*
X89954941Y-46712406D01*
X90026920Y-46777650D02*
X89990130Y-46745911D01*
X90058571Y-46802353D02*
X90026920Y-46777650D01*
X79271310Y-46801508D02*
X90058571Y-46802353D01*
X79303015Y-46776767D02*
X79271310Y-46801508D01*
X79339812Y-46745029D02*
X79303015Y-46776767D01*
X79375008Y-46711522D02*
X79339812Y-46745029D01*
X79408516Y-46676330D02*
X79375008Y-46711522D01*
X79440258Y-46639535D02*
X79408516Y-46676330D01*
X79470156Y-46601227D02*
X79440258Y-46639535D01*
X79498138Y-46561499D02*
X79470156Y-46601227D01*
X79524137Y-46520445D02*
X79498138Y-46561499D01*
X79548089Y-46478164D02*
X79524137Y-46520445D01*
X79569939Y-46434759D02*
X79548089Y-46478164D01*
X79589632Y-46390335D02*
X79569939Y-46434759D01*
X79607122Y-46344997D02*
X79589632Y-46390335D01*
X79622365Y-46298856D02*
X79607122Y-46344997D01*
X79635327Y-46252023D02*
X79622365Y-46298856D01*
X79645974Y-46204610D02*
X79635327Y-46252023D01*
X79654282Y-46156731D02*
X79645974Y-46204610D01*
X79660231Y-46108503D02*
X79654282Y-46156731D01*
X79663806Y-46060041D02*
X79660231Y-46108503D01*
X79665002Y-46011339D02*
X79663806Y-46060041D01*
X79665002Y-45987741D02*
X79665002Y-46011339D01*
X79663806Y-45939044D02*
X79665002Y-45987741D01*
X79660232Y-45890586D02*
X79663806Y-45939044D01*
X79654284Y-45842362D02*
X79660232Y-45890586D01*
X79645978Y-45794489D02*
X79654284Y-45842362D01*
X79635332Y-45747080D02*
X79645978Y-45794489D01*
X79622374Y-45700251D02*
X79635332Y-45747080D01*
X79607133Y-45654114D02*
X79622374Y-45700251D01*
X79589647Y-45608780D02*
X79607133Y-45654114D01*
X79569957Y-45564359D02*
X79589647Y-45608780D01*
X79548112Y-45520958D02*
X79569957Y-45564359D01*
X79524164Y-45478681D02*
X79548112Y-45520958D01*
X79498170Y-45437629D02*
X79524164Y-45478681D01*
X79470193Y-45397903D02*
X79498170Y-45437629D01*
X79440301Y-45359597D02*
X79470193Y-45397903D01*
X79408565Y-45322804D02*
X79440301Y-45359597D01*
X79375062Y-45287612D02*
X79408565Y-45322804D01*
X79339873Y-45254106D02*
X79375062Y-45287612D01*
X79303083Y-45222368D02*
X79339873Y-45254106D01*
X79271432Y-45197665D02*
X79303083Y-45222368D01*
X90058693Y-45198508D02*
X79271432Y-45197665D01*
X90026988Y-45223249D02*
X90058693Y-45198508D01*
X89990191Y-45254987D02*
X90026988Y-45223249D01*
X89954995Y-45288493D02*
X89990191Y-45254987D01*
X89921486Y-45323686D02*
X89954995Y-45288493D01*
X89889745Y-45360481D02*
X89921486Y-45323686D01*
X89859847Y-45398789D02*
X89889745Y-45360481D01*
X89831865Y-45438517D02*
X89859847Y-45398789D01*
X89805866Y-45479571D02*
X89831865Y-45438517D01*
X89781914Y-45521852D02*
X89805866Y-45479571D01*
X89760064Y-45565256D02*
X89781914Y-45521852D01*
X89740371Y-45609681D02*
X89760064Y-45565256D01*
X89722881Y-45655019D02*
X89740371Y-45609681D01*
X89707638Y-45701160D02*
X89722881Y-45655019D01*
X89694676Y-45747993D02*
X89707638Y-45701160D01*
X89684029Y-45795406D02*
X89694676Y-45747993D01*
X89675721Y-45843284D02*
X89684029Y-45795406D01*
X89669772Y-45891513D02*
X89675721Y-45843284D01*
X89666197Y-45939975D02*
X89669772Y-45891513D01*
X89665002Y-45988677D02*
X89666197Y-45939975D01*
X89665002Y-46012277D02*
X89665002Y-45988677D01*
X89666197Y-46060974D02*
X89665002Y-46012277D01*
X89669771Y-46109432D02*
X89666197Y-46060974D01*
X89675719Y-46157655D02*
X89669771Y-46109432D01*
X89684025Y-46205529D02*
X89675719Y-46157655D01*
X89694671Y-46252938D02*
X89684025Y-46205529D01*
X89707629Y-46299767D02*
X89694671Y-46252938D01*
X89722870Y-46345904D02*
X89707629Y-46299767D01*
X89740356Y-46391237D02*
X89722870Y-46345904D01*
X89760045Y-46435658D02*
X89740356Y-46391237D01*
X89781891Y-46479060D02*
X89760045Y-46435658D01*
X89805839Y-46521337D02*
X89781891Y-46479060D01*
X89831833Y-46562388D02*
X89805839Y-46521337D01*
X89859810Y-46602115D02*
X89831833Y-46562388D01*
X89889702Y-46640421D02*
X89859810Y-46602115D01*
X89921438Y-46677214D02*
X89889702Y-46640421D01*
X89954941Y-46712406D02*
X89921438Y-46677214D01*
X22298563Y-45322804D02*
X22298563Y-45322804D01*
X22265060Y-45287612D02*
X22298563Y-45322804D01*
X22229871Y-45254106D02*
X22265060Y-45287612D01*
X22193081Y-45222368D02*
X22229871Y-45254106D01*
X22161430Y-45197665D02*
X22193081Y-45222368D01*
X32948691Y-45198508D02*
X22161430Y-45197665D01*
X32916986Y-45223249D02*
X32948691Y-45198508D01*
X32880189Y-45254987D02*
X32916986Y-45223249D01*
X32844993Y-45288493D02*
X32880189Y-45254987D01*
X32811484Y-45323686D02*
X32844993Y-45288493D01*
X32779743Y-45360481D02*
X32811484Y-45323686D01*
X32749845Y-45398789D02*
X32779743Y-45360481D01*
X32721863Y-45438517D02*
X32749845Y-45398789D01*
X32695864Y-45479571D02*
X32721863Y-45438517D01*
X32671912Y-45521852D02*
X32695864Y-45479571D01*
X32650062Y-45565256D02*
X32671912Y-45521852D01*
X32630369Y-45609681D02*
X32650062Y-45565256D01*
X32612879Y-45655019D02*
X32630369Y-45609681D01*
X32597636Y-45701160D02*
X32612879Y-45655019D01*
X32584674Y-45747993D02*
X32597636Y-45701160D01*
X32574027Y-45795406D02*
X32584674Y-45747993D01*
X32565719Y-45843284D02*
X32574027Y-45795406D01*
X32559770Y-45891513D02*
X32565719Y-45843284D01*
X32556195Y-45939975D02*
X32559770Y-45891513D01*
X32555000Y-45988677D02*
X32556195Y-45939975D01*
X32555000Y-46012277D02*
X32555000Y-45988677D01*
X32556195Y-46060974D02*
X32555000Y-46012277D01*
X32559769Y-46109432D02*
X32556195Y-46060974D01*
X32565717Y-46157655D02*
X32559769Y-46109432D01*
X32574023Y-46205529D02*
X32565717Y-46157655D01*
X32584669Y-46252938D02*
X32574023Y-46205529D01*
X32597627Y-46299767D02*
X32584669Y-46252938D01*
X32612868Y-46345904D02*
X32597627Y-46299767D01*
X32630354Y-46391237D02*
X32612868Y-46345904D01*
X32650043Y-46435658D02*
X32630354Y-46391237D01*
X32671889Y-46479060D02*
X32650043Y-46435658D01*
X32695837Y-46521337D02*
X32671889Y-46479060D01*
X32721831Y-46562388D02*
X32695837Y-46521337D01*
X32749808Y-46602115D02*
X32721831Y-46562388D01*
X32779700Y-46640421D02*
X32749808Y-46602115D01*
X32811436Y-46677214D02*
X32779700Y-46640421D01*
X32844939Y-46712406D02*
X32811436Y-46677214D01*
X32880128Y-46745911D02*
X32844939Y-46712406D01*
X32916918Y-46777650D02*
X32880128Y-46745911D01*
X32948569Y-46802353D02*
X32916918Y-46777650D01*
X22161308Y-46801508D02*
X32948569Y-46802353D01*
X22193013Y-46776767D02*
X22161308Y-46801508D01*
X22229810Y-46745029D02*
X22193013Y-46776767D01*
X22265006Y-46711522D02*
X22229810Y-46745029D01*
X22298514Y-46676330D02*
X22265006Y-46711522D01*
X22330256Y-46639535D02*
X22298514Y-46676330D01*
X22360154Y-46601227D02*
X22330256Y-46639535D01*
X22388136Y-46561499D02*
X22360154Y-46601227D01*
X22414135Y-46520445D02*
X22388136Y-46561499D01*
X22438087Y-46478164D02*
X22414135Y-46520445D01*
X22459937Y-46434759D02*
X22438087Y-46478164D01*
X22479630Y-46390335D02*
X22459937Y-46434759D01*
X22497120Y-46344997D02*
X22479630Y-46390335D01*
X22512363Y-46298856D02*
X22497120Y-46344997D01*
X22525325Y-46252023D02*
X22512363Y-46298856D01*
X22535972Y-46204610D02*
X22525325Y-46252023D01*
X22544280Y-46156731D02*
X22535972Y-46204610D01*
X22550229Y-46108503D02*
X22544280Y-46156731D01*
X22553804Y-46060041D02*
X22550229Y-46108503D01*
X22555000Y-46011339D02*
X22553804Y-46060041D01*
X22555000Y-45987741D02*
X22555000Y-46011339D01*
X22553804Y-45939044D02*
X22555000Y-45987741D01*
X22550230Y-45890586D02*
X22553804Y-45939044D01*
X22544282Y-45842362D02*
X22550230Y-45890586D01*
X22535976Y-45794489D02*
X22544282Y-45842362D01*
X22525330Y-45747080D02*
X22535976Y-45794489D01*
X22512372Y-45700251D02*
X22525330Y-45747080D01*
X22497131Y-45654114D02*
X22512372Y-45700251D01*
X22479645Y-45608780D02*
X22497131Y-45654114D01*
X22459955Y-45564359D02*
X22479645Y-45608780D01*
X22438110Y-45520958D02*
X22459955Y-45564359D01*
X22414162Y-45478681D02*
X22438110Y-45520958D01*
X22388168Y-45437629D02*
X22414162Y-45478681D01*
X22360191Y-45397903D02*
X22388168Y-45437629D01*
X22330299Y-45359597D02*
X22360191Y-45397903D01*
X22298563Y-45322804D02*
X22330299Y-45359597D01*
X55432604Y-30256428D02*
X55432604Y-30256428D01*
X55397413Y-30289929D02*
X55432604Y-30256428D01*
X55363907Y-30325117D02*
X55397413Y-30289929D01*
X55332169Y-30361907D02*
X55363907Y-30325117D01*
X55307474Y-30393545D02*
X55332169Y-30361907D01*
X55308691Y-19606284D02*
X55307474Y-30393545D01*
X55333440Y-19638001D02*
X55308691Y-19606284D01*
X55365179Y-19674800D02*
X55333440Y-19638001D01*
X55398685Y-19709997D02*
X55365179Y-19674800D01*
X55433878Y-19743507D02*
X55398685Y-19709997D01*
X55470673Y-19775250D02*
X55433878Y-19743507D01*
X55508981Y-19805149D02*
X55470673Y-19775250D01*
X55548710Y-19833132D02*
X55508981Y-19805149D01*
X55589765Y-19859132D02*
X55548710Y-19833132D01*
X55632046Y-19883085D02*
X55589765Y-19859132D01*
X55675451Y-19904936D02*
X55632046Y-19883085D01*
X55719877Y-19924630D02*
X55675451Y-19904936D01*
X55765215Y-19942120D02*
X55719877Y-19924630D01*
X55811357Y-19957364D02*
X55765215Y-19942120D01*
X55858191Y-19970326D02*
X55811357Y-19957364D01*
X55905605Y-19980974D02*
X55858191Y-19970326D01*
X55953485Y-19989283D02*
X55905605Y-19980974D01*
X56001714Y-19995232D02*
X55953485Y-19989283D01*
X56050178Y-19998807D02*
X56001714Y-19995232D01*
X56098881Y-20000003D02*
X56050178Y-19998807D01*
X56122471Y-20000003D02*
X56098881Y-20000003D01*
X56171167Y-19998807D02*
X56122471Y-20000003D01*
X56219623Y-19995233D02*
X56171167Y-19998807D01*
X56267846Y-19989286D02*
X56219623Y-19995233D01*
X56315719Y-19980980D02*
X56267846Y-19989286D01*
X56363126Y-19970335D02*
X56315719Y-19980980D01*
X56409954Y-19957377D02*
X56363126Y-19970335D01*
X56456090Y-19942137D02*
X56409954Y-19957377D01*
X56501423Y-19924651D02*
X56456090Y-19942137D01*
X56545843Y-19904963D02*
X56501423Y-19924651D01*
X56589244Y-19883118D02*
X56545843Y-19904963D01*
X56631521Y-19859171D02*
X56589244Y-19883118D01*
X56672571Y-19833178D02*
X56631521Y-19859171D01*
X56712297Y-19805203D02*
X56672571Y-19833178D01*
X56750603Y-19775311D02*
X56712297Y-19805203D01*
X56787396Y-19743577D02*
X56750603Y-19775311D01*
X56822588Y-19710076D02*
X56787396Y-19743577D01*
X56856093Y-19674888D02*
X56822588Y-19710076D01*
X56887832Y-19638098D02*
X56856093Y-19674888D01*
X56912526Y-19606460D02*
X56887832Y-19638098D01*
X56911310Y-30393721D02*
X56912526Y-19606460D01*
X56886561Y-30362004D02*
X56911310Y-30393721D01*
X56854822Y-30325205D02*
X56886561Y-30362004D01*
X56821316Y-30290008D02*
X56854822Y-30325205D01*
X56786123Y-30256498D02*
X56821316Y-30290008D01*
X56749328Y-30224755D02*
X56786123Y-30256498D01*
X56711020Y-30194856D02*
X56749328Y-30224755D01*
X56671290Y-30166873D02*
X56711020Y-30194856D01*
X56630236Y-30140873D02*
X56671290Y-30166873D01*
X56587955Y-30116920D02*
X56630236Y-30140873D01*
X56544549Y-30095069D02*
X56587955Y-30116920D01*
X56500124Y-30075375D02*
X56544549Y-30095069D01*
X56454786Y-30057885D02*
X56500124Y-30075375D01*
X56408644Y-30042641D02*
X56454786Y-30057885D01*
X56361809Y-30029679D02*
X56408644Y-30042641D01*
X56314395Y-30019031D02*
X56361809Y-30029679D01*
X56266516Y-30010722D02*
X56314395Y-30019031D01*
X56218286Y-30004773D02*
X56266516Y-30010722D01*
X56169823Y-30001198D02*
X56218286Y-30004773D01*
X56121120Y-30000003D02*
X56169823Y-30001198D01*
X56097530Y-30000003D02*
X56121120Y-30000003D01*
X56048834Y-30001198D02*
X56097530Y-30000003D01*
X56000377Y-30004772D02*
X56048834Y-30001198D01*
X55952155Y-30010719D02*
X56000377Y-30004772D01*
X55904282Y-30019025D02*
X55952155Y-30010719D01*
X55856874Y-30029670D02*
X55904282Y-30019025D01*
X55810046Y-30042628D02*
X55856874Y-30029670D01*
X55763910Y-30057868D02*
X55810046Y-30042628D01*
X55718577Y-30075354D02*
X55763910Y-30057868D01*
X55674157Y-30095042D02*
X55718577Y-30075354D01*
X55630756Y-30116887D02*
X55674157Y-30095042D01*
X55588480Y-30140834D02*
X55630756Y-30116887D01*
X55547429Y-30166827D02*
X55588480Y-30140834D01*
X55507703Y-30194802D02*
X55547429Y-30166827D01*
X55469397Y-30224693D02*
X55507703Y-30194802D01*
X55432604Y-30256428D02*
X55469397Y-30224693D01*
X8344Y-201D02*
X8344Y-201D01*
X8830Y-129D02*
X8344Y-201D01*
X9318Y-81D02*
X8830Y-129D01*
X9809Y-57D02*
X9318Y-81D01*
X12027Y-3D02*
X9809Y-57D01*
X12272Y0D02*
X12027Y-3D01*
X112207729Y0D02*
X12272Y0D01*
X112207974Y-3D02*
X112207729Y0D01*
X112210192Y-57D02*
X112207974Y-3D01*
X112210683Y-81D02*
X112210192Y-57D01*
X112211171Y-129D02*
X112210683Y-81D01*
X112211657Y-201D02*
X112211171Y-129D01*
X112212138Y-297D02*
X112211657Y-201D01*
X112212614Y-416D02*
X112212138Y-297D01*
X112213084Y-559D02*
X112212614Y-416D01*
X112213546Y-724D02*
X112213084Y-559D01*
X112213999Y-912D02*
X112213546Y-724D01*
X112214443Y-1122D02*
X112213999Y-912D01*
X112214876Y-1353D02*
X112214443Y-1122D01*
X112215297Y-1605D02*
X112214876Y-1353D01*
X112215705Y-1878D02*
X112215297Y-1605D01*
X112216099Y-2170D02*
X112215705Y-1878D01*
X112216479Y-2482D02*
X112216099Y-2170D01*
X112216842Y-2811D02*
X112216479Y-2482D01*
X112217190Y-3159D02*
X112216842Y-2811D01*
X112217519Y-3522D02*
X112217190Y-3159D01*
X112217831Y-3902D02*
X112217519Y-3522D01*
X112218123Y-4296D02*
X112217831Y-3902D01*
X112218396Y-4704D02*
X112218123Y-4296D01*
X112218648Y-5125D02*
X112218396Y-4704D01*
X112218879Y-5558D02*
X112218648Y-5125D01*
X112219089Y-6002D02*
X112218879Y-5558D01*
X112219277Y-6455D02*
X112219089Y-6002D01*
X112219442Y-6917D02*
X112219277Y-6455D01*
X112219585Y-7387D02*
X112219442Y-6917D01*
X112219704Y-7863D02*
X112219585Y-7387D01*
X112219800Y-8344D02*
X112219704Y-7863D01*
X112219872Y-8830D02*
X112219800Y-8344D01*
X112219920Y-9318D02*
X112219872Y-8830D01*
X112219944Y-9809D02*
X112219920Y-9318D01*
X112219998Y-12027D02*
X112219944Y-9809D01*
X112220002Y-12272D02*
X112219998Y-12027D01*
X112220002Y-2987727D02*
X112220002Y-12272D01*
X112219998Y-2987972D02*
X112220002Y-2987727D01*
X112219944Y-2990190D02*
X112219998Y-2987972D01*
X112219920Y-2990681D02*
X112219944Y-2990190D01*
X112219872Y-2991169D02*
X112219920Y-2990681D01*
X112219800Y-2991655D02*
X112219872Y-2991169D01*
X112219704Y-2992136D02*
X112219800Y-2991655D01*
X112219585Y-2992612D02*
X112219704Y-2992136D01*
X112219442Y-2993082D02*
X112219585Y-2992612D01*
X112219277Y-2993544D02*
X112219442Y-2993082D01*
X112219089Y-2993997D02*
X112219277Y-2993544D01*
X112218879Y-2994441D02*
X112219089Y-2993997D01*
X112218648Y-2994874D02*
X112218879Y-2994441D01*
X112218396Y-2995295D02*
X112218648Y-2994874D01*
X112218123Y-2995703D02*
X112218396Y-2995295D01*
X112217831Y-2996097D02*
X112218123Y-2995703D01*
X112217519Y-2996477D02*
X112217831Y-2996097D01*
X112217190Y-2996840D02*
X112217519Y-2996477D01*
X112216842Y-2997188D02*
X112217190Y-2996840D01*
X112216479Y-2997517D02*
X112216842Y-2997188D01*
X112216099Y-2997829D02*
X112216479Y-2997517D01*
X112215705Y-2998121D02*
X112216099Y-2997829D01*
X112215297Y-2998394D02*
X112215705Y-2998121D01*
X112214876Y-2998646D02*
X112215297Y-2998394D01*
X112214443Y-2998877D02*
X112214876Y-2998646D01*
X112213999Y-2999087D02*
X112214443Y-2998877D01*
X112213546Y-2999275D02*
X112213999Y-2999087D01*
X112213084Y-2999440D02*
X112213546Y-2999275D01*
X112212614Y-2999583D02*
X112213084Y-2999440D01*
X112212138Y-2999702D02*
X112212614Y-2999583D01*
X112211657Y-2999798D02*
X112212138Y-2999702D01*
X112211171Y-2999870D02*
X112211657Y-2999798D01*
X112210683Y-2999918D02*
X112211171Y-2999870D01*
X112210192Y-2999942D02*
X112210683Y-2999918D01*
X112207974Y-2999996D02*
X112210192Y-2999942D01*
X112207729Y-3000000D02*
X112207974Y-2999996D01*
X90655124Y-3000000D02*
X112207729Y-3000000D01*
X90606425Y-3001195D02*
X90655124Y-3000000D01*
X90557965Y-3004770D02*
X90606425Y-3001195D01*
X90509739Y-3010718D02*
X90557965Y-3004770D01*
X90461863Y-3019025D02*
X90509739Y-3010718D01*
X90414452Y-3029671D02*
X90461863Y-3019025D01*
X90367621Y-3042631D02*
X90414452Y-3029671D01*
X90321482Y-3057874D02*
X90367621Y-3042631D01*
X90276146Y-3075362D02*
X90321482Y-3057874D01*
X90231723Y-3095053D02*
X90276146Y-3075362D01*
X90188320Y-3116900D02*
X90231723Y-3095053D01*
X90146041Y-3140851D02*
X90188320Y-3116900D01*
X90104989Y-3166847D02*
X90146041Y-3140851D01*
X90065261Y-3194826D02*
X90104989Y-3166847D01*
X90026954Y-3224721D02*
X90065261Y-3194826D01*
X89990160Y-3256460D02*
X90026954Y-3224721D01*
X89954968Y-3289966D02*
X89990160Y-3256460D01*
X89921462Y-3325158D02*
X89954968Y-3289966D01*
X89889723Y-3361952D02*
X89921462Y-3325158D01*
X89859828Y-3400259D02*
X89889723Y-3361952D01*
X89831849Y-3439987D02*
X89859828Y-3400259D01*
X89805853Y-3481039D02*
X89831849Y-3439987D01*
X89781902Y-3523318D02*
X89805853Y-3481039D01*
X89760055Y-3566721D02*
X89781902Y-3523318D01*
X89740364Y-3611144D02*
X89760055Y-3566721D01*
X89722876Y-3656480D02*
X89740364Y-3611144D01*
X89707633Y-3702619D02*
X89722876Y-3656480D01*
X89694673Y-3749450D02*
X89707633Y-3702619D01*
X89684027Y-3796861D02*
X89694673Y-3749450D01*
X89675720Y-3844737D02*
X89684027Y-3796861D01*
X89669772Y-3892963D02*
X89675720Y-3844737D01*
X89666197Y-3941423D02*
X89669772Y-3892963D01*
X89665002Y-3990122D02*
X89666197Y-3941423D01*
X89665002Y-4012269D02*
X89665002Y-3990122D01*
X89666197Y-4060966D02*
X89665002Y-4012269D01*
X89669771Y-4109424D02*
X89666197Y-4060966D01*
X89675719Y-4157647D02*
X89669771Y-4109424D01*
X89684025Y-4205521D02*
X89675719Y-4157647D01*
X89694671Y-4252930D02*
X89684025Y-4205521D01*
X89707629Y-4299759D02*
X89694671Y-4252930D01*
X89722870Y-4345896D02*
X89707629Y-4299759D01*
X89740356Y-4391229D02*
X89722870Y-4345896D01*
X89760045Y-4435650D02*
X89740356Y-4391229D01*
X89781891Y-4479052D02*
X89760045Y-4435650D01*
X89805839Y-4521329D02*
X89781891Y-4479052D01*
X89831833Y-4562380D02*
X89805839Y-4521329D01*
X89859810Y-4602107D02*
X89831833Y-4562380D01*
X89889702Y-4640413D02*
X89859810Y-4602107D01*
X89921438Y-4677206D02*
X89889702Y-4640413D01*
X89954941Y-4712398D02*
X89921438Y-4677206D01*
X89990130Y-4745903D02*
X89954941Y-4712398D01*
X90026920Y-4777642D02*
X89990130Y-4745903D01*
X90058571Y-4802345D02*
X90026920Y-4777642D01*
X79271310Y-4801500D02*
X90058571Y-4802345D01*
X79303015Y-4776759D02*
X79271310Y-4801500D01*
X79339812Y-4745021D02*
X79303015Y-4776759D01*
X79375008Y-4711514D02*
X79339812Y-4745021D01*
X79408516Y-4676322D02*
X79375008Y-4711514D01*
X79440258Y-4639527D02*
X79408516Y-4676322D01*
X79470156Y-4601219D02*
X79440258Y-4639527D01*
X79498138Y-4561491D02*
X79470156Y-4601219D01*
X79524137Y-4520437D02*
X79498138Y-4561491D01*
X79548089Y-4478156D02*
X79524137Y-4520437D01*
X79569939Y-4434751D02*
X79548089Y-4478156D01*
X79589632Y-4390327D02*
X79569939Y-4434751D01*
X79607122Y-4344989D02*
X79589632Y-4390327D01*
X79622365Y-4298848D02*
X79607122Y-4344989D01*
X79635327Y-4252015D02*
X79622365Y-4298848D01*
X79645974Y-4204602D02*
X79635327Y-4252015D01*
X79654282Y-4156723D02*
X79645974Y-4204602D01*
X79660231Y-4108495D02*
X79654282Y-4156723D01*
X79663806Y-4060033D02*
X79660231Y-4108495D01*
X79665002Y-4011331D02*
X79663806Y-4060033D01*
X79665002Y-3990122D02*
X79665002Y-4011331D01*
X79663806Y-3941423D02*
X79665002Y-3990122D01*
X79660231Y-3892963D02*
X79663806Y-3941423D01*
X79654283Y-3844737D02*
X79660231Y-3892963D01*
X79645976Y-3796861D02*
X79654283Y-3844737D01*
X79635330Y-3749450D02*
X79645976Y-3796861D01*
X79622370Y-3702619D02*
X79635330Y-3749450D01*
X79607127Y-3656480D02*
X79622370Y-3702619D01*
X79589639Y-3611144D02*
X79607127Y-3656480D01*
X79569948Y-3566721D02*
X79589639Y-3611144D01*
X79548101Y-3523318D02*
X79569948Y-3566721D01*
X79524150Y-3481039D02*
X79548101Y-3523318D01*
X79498154Y-3439987D02*
X79524150Y-3481039D01*
X79470175Y-3400259D02*
X79498154Y-3439987D01*
X79440280Y-3361952D02*
X79470175Y-3400259D01*
X79408541Y-3325158D02*
X79440280Y-3361952D01*
X79375035Y-3289966D02*
X79408541Y-3325158D01*
X79339843Y-3256460D02*
X79375035Y-3289966D01*
X79303049Y-3224721D02*
X79339843Y-3256460D01*
X79264742Y-3194826D02*
X79303049Y-3224721D01*
X79225014Y-3166847D02*
X79264742Y-3194826D01*
X79183962Y-3140851D02*
X79225014Y-3166847D01*
X79141683Y-3116900D02*
X79183962Y-3140851D01*
X79098280Y-3095053D02*
X79141683Y-3116900D01*
X79053857Y-3075362D02*
X79098280Y-3095053D01*
X79008521Y-3057874D02*
X79053857Y-3075362D01*
X78962382Y-3042631D02*
X79008521Y-3057874D01*
X78915551Y-3029671D02*
X78962382Y-3042631D01*
X78868140Y-3019025D02*
X78915551Y-3029671D01*
X78820264Y-3010718D02*
X78868140Y-3019025D01*
X78772038Y-3004770D02*
X78820264Y-3010718D01*
X78723578Y-3001195D02*
X78772038Y-3004770D01*
X78674879Y-3000000D02*
X78723578Y-3001195D01*
X33545122Y-3000000D02*
X78674879Y-3000000D01*
X33496423Y-3001195D02*
X33545122Y-3000000D01*
X33447963Y-3004770D02*
X33496423Y-3001195D01*
X33399737Y-3010718D02*
X33447963Y-3004770D01*
X33351861Y-3019025D02*
X33399737Y-3010718D01*
X33304450Y-3029671D02*
X33351861Y-3019025D01*
X33257619Y-3042631D02*
X33304450Y-3029671D01*
X33211480Y-3057874D02*
X33257619Y-3042631D01*
X33166144Y-3075362D02*
X33211480Y-3057874D01*
X33121721Y-3095053D02*
X33166144Y-3075362D01*
X33078318Y-3116900D02*
X33121721Y-3095053D01*
X33036039Y-3140851D02*
X33078318Y-3116900D01*
X32994987Y-3166847D02*
X33036039Y-3140851D01*
X32955259Y-3194826D02*
X32994987Y-3166847D01*
X32916952Y-3224721D02*
X32955259Y-3194826D01*
X32880158Y-3256460D02*
X32916952Y-3224721D01*
X32844966Y-3289966D02*
X32880158Y-3256460D01*
X32811460Y-3325158D02*
X32844966Y-3289966D01*
X32779721Y-3361952D02*
X32811460Y-3325158D01*
X32749826Y-3400259D02*
X32779721Y-3361952D01*
X32721847Y-3439987D02*
X32749826Y-3400259D01*
X32695851Y-3481039D02*
X32721847Y-3439987D01*
X32671900Y-3523318D02*
X32695851Y-3481039D01*
X32650053Y-3566721D02*
X32671900Y-3523318D01*
X32630362Y-3611144D02*
X32650053Y-3566721D01*
X32612874Y-3656480D02*
X32630362Y-3611144D01*
X32597631Y-3702619D02*
X32612874Y-3656480D01*
X32584671Y-3749450D02*
X32597631Y-3702619D01*
X32574025Y-3796861D02*
X32584671Y-3749450D01*
X32565718Y-3844737D02*
X32574025Y-3796861D01*
X32559770Y-3892963D02*
X32565718Y-3844737D01*
X32556195Y-3941423D02*
X32559770Y-3892963D01*
X32555000Y-3990122D02*
X32556195Y-3941423D01*
X32555000Y-4012269D02*
X32555000Y-3990122D01*
X32556195Y-4060966D02*
X32555000Y-4012269D01*
X32559769Y-4109424D02*
X32556195Y-4060966D01*
X32565717Y-4157647D02*
X32559769Y-4109424D01*
X32574023Y-4205521D02*
X32565717Y-4157647D01*
X32584669Y-4252930D02*
X32574023Y-4205521D01*
X32597627Y-4299759D02*
X32584669Y-4252930D01*
X32612868Y-4345896D02*
X32597627Y-4299759D01*
X32630354Y-4391229D02*
X32612868Y-4345896D01*
X32650043Y-4435650D02*
X32630354Y-4391229D01*
X32671889Y-4479052D02*
X32650043Y-4435650D01*
X32695837Y-4521329D02*
X32671889Y-4479052D01*
X32721831Y-4562380D02*
X32695837Y-4521329D01*
X32749808Y-4602107D02*
X32721831Y-4562380D01*
X32779700Y-4640413D02*
X32749808Y-4602107D01*
X32811436Y-4677206D02*
X32779700Y-4640413D01*
X32844939Y-4712398D02*
X32811436Y-4677206D01*
X32880128Y-4745903D02*
X32844939Y-4712398D01*
X32916918Y-4777642D02*
X32880128Y-4745903D01*
X32948569Y-4802345D02*
X32916918Y-4777642D01*
X22161308Y-4801500D02*
X32948569Y-4802345D01*
X22193013Y-4776759D02*
X22161308Y-4801500D01*
X22229810Y-4745021D02*
X22193013Y-4776759D01*
X22265006Y-4711514D02*
X22229810Y-4745021D01*
X22298514Y-4676322D02*
X22265006Y-4711514D01*
X22330256Y-4639527D02*
X22298514Y-4676322D01*
X22360154Y-4601219D02*
X22330256Y-4639527D01*
X22388136Y-4561491D02*
X22360154Y-4601219D01*
X22414135Y-4520437D02*
X22388136Y-4561491D01*
X22438087Y-4478156D02*
X22414135Y-4520437D01*
X22459937Y-4434751D02*
X22438087Y-4478156D01*
X22479630Y-4390327D02*
X22459937Y-4434751D01*
X22497120Y-4344989D02*
X22479630Y-4390327D01*
X22512363Y-4298848D02*
X22497120Y-4344989D01*
X22525325Y-4252015D02*
X22512363Y-4298848D01*
X22535972Y-4204602D02*
X22525325Y-4252015D01*
X22544280Y-4156723D02*
X22535972Y-4204602D01*
X22550229Y-4108495D02*
X22544280Y-4156723D01*
X22553804Y-4060033D02*
X22550229Y-4108495D01*
X22555000Y-4011331D02*
X22553804Y-4060033D01*
X22555000Y-3990122D02*
X22555000Y-4011331D01*
X22553804Y-3941423D02*
X22555000Y-3990122D01*
X22550229Y-3892963D02*
X22553804Y-3941423D01*
X22544281Y-3844737D02*
X22550229Y-3892963D01*
X22535974Y-3796861D02*
X22544281Y-3844737D01*
X22525328Y-3749450D02*
X22535974Y-3796861D01*
X22512368Y-3702619D02*
X22525328Y-3749450D01*
X22497125Y-3656480D02*
X22512368Y-3702619D01*
X22479637Y-3611144D02*
X22497125Y-3656480D01*
X22459946Y-3566721D02*
X22479637Y-3611144D01*
X22438099Y-3523318D02*
X22459946Y-3566721D01*
X22414148Y-3481039D02*
X22438099Y-3523318D01*
X22388152Y-3439987D02*
X22414148Y-3481039D01*
X22360173Y-3400259D02*
X22388152Y-3439987D01*
X22330278Y-3361952D02*
X22360173Y-3400259D01*
X22298539Y-3325158D02*
X22330278Y-3361952D01*
X22265033Y-3289966D02*
X22298539Y-3325158D01*
X22229841Y-3256460D02*
X22265033Y-3289966D01*
X22193047Y-3224721D02*
X22229841Y-3256460D01*
X22154740Y-3194826D02*
X22193047Y-3224721D01*
X22115012Y-3166847D02*
X22154740Y-3194826D01*
X22073960Y-3140851D02*
X22115012Y-3166847D01*
X22031681Y-3116900D02*
X22073960Y-3140851D01*
X21988278Y-3095053D02*
X22031681Y-3116900D01*
X21943855Y-3075362D02*
X21988278Y-3095053D01*
X21898519Y-3057874D02*
X21943855Y-3075362D01*
X21852380Y-3042631D02*
X21898519Y-3057874D01*
X21805549Y-3029671D02*
X21852380Y-3042631D01*
X21758138Y-3019025D02*
X21805549Y-3029671D01*
X21710262Y-3010718D02*
X21758138Y-3019025D01*
X21662036Y-3004770D02*
X21710262Y-3010718D01*
X21613576Y-3001195D02*
X21662036Y-3004770D01*
X21564877Y-3000000D02*
X21613576Y-3001195D01*
X12272Y-3000000D02*
X21564877Y-3000000D01*
X12027Y-2999996D02*
X12272Y-3000000D01*
X9809Y-2999942D02*
X12027Y-2999996D01*
X9318Y-2999918D02*
X9809Y-2999942D01*
X8830Y-2999870D02*
X9318Y-2999918D01*
X8344Y-2999798D02*
X8830Y-2999870D01*
X7863Y-2999702D02*
X8344Y-2999798D01*
X7387Y-2999583D02*
X7863Y-2999702D01*
X6917Y-2999440D02*
X7387Y-2999583D01*
X6455Y-2999275D02*
X6917Y-2999440D01*
X6002Y-2999087D02*
X6455Y-2999275D01*
X5558Y-2998877D02*
X6002Y-2999087D01*
X5125Y-2998646D02*
X5558Y-2998877D01*
X4704Y-2998394D02*
X5125Y-2998646D01*
X4296Y-2998121D02*
X4704Y-2998394D01*
X3902Y-2997829D02*
X4296Y-2998121D01*
X3522Y-2997517D02*
X3902Y-2997829D01*
X3159Y-2997188D02*
X3522Y-2997517D01*
X2811Y-2996840D02*
X3159Y-2997188D01*
X2482Y-2996477D02*
X2811Y-2996840D01*
X2170Y-2996097D02*
X2482Y-2996477D01*
X1878Y-2995703D02*
X2170Y-2996097D01*
X1605Y-2995295D02*
X1878Y-2995703D01*
X1353Y-2994874D02*
X1605Y-2995295D01*
X1122Y-2994441D02*
X1353Y-2994874D01*
X912Y-2993997D02*
X1122Y-2994441D01*
X724Y-2993544D02*
X912Y-2993997D01*
X559Y-2993082D02*
X724Y-2993544D01*
X416Y-2992612D02*
X559Y-2993082D01*
X297Y-2992136D02*
X416Y-2992612D01*
X201Y-2991655D02*
X297Y-2992136D01*
X129Y-2991169D02*
X201Y-2991655D01*
X81Y-2990681D02*
X129Y-2991169D01*
X57Y-2990190D02*
X81Y-2990681D01*
X3Y-2987972D02*
X57Y-2990190D01*
X0Y-2987727D02*
X3Y-2987972D01*
X0Y-12272D02*
X0Y-2987727D01*
X3Y-12027D02*
X0Y-12272D01*
X57Y-9809D02*
X3Y-12027D01*
X81Y-9318D02*
X57Y-9809D01*
X129Y-8830D02*
X81Y-9318D01*
X201Y-8344D02*
X129Y-8830D01*
X297Y-7863D02*
X201Y-8344D01*
X416Y-7387D02*
X297Y-7863D01*
X559Y-6917D02*
X416Y-7387D01*
X724Y-6455D02*
X559Y-6917D01*
X912Y-6002D02*
X724Y-6455D01*
X1122Y-5558D02*
X912Y-6002D01*
X1353Y-5125D02*
X1122Y-5558D01*
X1605Y-4704D02*
X1353Y-5125D01*
X1878Y-4296D02*
X1605Y-4704D01*
X2170Y-3902D02*
X1878Y-4296D01*
X2482Y-3522D02*
X2170Y-3902D01*
X2811Y-3159D02*
X2482Y-3522D01*
X3159Y-2811D02*
X2811Y-3159D01*
X3522Y-2482D02*
X3159Y-2811D01*
X3902Y-2170D02*
X3522Y-2482D01*
X4296Y-1878D02*
X3902Y-2170D01*
X4704Y-1605D02*
X4296Y-1878D01*
X5125Y-1353D02*
X4704Y-1605D01*
X5558Y-1122D02*
X5125Y-1353D01*
X6002Y-912D02*
X5558Y-1122D01*
X6455Y-724D02*
X6002Y-912D01*
X6917Y-559D02*
X6455Y-724D01*
X7387Y-416D02*
X6917Y-559D01*
X7863Y-297D02*
X7387Y-416D01*
X8344Y-201D02*
X7863Y-297D01*
X109371948Y-86996163D02*
X109371948Y-86996163D01*
X109523506Y-86984621D02*
X109371948Y-86996163D01*
X109674284Y-86965418D02*
X109523506Y-86984621D01*
X109823896Y-86938603D02*
X109674284Y-86965418D01*
X109971959Y-86904244D02*
X109823896Y-86938603D01*
X110118090Y-86862431D02*
X109971959Y-86904244D01*
X110261917Y-86813269D02*
X110118090Y-86862431D01*
X110403069Y-86756886D02*
X110261917Y-86813269D01*
X110541184Y-86693426D02*
X110403069Y-86756886D01*
X110675907Y-86623052D02*
X110541184Y-86693426D01*
X110806893Y-86545945D02*
X110675907Y-86623052D01*
X110933806Y-86462302D02*
X110806893Y-86545945D01*
X111056319Y-86372339D02*
X110933806Y-86462302D01*
X111174119Y-86276286D02*
X111056319Y-86372339D01*
X111286902Y-86174390D02*
X111174119Y-86276286D01*
X111394380Y-86066912D02*
X111286902Y-86174390D01*
X111496276Y-85954129D02*
X111394380Y-86066912D01*
X111592329Y-85836329D02*
X111496276Y-85954129D01*
X111682292Y-85713816D02*
X111592329Y-85836329D01*
X111765934Y-85586903D02*
X111682292Y-85713816D01*
X111843041Y-85455917D02*
X111765934Y-85586903D01*
X111913415Y-85321193D02*
X111843041Y-85455917D01*
X111976875Y-85183078D02*
X111913415Y-85321193D01*
X112033257Y-85041926D02*
X111976875Y-85183078D01*
X112082419Y-84898100D02*
X112033257Y-85041926D01*
X112124232Y-84751968D02*
X112082419Y-84898100D01*
X112158591Y-84603906D02*
X112124232Y-84751968D01*
X112185406Y-84454293D02*
X112158591Y-84603906D01*
X112204609Y-84303515D02*
X112185406Y-84454293D01*
X112216150Y-84151957D02*
X112204609Y-84303515D01*
X112220002Y-50000016D02*
X112216150Y-84151957D01*
X112216151Y-49848068D02*
X112220002Y-50000016D01*
X112204609Y-49696510D02*
X112216151Y-49848068D01*
X112185405Y-49545731D02*
X112204609Y-49696510D01*
X112158590Y-49396119D02*
X112185405Y-49545731D01*
X112124231Y-49248056D02*
X112158590Y-49396119D01*
X112082417Y-49101924D02*
X112124231Y-49248056D01*
X112033255Y-48958098D02*
X112082417Y-49101924D01*
X111976872Y-48816946D02*
X112033255Y-48958098D01*
X111913411Y-48678831D02*
X111976872Y-48816946D01*
X111843037Y-48544107D02*
X111913411Y-48678831D01*
X111765930Y-48413121D02*
X111843037Y-48544107D01*
X111682287Y-48286208D02*
X111765930Y-48413121D01*
X111592323Y-48163695D02*
X111682287Y-48286208D01*
X111496270Y-48045895D02*
X111592323Y-48163695D01*
X111394373Y-47933112D02*
X111496270Y-48045895D01*
X111286895Y-47825634D02*
X111394373Y-47933112D01*
X111174111Y-47723738D02*
X111286895Y-47825634D01*
X111056311Y-47627685D02*
X111174111Y-47723738D01*
X110933797Y-47537722D02*
X111056311Y-47627685D01*
X110806884Y-47454080D02*
X110933797Y-47537722D01*
X110675898Y-47376973D02*
X110806884Y-47454080D01*
X110541174Y-47306600D02*
X110675898Y-47376973D01*
X110403058Y-47243140D02*
X110541174Y-47306600D01*
X110261906Y-47186757D02*
X110403058Y-47243140D01*
X110118079Y-47137596D02*
X110261906Y-47186757D01*
X109971947Y-47095783D02*
X110118079Y-47137596D01*
X109823885Y-47061424D02*
X109971947Y-47095783D01*
X109674272Y-47034610D02*
X109823885Y-47061424D01*
X109523493Y-47015407D02*
X109674272Y-47034610D01*
X109371935Y-47003866D02*
X109523493Y-47015407D01*
X60110002Y-47000008D02*
X109371935Y-47003866D01*
X59958054Y-47003858D02*
X60110002Y-47000008D01*
X59806496Y-47015400D02*
X59958054Y-47003858D01*
X59655718Y-47034603D02*
X59806496Y-47015400D01*
X59506105Y-47061419D02*
X59655718Y-47034603D01*
X59358043Y-47095777D02*
X59506105Y-47061419D01*
X59211911Y-47137591D02*
X59358043Y-47095777D01*
X59068085Y-47186753D02*
X59211911Y-47137591D01*
X58926933Y-47243136D02*
X59068085Y-47186753D01*
X58788818Y-47306596D02*
X58926933Y-47243136D01*
X58654094Y-47376970D02*
X58788818Y-47306596D01*
X58523108Y-47454077D02*
X58654094Y-47376970D01*
X58396195Y-47537720D02*
X58523108Y-47454077D01*
X58273682Y-47627684D02*
X58396195Y-47537720D01*
X58155882Y-47723737D02*
X58273682Y-47627684D01*
X58043099Y-47825633D02*
X58155882Y-47723737D01*
X57935621Y-47933111D02*
X58043099Y-47825633D01*
X57833725Y-48045894D02*
X57935621Y-47933111D01*
X57737673Y-48163694D02*
X57833725Y-48045894D01*
X57647710Y-48286208D02*
X57737673Y-48163694D01*
X57564067Y-48413121D02*
X57647710Y-48286208D01*
X57486960Y-48544107D02*
X57564067Y-48413121D01*
X57416587Y-48678831D02*
X57486960Y-48544107D01*
X57353127Y-48816946D02*
X57416587Y-48678831D01*
X57296744Y-48958098D02*
X57353127Y-48816946D01*
X57247583Y-49101925D02*
X57296744Y-48958098D01*
X57205769Y-49248057D02*
X57247583Y-49101925D01*
X57171411Y-49396119D02*
X57205769Y-49248057D01*
X57144596Y-49545732D02*
X57171411Y-49396119D01*
X57125393Y-49696510D02*
X57144596Y-49545732D01*
X57113852Y-49848068D02*
X57125393Y-49696510D01*
X57110002Y-84000015D02*
X57113852Y-49848068D01*
X57113852Y-84151962D02*
X57110002Y-84000015D01*
X57125394Y-84303519D02*
X57113852Y-84151962D01*
X57144597Y-84454298D02*
X57125394Y-84303519D01*
X57171412Y-84603910D02*
X57144597Y-84454298D01*
X57205770Y-84751972D02*
X57171412Y-84603910D01*
X57247584Y-84898104D02*
X57205770Y-84751972D01*
X57296745Y-85041930D02*
X57247584Y-84898104D01*
X57353128Y-85183082D02*
X57296745Y-85041930D01*
X57416588Y-85321197D02*
X57353128Y-85183082D01*
X57486962Y-85455920D02*
X57416588Y-85321197D01*
X57564069Y-85586906D02*
X57486962Y-85455920D01*
X57647711Y-85713819D02*
X57564069Y-85586906D01*
X57737674Y-85836332D02*
X57647711Y-85713819D01*
X57833727Y-85954131D02*
X57737674Y-85836332D01*
X57935623Y-86066915D02*
X57833727Y-85954131D01*
X58043100Y-86174392D02*
X57935623Y-86066915D01*
X58155884Y-86276288D02*
X58043100Y-86174392D01*
X58273683Y-86372341D02*
X58155884Y-86276288D01*
X58396196Y-86462304D02*
X58273683Y-86372341D01*
X58523109Y-86545946D02*
X58396196Y-86462304D01*
X58654095Y-86623053D02*
X58523109Y-86545946D01*
X58788818Y-86693427D02*
X58654095Y-86623053D01*
X58926933Y-86756887D02*
X58788818Y-86693427D01*
X59068085Y-86813270D02*
X58926933Y-86756887D01*
X59211911Y-86862431D02*
X59068085Y-86813270D01*
X59358043Y-86904245D02*
X59211911Y-86862431D01*
X59506105Y-86938603D02*
X59358043Y-86904245D01*
X59655717Y-86965418D02*
X59506105Y-86938603D01*
X59806496Y-86984621D02*
X59655717Y-86965418D01*
X59958053Y-86996163D02*
X59806496Y-86984621D01*
X109220001Y-87000014D02*
X59958053Y-86996163D01*
X109371948Y-86996163D02*
X109220001Y-87000014D01*
X52261946Y-86996163D02*
X52261946Y-86996163D01*
X52413504Y-86984621D02*
X52261946Y-86996163D01*
X52564282Y-86965418D02*
X52413504Y-86984621D01*
X52713894Y-86938603D02*
X52564282Y-86965418D01*
X52861957Y-86904244D02*
X52713894Y-86938603D01*
X53008088Y-86862431D02*
X52861957Y-86904244D01*
X53151915Y-86813269D02*
X53008088Y-86862431D01*
X53293067Y-86756886D02*
X53151915Y-86813269D01*
X53431182Y-86693426D02*
X53293067Y-86756886D01*
X53565905Y-86623052D02*
X53431182Y-86693426D01*
X53696891Y-86545945D02*
X53565905Y-86623052D01*
X53823804Y-86462302D02*
X53696891Y-86545945D01*
X53946317Y-86372339D02*
X53823804Y-86462302D01*
X54064117Y-86276286D02*
X53946317Y-86372339D01*
X54176900Y-86174390D02*
X54064117Y-86276286D01*
X54284378Y-86066912D02*
X54176900Y-86174390D01*
X54386274Y-85954129D02*
X54284378Y-86066912D01*
X54482327Y-85836329D02*
X54386274Y-85954129D01*
X54572290Y-85713816D02*
X54482327Y-85836329D01*
X54655932Y-85586903D02*
X54572290Y-85713816D01*
X54733039Y-85455917D02*
X54655932Y-85586903D01*
X54803413Y-85321193D02*
X54733039Y-85455917D01*
X54866873Y-85183078D02*
X54803413Y-85321193D01*
X54923255Y-85041926D02*
X54866873Y-85183078D01*
X54972417Y-84898100D02*
X54923255Y-85041926D01*
X55014230Y-84751968D02*
X54972417Y-84898100D01*
X55048589Y-84603906D02*
X55014230Y-84751968D01*
X55075404Y-84454293D02*
X55048589Y-84603906D01*
X55094607Y-84303515D02*
X55075404Y-84454293D01*
X55106148Y-84151957D02*
X55094607Y-84303515D01*
X55110000Y-50000016D02*
X55106148Y-84151957D01*
X55106149Y-49848068D02*
X55110000Y-50000016D01*
X55094607Y-49696510D02*
X55106149Y-49848068D01*
X55075403Y-49545731D02*
X55094607Y-49696510D01*
X55048588Y-49396119D02*
X55075403Y-49545731D01*
X55014229Y-49248056D02*
X55048588Y-49396119D01*
X54972415Y-49101924D02*
X55014229Y-49248056D01*
X54923253Y-48958098D02*
X54972415Y-49101924D01*
X54866870Y-48816946D02*
X54923253Y-48958098D01*
X54803409Y-48678831D02*
X54866870Y-48816946D01*
X54733035Y-48544107D02*
X54803409Y-48678831D01*
X54655928Y-48413121D02*
X54733035Y-48544107D01*
X54572285Y-48286208D02*
X54655928Y-48413121D01*
X54482321Y-48163695D02*
X54572285Y-48286208D01*
X54386268Y-48045895D02*
X54482321Y-48163695D01*
X54284371Y-47933112D02*
X54386268Y-48045895D01*
X54176893Y-47825634D02*
X54284371Y-47933112D01*
X54064109Y-47723738D02*
X54176893Y-47825634D01*
X53946309Y-47627685D02*
X54064109Y-47723738D01*
X53823795Y-47537722D02*
X53946309Y-47627685D01*
X53696882Y-47454080D02*
X53823795Y-47537722D01*
X53565896Y-47376973D02*
X53696882Y-47454080D01*
X53431172Y-47306600D02*
X53565896Y-47376973D01*
X53293056Y-47243140D02*
X53431172Y-47306600D01*
X53151904Y-47186757D02*
X53293056Y-47243140D01*
X53008077Y-47137596D02*
X53151904Y-47186757D01*
X52861945Y-47095783D02*
X53008077Y-47137596D01*
X52713883Y-47061424D02*
X52861945Y-47095783D01*
X52564270Y-47034610D02*
X52713883Y-47061424D01*
X52413491Y-47015407D02*
X52564270Y-47034610D01*
X52261933Y-47003866D02*
X52413491Y-47015407D01*
X3000000Y-47000008D02*
X52261933Y-47003866D01*
X2848052Y-47003858D02*
X3000000Y-47000008D01*
X2696494Y-47015400D02*
X2848052Y-47003858D01*
X2545716Y-47034603D02*
X2696494Y-47015400D01*
X2396103Y-47061419D02*
X2545716Y-47034603D01*
X2248041Y-47095777D02*
X2396103Y-47061419D01*
X2101909Y-47137591D02*
X2248041Y-47095777D01*
X1958083Y-47186753D02*
X2101909Y-47137591D01*
X1816931Y-47243136D02*
X1958083Y-47186753D01*
X1678816Y-47306596D02*
X1816931Y-47243136D01*
X1544092Y-47376970D02*
X1678816Y-47306596D01*
X1413106Y-47454077D02*
X1544092Y-47376970D01*
X1286193Y-47537720D02*
X1413106Y-47454077D01*
X1163680Y-47627684D02*
X1286193Y-47537720D01*
X1045880Y-47723737D02*
X1163680Y-47627684D01*
X933097Y-47825633D02*
X1045880Y-47723737D01*
X825619Y-47933111D02*
X933097Y-47825633D01*
X723723Y-48045894D02*
X825619Y-47933111D01*
X627671Y-48163694D02*
X723723Y-48045894D01*
X537708Y-48286208D02*
X627671Y-48163694D01*
X454065Y-48413121D02*
X537708Y-48286208D01*
X376958Y-48544107D02*
X454065Y-48413121D01*
X306585Y-48678831D02*
X376958Y-48544107D01*
X243125Y-48816946D02*
X306585Y-48678831D01*
X186742Y-48958098D02*
X243125Y-48816946D01*
X137581Y-49101925D02*
X186742Y-48958098D01*
X95767Y-49248057D02*
X137581Y-49101925D01*
X61409Y-49396119D02*
X95767Y-49248057D01*
X34594Y-49545732D02*
X61409Y-49396119D01*
X15391Y-49696510D02*
X34594Y-49545732D01*
X3850Y-49848068D02*
X15391Y-49696510D01*
X0Y-84000015D02*
X3850Y-49848068D01*
X3850Y-84151962D02*
X0Y-84000015D01*
X15392Y-84303519D02*
X3850Y-84151962D01*
X34595Y-84454298D02*
X15392Y-84303519D01*
X61410Y-84603910D02*
X34595Y-84454298D01*
X95768Y-84751972D02*
X61410Y-84603910D01*
X137582Y-84898104D02*
X95768Y-84751972D01*
X186743Y-85041930D02*
X137582Y-84898104D01*
X243126Y-85183082D02*
X186743Y-85041930D01*
X306586Y-85321197D02*
X243126Y-85183082D01*
X376960Y-85455920D02*
X306586Y-85321197D01*
X454067Y-85586906D02*
X376960Y-85455920D01*
X537709Y-85713819D02*
X454067Y-85586906D01*
X627672Y-85836332D02*
X537709Y-85713819D01*
X723725Y-85954131D02*
X627672Y-85836332D01*
X825621Y-86066915D02*
X723725Y-85954131D01*
X933098Y-86174392D02*
X825621Y-86066915D01*
X1045882Y-86276288D02*
X933098Y-86174392D01*
X1163681Y-86372341D02*
X1045882Y-86276288D01*
X1286194Y-86462304D02*
X1163681Y-86372341D01*
X1413107Y-86545946D02*
X1286194Y-86462304D01*
X1544093Y-86623053D02*
X1413107Y-86545946D01*
X1678816Y-86693427D02*
X1544093Y-86623053D01*
X1816931Y-86756887D02*
X1678816Y-86693427D01*
X1958083Y-86813270D02*
X1816931Y-86756887D01*
X2101909Y-86862431D02*
X1958083Y-86813270D01*
X2248041Y-86904245D02*
X2101909Y-86862431D01*
X2396103Y-86938603D02*
X2248041Y-86904245D01*
X2545715Y-86965418D02*
X2396103Y-86938603D01*
X2696494Y-86984621D02*
X2545715Y-86965418D01*
X2848051Y-86996163D02*
X2696494Y-86984621D01*
X52109999Y-87000014D02*
X2848051Y-86996163D01*
X52261946Y-86996163D02*
X52109999Y-87000014D01*
X109371948Y-44996155D02*
X109371948Y-44996155D01*
X109523506Y-44984613D02*
X109371948Y-44996155D01*
X109674284Y-44965410D02*
X109523506Y-44984613D01*
X109823896Y-44938595D02*
X109674284Y-44965410D01*
X109971959Y-44904236D02*
X109823896Y-44938595D01*
X110118090Y-44862423D02*
X109971959Y-44904236D01*
X110261917Y-44813261D02*
X110118090Y-44862423D01*
X110403069Y-44756878D02*
X110261917Y-44813261D01*
X110541184Y-44693418D02*
X110403069Y-44756878D01*
X110675907Y-44623044D02*
X110541184Y-44693418D01*
X110806893Y-44545937D02*
X110675907Y-44623044D01*
X110933806Y-44462294D02*
X110806893Y-44545937D01*
X111056319Y-44372331D02*
X110933806Y-44462294D01*
X111174119Y-44276278D02*
X111056319Y-44372331D01*
X111286902Y-44174382D02*
X111174119Y-44276278D01*
X111394380Y-44066904D02*
X111286902Y-44174382D01*
X111496276Y-43954121D02*
X111394380Y-44066904D01*
X111592329Y-43836321D02*
X111496276Y-43954121D01*
X111682292Y-43713808D02*
X111592329Y-43836321D01*
X111765934Y-43586895D02*
X111682292Y-43713808D01*
X111843041Y-43455909D02*
X111765934Y-43586895D01*
X111913415Y-43321185D02*
X111843041Y-43455909D01*
X111976875Y-43183070D02*
X111913415Y-43321185D01*
X112033257Y-43041918D02*
X111976875Y-43183070D01*
X112082419Y-42898092D02*
X112033257Y-43041918D01*
X112124232Y-42751960D02*
X112082419Y-42898092D01*
X112158591Y-42603898D02*
X112124232Y-42751960D01*
X112185406Y-42454285D02*
X112158591Y-42603898D01*
X112204609Y-42303507D02*
X112185406Y-42454285D01*
X112216150Y-42151949D02*
X112204609Y-42303507D01*
X112220002Y-8000008D02*
X112216150Y-42151949D01*
X112216151Y-7848060D02*
X112220002Y-8000008D01*
X112204609Y-7696502D02*
X112216151Y-7848060D01*
X112185405Y-7545723D02*
X112204609Y-7696502D01*
X112158590Y-7396111D02*
X112185405Y-7545723D01*
X112124231Y-7248048D02*
X112158590Y-7396111D01*
X112082417Y-7101916D02*
X112124231Y-7248048D01*
X112033255Y-6958090D02*
X112082417Y-7101916D01*
X111976872Y-6816938D02*
X112033255Y-6958090D01*
X111913411Y-6678823D02*
X111976872Y-6816938D01*
X111843037Y-6544099D02*
X111913411Y-6678823D01*
X111765930Y-6413113D02*
X111843037Y-6544099D01*
X111682287Y-6286200D02*
X111765930Y-6413113D01*
X111592323Y-6163687D02*
X111682287Y-6286200D01*
X111496270Y-6045887D02*
X111592323Y-6163687D01*
X111394373Y-5933104D02*
X111496270Y-6045887D01*
X111286895Y-5825626D02*
X111394373Y-5933104D01*
X111174111Y-5723730D02*
X111286895Y-5825626D01*
X111056311Y-5627677D02*
X111174111Y-5723730D01*
X110933797Y-5537714D02*
X111056311Y-5627677D01*
X110806884Y-5454072D02*
X110933797Y-5537714D01*
X110675898Y-5376965D02*
X110806884Y-5454072D01*
X110541174Y-5306592D02*
X110675898Y-5376965D01*
X110403058Y-5243132D02*
X110541174Y-5306592D01*
X110261906Y-5186749D02*
X110403058Y-5243132D01*
X110118079Y-5137588D02*
X110261906Y-5186749D01*
X109971947Y-5095775D02*
X110118079Y-5137588D01*
X109823885Y-5061416D02*
X109971947Y-5095775D01*
X109674272Y-5034602D02*
X109823885Y-5061416D01*
X109523493Y-5015399D02*
X109674272Y-5034602D01*
X109371935Y-5003858D02*
X109523493Y-5015399D01*
X60110002Y-5000000D02*
X109371935Y-5003858D01*
X59958054Y-5003850D02*
X60110002Y-5000000D01*
X59806496Y-5015392D02*
X59958054Y-5003850D01*
X59655718Y-5034595D02*
X59806496Y-5015392D01*
X59506105Y-5061411D02*
X59655718Y-5034595D01*
X59358043Y-5095769D02*
X59506105Y-5061411D01*
X59211911Y-5137583D02*
X59358043Y-5095769D01*
X59068085Y-5186745D02*
X59211911Y-5137583D01*
X58926933Y-5243128D02*
X59068085Y-5186745D01*
X58788818Y-5306588D02*
X58926933Y-5243128D01*
X58654094Y-5376962D02*
X58788818Y-5306588D01*
X58523108Y-5454069D02*
X58654094Y-5376962D01*
X58396195Y-5537712D02*
X58523108Y-5454069D01*
X58273682Y-5627676D02*
X58396195Y-5537712D01*
X58155882Y-5723729D02*
X58273682Y-5627676D01*
X58043099Y-5825625D02*
X58155882Y-5723729D01*
X57935621Y-5933103D02*
X58043099Y-5825625D01*
X57833725Y-6045886D02*
X57935621Y-5933103D01*
X57737673Y-6163686D02*
X57833725Y-6045886D01*
X57647710Y-6286200D02*
X57737673Y-6163686D01*
X57564067Y-6413113D02*
X57647710Y-6286200D01*
X57486960Y-6544099D02*
X57564067Y-6413113D01*
X57416587Y-6678823D02*
X57486960Y-6544099D01*
X57353127Y-6816938D02*
X57416587Y-6678823D01*
X57296744Y-6958090D02*
X57353127Y-6816938D01*
X57247583Y-7101917D02*
X57296744Y-6958090D01*
X57205769Y-7248049D02*
X57247583Y-7101917D01*
X57171411Y-7396111D02*
X57205769Y-7248049D01*
X57144596Y-7545724D02*
X57171411Y-7396111D01*
X57125393Y-7696502D02*
X57144596Y-7545724D01*
X57113852Y-7848060D02*
X57125393Y-7696502D01*
X57110002Y-42000007D02*
X57113852Y-7848060D01*
X57113852Y-42151954D02*
X57110002Y-42000007D01*
X57125394Y-42303511D02*
X57113852Y-42151954D01*
X57144597Y-42454290D02*
X57125394Y-42303511D01*
X57171412Y-42603902D02*
X57144597Y-42454290D01*
X57205770Y-42751964D02*
X57171412Y-42603902D01*
X57247584Y-42898096D02*
X57205770Y-42751964D01*
X57296745Y-43041922D02*
X57247584Y-42898096D01*
X57353128Y-43183074D02*
X57296745Y-43041922D01*
X57416588Y-43321189D02*
X57353128Y-43183074D01*
X57486962Y-43455912D02*
X57416588Y-43321189D01*
X57564069Y-43586898D02*
X57486962Y-43455912D01*
X57647711Y-43713811D02*
X57564069Y-43586898D01*
X57737674Y-43836324D02*
X57647711Y-43713811D01*
X57833727Y-43954123D02*
X57737674Y-43836324D01*
X57935623Y-44066907D02*
X57833727Y-43954123D01*
X58043100Y-44174384D02*
X57935623Y-44066907D01*
X58155884Y-44276280D02*
X58043100Y-44174384D01*
X58273683Y-44372333D02*
X58155884Y-44276280D01*
X58396196Y-44462296D02*
X58273683Y-44372333D01*
X58523109Y-44545938D02*
X58396196Y-44462296D01*
X58654095Y-44623045D02*
X58523109Y-44545938D01*
X58788818Y-44693419D02*
X58654095Y-44623045D01*
X58926933Y-44756879D02*
X58788818Y-44693419D01*
X59068085Y-44813262D02*
X58926933Y-44756879D01*
X59211911Y-44862423D02*
X59068085Y-44813262D01*
X59358043Y-44904237D02*
X59211911Y-44862423D01*
X59506105Y-44938595D02*
X59358043Y-44904237D01*
X59655717Y-44965410D02*
X59506105Y-44938595D01*
X59806496Y-44984613D02*
X59655717Y-44965410D01*
X59958053Y-44996155D02*
X59806496Y-44984613D01*
X109220001Y-45000006D02*
X59958053Y-44996155D01*
X109371948Y-44996155D02*
X109220001Y-45000006D01*
X52261946Y-44996155D02*
X52261946Y-44996155D01*
X52413504Y-44984613D02*
X52261946Y-44996155D01*
X52564282Y-44965410D02*
X52413504Y-44984613D01*
X52713894Y-44938595D02*
X52564282Y-44965410D01*
X52861957Y-44904236D02*
X52713894Y-44938595D01*
X53008088Y-44862423D02*
X52861957Y-44904236D01*
X53151915Y-44813261D02*
X53008088Y-44862423D01*
X53293067Y-44756878D02*
X53151915Y-44813261D01*
X53431182Y-44693418D02*
X53293067Y-44756878D01*
X53565905Y-44623044D02*
X53431182Y-44693418D01*
X53696891Y-44545937D02*
X53565905Y-44623044D01*
X53823804Y-44462294D02*
X53696891Y-44545937D01*
X53946317Y-44372331D02*
X53823804Y-44462294D01*
X54064117Y-44276278D02*
X53946317Y-44372331D01*
X54176900Y-44174382D02*
X54064117Y-44276278D01*
X54284378Y-44066904D02*
X54176900Y-44174382D01*
X54386274Y-43954121D02*
X54284378Y-44066904D01*
X54482327Y-43836321D02*
X54386274Y-43954121D01*
X54572290Y-43713808D02*
X54482327Y-43836321D01*
X54655932Y-43586895D02*
X54572290Y-43713808D01*
X54733039Y-43455909D02*
X54655932Y-43586895D01*
X54803413Y-43321185D02*
X54733039Y-43455909D01*
X54866873Y-43183070D02*
X54803413Y-43321185D01*
X54923255Y-43041918D02*
X54866873Y-43183070D01*
X54972417Y-42898092D02*
X54923255Y-43041918D01*
X55014230Y-42751960D02*
X54972417Y-42898092D01*
X55048589Y-42603898D02*
X55014230Y-42751960D01*
X55075404Y-42454285D02*
X55048589Y-42603898D01*
X55094607Y-42303507D02*
X55075404Y-42454285D01*
X55106148Y-42151949D02*
X55094607Y-42303507D01*
X55110000Y-8000008D02*
X55106148Y-42151949D01*
X55106149Y-7848060D02*
X55110000Y-8000008D01*
X55094607Y-7696502D02*
X55106149Y-7848060D01*
X55075403Y-7545723D02*
X55094607Y-7696502D01*
X55048588Y-7396111D02*
X55075403Y-7545723D01*
X55014229Y-7248048D02*
X55048588Y-7396111D01*
X54972415Y-7101916D02*
X55014229Y-7248048D01*
X54923253Y-6958090D02*
X54972415Y-7101916D01*
X54866870Y-6816938D02*
X54923253Y-6958090D01*
X54803409Y-6678823D02*
X54866870Y-6816938D01*
X54733035Y-6544099D02*
X54803409Y-6678823D01*
X54655928Y-6413113D02*
X54733035Y-6544099D01*
X54572285Y-6286200D02*
X54655928Y-6413113D01*
X54482321Y-6163687D02*
X54572285Y-6286200D01*
X54386268Y-6045887D02*
X54482321Y-6163687D01*
X54284371Y-5933104D02*
X54386268Y-6045887D01*
X54176893Y-5825626D02*
X54284371Y-5933104D01*
X54064109Y-5723730D02*
X54176893Y-5825626D01*
X53946309Y-5627677D02*
X54064109Y-5723730D01*
X53823795Y-5537714D02*
X53946309Y-5627677D01*
X53696882Y-5454072D02*
X53823795Y-5537714D01*
X53565896Y-5376965D02*
X53696882Y-5454072D01*
X53431172Y-5306592D02*
X53565896Y-5376965D01*
X53293056Y-5243132D02*
X53431172Y-5306592D01*
X53151904Y-5186749D02*
X53293056Y-5243132D01*
X53008077Y-5137588D02*
X53151904Y-5186749D01*
X52861945Y-5095775D02*
X53008077Y-5137588D01*
X52713883Y-5061416D02*
X52861945Y-5095775D01*
X52564270Y-5034602D02*
X52713883Y-5061416D01*
X52413491Y-5015399D02*
X52564270Y-5034602D01*
X52261933Y-5003858D02*
X52413491Y-5015399D01*
X3000000Y-5000000D02*
X52261933Y-5003858D01*
X2848052Y-5003850D02*
X3000000Y-5000000D01*
X2696494Y-5015392D02*
X2848052Y-5003850D01*
X2545716Y-5034595D02*
X2696494Y-5015392D01*
X2396103Y-5061411D02*
X2545716Y-5034595D01*
X2248041Y-5095769D02*
X2396103Y-5061411D01*
X2101909Y-5137583D02*
X2248041Y-5095769D01*
X1958083Y-5186745D02*
X2101909Y-5137583D01*
X1816931Y-5243128D02*
X1958083Y-5186745D01*
X1678816Y-5306588D02*
X1816931Y-5243128D01*
X1544092Y-5376962D02*
X1678816Y-5306588D01*
X1413106Y-5454069D02*
X1544092Y-5376962D01*
X1286193Y-5537712D02*
X1413106Y-5454069D01*
X1163680Y-5627676D02*
X1286193Y-5537712D01*
X1045880Y-5723729D02*
X1163680Y-5627676D01*
X933097Y-5825625D02*
X1045880Y-5723729D01*
X825619Y-5933103D02*
X933097Y-5825625D01*
X723723Y-6045886D02*
X825619Y-5933103D01*
X627671Y-6163686D02*
X723723Y-6045886D01*
X537708Y-6286200D02*
X627671Y-6163686D01*
X454065Y-6413113D02*
X537708Y-6286200D01*
X376958Y-6544099D02*
X454065Y-6413113D01*
X306585Y-6678823D02*
X376958Y-6544099D01*
X243125Y-6816938D02*
X306585Y-6678823D01*
X186742Y-6958090D02*
X243125Y-6816938D01*
X137581Y-7101917D02*
X186742Y-6958090D01*
X95767Y-7248049D02*
X137581Y-7101917D01*
X61409Y-7396111D02*
X95767Y-7248049D01*
X34594Y-7545724D02*
X61409Y-7396111D01*
X15391Y-7696502D02*
X34594Y-7545724D01*
X3850Y-7848060D02*
X15391Y-7696502D01*
X0Y-42000007D02*
X3850Y-7848060D01*
X3850Y-42151954D02*
X0Y-42000007D01*
X15392Y-42303511D02*
X3850Y-42151954D01*
X34595Y-42454290D02*
X15392Y-42303511D01*
X61410Y-42603902D02*
X34595Y-42454290D01*
X95768Y-42751964D02*
X61410Y-42603902D01*
X137582Y-42898096D02*
X95768Y-42751964D01*
X186743Y-43041922D02*
X137582Y-42898096D01*
X243126Y-43183074D02*
X186743Y-43041922D01*
X306586Y-43321189D02*
X243126Y-43183074D01*
X376960Y-43455912D02*
X306586Y-43321189D01*
X454067Y-43586898D02*
X376960Y-43455912D01*
X537709Y-43713811D02*
X454067Y-43586898D01*
X627672Y-43836324D02*
X537709Y-43713811D01*
X723725Y-43954123D02*
X627672Y-43836324D01*
X825621Y-44066907D02*
X723725Y-43954123D01*
X933098Y-44174384D02*
X825621Y-44066907D01*
X1045882Y-44276280D02*
X933098Y-44174384D01*
X1163681Y-44372333D02*
X1045882Y-44276280D01*
X1286194Y-44462296D02*
X1163681Y-44372333D01*
X1413107Y-44545938D02*
X1286194Y-44462296D01*
X1544093Y-44623045D02*
X1413107Y-44545938D01*
X1678816Y-44693419D02*
X1544093Y-44623045D01*
X1816931Y-44756879D02*
X1678816Y-44693419D01*
X1958083Y-44813262D02*
X1816931Y-44756879D01*
X2101909Y-44862423D02*
X1958083Y-44813262D01*
X2248041Y-44904237D02*
X2101909Y-44862423D01*
X2396103Y-44938595D02*
X2248041Y-44904237D01*
X2545715Y-44965410D02*
X2396103Y-44938595D01*
X2696494Y-44984613D02*
X2545715Y-44965410D01*
X2848051Y-44996155D02*
X2696494Y-44984613D01*
X52109999Y-45000006D02*
X2848051Y-44996155D01*
X52261946Y-44996155D02*
X52109999Y-45000006D01*
M02*
