M48
; DRILL file {KiCad 5.1.9+dfsg1-1+deb11u1} date Wed Oct 19 12:30:35 2022
; FORMAT={-:-/ absolute / metric / decimal}
; #@! TF.CreationDate,2022-10-19T12:30:35+02:00
; #@! TF.GenerationSoftware,Kicad,Pcbnew,5.1.9+dfsg1-1+deb11u1
FMAT,2
METRIC
T1C0.200
T2C0.300
T3C0.500
T4C1.000
T5C2.200
T6C1.500
%
G90
G05
T1
X0.37Y-9.665
X0.37Y-13.655
X0.37Y-39.665
X0.37Y-51.665
X0.37Y-55.655
X0.37Y-81.665
X0.38Y-7.705
X0.38Y-19.665
X0.38Y-49.705
X0.38Y-61.665
X0.66Y-43.205
X0.66Y-85.205
X0.79Y-16.565
X0.79Y-58.565
X1.03Y-15.765
X1.03Y-57.765
X1.033Y-17.595
X1.033Y-59.595
X1.07Y-11.945
X1.07Y-53.945
X1.55Y-40.385
X1.55Y-82.385
X1.555Y-24.523
X1.555Y-66.523
X1.578Y-33.245
X1.578Y-75.245
X1.59Y-19.985
X1.59Y-61.985
X1.69Y-28.525
X1.69Y-70.525
X1.867Y-26.646
X1.867Y-68.646
X1.95Y-34.625
X1.95Y-76.625
X1.96Y-32.781
X1.96Y-74.781
X1.99Y-32.235
X1.99Y-74.235
X2.05Y-31.155
X2.05Y-73.155
X2.14Y-24.523
X2.14Y-66.523
X2.18Y-44.455
X2.18Y-86.455
X2.199Y-33.578
X2.199Y-75.578
X2.422Y-26.635
X2.422Y-68.635
X2.44Y-5.525
X2.44Y-47.525
X2.569Y-15.435
X2.569Y-57.435
X2.62Y-18.635
X2.62Y-60.635
X3.09Y-34.645
X3.09Y-76.645
X3.55Y-26.585
X3.55Y-68.585
X3.657Y-24.235
X3.657Y-66.235
X3.764Y-36.258
X3.764Y-78.258
X3.77Y-29.425
X3.77Y-71.425
X3.87Y-11.202
X3.87Y-53.202
X3.92Y-37.575
X3.92Y-79.575
X4.06Y-5.365
X4.06Y-47.365
X4.16Y-21.575
X4.16Y-63.575
X4.203Y-24.235
X4.203Y-66.235
X4.32Y-26.595
X4.32Y-68.595
X4.955Y-36.36
X4.955Y-78.36
X4.974Y-38.795
X4.974Y-80.795
X5.36Y-28.825
X5.36Y-70.825
X5.383Y-37.417
X5.383Y-79.417
X5.52Y-26.585
X5.52Y-68.585
X5.6Y-16.595
X5.6Y-58.595
X5.78Y-33.355
X5.78Y-75.355
X5.82Y-15.935
X5.82Y-57.935
X5.857Y-6.885
X5.857Y-48.885
X5.89Y-31.485
X5.89Y-73.485
X6.06Y-5.365
X6.06Y-47.365
X6.093Y-40.122
X6.093Y-82.122
X6.2Y-37.269
X6.2Y-79.269
X6.22Y-44.565
X6.22Y-86.565
X6.33Y-11.285
X6.33Y-53.285
X6.401Y-16.475
X6.401Y-58.475
X6.42Y-26.495
X6.42Y-68.495
X6.538Y-42.454
X6.538Y-84.454
X6.553Y-10.458
X6.553Y-52.458
X6.62Y-24.195
X6.62Y-66.195
X6.65Y-28.496
X6.65Y-70.496
X6.733Y-39.348
X6.733Y-81.348
X6.742Y-16.952
X6.742Y-58.952
X6.84Y-34.665
X6.84Y-76.665
X6.894Y-42.022
X6.894Y-84.022
X7.11Y-24.515
X7.11Y-66.515
X7.13Y-8.455
X7.13Y-50.455
X7.44Y-38.641
X7.44Y-80.641
X7.626Y-37.996
X7.626Y-79.996
X7.816Y-35.507
X7.816Y-36.419
X7.816Y-77.507
X7.816Y-78.419
X8.06Y-5.365
X8.06Y-47.365
X8.08Y-16.855
X8.08Y-58.855
X8.227Y-10.458
X8.227Y-52.458
X8.236Y-25.566
X8.236Y-67.566
X8.41Y-42.214
X8.41Y-84.214
X8.436Y-11.432
X8.436Y-53.432
X8.499Y-21.008
X8.499Y-63.009
X8.565Y-33.846
X8.565Y-75.846
X8.577Y-20.027
X8.577Y-62.027
X8.69Y-6.872
X8.69Y-48.872
X8.762Y-10.568
X8.762Y-52.568
X8.84Y-20.582
X8.84Y-62.582
X8.906Y-8.367
X8.906Y-50.367
X8.96Y-21.605
X8.96Y-63.605
X9.157Y-41.547
X9.157Y-83.547
X9.247Y-38.182
X9.247Y-80.182
X9.445Y-28.17
X9.445Y-70.17
X9.624Y-19.955
X9.624Y-61.955
X9.685Y-37.834
X9.685Y-79.834
X9.767Y-40.992
X9.767Y-82.992
X9.784Y-39.67
X9.784Y-81.67
X9.79Y-37.255
X9.79Y-79.255
X9.79Y-7.885
X9.79Y-19.435
X9.79Y-49.885
X9.79Y-61.435
X9.818Y-9.427
X9.818Y-51.427
X9.843Y-40.213
X9.843Y-82.214
X9.98Y-35.735
X9.98Y-77.735
X9.981Y-16.333
X9.981Y-58.333
X10.012Y-38.616
X10.012Y-80.616
X10.11Y-6.145
X10.11Y-48.145
X10.22Y-44.565
X10.22Y-86.565
X10.231Y-37.773
X10.231Y-79.773
X10.335Y-11.31
X10.335Y-53.31
X10.37Y-25.621
X10.37Y-67.621
X10.418Y-28.232
X10.418Y-70.232
X10.738Y-42.947
X10.738Y-84.947
X10.966Y-24.195
X10.966Y-66.195
X11.007Y-15.282
X11.007Y-57.283
X11.06Y-41.465
X11.06Y-83.465
X11.16Y-11.305
X11.16Y-53.305
X11.658Y-31.64
X11.658Y-73.64
X11.956Y-39.301
X11.956Y-81.301
X11.974Y-30.075
X11.974Y-72.075
X12.145Y-10.839
X12.145Y-52.839
X12.159Y-33.158
X12.159Y-75.158
X12.171Y-27.332
X12.171Y-69.332
X12.252Y-33.714
X12.252Y-75.714
X12.255Y-44.22
X12.255Y-86.22
X12.27Y-30.865
X12.27Y-72.865
X12.356Y-38.598
X12.356Y-80.598
X12.396Y-26.835
X12.396Y-68.835
X12.502Y-39.295
X12.502Y-81.295
X12.61Y-15.715
X12.61Y-57.715
X12.631Y-11.112
X12.631Y-53.112
X12.72Y-6.205
X12.72Y-48.205
X12.762Y-42.658
X12.762Y-84.658
X12.791Y-33.618
X12.791Y-75.618
X12.807Y-32.818
X12.807Y-74.818
X12.856Y-39.71
X12.856Y-81.71
X12.91Y-11.925
X12.91Y-53.925
X12.956Y-35.247
X12.956Y-77.247
X13.183Y-31.012
X13.183Y-73.012
X13.291Y-26.182
X13.291Y-68.182
X13.537Y-31.432
X13.537Y-73.432
X13.556Y-39.105
X13.556Y-81.105
X13.577Y-28.581
X13.577Y-70.581
X13.657Y-39.642
X13.657Y-81.642
X13.809Y-27.169
X13.809Y-69.169
X13.908Y-42.154
X13.908Y-84.154
X13.946Y-25.855
X13.946Y-67.855
X13.948Y-22.947
X13.948Y-64.947
X14.01Y-15.665
X14.01Y-57.665
X14.106Y-40.924
X14.106Y-82.924
X14.49Y-33.305
X14.49Y-75.305
X14.644Y-40.68
X14.644Y-82.68
X14.711Y-39.514
X14.711Y-81.514
X14.72Y-32.68
X14.72Y-74.68
X14.753Y-41.798
X14.753Y-83.798
X14.783Y-34.613
X14.783Y-76.613
X14.903Y-8.835
X14.903Y-50.835
X14.994Y-44.022
X14.994Y-86.022
X15.02Y-21.515
X15.02Y-63.515
X15.036Y-33.183
X15.036Y-75.183
X15.09Y-30.571
X15.09Y-72.571
X15.098Y-32.28
X15.098Y-74.28
X15.12Y-6.366
X15.12Y-48.366
X15.14Y-29.135
X15.14Y-71.135
X15.202Y-34.963
X15.202Y-76.963
X15.21Y-31.479
X15.21Y-73.479
X15.509Y-34.485
X15.509Y-76.485
X15.52Y-5.995
X15.52Y-47.995
X15.89Y-30.316
X15.89Y-72.316
X15.899Y-33.474
X15.899Y-75.474
X15.9Y-21.515
X15.9Y-63.515
X15.91Y-19.885
X15.91Y-20.705
X15.91Y-61.885
X15.91Y-62.705
X15.91Y-25.488
X15.91Y-67.488
X15.939Y-28.717
X15.939Y-70.717
X16.06Y-5.365
X16.06Y-47.365
X16.276Y-35.271
X16.276Y-77.271
X16.608Y-18.939
X16.608Y-60.939
X16.67Y-23.105
X16.67Y-65.105
X16.68Y-31.893
X16.68Y-73.893
X16.68Y-22.275
X16.68Y-64.275
X16.69Y-27.091
X16.69Y-69.091
X16.71Y-25.495
X16.71Y-32.705
X16.71Y-33.505
X16.71Y-67.495
X16.71Y-74.705
X16.71Y-75.505
X16.71Y-29.522
X16.71Y-71.522
X16.711Y-23.862
X16.711Y-65.862
X16.72Y-30.331
X16.72Y-72.331
X16.723Y-21.563
X16.723Y-63.563
X16.741Y-20.694
X16.741Y-62.694
X16.744Y-28.713
X16.744Y-70.713
X16.759Y-24.669
X16.759Y-66.669
X16.816Y-35.352
X16.816Y-77.352
X17.05Y-5.645
X17.05Y-47.645
X17.16Y-18.925
X17.16Y-60.925
X17.473Y-28.71
X17.473Y-70.71
X17.493Y-21.487
X17.493Y-63.487
X17.5Y-20.715
X17.5Y-62.715
X17.51Y-19.863
X17.51Y-31.105
X17.51Y-32.705
X17.51Y-33.505
X17.51Y-61.863
X17.51Y-73.105
X17.51Y-74.705
X17.51Y-75.505
X17.51Y-27.085
X17.51Y-31.905
X17.51Y-69.085
X17.51Y-73.905
X17.511Y-29.465
X17.511Y-71.465
X17.52Y-24.675
X17.52Y-66.675
X17.52Y-25.494
X17.52Y-67.494
X17.531Y-30.305
X17.531Y-72.305
X17.54Y-23.935
X17.54Y-65.935
X17.817Y-44.022
X17.817Y-86.022
X17.99Y-6.205
X17.99Y-48.205
X17.993Y-41.487
X17.993Y-83.487
X18.06Y-5.365
X18.06Y-47.365
X18.093Y-17.742
X18.093Y-59.742
X18.124Y-35.376
X18.124Y-77.376
X18.143Y-38.945
X18.143Y-80.945
X18.175Y-35.941
X18.175Y-77.941
X18.24Y-26.163
X18.24Y-68.163
X18.272Y-31.906
X18.272Y-73.906
X18.276Y-31.106
X18.276Y-73.106
X18.29Y-28.705
X18.29Y-70.705
X18.292Y-27.085
X18.292Y-69.085
X18.31Y-23.095
X18.31Y-32.706
X18.31Y-65.095
X18.31Y-74.706
X18.311Y-29.465
X18.311Y-71.465
X18.317Y-30.305
X18.317Y-72.305
X18.34Y-23.917
X18.34Y-65.917
X18.658Y-9.787
X18.658Y-51.787
X18.77Y-6.555
X18.77Y-48.555
X18.774Y-8.939
X18.774Y-50.939
X18.967Y-35.744
X18.967Y-77.744
X19.06Y-7.135
X19.06Y-49.135
X19.094Y-34.305
X19.094Y-76.305
X19.1Y-21.495
X19.1Y-26.277
X19.1Y-63.495
X19.1Y-68.277
X19.103Y-23.895
X19.103Y-65.895
X19.108Y-27.15
X19.108Y-69.15
X19.11Y-33.505
X19.11Y-75.505
X19.12Y-25.515
X19.12Y-67.515
X19.123Y-11.188
X19.123Y-53.188
X19.13Y-22.325
X19.13Y-64.325
X19.14Y-28.715
X19.14Y-70.715
X19.147Y-27.922
X19.147Y-69.922
X19.155Y-20.696
X19.155Y-62.696
X19.16Y-8.553
X19.16Y-50.553
X19.47Y-36.625
X19.47Y-78.625
X19.509Y-35.807
X19.509Y-77.807
X19.541Y-16.846
X19.541Y-58.846
X19.655Y-19.016
X19.655Y-61.016
X19.766Y-10.404
X19.766Y-52.404
X19.818Y-33.578
X19.818Y-75.578
X19.91Y-34.305
X19.91Y-76.305
X19.91Y-23.115
X19.91Y-65.115
X19.911Y-26.268
X19.911Y-68.269
X19.913Y-24.685
X19.913Y-66.685
X19.915Y-25.515
X19.915Y-67.515
X19.92Y-21.504
X19.92Y-63.504
X19.954Y-28.665
X19.954Y-70.665
X19.987Y-23.928
X19.987Y-65.928
X20.058Y-7.516
X20.058Y-49.516
X20.06Y-5.365
X20.06Y-47.365
X20.077Y-17.046
X20.077Y-59.046
X20.3Y-5.975
X20.3Y-47.975
X20.326Y-36.572
X20.326Y-78.572
X20.338Y-42.582
X20.338Y-84.582
X20.44Y-8.105
X20.44Y-50.105
X20.68Y-16.235
X20.68Y-58.235
X20.71Y-23.905
X20.71Y-65.905
X20.71Y-27.105
X20.71Y-69.105
X20.712Y-31.885
X20.712Y-73.885
X20.715Y-32.735
X20.715Y-74.735
X20.73Y-22.305
X20.73Y-64.305
X20.75Y-21.535
X20.75Y-63.535
X20.8Y-20.743
X20.8Y-62.743
X20.815Y-7.705
X20.815Y-49.705
X20.89Y-36.555
X20.89Y-78.555
X21.378Y-41.26
X21.378Y-83.26
X21.458Y-10.105
X21.458Y-52.105
X21.461Y-42.563
X21.461Y-84.563
X21.47Y-5.975
X21.47Y-47.975
X21.49Y-22.345
X21.49Y-64.345
X21.51Y-23.905
X21.51Y-25.505
X21.51Y-28.705
X21.51Y-65.905
X21.51Y-67.505
X21.51Y-70.705
X21.511Y-32.735
X21.511Y-74.735
X21.513Y-31.885
X21.513Y-73.885
X21.52Y-20.685
X21.52Y-62.685
X21.734Y-8.296
X21.734Y-50.296
X21.763Y-34.672
X21.763Y-76.672
X21.923Y-41.299
X21.923Y-83.299
X21.98Y-7.79
X21.98Y-49.79
X22.037Y-39.189
X22.037Y-81.189
X22.056Y-18.876
X22.056Y-60.876
X22.06Y-5.365
X22.06Y-47.365
X22.074Y-30.541
X22.074Y-72.541
X22.287Y-34.441
X22.287Y-76.441
X22.29Y-22.305
X22.29Y-64.305
X22.31Y-23.905
X22.31Y-27.905
X22.31Y-28.705
X22.31Y-32.735
X22.31Y-65.905
X22.31Y-69.905
X22.31Y-70.705
X22.31Y-74.735
X22.36Y-41.625
X22.36Y-83.625
X22.543Y-39.399
X22.543Y-81.399
X22.593Y-36.313
X22.593Y-78.313
X22.66Y-42.563
X22.66Y-84.563
X22.66Y-5.985
X22.66Y-47.985
X22.674Y-35.615
X22.674Y-77.615
X22.923Y-8.689
X22.923Y-50.689
X22.94Y-18.645
X22.94Y-60.645
X23.04Y-41.471
X23.04Y-83.471
X23.11Y-20.747
X23.11Y-62.747
X23.11Y-27.905
X23.11Y-28.705
X23.11Y-34.305
X23.11Y-69.905
X23.11Y-70.705
X23.11Y-76.305
X23.314Y-8.307
X23.314Y-50.307
X23.39Y-12.215
X23.39Y-54.215
X23.397Y-18.346
X23.397Y-60.346
X23.723Y-7.897
X23.723Y-49.897
X23.88Y-22.317
X23.88Y-64.317
X23.883Y-35.635
X23.883Y-77.635
X23.91Y-23.905
X23.91Y-27.905
X23.91Y-28.705
X23.91Y-32.735
X23.91Y-34.305
X23.91Y-65.905
X23.91Y-69.905
X23.91Y-70.705
X23.91Y-74.735
X23.91Y-76.305
X23.96Y-12.195
X23.96Y-54.195
X23.98Y-21.528
X23.98Y-63.528
X24.004Y-36.609
X24.004Y-78.609
X24.06Y-5.365
X24.06Y-47.365
X24.22Y-14.355
X24.22Y-56.355
X24.58Y-36.675
X24.58Y-78.675
X24.684Y-31.89
X24.684Y-73.89
X24.69Y-22.302
X24.69Y-64.302
X24.695Y-32.735
X24.695Y-74.735
X24.7Y-23.914
X24.7Y-65.914
X24.71Y-25.505
X24.71Y-28.705
X24.71Y-67.505
X24.71Y-70.705
X24.772Y-41.471
X24.772Y-83.471
X24.792Y-5.397
X24.792Y-47.397
X24.81Y-14.245
X24.81Y-56.245
X24.911Y-42.699
X24.911Y-84.699
X25.052Y-9.873
X25.052Y-51.873
X25.09Y-12.692
X25.09Y-54.692
X25.092Y-36.877
X25.092Y-78.877
X25.1Y-13.248
X25.1Y-55.248
X25.178Y-5.783
X25.178Y-47.783
X25.28Y-41.835
X25.28Y-83.835
X25.33Y-13.775
X25.33Y-55.775
X25.381Y-27.105
X25.381Y-69.105
X25.427Y-24.113
X25.427Y-66.113
X25.454Y-42.77
X25.454Y-84.77
X25.46Y-8.151
X25.46Y-50.151
X25.51Y-22.305
X25.51Y-31.902
X25.51Y-64.305
X25.51Y-73.902
X25.527Y-21.522
X25.527Y-63.522
X25.53Y-32.811
X25.53Y-74.811
X25.533Y-23.035
X25.533Y-65.035
X25.574Y-41.349
X25.574Y-83.349
X25.58Y-30.695
X25.58Y-72.695
X25.815Y-8.689
X25.815Y-50.689
X25.869Y-42.407
X25.869Y-84.407
X26.048Y-5.583
X26.048Y-47.583
X26.08Y-30.455
X26.08Y-72.455
X26.106Y-41.473
X26.106Y-83.473
X26.166Y-9.961
X26.166Y-51.961
X26.227Y-18.536
X26.227Y-60.536
X26.243Y-26.315
X26.243Y-68.315
X26.255Y-42.795
X26.255Y-84.795
X26.29Y-23.905
X26.29Y-65.905
X26.294Y-24.705
X26.294Y-66.705
X26.295Y-25.528
X26.295Y-67.528
X26.31Y-19.925
X26.31Y-28.705
X26.31Y-61.925
X26.31Y-70.705
X26.317Y-20.685
X26.317Y-62.685
X26.351Y-23.105
X26.351Y-65.105
X26.4Y-42.265
X26.4Y-84.265
X26.427Y-7.996
X26.427Y-49.996
X26.474Y-12.753
X26.474Y-54.754
X26.502Y-39.3
X26.502Y-81.3
X26.649Y-41.358
X26.649Y-83.358
X26.74Y-17.792
X26.74Y-59.792
X26.83Y-18.597
X26.83Y-60.597
X26.84Y-39.954
X26.84Y-81.954
X26.952Y-7.845
X26.952Y-49.845
X27.06Y-42.765
X27.06Y-84.765
X27.082Y-27.098
X27.082Y-69.098
X27.096Y-31.894
X27.096Y-73.894
X27.098Y-33.509
X27.098Y-75.509
X27.11Y-23.909
X27.11Y-65.909
X27.11Y-25.491
X27.11Y-67.492
X27.114Y-24.667
X27.114Y-66.667
X27.12Y-22.325
X27.12Y-64.325
X27.13Y-21.445
X27.13Y-63.445
X27.13Y-34.276
X27.13Y-76.276
X27.137Y-26.292
X27.137Y-68.292
X27.302Y-39.664
X27.302Y-81.664
X27.381Y-8.182
X27.381Y-50.182
X27.4Y-5.387
X27.4Y-5.933
X27.4Y-47.387
X27.4Y-47.933
X27.46Y-8.787
X27.46Y-50.787
X27.461Y-35.455
X27.461Y-77.455
X27.581Y-17.83
X27.581Y-59.83
X27.586Y-42.619
X27.586Y-84.619
X27.677Y-17.293
X27.677Y-59.293
X27.693Y-44.129
X27.693Y-86.129
X27.77Y-16.46
X27.77Y-58.46
X27.873Y-33.593
X27.873Y-75.593
X27.89Y-25.515
X27.89Y-67.515
X27.89Y-29.505
X27.89Y-71.505
X27.896Y-31.964
X27.896Y-73.964
X27.9Y-28.686
X27.9Y-70.686
X27.9Y-22.325
X27.9Y-23.105
X27.9Y-64.325
X27.9Y-65.105
X27.91Y-23.906
X27.91Y-65.906
X27.91Y-27.078
X27.91Y-69.078
X27.92Y-27.905
X27.92Y-69.905
X27.93Y-34.305
X27.93Y-76.305
X27.931Y-38.426
X27.931Y-80.427
X27.937Y-26.315
X27.937Y-68.315
X27.937Y-31.03
X27.937Y-73.03
X27.952Y-30.215
X27.952Y-72.215
X27.957Y-41.499
X27.957Y-83.499
X27.985Y-35.61
X27.985Y-77.61
X28.239Y-16.036
X28.239Y-58.036
X28.307Y-5.466
X28.307Y-47.466
X28.391Y-41.83
X28.391Y-83.83
X28.596Y-15.475
X28.596Y-57.475
X28.61Y-39.795
X28.61Y-81.795
X28.64Y-42.772
X28.64Y-84.772
X28.641Y-32.681
X28.641Y-74.681
X28.678Y-23.095
X28.678Y-65.095
X28.693Y-5.853
X28.693Y-47.853
X28.7Y-31.936
X28.7Y-73.936
X28.7Y-22.285
X28.7Y-64.285
X28.701Y-25.505
X28.701Y-67.505
X28.703Y-13.106
X28.703Y-55.106
X28.71Y-27.905
X28.71Y-69.905
X28.711Y-24.705
X28.711Y-66.705
X28.712Y-33.535
X28.712Y-75.535
X28.713Y-23.895
X28.713Y-65.895
X28.714Y-27.073
X28.714Y-69.073
X28.734Y-28.717
X28.734Y-70.717
X28.75Y-29.435
X28.75Y-71.435
X28.753Y-42.238
X28.753Y-84.238
X28.774Y-41.312
X28.774Y-83.312
X28.785Y-35.594
X28.785Y-77.594
X28.909Y-17.768
X28.909Y-59.768
X28.912Y-15.029
X28.912Y-57.029
X29.058Y-14.503
X29.058Y-56.503
X29.108Y-35.143
X29.108Y-77.143
X29.299Y-42.241
X29.299Y-84.241
X29.441Y-32.683
X29.441Y-74.683
X29.46Y-23.915
X29.46Y-65.915
X29.48Y-23.105
X29.48Y-65.105
X29.487Y-21.502
X29.487Y-63.502
X29.5Y-27.057
X29.5Y-69.057
X29.505Y-19.153
X29.505Y-61.153
X29.505Y-25.468
X29.505Y-67.468
X29.51Y-27.863
X29.51Y-69.863
X29.52Y-19.915
X29.52Y-61.915
X29.52Y-20.715
X29.52Y-26.285
X29.52Y-62.715
X29.52Y-68.285
X29.526Y-22.283
X29.526Y-64.283
X29.53Y-31.12
X29.53Y-73.12
X29.54Y-28.707
X29.54Y-70.707
X29.55Y-33.485
X29.55Y-75.485
X29.563Y-7.849
X29.563Y-49.849
X29.581Y-17.512
X29.581Y-59.512
X29.583Y-12.806
X29.583Y-54.806
X29.694Y-42.64
X29.694Y-84.64
X29.736Y-14.99
X29.736Y-56.99
X29.86Y-6.075
X29.86Y-48.075
X29.9Y-16.051
X29.9Y-58.051
X29.95Y-8.234
X29.95Y-50.234
X30.051Y-17.79
X30.051Y-59.79
X30.082Y-41.855
X30.082Y-83.855
X30.17Y-35.342
X30.17Y-77.342
X30.172Y-39.735
X30.172Y-81.735
X30.273Y-43.985
X30.273Y-85.985
X30.286Y-33.494
X30.286Y-75.494
X30.291Y-41.294
X30.291Y-83.294
X30.31Y-26.335
X30.31Y-34.335
X30.31Y-68.335
X30.31Y-76.335
X30.315Y-16.451
X30.315Y-58.451
X30.34Y-19.945
X30.34Y-61.945
X30.35Y-25.507
X30.35Y-67.507
X30.359Y-8.595
X30.359Y-50.595
X30.45Y-34.873
X30.45Y-76.873
X30.59Y-42.165
X30.59Y-84.165
X30.647Y-40.012
X30.647Y-82.012
X30.72Y-19.545
X30.72Y-61.545
X30.75Y-41.59
X30.75Y-83.59
X30.759Y-7.988
X30.759Y-49.988
X30.818Y-42.713
X30.818Y-84.713
X30.97Y-5.345
X30.97Y-47.345
X30.99Y-43.985
X30.99Y-85.985
X31.06Y-6.055
X31.06Y-36.585
X31.06Y-48.055
X31.06Y-78.585
X31.262Y-25.907
X31.262Y-67.907
X31.295Y-7.883
X31.295Y-49.883
X31.33Y-19.145
X31.33Y-61.145
X31.442Y-39.756
X31.442Y-81.756
X31.536Y-44.069
X31.536Y-86.069
X31.54Y-13.975
X31.54Y-55.975
X31.661Y-8.643
X31.661Y-50.643
X31.701Y-26.309
X31.701Y-68.309
X31.776Y-25.255
X31.776Y-67.255
X31.873Y-23.418
X31.873Y-65.418
X31.878Y-29.799
X31.878Y-71.799
X31.88Y-42.725
X31.88Y-84.725
X31.894Y-13.043
X31.894Y-55.043
X31.901Y-41.211
X31.901Y-83.211
X31.941Y-39.978
X31.941Y-81.979
X31.973Y-7.837
X31.973Y-49.837
X31.99Y-21.995
X31.99Y-63.995
X32.205Y-8.693
X32.205Y-50.693
X32.207Y-13.922
X32.207Y-55.922
X32.26Y-6.065
X32.26Y-48.065
X32.293Y-25.062
X32.293Y-67.062
X32.43Y-7.321
X32.43Y-49.321
X32.432Y-41.34
X32.432Y-83.34
X32.48Y-21.233
X32.48Y-63.233
X32.573Y-29.801
X32.573Y-71.801
X32.64Y-23.125
X32.64Y-65.125
X32.67Y-28.015
X32.67Y-70.015
X32.97Y-5.345
X32.97Y-47.345
X32.978Y-41.247
X32.978Y-83.247
X32.986Y-7.236
X32.986Y-49.236
X33.06Y-42.775
X33.06Y-84.775
X33.14Y-13.905
X33.14Y-55.905
X33.16Y-34.395
X33.16Y-76.395
X33.351Y-8.285
X33.351Y-50.285
X33.41Y-44.055
X33.41Y-86.055
X33.42Y-10.015
X33.42Y-52.015
X33.426Y-26.01
X33.426Y-68.01
X33.44Y-27.555
X33.44Y-69.555
X33.45Y-5.955
X33.45Y-47.955
X33.647Y-26.754
X33.647Y-68.754
X33.76Y-12.705
X33.76Y-34.425
X33.76Y-54.705
X33.76Y-76.425
X33.768Y-7.249
X33.768Y-49.249
X33.915Y-24.245
X33.915Y-66.245
X33.955Y-25.872
X33.955Y-67.872
X33.962Y-36.343
X33.962Y-78.343
X34.13Y-44.055
X34.13Y-86.055
X34.161Y-26.949
X34.161Y-68.949
X34.343Y-42.751
X34.343Y-84.751
X34.375Y-7.291
X34.375Y-49.291
X34.41Y-14.578
X34.41Y-56.578
X34.51Y-33.655
X34.51Y-75.655
X34.61Y-35.635
X34.61Y-36.255
X34.61Y-77.635
X34.61Y-78.255
X34.612Y-27.257
X34.612Y-69.257
X34.64Y-40.045
X34.64Y-82.045
X34.66Y-5.965
X34.66Y-47.965
X34.779Y-8.728
X34.779Y-50.728
X34.822Y-14.14
X34.822Y-56.14
X34.93Y-7.283
X34.93Y-49.283
X34.97Y-5.345
X34.97Y-47.345
X34.98Y-12.395
X34.98Y-54.395
X35.04Y-33.975
X35.04Y-75.975
X35.28Y-13.282
X35.28Y-13.828
X35.28Y-55.282
X35.28Y-55.828
X35.32Y-44.475
X35.32Y-86.475
X35.42Y-34.445
X35.42Y-76.445
X35.45Y-35.82
X35.45Y-77.82
X35.526Y-7.331
X35.526Y-49.331
X35.528Y-42.695
X35.528Y-84.695
X35.54Y-41.596
X35.54Y-83.596
X35.558Y-35.177
X35.558Y-77.177
X35.86Y-5.985
X35.86Y-47.985
X35.873Y-8.002
X35.873Y-50.002
X35.91Y-12.535
X35.91Y-54.535
X36.094Y-8.635
X36.094Y-50.635
X36.126Y-7.425
X36.126Y-49.425
X36.15Y-14.265
X36.15Y-56.265
X36.224Y-42.085
X36.224Y-84.085
X36.264Y-42.915
X36.264Y-84.915
X36.42Y-12.945
X36.42Y-54.945
X36.64Y-8.635
X36.64Y-50.635
X36.676Y-7.211
X36.676Y-49.211
X36.947Y-38.022
X36.947Y-80.022
X36.97Y-5.345
X36.97Y-39.975
X36.97Y-47.345
X36.97Y-81.975
X37.01Y-9.985
X37.01Y-51.985
X37.07Y-5.955
X37.07Y-47.955
X37.08Y-44.495
X37.08Y-86.495
X37.081Y-42.623
X37.081Y-84.623
X37.188Y-41.311
X37.188Y-83.311
X37.437Y-19.475
X37.437Y-61.475
X37.52Y-20.958
X37.52Y-62.958
X37.53Y-7.585
X37.53Y-49.585
X37.563Y-12.541
X37.563Y-54.541
X37.68Y-24.627
X37.68Y-66.627
X37.725Y-39.978
X37.725Y-81.978
X37.78Y-35.855
X37.78Y-77.855
X37.993Y-12.877
X37.993Y-54.877
X38.077Y-13.692
X38.077Y-55.692
X38.196Y-7.341
X38.196Y-49.341
X38.25Y-5.985
X38.25Y-47.985
X38.3Y-8.775
X38.3Y-50.775
X38.37Y-20.675
X38.37Y-62.675
X38.398Y-24.613
X38.398Y-66.613
X38.4Y-25.445
X38.4Y-67.445
X38.463Y-14.078
X38.463Y-56.078
X38.59Y-41.695
X38.59Y-83.695
X38.65Y-39.778
X38.65Y-81.778
X38.77Y-44.525
X38.77Y-86.525
X38.97Y-5.345
X38.97Y-47.345
X39.07Y-41.342
X39.07Y-83.342
X39.2Y-20.705
X39.2Y-62.705
X39.345Y-13.702
X39.345Y-55.702
X39.35Y-35.715
X39.35Y-77.715
X39.351Y-14.248
X39.351Y-56.248
X39.435Y-9.902
X39.435Y-51.902
X39.55Y-15.455
X39.55Y-57.455
X39.74Y-14.665
X39.74Y-56.665
X39.744Y-42.013
X39.744Y-84.013
X39.85Y-42.715
X39.85Y-84.715
X39.94Y-8.705
X39.94Y-50.705
X39.98Y-20.695
X39.98Y-62.695
X39.99Y-24.635
X39.99Y-66.635
X40.065Y-41.545
X40.065Y-83.545
X40.315Y-15.165
X40.315Y-57.165
X40.77Y-20.675
X40.77Y-62.675
X40.79Y-24.675
X40.79Y-66.675
X40.95Y-6.905
X40.95Y-48.905
X41.137Y-9.167
X41.137Y-51.167
X41.36Y-6.515
X41.36Y-48.515
X41.553Y-20.66
X41.553Y-62.661
X41.56Y-9.525
X41.56Y-51.525
X41.6Y-24.696
X41.6Y-66.696
X41.62Y-43.725
X41.62Y-85.725
X41.83Y-12.805
X41.83Y-54.805
X42.45Y-5.415
X42.45Y-47.415
X42.71Y-44.515
X42.71Y-86.515
X42.953Y-32.019
X42.953Y-74.019
X43.29Y-27.475
X43.29Y-69.475
X43.39Y-41.105
X43.39Y-83.105
X43.68Y-32.019
X43.68Y-74.019
X44.43Y-40.155
X44.43Y-82.155
X44.56Y-43.965
X44.56Y-85.965
X44.58Y-43.365
X44.58Y-85.365
X44.7Y-26.085
X44.7Y-68.085
X44.85Y-19.465
X44.85Y-61.465
X45.1Y-40.72
X45.1Y-82.72
X45.165Y-35.964
X45.165Y-77.965
X45.2Y-37.845
X45.2Y-79.845
X45.309Y-25.862
X45.309Y-67.862
X45.825Y-36.82
X45.825Y-78.82
X45.97Y-5.345
X45.97Y-47.345
X46.032Y-25.865
X46.032Y-67.865
X46.12Y-15.685
X46.12Y-57.685
X46.231Y-16.298
X46.231Y-58.298
X46.37Y-41.515
X46.37Y-83.515
X46.39Y-42.085
X46.39Y-84.085
X46.695Y-11.572
X46.695Y-53.572
X46.88Y-42.494
X46.88Y-43.04
X46.88Y-84.494
X46.88Y-85.04
X47.083Y-11.172
X47.083Y-53.172
X47.42Y-6.982
X47.42Y-7.528
X47.42Y-48.982
X47.42Y-49.528
X47.45Y-9.348
X47.45Y-51.348
X47.457Y-8.793
X47.457Y-50.793
X47.641Y-26.587
X47.641Y-68.587
X47.75Y-25.966
X47.75Y-67.966
X47.788Y-27.183
X47.788Y-69.183
X47.82Y-16.535
X47.82Y-58.535
X47.97Y-5.345
X47.97Y-47.345
X48.08Y-10.475
X48.08Y-52.475
X48.737Y-19.419
X48.737Y-61.419
X48.88Y-29.775
X48.88Y-71.775
X49.239Y-12.3
X49.239Y-54.3
X49.27Y-21.823
X49.27Y-63.823
X49.97Y-5.345
X49.97Y-47.345
X50.053Y-20.248
X50.053Y-62.248
X50.098Y-19.518
X50.098Y-61.518
X50.22Y-44.615
X50.22Y-86.615
X50.715Y-15.929
X50.715Y-57.929
X52.29Y-11.345
X52.29Y-53.345
X52.39Y-22.775
X52.39Y-64.775
X53.06Y-5.535
X53.06Y-47.535
X54.27Y-43.425
X54.27Y-85.425
X54.77Y-8.545
X54.77Y-11.095
X54.77Y-13.095
X54.77Y-15.095
X54.77Y-17.095
X54.77Y-19.095
X54.77Y-21.095
X54.77Y-23.095
X54.77Y-25.095
X54.77Y-27.095
X54.77Y-29.095
X54.77Y-41.095
X54.77Y-50.545
X54.77Y-53.095
X54.77Y-55.095
X54.77Y-57.095
X54.77Y-59.095
X54.77Y-61.095
X54.77Y-63.095
X54.77Y-65.095
X54.77Y-67.095
X54.77Y-69.095
X54.77Y-71.095
X54.77Y-83.095
X57.48Y-9.665
X57.48Y-13.655
X57.48Y-39.665
X57.48Y-51.665
X57.48Y-55.655
X57.48Y-81.665
X57.49Y-7.705
X57.49Y-19.665
X57.49Y-49.705
X57.49Y-61.665
X57.77Y-43.205
X57.77Y-85.205
X57.9Y-16.565
X57.9Y-58.565
X58.14Y-15.765
X58.14Y-57.765
X58.143Y-17.595
X58.143Y-59.595
X58.18Y-11.945
X58.18Y-53.945
X58.66Y-40.385
X58.66Y-82.385
X58.665Y-24.523
X58.665Y-66.523
X58.688Y-33.245
X58.688Y-75.245
X58.7Y-19.985
X58.7Y-61.985
X58.8Y-28.525
X58.8Y-70.525
X58.977Y-26.646
X58.977Y-68.646
X59.06Y-34.625
X59.06Y-76.625
X59.07Y-32.781
X59.07Y-74.781
X59.1Y-32.235
X59.1Y-74.235
X59.16Y-31.155
X59.16Y-73.155
X59.25Y-24.523
X59.25Y-66.523
X59.29Y-44.455
X59.29Y-86.455
X59.309Y-33.578
X59.309Y-75.578
X59.532Y-26.635
X59.532Y-68.635
X59.55Y-5.525
X59.55Y-47.525
X59.679Y-15.435
X59.679Y-57.435
X59.73Y-18.635
X59.73Y-60.635
X60.2Y-34.645
X60.2Y-76.645
X60.66Y-26.585
X60.66Y-68.585
X60.767Y-24.235
X60.767Y-66.235
X60.874Y-36.258
X60.874Y-78.258
X60.88Y-29.425
X60.88Y-71.425
X60.98Y-11.202
X60.98Y-53.202
X61.03Y-37.575
X61.03Y-79.575
X61.17Y-5.365
X61.17Y-47.365
X61.27Y-21.575
X61.27Y-63.575
X61.313Y-24.235
X61.313Y-66.235
X61.43Y-26.595
X61.43Y-68.595
X62.065Y-36.36
X62.065Y-78.36
X62.084Y-38.795
X62.084Y-80.795
X62.47Y-28.825
X62.47Y-70.825
X62.493Y-37.417
X62.493Y-79.417
X62.63Y-26.585
X62.63Y-68.585
X62.71Y-16.595
X62.71Y-58.595
X62.89Y-33.355
X62.89Y-75.355
X62.93Y-15.935
X62.93Y-57.935
X62.967Y-6.885
X62.967Y-48.885
X63.0Y-31.485
X63.0Y-73.485
X63.17Y-5.365
X63.17Y-47.365
X63.203Y-40.122
X63.203Y-82.122
X63.31Y-37.269
X63.31Y-79.269
X63.33Y-44.565
X63.33Y-86.565
X63.44Y-11.285
X63.44Y-53.285
X63.511Y-16.475
X63.511Y-58.475
X63.53Y-26.495
X63.53Y-68.495
X63.648Y-42.454
X63.648Y-84.454
X63.663Y-10.458
X63.663Y-52.458
X63.73Y-24.195
X63.73Y-66.195
X63.76Y-28.496
X63.76Y-70.496
X63.843Y-39.348
X63.843Y-81.348
X63.852Y-16.952
X63.852Y-58.952
X63.95Y-34.665
X63.95Y-76.665
X64.004Y-42.022
X64.004Y-84.022
X64.22Y-24.515
X64.22Y-66.515
X64.24Y-8.455
X64.24Y-50.455
X64.55Y-38.641
X64.55Y-80.641
X64.736Y-37.996
X64.736Y-79.996
X64.926Y-35.507
X64.926Y-36.419
X64.926Y-77.507
X64.926Y-78.419
X65.17Y-5.365
X65.17Y-47.365
X65.19Y-16.855
X65.19Y-58.855
X65.337Y-10.458
X65.337Y-52.458
X65.346Y-25.566
X65.346Y-67.566
X65.52Y-42.214
X65.52Y-84.214
X65.546Y-11.432
X65.546Y-53.432
X65.609Y-21.008
X65.609Y-63.009
X65.675Y-33.846
X65.675Y-75.846
X65.687Y-20.027
X65.687Y-62.027
X65.8Y-6.872
X65.8Y-48.872
X65.872Y-10.568
X65.872Y-52.568
X65.95Y-20.582
X65.95Y-62.582
X66.016Y-8.367
X66.016Y-50.367
X66.07Y-21.605
X66.07Y-63.605
X66.267Y-41.547
X66.267Y-83.547
X66.357Y-38.182
X66.357Y-80.182
X66.555Y-28.17
X66.555Y-70.17
X66.734Y-19.955
X66.734Y-61.955
X66.795Y-37.834
X66.795Y-79.834
X66.877Y-40.992
X66.877Y-82.992
X66.894Y-39.67
X66.894Y-81.67
X66.9Y-37.255
X66.9Y-79.255
X66.9Y-7.885
X66.9Y-19.435
X66.9Y-49.885
X66.9Y-61.435
X66.928Y-9.427
X66.928Y-51.427
X66.953Y-40.213
X66.953Y-82.214
X67.09Y-35.735
X67.09Y-77.735
X67.091Y-16.333
X67.091Y-58.333
X67.122Y-38.616
X67.122Y-80.616
X67.22Y-6.145
X67.22Y-48.145
X67.33Y-44.565
X67.33Y-86.565
X67.341Y-37.773
X67.341Y-79.773
X67.445Y-11.31
X67.445Y-53.31
X67.48Y-25.621
X67.48Y-67.621
X67.528Y-28.232
X67.528Y-70.232
X67.848Y-42.947
X67.848Y-84.947
X68.076Y-24.195
X68.076Y-66.195
X68.117Y-15.282
X68.117Y-57.283
X68.17Y-41.465
X68.17Y-83.465
X68.27Y-11.305
X68.27Y-53.305
X68.768Y-31.64
X68.768Y-73.64
X69.066Y-39.301
X69.066Y-81.301
X69.084Y-30.075
X69.084Y-72.075
X69.255Y-10.839
X69.255Y-52.839
X69.269Y-33.158
X69.269Y-75.158
X69.281Y-27.332
X69.281Y-69.332
X69.362Y-33.714
X69.362Y-75.714
X69.365Y-44.22
X69.365Y-86.22
X69.38Y-30.865
X69.38Y-72.865
X69.466Y-38.598
X69.466Y-80.598
X69.506Y-26.835
X69.506Y-68.835
X69.612Y-39.295
X69.612Y-81.295
X69.72Y-15.715
X69.72Y-57.715
X69.741Y-11.112
X69.741Y-53.112
X69.83Y-6.205
X69.83Y-48.205
X69.872Y-42.658
X69.872Y-84.658
X69.901Y-33.618
X69.901Y-75.618
X69.917Y-32.818
X69.917Y-74.818
X69.966Y-39.71
X69.966Y-81.71
X70.02Y-11.925
X70.02Y-53.925
X70.066Y-35.247
X70.066Y-77.247
X70.293Y-31.012
X70.293Y-73.012
X70.401Y-26.182
X70.401Y-68.182
X70.647Y-31.432
X70.647Y-73.432
X70.666Y-39.105
X70.666Y-81.105
X70.687Y-28.581
X70.687Y-70.581
X70.767Y-39.642
X70.767Y-81.642
X70.919Y-27.169
X70.919Y-69.169
X71.018Y-42.154
X71.018Y-84.154
X71.056Y-25.855
X71.056Y-67.855
X71.058Y-22.947
X71.058Y-64.947
X71.12Y-15.665
X71.12Y-57.665
X71.216Y-40.924
X71.216Y-82.924
X71.6Y-33.305
X71.6Y-75.305
X71.754Y-40.68
X71.754Y-82.68
X71.821Y-39.514
X71.821Y-81.514
X71.83Y-32.68
X71.83Y-74.68
X71.863Y-41.798
X71.863Y-83.798
X71.893Y-34.613
X71.893Y-76.613
X72.013Y-8.835
X72.013Y-50.835
X72.104Y-44.022
X72.104Y-86.022
X72.13Y-21.515
X72.13Y-63.515
X72.146Y-33.183
X72.146Y-75.183
X72.2Y-30.571
X72.2Y-72.571
X72.208Y-32.28
X72.208Y-74.28
X72.23Y-6.366
X72.23Y-48.366
X72.25Y-29.135
X72.25Y-71.135
X72.312Y-34.963
X72.312Y-76.963
X72.32Y-31.479
X72.32Y-73.479
X72.619Y-34.485
X72.619Y-76.485
X72.63Y-5.995
X72.63Y-47.995
X73.0Y-30.316
X73.0Y-72.316
X73.009Y-33.474
X73.009Y-75.474
X73.01Y-21.515
X73.01Y-63.515
X73.02Y-19.885
X73.02Y-20.705
X73.02Y-61.885
X73.02Y-62.705
X73.02Y-25.488
X73.02Y-67.488
X73.049Y-28.717
X73.049Y-70.717
X73.17Y-5.365
X73.17Y-47.365
X73.386Y-35.271
X73.386Y-77.271
X73.718Y-18.939
X73.718Y-60.939
X73.78Y-23.105
X73.78Y-65.105
X73.79Y-31.893
X73.79Y-73.893
X73.79Y-22.275
X73.79Y-64.275
X73.8Y-27.091
X73.8Y-69.091
X73.82Y-25.495
X73.82Y-32.705
X73.82Y-33.505
X73.82Y-67.495
X73.82Y-74.705
X73.82Y-75.505
X73.82Y-29.522
X73.82Y-71.522
X73.821Y-23.862
X73.821Y-65.862
X73.83Y-30.331
X73.83Y-72.331
X73.833Y-21.563
X73.833Y-63.563
X73.851Y-20.694
X73.851Y-62.694
X73.854Y-28.713
X73.854Y-70.713
X73.869Y-24.669
X73.869Y-66.669
X73.926Y-35.352
X73.926Y-77.352
X74.16Y-5.645
X74.16Y-47.645
X74.27Y-18.925
X74.27Y-60.925
X74.583Y-28.71
X74.583Y-70.71
X74.603Y-21.487
X74.603Y-63.487
X74.61Y-20.715
X74.61Y-62.715
X74.62Y-19.863
X74.62Y-31.105
X74.62Y-32.705
X74.62Y-33.505
X74.62Y-61.863
X74.62Y-73.105
X74.62Y-74.705
X74.62Y-75.505
X74.62Y-27.085
X74.62Y-31.905
X74.62Y-69.085
X74.62Y-73.905
X74.621Y-29.465
X74.621Y-71.465
X74.63Y-24.675
X74.63Y-66.675
X74.63Y-25.494
X74.63Y-67.494
X74.641Y-30.305
X74.641Y-72.305
X74.65Y-23.935
X74.65Y-65.935
X74.927Y-44.022
X74.927Y-86.022
X75.1Y-6.205
X75.1Y-48.205
X75.103Y-41.487
X75.103Y-83.487
X75.17Y-5.365
X75.17Y-47.365
X75.203Y-17.742
X75.203Y-59.742
X75.234Y-35.376
X75.234Y-77.376
X75.253Y-38.945
X75.253Y-80.945
X75.285Y-35.941
X75.285Y-77.941
X75.35Y-26.163
X75.35Y-68.163
X75.382Y-31.906
X75.382Y-73.906
X75.386Y-31.106
X75.386Y-73.106
X75.4Y-28.705
X75.4Y-70.705
X75.402Y-27.085
X75.402Y-69.085
X75.42Y-23.095
X75.42Y-32.706
X75.42Y-65.095
X75.42Y-74.706
X75.421Y-29.465
X75.421Y-71.465
X75.427Y-30.305
X75.427Y-72.305
X75.45Y-23.917
X75.45Y-65.917
X75.768Y-9.787
X75.768Y-51.787
X75.88Y-6.555
X75.88Y-48.555
X75.884Y-8.939
X75.884Y-50.939
X76.077Y-35.744
X76.077Y-77.744
X76.17Y-7.135
X76.17Y-49.135
X76.204Y-34.305
X76.204Y-76.305
X76.21Y-21.495
X76.21Y-26.277
X76.21Y-63.495
X76.21Y-68.277
X76.213Y-23.895
X76.213Y-65.895
X76.218Y-27.15
X76.218Y-69.15
X76.22Y-33.505
X76.22Y-75.505
X76.23Y-25.515
X76.23Y-67.515
X76.233Y-11.188
X76.233Y-53.188
X76.24Y-22.325
X76.24Y-64.325
X76.25Y-28.715
X76.25Y-70.715
X76.257Y-27.922
X76.257Y-69.922
X76.265Y-20.696
X76.265Y-62.696
X76.27Y-8.553
X76.27Y-50.553
X76.58Y-36.625
X76.58Y-78.625
X76.619Y-35.807
X76.619Y-77.807
X76.651Y-16.846
X76.651Y-58.846
X76.765Y-19.016
X76.765Y-61.016
X76.876Y-10.404
X76.876Y-52.404
X76.928Y-33.578
X76.928Y-75.578
X77.02Y-34.305
X77.02Y-76.305
X77.02Y-23.115
X77.02Y-65.115
X77.021Y-26.268
X77.021Y-68.269
X77.023Y-24.685
X77.023Y-66.685
X77.025Y-25.515
X77.025Y-67.515
X77.03Y-21.504
X77.03Y-63.504
X77.064Y-28.665
X77.064Y-70.665
X77.097Y-23.928
X77.097Y-65.928
X77.168Y-7.516
X77.168Y-49.516
X77.17Y-5.365
X77.17Y-47.365
X77.187Y-17.046
X77.187Y-59.046
X77.41Y-5.975
X77.41Y-47.975
X77.436Y-36.572
X77.436Y-78.572
X77.448Y-42.582
X77.448Y-84.582
X77.55Y-8.105
X77.55Y-50.105
X77.79Y-16.235
X77.79Y-58.235
X77.82Y-23.905
X77.82Y-65.905
X77.82Y-27.105
X77.82Y-69.105
X77.822Y-31.885
X77.822Y-73.885
X77.825Y-32.735
X77.825Y-74.735
X77.84Y-22.305
X77.84Y-64.305
X77.86Y-21.535
X77.86Y-63.535
X77.91Y-20.743
X77.91Y-62.743
X77.925Y-7.705
X77.925Y-49.705
X78.0Y-36.555
X78.0Y-78.555
X78.488Y-41.26
X78.488Y-83.26
X78.568Y-10.105
X78.568Y-52.105
X78.571Y-42.563
X78.571Y-84.563
X78.58Y-5.975
X78.58Y-47.975
X78.6Y-22.345
X78.6Y-64.345
X78.62Y-23.905
X78.62Y-25.505
X78.62Y-28.705
X78.62Y-65.905
X78.62Y-67.505
X78.62Y-70.705
X78.621Y-32.735
X78.621Y-74.735
X78.623Y-31.885
X78.623Y-73.885
X78.63Y-20.685
X78.63Y-62.685
X78.844Y-8.296
X78.844Y-50.296
X78.873Y-34.672
X78.873Y-76.672
X79.033Y-41.299
X79.033Y-83.299
X79.09Y-7.79
X79.09Y-49.79
X79.147Y-39.189
X79.147Y-81.189
X79.166Y-18.876
X79.166Y-60.876
X79.17Y-5.365
X79.17Y-47.365
X79.184Y-30.541
X79.184Y-72.541
X79.397Y-34.441
X79.397Y-76.441
X79.4Y-22.305
X79.4Y-64.305
X79.42Y-23.905
X79.42Y-27.905
X79.42Y-28.705
X79.42Y-32.735
X79.42Y-65.905
X79.42Y-69.905
X79.42Y-70.705
X79.42Y-74.735
X79.47Y-41.625
X79.47Y-83.625
X79.653Y-39.399
X79.653Y-81.399
X79.703Y-36.313
X79.703Y-78.313
X79.77Y-42.563
X79.77Y-84.563
X79.77Y-5.985
X79.77Y-47.985
X79.784Y-35.615
X79.784Y-77.615
X80.033Y-8.689
X80.033Y-50.689
X80.05Y-18.645
X80.05Y-60.645
X80.15Y-41.471
X80.15Y-83.471
X80.22Y-20.747
X80.22Y-62.747
X80.22Y-27.905
X80.22Y-28.705
X80.22Y-34.305
X80.22Y-69.905
X80.22Y-70.705
X80.22Y-76.305
X80.424Y-8.307
X80.424Y-50.307
X80.5Y-12.215
X80.5Y-54.215
X80.507Y-18.346
X80.507Y-60.346
X80.833Y-7.897
X80.833Y-49.897
X80.99Y-22.317
X80.99Y-64.317
X80.993Y-35.635
X80.993Y-77.635
X81.02Y-23.905
X81.02Y-27.905
X81.02Y-28.705
X81.02Y-32.735
X81.02Y-34.305
X81.02Y-65.905
X81.02Y-69.905
X81.02Y-70.705
X81.02Y-74.735
X81.02Y-76.305
X81.07Y-12.195
X81.07Y-54.195
X81.09Y-21.528
X81.09Y-63.528
X81.114Y-36.609
X81.114Y-78.609
X81.17Y-5.365
X81.17Y-47.365
X81.33Y-14.355
X81.33Y-56.355
X81.69Y-36.675
X81.69Y-78.675
X81.794Y-31.89
X81.794Y-73.89
X81.8Y-22.302
X81.8Y-64.302
X81.805Y-32.735
X81.805Y-74.735
X81.81Y-23.914
X81.81Y-65.914
X81.82Y-25.505
X81.82Y-28.705
X81.82Y-67.505
X81.82Y-70.705
X81.882Y-41.471
X81.882Y-83.471
X81.902Y-5.397
X81.902Y-47.397
X81.92Y-14.245
X81.92Y-56.245
X82.021Y-42.699
X82.021Y-84.699
X82.162Y-9.873
X82.162Y-51.873
X82.2Y-12.692
X82.2Y-54.692
X82.202Y-36.877
X82.202Y-78.877
X82.21Y-13.248
X82.21Y-55.248
X82.288Y-5.783
X82.288Y-47.783
X82.39Y-41.835
X82.39Y-83.835
X82.44Y-13.775
X82.44Y-55.775
X82.491Y-27.105
X82.491Y-69.105
X82.537Y-24.113
X82.537Y-66.113
X82.564Y-42.77
X82.564Y-84.77
X82.57Y-8.151
X82.57Y-50.151
X82.62Y-22.305
X82.62Y-31.902
X82.62Y-64.305
X82.62Y-73.902
X82.637Y-21.522
X82.637Y-63.522
X82.64Y-32.811
X82.64Y-74.811
X82.643Y-23.035
X82.643Y-65.035
X82.684Y-41.349
X82.684Y-83.349
X82.69Y-30.695
X82.69Y-72.695
X82.925Y-8.689
X82.925Y-50.689
X82.979Y-42.407
X82.979Y-84.407
X83.158Y-5.583
X83.158Y-47.583
X83.19Y-30.455
X83.19Y-72.455
X83.216Y-41.473
X83.216Y-83.473
X83.276Y-9.961
X83.276Y-51.961
X83.337Y-18.536
X83.337Y-60.536
X83.353Y-26.315
X83.353Y-68.315
X83.365Y-42.795
X83.365Y-84.795
X83.4Y-23.905
X83.4Y-65.905
X83.404Y-24.705
X83.404Y-66.705
X83.405Y-25.528
X83.405Y-67.528
X83.42Y-19.925
X83.42Y-28.705
X83.42Y-61.925
X83.42Y-70.705
X83.427Y-20.685
X83.427Y-62.685
X83.461Y-23.105
X83.461Y-65.105
X83.51Y-42.265
X83.51Y-84.265
X83.537Y-7.996
X83.537Y-49.996
X83.584Y-12.753
X83.584Y-54.754
X83.612Y-39.3
X83.612Y-81.3
X83.759Y-41.358
X83.759Y-83.358
X83.85Y-17.792
X83.85Y-59.792
X83.94Y-18.597
X83.94Y-60.597
X83.95Y-39.954
X83.95Y-81.954
X84.062Y-7.845
X84.062Y-49.845
X84.17Y-42.765
X84.17Y-84.765
X84.192Y-27.098
X84.192Y-69.098
X84.206Y-31.894
X84.206Y-73.894
X84.208Y-33.509
X84.208Y-75.509
X84.22Y-23.909
X84.22Y-65.909
X84.22Y-25.491
X84.22Y-67.492
X84.224Y-24.667
X84.224Y-66.667
X84.23Y-22.325
X84.23Y-64.325
X84.24Y-21.445
X84.24Y-63.445
X84.24Y-34.276
X84.24Y-76.276
X84.247Y-26.292
X84.247Y-68.292
X84.412Y-39.664
X84.412Y-81.664
X84.491Y-8.182
X84.491Y-50.182
X84.51Y-5.387
X84.51Y-5.933
X84.51Y-47.387
X84.51Y-47.933
X84.57Y-8.787
X84.57Y-50.787
X84.571Y-35.455
X84.571Y-77.455
X84.691Y-17.83
X84.691Y-59.83
X84.696Y-42.619
X84.696Y-84.619
X84.787Y-17.293
X84.787Y-59.293
X84.803Y-44.129
X84.803Y-86.129
X84.88Y-16.46
X84.88Y-58.46
X84.983Y-33.593
X84.983Y-75.593
X85.0Y-25.515
X85.0Y-67.515
X85.0Y-29.505
X85.0Y-71.505
X85.006Y-31.964
X85.006Y-73.964
X85.01Y-28.686
X85.01Y-70.686
X85.01Y-22.325
X85.01Y-23.105
X85.01Y-64.325
X85.01Y-65.105
X85.02Y-23.906
X85.02Y-65.906
X85.02Y-27.078
X85.02Y-69.078
X85.03Y-27.905
X85.03Y-69.905
X85.04Y-34.305
X85.04Y-76.305
X85.041Y-38.426
X85.041Y-80.427
X85.047Y-26.315
X85.047Y-68.315
X85.047Y-31.03
X85.047Y-73.03
X85.062Y-30.215
X85.062Y-72.215
X85.067Y-41.499
X85.067Y-83.499
X85.095Y-35.61
X85.095Y-77.61
X85.349Y-16.036
X85.349Y-58.036
X85.417Y-5.466
X85.417Y-47.466
X85.501Y-41.83
X85.501Y-83.83
X85.706Y-15.475
X85.706Y-57.475
X85.72Y-39.795
X85.72Y-81.795
X85.75Y-42.772
X85.75Y-84.772
X85.751Y-32.681
X85.751Y-74.681
X85.788Y-23.095
X85.788Y-65.095
X85.803Y-5.853
X85.803Y-47.853
X85.81Y-31.936
X85.81Y-73.936
X85.81Y-22.285
X85.81Y-64.285
X85.811Y-25.505
X85.811Y-67.505
X85.813Y-13.106
X85.813Y-55.106
X85.82Y-27.905
X85.82Y-69.905
X85.821Y-24.705
X85.821Y-66.705
X85.823Y-33.535
X85.823Y-75.535
X85.823Y-23.895
X85.823Y-65.895
X85.824Y-27.073
X85.824Y-69.073
X85.844Y-28.717
X85.844Y-70.717
X85.86Y-29.435
X85.86Y-71.435
X85.863Y-42.238
X85.863Y-84.238
X85.884Y-41.312
X85.884Y-83.312
X85.895Y-35.594
X85.895Y-77.594
X86.019Y-17.768
X86.019Y-59.768
X86.022Y-15.029
X86.022Y-57.029
X86.168Y-14.503
X86.168Y-56.503
X86.218Y-35.143
X86.218Y-77.143
X86.409Y-42.241
X86.409Y-84.241
X86.551Y-32.683
X86.551Y-74.683
X86.57Y-23.915
X86.57Y-65.915
X86.59Y-23.105
X86.59Y-65.105
X86.597Y-21.502
X86.597Y-63.502
X86.61Y-27.057
X86.61Y-69.057
X86.615Y-19.153
X86.615Y-61.153
X86.615Y-25.468
X86.615Y-67.468
X86.62Y-27.863
X86.62Y-69.863
X86.63Y-19.915
X86.63Y-61.915
X86.63Y-20.715
X86.63Y-26.285
X86.63Y-62.715
X86.63Y-68.285
X86.636Y-22.283
X86.636Y-64.283
X86.64Y-31.12
X86.64Y-73.12
X86.65Y-28.707
X86.65Y-70.707
X86.66Y-33.485
X86.66Y-75.485
X86.673Y-7.849
X86.673Y-49.849
X86.691Y-17.512
X86.691Y-59.512
X86.693Y-12.806
X86.693Y-54.806
X86.804Y-42.64
X86.804Y-84.64
X86.846Y-14.99
X86.846Y-56.99
X86.97Y-6.075
X86.97Y-48.075
X87.01Y-16.051
X87.01Y-58.051
X87.06Y-8.234
X87.06Y-50.234
X87.161Y-17.79
X87.161Y-59.79
X87.192Y-41.855
X87.192Y-83.855
X87.28Y-35.342
X87.28Y-77.342
X87.282Y-39.735
X87.282Y-81.735
X87.383Y-43.985
X87.383Y-85.985
X87.396Y-33.494
X87.396Y-75.494
X87.401Y-41.294
X87.401Y-83.294
X87.42Y-26.335
X87.42Y-34.335
X87.42Y-68.335
X87.42Y-76.335
X87.425Y-16.451
X87.425Y-58.451
X87.45Y-19.945
X87.45Y-61.945
X87.46Y-25.507
X87.46Y-67.507
X87.469Y-8.595
X87.469Y-50.595
X87.56Y-34.873
X87.56Y-76.873
X87.7Y-42.165
X87.7Y-84.165
X87.757Y-40.012
X87.757Y-82.012
X87.83Y-19.545
X87.83Y-61.545
X87.86Y-41.59
X87.86Y-83.59
X87.869Y-7.988
X87.869Y-49.988
X87.928Y-42.713
X87.928Y-84.713
X88.08Y-5.345
X88.08Y-47.345
X88.1Y-43.985
X88.1Y-85.985
X88.17Y-6.055
X88.17Y-36.585
X88.17Y-48.055
X88.17Y-78.585
X88.372Y-25.907
X88.372Y-67.907
X88.405Y-7.883
X88.405Y-49.883
X88.44Y-19.145
X88.44Y-61.145
X88.552Y-39.756
X88.552Y-81.756
X88.646Y-44.069
X88.646Y-86.069
X88.65Y-13.975
X88.65Y-55.975
X88.771Y-8.643
X88.771Y-50.643
X88.811Y-26.309
X88.811Y-68.309
X88.886Y-25.255
X88.886Y-67.255
X88.983Y-23.418
X88.983Y-65.418
X88.988Y-29.799
X88.988Y-71.799
X88.99Y-42.725
X88.99Y-84.725
X89.004Y-13.043
X89.004Y-55.043
X89.011Y-41.211
X89.011Y-83.211
X89.051Y-39.978
X89.051Y-81.979
X89.083Y-7.837
X89.083Y-49.837
X89.1Y-21.995
X89.1Y-63.995
X89.315Y-8.693
X89.315Y-50.693
X89.317Y-13.922
X89.317Y-55.922
X89.37Y-6.065
X89.37Y-48.065
X89.403Y-25.062
X89.403Y-67.062
X89.54Y-7.321
X89.54Y-49.321
X89.542Y-41.34
X89.542Y-83.34
X89.59Y-21.233
X89.59Y-63.233
X89.683Y-29.801
X89.683Y-71.801
X89.75Y-23.125
X89.75Y-65.125
X89.78Y-28.015
X89.78Y-70.015
X90.08Y-5.345
X90.08Y-47.345
X90.088Y-41.247
X90.088Y-83.247
X90.096Y-7.236
X90.096Y-49.236
X90.17Y-42.775
X90.17Y-84.775
X90.25Y-13.905
X90.25Y-55.905
X90.27Y-34.395
X90.27Y-76.395
X90.461Y-8.285
X90.461Y-50.285
X90.52Y-44.055
X90.52Y-86.055
X90.53Y-10.015
X90.53Y-52.015
X90.536Y-26.01
X90.536Y-68.01
X90.55Y-27.555
X90.55Y-69.555
X90.56Y-5.955
X90.56Y-47.955
X90.757Y-26.754
X90.757Y-68.754
X90.87Y-12.705
X90.87Y-34.425
X90.87Y-54.705
X90.87Y-76.425
X90.878Y-7.249
X90.878Y-49.249
X91.025Y-24.245
X91.025Y-66.245
X91.065Y-25.872
X91.065Y-67.872
X91.072Y-36.343
X91.072Y-78.343
X91.24Y-44.055
X91.24Y-86.055
X91.271Y-26.949
X91.271Y-68.949
X91.453Y-42.751
X91.453Y-84.751
X91.485Y-7.291
X91.485Y-49.291
X91.52Y-14.578
X91.52Y-56.578
X91.62Y-33.655
X91.62Y-75.655
X91.72Y-35.635
X91.72Y-36.255
X91.72Y-77.635
X91.72Y-78.255
X91.722Y-27.257
X91.722Y-69.257
X91.75Y-40.045
X91.75Y-82.045
X91.77Y-5.965
X91.77Y-47.965
X91.889Y-8.728
X91.889Y-50.728
X91.932Y-14.14
X91.932Y-56.14
X92.04Y-7.283
X92.04Y-49.283
X92.08Y-5.345
X92.08Y-47.345
X92.09Y-12.395
X92.09Y-54.395
X92.15Y-33.975
X92.15Y-75.975
X92.39Y-13.282
X92.39Y-13.828
X92.39Y-55.282
X92.39Y-55.828
X92.43Y-44.475
X92.43Y-86.475
X92.53Y-34.445
X92.53Y-76.445
X92.56Y-35.82
X92.56Y-77.82
X92.636Y-7.331
X92.636Y-49.331
X92.638Y-42.695
X92.638Y-84.695
X92.65Y-41.596
X92.65Y-83.596
X92.668Y-35.177
X92.668Y-77.177
X92.97Y-5.985
X92.97Y-47.985
X92.983Y-8.002
X92.983Y-50.002
X93.02Y-12.535
X93.02Y-54.535
X93.204Y-8.635
X93.204Y-50.635
X93.236Y-7.425
X93.236Y-49.425
X93.26Y-14.265
X93.26Y-56.265
X93.334Y-42.085
X93.334Y-84.085
X93.374Y-42.915
X93.374Y-84.915
X93.53Y-12.945
X93.53Y-54.945
X93.75Y-8.635
X93.75Y-50.635
X93.786Y-7.211
X93.786Y-49.211
X94.057Y-38.022
X94.057Y-80.022
X94.08Y-5.345
X94.08Y-39.975
X94.08Y-47.345
X94.08Y-81.975
X94.12Y-9.985
X94.12Y-51.985
X94.18Y-5.955
X94.18Y-47.955
X94.19Y-44.495
X94.19Y-86.495
X94.191Y-42.623
X94.191Y-84.623
X94.298Y-41.311
X94.298Y-83.311
X94.547Y-19.475
X94.547Y-61.475
X94.63Y-20.958
X94.63Y-62.958
X94.64Y-7.585
X94.64Y-49.585
X94.673Y-12.541
X94.673Y-54.541
X94.79Y-24.627
X94.79Y-66.627
X94.835Y-39.978
X94.835Y-81.978
X94.89Y-35.855
X94.89Y-77.855
X95.103Y-12.877
X95.103Y-54.877
X95.187Y-13.692
X95.187Y-55.692
X95.306Y-7.341
X95.306Y-49.341
X95.36Y-5.985
X95.36Y-47.985
X95.41Y-8.775
X95.41Y-50.775
X95.48Y-20.675
X95.48Y-62.675
X95.508Y-24.613
X95.508Y-66.613
X95.51Y-25.445
X95.51Y-67.445
X95.573Y-14.078
X95.573Y-56.078
X95.7Y-41.695
X95.7Y-83.695
X95.76Y-39.778
X95.76Y-81.778
X95.88Y-44.525
X95.88Y-86.525
X96.08Y-5.345
X96.08Y-47.345
X96.18Y-41.342
X96.18Y-83.342
X96.31Y-20.705
X96.31Y-62.705
X96.455Y-13.702
X96.455Y-55.702
X96.46Y-35.715
X96.46Y-77.715
X96.461Y-14.248
X96.461Y-56.248
X96.545Y-9.902
X96.545Y-51.902
X96.66Y-15.455
X96.66Y-57.455
X96.85Y-14.665
X96.85Y-56.665
X96.854Y-42.013
X96.854Y-84.013
X96.96Y-42.715
X96.96Y-84.715
X97.05Y-8.705
X97.05Y-50.705
X97.09Y-20.695
X97.09Y-62.695
X97.1Y-24.635
X97.1Y-66.635
X97.175Y-41.545
X97.175Y-83.545
X97.425Y-15.165
X97.425Y-57.165
X97.88Y-20.675
X97.88Y-62.675
X97.9Y-24.675
X97.9Y-66.675
X98.06Y-6.905
X98.06Y-48.905
X98.247Y-9.167
X98.247Y-51.167
X98.47Y-6.515
X98.47Y-48.515
X98.663Y-20.66
X98.663Y-62.661
X98.67Y-9.525
X98.67Y-51.525
X98.71Y-24.696
X98.71Y-66.696
X98.73Y-43.725
X98.73Y-85.725
X98.94Y-12.805
X98.94Y-54.805
X99.56Y-5.415
X99.56Y-47.415
X99.82Y-44.515
X99.82Y-86.515
X100.063Y-32.019
X100.063Y-74.019
X100.4Y-27.475
X100.4Y-69.475
X100.5Y-41.105
X100.5Y-83.105
X100.79Y-32.019
X100.79Y-74.019
X101.54Y-40.155
X101.54Y-82.155
X101.67Y-43.965
X101.67Y-85.965
X101.69Y-43.365
X101.69Y-85.365
X101.81Y-26.085
X101.81Y-68.085
X101.96Y-19.465
X101.96Y-61.465
X102.21Y-40.72
X102.21Y-82.72
X102.275Y-35.964
X102.275Y-77.965
X102.31Y-37.845
X102.31Y-79.845
X102.419Y-25.862
X102.419Y-67.862
X102.935Y-36.82
X102.935Y-78.82
X103.08Y-5.345
X103.08Y-47.345
X103.142Y-25.865
X103.142Y-67.865
X103.23Y-15.685
X103.23Y-57.685
X103.341Y-16.298
X103.341Y-58.298
X103.48Y-41.515
X103.48Y-83.515
X103.5Y-42.085
X103.5Y-84.085
X103.805Y-11.572
X103.805Y-53.572
X103.99Y-42.494
X103.99Y-43.04
X103.99Y-84.494
X103.99Y-85.04
X104.193Y-11.172
X104.193Y-53.172
X104.53Y-6.982
X104.53Y-7.528
X104.53Y-48.982
X104.53Y-49.528
X104.56Y-9.348
X104.56Y-51.348
X104.567Y-8.793
X104.567Y-50.793
X104.751Y-26.587
X104.751Y-68.587
X104.86Y-25.966
X104.86Y-67.966
X104.898Y-27.183
X104.898Y-69.183
X104.93Y-16.535
X104.93Y-58.535
X105.08Y-5.345
X105.08Y-47.345
X105.19Y-10.475
X105.19Y-52.475
X105.847Y-19.419
X105.847Y-61.419
X105.99Y-29.775
X105.99Y-71.775
X106.349Y-12.3
X106.349Y-54.3
X106.38Y-21.823
X106.38Y-63.823
X107.08Y-5.345
X107.08Y-47.345
X107.163Y-20.248
X107.163Y-62.248
X107.208Y-19.518
X107.208Y-61.518
X107.33Y-44.615
X107.33Y-86.615
X107.825Y-15.929
X107.825Y-57.929
X109.4Y-11.345
X109.4Y-53.345
X109.5Y-22.775
X109.5Y-64.775
X110.17Y-5.535
X110.17Y-47.535
X111.38Y-43.425
X111.38Y-85.425
X111.88Y-8.545
X111.88Y-11.095
X111.88Y-13.095
X111.88Y-15.095
X111.88Y-17.095
X111.88Y-19.095
X111.88Y-21.095
X111.88Y-23.095
X111.88Y-25.095
X111.88Y-27.095
X111.88Y-29.095
X111.88Y-41.095
X111.88Y-50.545
X111.88Y-53.095
X111.88Y-55.095
X111.88Y-57.095
X111.88Y-59.095
X111.88Y-61.095
X111.88Y-63.095
X111.88Y-65.095
X111.88Y-67.095
X111.88Y-69.095
X111.88Y-71.095
X111.88Y-83.095
T2
X2.79Y-10.945
X2.79Y-52.945
X4.31Y-14.525
X4.31Y-56.525
X4.34Y-15.345
X4.34Y-57.345
X4.89Y-11.055
X4.89Y-53.055
X5.08Y-21.74
X5.08Y-63.74
X5.933Y-15.149
X5.933Y-57.149
X7.226Y-43.42
X7.226Y-85.42
X10.061Y-17.397
X10.061Y-59.397
X10.718Y-19.435
X10.718Y-61.435
X28.533Y-36.455
X28.533Y-78.455
X41.32Y-29.135
X41.32Y-71.135
X41.61Y-37.055
X41.61Y-79.055
X41.947Y-28.172
X41.947Y-70.172
X42.45Y-17.332
X42.45Y-59.332
X45.32Y-28.245
X45.32Y-70.245
X45.695Y-29.195
X45.695Y-71.195
X45.725Y-27.696
X45.725Y-69.696
X46.169Y-40.739
X46.169Y-82.739
X46.19Y-28.245
X46.19Y-70.245
X46.475Y-37.37
X46.475Y-79.37
X46.74Y-14.175
X46.74Y-56.175
X47.469Y-39.494
X47.469Y-81.494
X47.473Y-31.618
X47.473Y-73.618
X47.475Y-36.995
X47.475Y-37.745
X47.475Y-78.995
X47.475Y-79.745
X48.425Y-37.37
X48.425Y-79.37
X53.508Y-27.372
X53.508Y-69.372
X59.9Y-10.945
X59.9Y-52.945
X61.42Y-14.525
X61.42Y-56.525
X61.45Y-15.345
X61.45Y-57.345
X62.0Y-11.055
X62.0Y-53.055
X62.19Y-21.74
X62.19Y-63.74
X63.043Y-15.149
X63.043Y-57.149
X64.336Y-43.42
X64.336Y-85.42
X67.171Y-17.397
X67.171Y-59.397
X67.828Y-19.435
X67.828Y-61.435
X85.643Y-36.455
X85.643Y-78.455
X98.43Y-29.135
X98.43Y-71.135
X98.72Y-37.055
X98.72Y-79.055
X99.057Y-28.172
X99.057Y-70.172
X99.56Y-17.332
X99.56Y-59.332
X102.43Y-28.245
X102.43Y-70.245
X102.805Y-29.195
X102.805Y-71.195
X102.835Y-27.696
X102.835Y-69.696
X103.279Y-40.739
X103.279Y-82.739
X103.3Y-28.245
X103.3Y-70.245
X103.585Y-37.37
X103.585Y-79.37
X103.85Y-14.175
X103.85Y-56.175
X104.579Y-39.494
X104.579Y-81.494
X104.583Y-31.618
X104.583Y-73.618
X104.585Y-36.995
X104.585Y-37.745
X104.585Y-78.995
X104.585Y-79.745
X105.535Y-37.37
X105.535Y-79.37
X110.618Y-27.372
X110.618Y-69.372
T3
X2.14Y-35.695
X2.14Y-36.695
X2.14Y-37.695
X2.14Y-38.695
X2.14Y-77.695
X2.14Y-78.695
X2.14Y-79.695
X2.14Y-80.695
X3.14Y-35.695
X3.14Y-36.695
X3.14Y-37.695
X3.14Y-38.695
X3.14Y-77.695
X3.14Y-78.695
X3.14Y-79.695
X3.14Y-80.695
X44.0Y-5.925
X44.0Y-6.925
X44.0Y-7.925
X44.0Y-8.925
X44.0Y-9.925
X44.0Y-10.925
X44.0Y-11.925
X44.0Y-47.925
X44.0Y-48.925
X44.0Y-49.925
X44.0Y-50.925
X44.0Y-51.925
X44.0Y-52.925
X44.0Y-53.925
X59.25Y-35.695
X59.25Y-36.695
X59.25Y-37.695
X59.25Y-38.695
X59.25Y-77.695
X59.25Y-78.695
X59.25Y-79.695
X59.25Y-80.695
X60.25Y-35.695
X60.25Y-36.695
X60.25Y-37.695
X60.25Y-38.695
X60.25Y-77.695
X60.25Y-78.695
X60.25Y-79.695
X60.25Y-80.695
X101.11Y-5.925
X101.11Y-6.925
X101.11Y-7.925
X101.11Y-8.925
X101.11Y-9.925
X101.11Y-10.925
X101.11Y-11.925
X101.11Y-47.925
X101.11Y-48.925
X101.11Y-49.925
X101.11Y-50.925
X101.11Y-51.925
X101.11Y-52.925
X101.11Y-53.925
T4
X54.07Y-31.265
X54.07Y-33.805
X54.07Y-36.345
X54.07Y-38.885
X54.07Y-73.265
X54.07Y-75.805
X54.07Y-78.345
X54.07Y-80.885
X111.18Y-31.265
X111.18Y-33.805
X111.18Y-36.345
X111.18Y-38.885
X111.18Y-73.265
X111.18Y-75.805
X111.18Y-78.345
X111.18Y-80.885
T5
X3.52Y-41.579
X3.52Y-83.579
X3.52Y-8.5
X3.52Y-50.5
X51.52Y-8.5
X51.52Y-41.575
X51.52Y-50.5
X51.52Y-83.575
X60.63Y-41.579
X60.63Y-83.579
X60.63Y-8.5
X60.63Y-50.5
X108.63Y-8.5
X108.63Y-41.575
X108.63Y-50.5
X108.63Y-83.575
T6
X2.5Y-1.5
X2.5Y-90.5
X109.72Y-1.5
X109.72Y-90.5
T0
M30
