G04 #@! TF.GenerationSoftware,KiCad,Pcbnew,5.1.9+dfsg1-1+deb11u1*
G04 #@! TF.CreationDate,2022-10-19T12:30:35+02:00*
G04 #@! TF.ProjectId,ulx4m-panel,756c7834-6d2d-4706-916e-656c2e6b6963,v0.0.3*
G04 #@! TF.SameCoordinates,Original*
G04 #@! TF.FileFunction,Other,Comment*
%FSLAX46Y46*%
G04 Gerber Fmt 4.6, Leading zero omitted, Abs format (unit mm)*
G04 Created by KiCad (PCBNEW 5.1.9+dfsg1-1+deb11u1) date 2022-10-19 12:30:35*
%MOMM*%
%LPD*%
G01*
G04 APERTURE LIST*
%ADD10C,0.400000*%
G04 APERTURE END LIST*
D10*
X56019761Y6450477D02*
X58019761Y7117143D01*
X56019761Y7783810D01*
X57257857Y8450477D02*
X57257857Y9974286D01*
X57829285Y12069524D02*
X57924523Y11974286D01*
X58019761Y11688572D01*
X58019761Y11498096D01*
X57924523Y11212381D01*
X57734047Y11021905D01*
X57543571Y10926667D01*
X57162619Y10831429D01*
X56876904Y10831429D01*
X56495952Y10926667D01*
X56305476Y11021905D01*
X56115000Y11212381D01*
X56019761Y11498096D01*
X56019761Y11688572D01*
X56115000Y11974286D01*
X56210238Y12069524D01*
X56019761Y12926667D02*
X57638809Y12926667D01*
X57829285Y13021905D01*
X57924523Y13117143D01*
X58019761Y13307620D01*
X58019761Y13688572D01*
X57924523Y13879048D01*
X57829285Y13974286D01*
X57638809Y14069524D01*
X56019761Y14069524D01*
X56019761Y14736191D02*
X56019761Y15879047D01*
X58019761Y15307619D02*
X56019761Y15307619D01*
X57115000Y3000000D02*
X57115000Y-95000014D01*
X54009761Y6450477D02*
X56009761Y7117143D01*
X54009761Y7783810D01*
X55247857Y8450477D02*
X55247857Y9974286D01*
X55819285Y12069524D02*
X55914523Y11974286D01*
X56009761Y11688572D01*
X56009761Y11498096D01*
X55914523Y11212381D01*
X55724047Y11021905D01*
X55533571Y10926667D01*
X55152619Y10831429D01*
X54866904Y10831429D01*
X54485952Y10926667D01*
X54295476Y11021905D01*
X54105000Y11212381D01*
X54009761Y11498096D01*
X54009761Y11688572D01*
X54105000Y11974286D01*
X54200238Y12069524D01*
X54009761Y12926667D02*
X55628809Y12926667D01*
X55819285Y13021905D01*
X55914523Y13117143D01*
X56009761Y13307620D01*
X56009761Y13688572D01*
X55914523Y13879048D01*
X55819285Y13974286D01*
X55628809Y14069524D01*
X54009761Y14069524D01*
X54009761Y14736191D02*
X54009761Y15879047D01*
X56009761Y15307619D02*
X54009761Y15307619D01*
X55105000Y3000000D02*
X55105000Y-95000014D01*
X118670478Y-45904764D02*
X119337144Y-47904764D01*
X120003811Y-45904764D01*
X120670478Y-47142860D02*
X122194287Y-47142860D01*
X124289525Y-47714288D02*
X124194287Y-47809526D01*
X123908573Y-47904764D01*
X123718097Y-47904764D01*
X123432382Y-47809526D01*
X123241906Y-47619050D01*
X123146668Y-47428574D01*
X123051430Y-47047622D01*
X123051430Y-46761907D01*
X123146668Y-46380955D01*
X123241906Y-46190479D01*
X123432382Y-46000003D01*
X123718097Y-45904764D01*
X123908573Y-45904764D01*
X124194287Y-46000003D01*
X124289525Y-46095241D01*
X125146668Y-45904764D02*
X125146668Y-47523812D01*
X125241906Y-47714288D01*
X125337144Y-47809526D01*
X125527621Y-47904764D01*
X125908573Y-47904764D01*
X126099049Y-47809526D01*
X126194287Y-47714288D01*
X126289525Y-47523812D01*
X126289525Y-45904764D01*
X126956192Y-45904764D02*
X128099049Y-45904764D01*
X127527621Y-47904764D02*
X127527621Y-45904764D01*
X-3000000Y-47000003D02*
X115220002Y-47000003D01*
X118670478Y-85904764D02*
X119337144Y-87904764D01*
X120003811Y-85904764D01*
X120670478Y-87142860D02*
X122194287Y-87142860D01*
X124289525Y-87714288D02*
X124194287Y-87809526D01*
X123908573Y-87904764D01*
X123718097Y-87904764D01*
X123432382Y-87809526D01*
X123241906Y-87619050D01*
X123146668Y-87428574D01*
X123051430Y-87047622D01*
X123051430Y-86761907D01*
X123146668Y-86380955D01*
X123241906Y-86190479D01*
X123432382Y-86000003D01*
X123718097Y-85904764D01*
X123908573Y-85904764D01*
X124194287Y-86000003D01*
X124289525Y-86095241D01*
X125146668Y-85904764D02*
X125146668Y-87523812D01*
X125241906Y-87714288D01*
X125337144Y-87809526D01*
X125527621Y-87904764D01*
X125908573Y-87904764D01*
X126099049Y-87809526D01*
X126194287Y-87714288D01*
X126289525Y-87523812D01*
X126289525Y-85904764D01*
X126956192Y-85904764D02*
X128099049Y-85904764D01*
X127527621Y-87904764D02*
X127527621Y-85904764D01*
X-3000000Y-87000003D02*
X115220002Y-87000003D01*
X118670478Y-43904764D02*
X119337144Y-45904764D01*
X120003811Y-43904764D01*
X120670478Y-45142860D02*
X122194287Y-45142860D01*
X124289525Y-45714288D02*
X124194287Y-45809526D01*
X123908573Y-45904764D01*
X123718097Y-45904764D01*
X123432382Y-45809526D01*
X123241906Y-45619050D01*
X123146668Y-45428574D01*
X123051430Y-45047622D01*
X123051430Y-44761907D01*
X123146668Y-44380955D01*
X123241906Y-44190479D01*
X123432382Y-44000003D01*
X123718097Y-43904764D01*
X123908573Y-43904764D01*
X124194287Y-44000003D01*
X124289525Y-44095241D01*
X125146668Y-43904764D02*
X125146668Y-45523812D01*
X125241906Y-45714288D01*
X125337144Y-45809526D01*
X125527621Y-45904764D01*
X125908573Y-45904764D01*
X126099049Y-45809526D01*
X126194287Y-45714288D01*
X126289525Y-45523812D01*
X126289525Y-43904764D01*
X126956192Y-43904764D02*
X128099049Y-43904764D01*
X127527621Y-45904764D02*
X127527621Y-43904764D01*
X-3000000Y-45000003D02*
X115220002Y-45000003D01*
X118670478Y-3904764D02*
X119337144Y-5904764D01*
X120003811Y-3904764D01*
X120670478Y-5142860D02*
X122194287Y-5142860D01*
X124289525Y-5714288D02*
X124194287Y-5809526D01*
X123908573Y-5904764D01*
X123718097Y-5904764D01*
X123432382Y-5809526D01*
X123241906Y-5619050D01*
X123146668Y-5428574D01*
X123051430Y-5047622D01*
X123051430Y-4761907D01*
X123146668Y-4380955D01*
X123241906Y-4190479D01*
X123432382Y-4000003D01*
X123718097Y-3904764D01*
X123908573Y-3904764D01*
X124194287Y-4000003D01*
X124289525Y-4095241D01*
X125146668Y-3904764D02*
X125146668Y-5523812D01*
X125241906Y-5714288D01*
X125337144Y-5809526D01*
X125527621Y-5904764D01*
X125908573Y-5904764D01*
X126099049Y-5809526D01*
X126194287Y-5714288D01*
X126289525Y-5523812D01*
X126289525Y-3904764D01*
X126956192Y-3904764D02*
X128099049Y-3904764D01*
X127527621Y-5904764D02*
X127527621Y-3904764D01*
X-3000000Y-5000003D02*
X115220002Y-5000003D01*
M02*
